<?xml version="1.0" encoding="UTF-8" standalone="no"?><svg xmlns="http://www.w3.org/2000/svg" xmlns:xlink="http://www.w3.org/1999/xlink" contentScriptType="application/ecmascript" contentStyleType="text/css" height="668px" preserveAspectRatio="none" style="width:597px;height:668px;background:#FFFFFF;" version="1.1" viewBox="0 0 597 668" width="597px" zoomAndPan="magnify"><defs><filter height="300%" id="fvmnd09vdscxd" width="300%" x="-1" y="-1"><feGaussianBlur result="blurOut" stdDeviation="2.0"/><feColorMatrix in="blurOut" result="blurOut2" type="matrix" values="0 0 0 0 0 0 0 0 0 0 0 0 0 0 0 0 0 0 .4 0"/><feOffset dx="4.0" dy="4.0" in="blurOut2" result="blurOut3"/><feBlend in="SourceGraphic" in2="blurOut3" mode="normal"/></filter></defs><g><!--MD5=[df38be88ccee13e832d6fafd6288a4ca]
class Test--><rect codeLine="3" fill="#FEFECE" filter="url(#fvmnd09vdscxd)" height="103.3438" id="Test" style="stroke:#A80036;stroke-width:1.5;" width="74" x="217" y="384"/><ellipse cx="240.1" cy="400" fill="#ADD1B2" rx="11" ry="11" style="stroke:#A80036;stroke-width:1.0;"/><path d="M242.1,396.5 Q242.3031,396 242.5375,395.75 Q242.7719,395.5 243.0375,395.5 Q243.5063,395.5 243.8031,395.7813 Q244.1,396.0625 244.1,396.7188 L244.1,398.2813 Q244.1,398.9375 243.8188,399.2188 Q243.5375,399.5 243.1,399.5 Q242.7094,399.5 242.4594,399.3281 Q242.2094,399.1563 242.1,398.7031 Q242.0531,398.3906 241.8813,398.2188 Q241.5688,397.8906 241.0063,397.7031 Q240.4438,397.5 239.8813,397.5 Q239.1781,397.5 238.5844,397.7813 Q238.0063,398.0625 237.5531,398.6875 Q237.1,399.3125 237.1,400.1719 L237.1,401.0938 Q237.1,402.125 237.9438,402.8125 Q238.7875,403.5 240.2875,403.5 Q241.1781,403.5 241.8031,403.2969 Q242.1625,403.1875 242.5688,402.8281 Q242.8344,402.625 242.975,402.5625 Q243.1156,402.5 243.2875,402.5 Q243.6156,402.5 243.85,402.7656 Q244.1,403.0156 244.1,403.375 Q244.1,403.7188 243.7563,404.125 Q243.2563,404.7188 242.4594,405.0469 Q241.4125,405.5 240.1313,405.5 Q238.6313,405.5 237.4281,404.9063 Q236.4594,404.4375 235.7719,403.4219 Q235.1,402.4063 235.1,401.2031 L235.1,400.1094 Q235.1,398.8594 235.6938,397.7656 Q236.3031,396.6719 237.35,396.0938 Q238.4125,395.5 239.6,395.5 Q240.3188,395.5 240.9438,395.75 Q241.5688,396 242.1,396.5 Z " fill="#000000"/><text fill="#000000" font-family="sans-serif" font-size="12" lengthAdjust="spacing" textLength="24" x="255.9" y="404.9102">Test</text><line style="stroke:#A80036;stroke-width:1.5;" x1="218" x2="290" y1="416" y2="416"/><rect fill="none" height="6" style="stroke:#C82930;stroke-width:1.0;" width="6" x="225" y="424"/><text fill="#000000" font-family="sans-serif" font-size="11" lengthAdjust="spacing" textLength="24" x="237" y="431.4189">code</text><rect fill="none" height="6" style="stroke:#C82930;stroke-width:1.0;" width="6" x="225" y="437.8359"/><text fill="#000000" font-family="sans-serif" font-size="11" lengthAdjust="spacing" textLength="43" x="237" y="445.2549">nhsCode</text><rect fill="none" height="6" style="stroke:#C82930;stroke-width:1.0;" width="6" x="225" y="451.6719"/><text fill="#000000" font-family="sans-serif" font-size="11" lengthAdjust="spacing" textLength="48" x="237" y="459.0908">createdAt</text><rect fill="none" height="6" style="stroke:#C82930;stroke-width:1.0;" width="6" x="225" y="465.5078"/><text fill="#000000" font-family="sans-serif" font-size="11" lengthAdjust="spacing" textLength="21" x="237" y="472.9268">date</text><line style="stroke:#A80036;stroke-width:1.5;" x1="218" x2="290" y1="479.3438" y2="479.3438"/><!--MD5=[f61f25a4c924aea49782a3614f4b4835]
class DiagnosisReport--><rect codeLine="9" fill="#FEFECE" filter="url(#fvmnd09vdscxd)" height="61.8359" id="DiagnosisReport" style="stroke:#A80036;stroke-width:1.5;" width="126" x="7" y="195.5"/><ellipse cx="22" cy="211.5" fill="#ADD1B2" rx="11" ry="11" style="stroke:#A80036;stroke-width:1.0;"/><path d="M24,208 Q24.2031,207.5 24.4375,207.25 Q24.6719,207 24.9375,207 Q25.4063,207 25.7031,207.2813 Q26,207.5625 26,208.2188 L26,209.7813 Q26,210.4375 25.7188,210.7188 Q25.4375,211 25,211 Q24.6094,211 24.3594,210.8281 Q24.1094,210.6563 24,210.2031 Q23.9531,209.8906 23.7813,209.7188 Q23.4688,209.3906 22.9063,209.2031 Q22.3438,209 21.7813,209 Q21.0781,209 20.4844,209.2813 Q19.9063,209.5625 19.4531,210.1875 Q19,210.8125 19,211.6719 L19,212.5938 Q19,213.625 19.8438,214.3125 Q20.6875,215 22.1875,215 Q23.0781,215 23.7031,214.7969 Q24.0625,214.6875 24.4688,214.3281 Q24.7344,214.125 24.875,214.0625 Q25.0156,214 25.1875,214 Q25.5156,214 25.75,214.2656 Q26,214.5156 26,214.875 Q26,215.2188 25.6563,215.625 Q25.1563,216.2188 24.3594,216.5469 Q23.3125,217 22.0313,217 Q20.5313,217 19.3281,216.4063 Q18.3594,215.9375 17.6719,214.9219 Q17,213.9063 17,212.7031 L17,211.6094 Q17,210.3594 17.5938,209.2656 Q18.2031,208.1719 19.25,207.5938 Q20.3125,207 21.5,207 Q22.2188,207 22.8438,207.25 Q23.4688,207.5 24,208 Z " fill="#000000"/><text fill="#000000" font-family="sans-serif" font-size="12" lengthAdjust="spacing" textLength="94" x="36" y="216.4102">DiagnosisReport</text><line style="stroke:#A80036;stroke-width:1.5;" x1="8" x2="132" y1="227.5" y2="227.5"/><rect fill="none" height="6" style="stroke:#C82930;stroke-width:1.0;" width="6" x="15" y="235.5"/><text fill="#000000" font-family="sans-serif" font-size="11" lengthAdjust="spacing" textLength="21" x="27" y="242.9189">date</text><line style="stroke:#A80036;stroke-width:1.5;" x1="8" x2="132" y1="249.3359" y2="249.3359"/><!--MD5=[ed6624c6556d5e7b1bd23032162d20b7]
class Client--><rect codeLine="12" fill="#FEFECE" filter="url(#fvmnd09vdscxd)" height="158.6875" id="Client" style="stroke:#A80036;stroke-width:1.5;" width="117" x="290.5" y="147"/><ellipse cx="329.35" cy="163" fill="#ADD1B2" rx="11" ry="11" style="stroke:#A80036;stroke-width:1.0;"/><path d="M331.35,159.5 Q331.5531,159 331.7875,158.75 Q332.0219,158.5 332.2875,158.5 Q332.7563,158.5 333.0531,158.7813 Q333.35,159.0625 333.35,159.7188 L333.35,161.2813 Q333.35,161.9375 333.0688,162.2188 Q332.7875,162.5 332.35,162.5 Q331.9594,162.5 331.7094,162.3281 Q331.4594,162.1563 331.35,161.7031 Q331.3031,161.3906 331.1313,161.2188 Q330.8188,160.8906 330.2563,160.7031 Q329.6938,160.5 329.1313,160.5 Q328.4281,160.5 327.8344,160.7813 Q327.2563,161.0625 326.8031,161.6875 Q326.35,162.3125 326.35,163.1719 L326.35,164.0938 Q326.35,165.125 327.1938,165.8125 Q328.0375,166.5 329.5375,166.5 Q330.4281,166.5 331.0531,166.2969 Q331.4125,166.1875 331.8188,165.8281 Q332.0844,165.625 332.225,165.5625 Q332.3656,165.5 332.5375,165.5 Q332.8656,165.5 333.1,165.7656 Q333.35,166.0156 333.35,166.375 Q333.35,166.7188 333.0063,167.125 Q332.5063,167.7188 331.7094,168.0469 Q330.6625,168.5 329.3813,168.5 Q327.8813,168.5 326.6781,167.9063 Q325.7094,167.4375 325.0219,166.4219 Q324.35,165.4063 324.35,164.2031 L324.35,163.1094 Q324.35,161.8594 324.9438,160.7656 Q325.5531,159.6719 326.6,159.0938 Q327.6625,158.5 328.85,158.5 Q329.5688,158.5 330.1938,158.75 Q330.8188,159 331.35,159.5 Z " fill="#000000"/><text fill="#000000" font-family="sans-serif" font-size="12" lengthAdjust="spacing" textLength="32" x="348.65" y="167.9102">Client</text><line style="stroke:#A80036;stroke-width:1.5;" x1="291.5" x2="406.5" y1="179" y2="179"/><rect fill="none" height="6" style="stroke:#C82930;stroke-width:1.0;" width="6" x="298.5" y="187"/><text fill="#000000" font-family="sans-serif" font-size="11" lengthAdjust="spacing" textLength="26" x="310.5" y="194.4189">name</text><rect fill="none" height="6" style="stroke:#C82930;stroke-width:1.0;" width="6" x="298.5" y="200.8359"/><text fill="#000000" font-family="sans-serif" font-size="11" lengthAdjust="spacing" textLength="91" x="310.5" y="208.2549">citizenCardNumber</text><rect fill="none" height="6" style="stroke:#C82930;stroke-width:1.0;" width="6" x="298.5" y="214.6719"/><text fill="#000000" font-family="sans-serif" font-size="11" lengthAdjust="spacing" textLength="55" x="310.5" y="222.0908">nhsNumber</text><rect fill="none" height="6" style="stroke:#C82930;stroke-width:1.0;" width="6" x="298.5" y="228.5078"/><text fill="#000000" font-family="sans-serif" font-size="11" lengthAdjust="spacing" textLength="48" x="310.5" y="235.9268">tinNumber</text><rect fill="none" height="6" style="stroke:#C82930;stroke-width:1.0;" width="6" x="298.5" y="242.3438"/><text fill="#000000" font-family="sans-serif" font-size="11" lengthAdjust="spacing" textLength="43" x="310.5" y="249.7627">birthDate</text><rect fill="none" height="6" style="stroke:#C82930;stroke-width:1.0;" width="6" x="298.5" y="256.1797"/><text fill="#000000" font-family="sans-serif" font-size="11" lengthAdjust="spacing" textLength="18" x="310.5" y="263.5986">sex</text><rect fill="none" height="6" style="stroke:#C82930;stroke-width:1.0;" width="6" x="298.5" y="270.0156"/><text fill="#000000" font-family="sans-serif" font-size="11" lengthAdjust="spacing" textLength="67" x="310.5" y="277.4346">phoneNumber</text><rect fill="none" height="6" style="stroke:#C82930;stroke-width:1.0;" width="6" x="298.5" y="283.8516"/><text fill="#000000" font-family="sans-serif" font-size="11" lengthAdjust="spacing" textLength="24" x="310.5" y="291.2705">email</text><line style="stroke:#A80036;stroke-width:1.5;" x1="291.5" x2="406.5" y1="297.6875" y2="297.6875"/><!--MD5=[28d9d7ef96b34fdc6ab3814c5cef79ce]
class ClinicalAnalysisLab--><rect codeLine="23" fill="#FEFECE" filter="url(#fvmnd09vdscxd)" height="117.1797" id="ClinicalAnalysisLab" style="stroke:#A80036;stroke-width:1.5;" width="140" x="443" y="168"/><ellipse cx="458" cy="184" fill="#ADD1B2" rx="11" ry="11" style="stroke:#A80036;stroke-width:1.0;"/><path d="M460,180.5 Q460.2031,180 460.4375,179.75 Q460.6719,179.5 460.9375,179.5 Q461.4063,179.5 461.7031,179.7813 Q462,180.0625 462,180.7188 L462,182.2813 Q462,182.9375 461.7188,183.2188 Q461.4375,183.5 461,183.5 Q460.6094,183.5 460.3594,183.3281 Q460.1094,183.1563 460,182.7031 Q459.9531,182.3906 459.7813,182.2188 Q459.4688,181.8906 458.9063,181.7031 Q458.3438,181.5 457.7813,181.5 Q457.0781,181.5 456.4844,181.7813 Q455.9063,182.0625 455.4531,182.6875 Q455,183.3125 455,184.1719 L455,185.0938 Q455,186.125 455.8438,186.8125 Q456.6875,187.5 458.1875,187.5 Q459.0781,187.5 459.7031,187.2969 Q460.0625,187.1875 460.4688,186.8281 Q460.7344,186.625 460.875,186.5625 Q461.0156,186.5 461.1875,186.5 Q461.5156,186.5 461.75,186.7656 Q462,187.0156 462,187.375 Q462,187.7188 461.6563,188.125 Q461.1563,188.7188 460.3594,189.0469 Q459.3125,189.5 458.0313,189.5 Q456.5313,189.5 455.3281,188.9063 Q454.3594,188.4375 453.6719,187.4219 Q453,186.4063 453,185.2031 L453,184.1094 Q453,182.8594 453.5938,181.7656 Q454.2031,180.6719 455.25,180.0938 Q456.3125,179.5 457.5,179.5 Q458.2188,179.5 458.8438,179.75 Q459.4688,180 460,180.5 Z " fill="#000000"/><text fill="#000000" font-family="sans-serif" font-size="12" lengthAdjust="spacing" textLength="108" x="472" y="188.9102">ClinicalAnalysisLab</text><line style="stroke:#A80036;stroke-width:1.5;" x1="444" x2="582" y1="200" y2="200"/><rect fill="none" height="6" style="stroke:#C82930;stroke-width:1.0;" width="6" x="451" y="208"/><text fill="#000000" font-family="sans-serif" font-size="11" lengthAdjust="spacing" textLength="61" x="463" y="215.4189">idLaboratory</text><rect fill="none" height="6" style="stroke:#C82930;stroke-width:1.0;" width="6" x="451" y="221.8359"/><text fill="#000000" font-family="sans-serif" font-size="11" lengthAdjust="spacing" textLength="26" x="463" y="229.2549">name</text><rect fill="none" height="6" style="stroke:#C82930;stroke-width:1.0;" width="6" x="451" y="235.6719"/><text fill="#000000" font-family="sans-serif" font-size="11" lengthAdjust="spacing" textLength="40" x="463" y="243.0908">address</text><rect fill="none" height="6" style="stroke:#C82930;stroke-width:1.0;" width="6" x="451" y="249.5078"/><text fill="#000000" font-family="sans-serif" font-size="11" lengthAdjust="spacing" textLength="67" x="463" y="256.9268">phoneNumber</text><rect fill="none" height="6" style="stroke:#C82930;stroke-width:1.0;" width="6" x="451" y="263.3438"/><text fill="#000000" font-family="sans-serif" font-size="11" lengthAdjust="spacing" textLength="11" x="463" y="270.7627">tin</text><line style="stroke:#A80036;stroke-width:1.5;" x1="444" x2="582" y1="277.1797" y2="277.1797"/><!--MD5=[aeb3272166074d8737a70b61b1e71682]
class TestType--><rect codeLine="31" fill="#FEFECE" filter="url(#fvmnd09vdscxd)" height="89.5078" id="TestType" style="stroke:#A80036;stroke-width:1.5;" width="112" x="134" y="565"/><ellipse cx="162.5" cy="581" fill="#ADD1B2" rx="11" ry="11" style="stroke:#A80036;stroke-width:1.0;"/><path d="M164.5,577.5 Q164.7031,577 164.9375,576.75 Q165.1719,576.5 165.4375,576.5 Q165.9063,576.5 166.2031,576.7813 Q166.5,577.0625 166.5,577.7188 L166.5,579.2813 Q166.5,579.9375 166.2188,580.2188 Q165.9375,580.5 165.5,580.5 Q165.1094,580.5 164.8594,580.3281 Q164.6094,580.1563 164.5,579.7031 Q164.4531,579.3906 164.2813,579.2188 Q163.9688,578.8906 163.4063,578.7031 Q162.8438,578.5 162.2813,578.5 Q161.5781,578.5 160.9844,578.7813 Q160.4063,579.0625 159.9531,579.6875 Q159.5,580.3125 159.5,581.1719 L159.5,582.0938 Q159.5,583.125 160.3438,583.8125 Q161.1875,584.5 162.6875,584.5 Q163.5781,584.5 164.2031,584.2969 Q164.5625,584.1875 164.9688,583.8281 Q165.2344,583.625 165.375,583.5625 Q165.5156,583.5 165.6875,583.5 Q166.0156,583.5 166.25,583.7656 Q166.5,584.0156 166.5,584.375 Q166.5,584.7188 166.1563,585.125 Q165.6563,585.7188 164.8594,586.0469 Q163.8125,586.5 162.5313,586.5 Q161.0313,586.5 159.8281,585.9063 Q158.8594,585.4375 158.1719,584.4219 Q157.5,583.4063 157.5,582.2031 L157.5,581.1094 Q157.5,579.8594 158.0938,578.7656 Q158.7031,577.6719 159.75,577.0938 Q160.8125,576.5 162,576.5 Q162.7188,576.5 163.3438,576.75 Q163.9688,577 164.5,577.5 Z " fill="#000000"/><text fill="#000000" font-family="sans-serif" font-size="12" lengthAdjust="spacing" textLength="50" x="179.5" y="585.9102">TestType</text><line style="stroke:#A80036;stroke-width:1.5;" x1="135" x2="245" y1="597" y2="597"/><rect fill="none" height="6" style="stroke:#C82930;stroke-width:1.0;" width="6" x="142" y="605"/><text fill="#000000" font-family="sans-serif" font-size="11" lengthAdjust="spacing" textLength="26" x="154" y="612.4189">name</text><rect fill="none" height="6" style="stroke:#C82930;stroke-width:1.0;" width="6" x="142" y="618.8359"/><text fill="#000000" font-family="sans-serif" font-size="11" lengthAdjust="spacing" textLength="53" x="154" y="626.2549">description</text><rect fill="none" height="6" style="stroke:#C82930;stroke-width:1.0;" width="6" x="142" y="632.6719"/><text fill="#000000" font-family="sans-serif" font-size="11" lengthAdjust="spacing" textLength="86" x="154" y="640.0908">collectingMethods</text><line style="stroke:#A80036;stroke-width:1.5;" x1="135" x2="245" y1="646.5078" y2="646.5078"/><!--MD5=[02e4b9b7573f1156f41e60aa5b4e25a4]
class Company--><rect codeLine="37" fill="#FEFECE" filter="url(#fvmnd09vdscxd)" height="61.8359" id="Company" style="stroke:#A80036;stroke-width:1.5;" width="85" x="306.5" y="7"/><ellipse cx="321.5" cy="23" fill="#ADD1B2" rx="11" ry="11" style="stroke:#A80036;stroke-width:1.0;"/><path d="M323.5,19.5 Q323.7031,19 323.9375,18.75 Q324.1719,18.5 324.4375,18.5 Q324.9063,18.5 325.2031,18.7813 Q325.5,19.0625 325.5,19.7188 L325.5,21.2813 Q325.5,21.9375 325.2188,22.2188 Q324.9375,22.5 324.5,22.5 Q324.1094,22.5 323.8594,22.3281 Q323.6094,22.1563 323.5,21.7031 Q323.4531,21.3906 323.2813,21.2188 Q322.9688,20.8906 322.4063,20.7031 Q321.8438,20.5 321.2813,20.5 Q320.5781,20.5 319.9844,20.7813 Q319.4063,21.0625 318.9531,21.6875 Q318.5,22.3125 318.5,23.1719 L318.5,24.0938 Q318.5,25.125 319.3438,25.8125 Q320.1875,26.5 321.6875,26.5 Q322.5781,26.5 323.2031,26.2969 Q323.5625,26.1875 323.9688,25.8281 Q324.2344,25.625 324.375,25.5625 Q324.5156,25.5 324.6875,25.5 Q325.0156,25.5 325.25,25.7656 Q325.5,26.0156 325.5,26.375 Q325.5,26.7188 325.1563,27.125 Q324.6563,27.7188 323.8594,28.0469 Q322.8125,28.5 321.5313,28.5 Q320.0313,28.5 318.8281,27.9063 Q317.8594,27.4375 317.1719,26.4219 Q316.5,25.4063 316.5,24.2031 L316.5,23.1094 Q316.5,21.8594 317.0938,20.7656 Q317.7031,19.6719 318.75,19.0938 Q319.8125,18.5 321,18.5 Q321.7188,18.5 322.3438,18.75 Q322.9688,19 323.5,19.5 Z " fill="#000000"/><text fill="#000000" font-family="sans-serif" font-size="12" lengthAdjust="spacing" textLength="53" x="335.5" y="27.9102">Company</text><line style="stroke:#A80036;stroke-width:1.5;" x1="307.5" x2="390.5" y1="39" y2="39"/><rect fill="none" height="6" style="stroke:#C82930;stroke-width:1.0;" width="6" x="314.5" y="47"/><text fill="#000000" font-family="sans-serif" font-size="11" lengthAdjust="spacing" textLength="55" x="326.5" y="54.4189">designation</text><line style="stroke:#A80036;stroke-width:1.5;" x1="307.5" x2="390.5" y1="60.8359" y2="60.8359"/><!--MD5=[9681492165142af2a4a3a169d90ee8d4]
class Sample--><rect codeLine="41" fill="#FEFECE" filter="url(#fvmnd09vdscxd)" height="61.8359" id="Sample" style="stroke:#A80036;stroke-width:1.5;" width="75" x="281.5" y="579"/><ellipse cx="296.5" cy="595" fill="#ADD1B2" rx="11" ry="11" style="stroke:#A80036;stroke-width:1.0;"/><path d="M298.5,591.5 Q298.7031,591 298.9375,590.75 Q299.1719,590.5 299.4375,590.5 Q299.9063,590.5 300.2031,590.7813 Q300.5,591.0625 300.5,591.7188 L300.5,593.2813 Q300.5,593.9375 300.2188,594.2188 Q299.9375,594.5 299.5,594.5 Q299.1094,594.5 298.8594,594.3281 Q298.6094,594.1563 298.5,593.7031 Q298.4531,593.3906 298.2813,593.2188 Q297.9688,592.8906 297.4063,592.7031 Q296.8438,592.5 296.2813,592.5 Q295.5781,592.5 294.9844,592.7813 Q294.4063,593.0625 293.9531,593.6875 Q293.5,594.3125 293.5,595.1719 L293.5,596.0938 Q293.5,597.125 294.3438,597.8125 Q295.1875,598.5 296.6875,598.5 Q297.5781,598.5 298.2031,598.2969 Q298.5625,598.1875 298.9688,597.8281 Q299.2344,597.625 299.375,597.5625 Q299.5156,597.5 299.6875,597.5 Q300.0156,597.5 300.25,597.7656 Q300.5,598.0156 300.5,598.375 Q300.5,598.7188 300.1563,599.125 Q299.6563,599.7188 298.8594,600.0469 Q297.8125,600.5 296.5313,600.5 Q295.0313,600.5 293.8281,599.9063 Q292.8594,599.4375 292.1719,598.4219 Q291.5,597.4063 291.5,596.2031 L291.5,595.1094 Q291.5,593.8594 292.0938,592.7656 Q292.7031,591.6719 293.75,591.0938 Q294.8125,590.5 296,590.5 Q296.7188,590.5 297.3438,590.75 Q297.9688,591 298.5,591.5 Z " fill="#000000"/><text fill="#000000" font-family="sans-serif" font-size="12" lengthAdjust="spacing" textLength="43" x="310.5" y="599.9102">Sample</text><line style="stroke:#A80036;stroke-width:1.5;" x1="282.5" x2="355.5" y1="611" y2="611"/><rect fill="none" height="6" style="stroke:#C82930;stroke-width:1.0;" width="6" x="289.5" y="619"/><text fill="#000000" font-family="sans-serif" font-size="11" lengthAdjust="spacing" textLength="21" x="301.5" y="626.4189">date</text><line style="stroke:#A80036;stroke-width:1.5;" x1="282.5" x2="355.5" y1="632.8359" y2="632.8359"/><!--MD5=[6eee883fdf517d3604e8bd0f2058e9aa]
link Company to Client--><path codeLine="44" d="M349,69.38 C349,89.12 349,115.9 349,141.7 " fill="none" id="Company-to-Client" style="stroke:#A80036;stroke-width:1.0;"/><polygon fill="#A80036" points="349,146.84,353,137.84,349,141.84,345,137.84,349,146.84" style="stroke:#A80036;stroke-width:1.0;"/><text fill="#000000" font-family="sans-serif" font-size="13" lengthAdjust="spacing" textLength="21" x="350" y="113.4951">has</text><text fill="#000000" font-family="sans-serif" font-size="13" lengthAdjust="spacing" textLength="7" x="341.3328" y="90.4311">1</text><text fill="#000000" font-family="sans-serif" font-size="13" lengthAdjust="spacing" textLength="5" x="343.7617" y="136.0117">*</text><!--MD5=[7e4bc624457760b649895ff2ead938fa]
link Company to Test--><path codeLine="45" d="M306.44,61.51 C276.41,80.01 238.52,109.29 221,147 C186.25,221.78 209.63,318.86 230.88,378.9 " fill="none" id="Company-to-Test" style="stroke:#A80036;stroke-width:1.0;"/><polygon fill="#A80036" points="232.66,383.87,233.3603,374.0461,230.9593,379.1681,225.8373,376.7672,232.66,383.87" style="stroke:#A80036;stroke-width:1.0;"/><text fill="#000000" font-family="sans-serif" font-size="13" lengthAdjust="spacing" textLength="50" x="222" y="231.9951">performs</text><text fill="#000000" font-family="sans-serif" font-size="13" lengthAdjust="spacing" textLength="7" x="291.5234" y="61.7152">1</text><text fill="#000000" font-family="sans-serif" font-size="13" lengthAdjust="spacing" textLength="5" x="224.3075" y="372.9802">*</text><!--MD5=[14425c86e1e95c36a97a680926c42ff4]
link Company to ClinicalAnalysisLab--><path codeLine="46" d="M375.71,69.38 C398.13,94.87 430.86,132.09 458.74,163.8 " fill="none" id="Company-to-ClinicalAnalysisLab" style="stroke:#A80036;stroke-width:1.0;"/><polygon fill="#A80036" points="462.12,167.64,459.1861,158.2383,458.8204,163.8833,453.1754,163.5176,462.12,167.64" style="stroke:#A80036;stroke-width:1.0;"/><text fill="#000000" font-family="sans-serif" font-size="13" lengthAdjust="spacing" textLength="30" x="418" y="113.4951">owns</text><text fill="#000000" font-family="sans-serif" font-size="13" lengthAdjust="spacing" textLength="7" x="373.1344" y="90.4311">1</text><text fill="#000000" font-family="sans-serif" font-size="13" lengthAdjust="spacing" textLength="5" x="450.6143" y="156.997">*</text><!--MD5=[9412f5b83d4701cb53e20ca1d643c1b4]
link ClinicalAnalysisLab to Test--><path codeLine="48" d="M459.61,285.13 C437.28,307.79 410.41,333.29 384,354 C356.06,375.91 321.82,396.9 295.5,411.95 " fill="none" id="ClinicalAnalysisLab-to-Test" style="stroke:#A80036;stroke-width:1.0;"/><polygon fill="#A80036" points="291.02,414.5,300.8205,413.5251,295.3656,412.027,296.8637,406.5721,291.02,414.5" style="stroke:#A80036;stroke-width:1.0;"/><text fill="#000000" font-family="sans-serif" font-size="13" lengthAdjust="spacing" textLength="48" x="404" y="350.4951">analysis</text><text fill="#000000" font-family="sans-serif" font-size="13" lengthAdjust="spacing" textLength="7" x="445.6765" y="306.7561">1</text><text fill="#000000" font-family="sans-serif" font-size="13" lengthAdjust="spacing" textLength="5" x="299.171" y="406.0147">*</text><!--MD5=[e981d4f96c4342412d1e68160b30cf70]
link Test to TestType--><path codeLine="50" d="M235.14,487.32 C226.61,510.33 216.56,537.41 208.11,560.18 " fill="none" id="Test-to-TestType" style="stroke:#A80036;stroke-width:1.0;"/><polygon fill="#A80036" points="206.34,564.97,213.2196,557.9222,208.0784,560.2819,205.7187,555.1408,206.34,564.97" style="stroke:#A80036;stroke-width:1.0;"/><text fill="#000000" font-family="sans-serif" font-size="13" lengthAdjust="spacing" textLength="24" x="225" y="531.4951">is of</text><text fill="#000000" font-family="sans-serif" font-size="13" lengthAdjust="spacing" textLength="5" x="227.2698" y="508.854">*</text><text fill="#000000" font-family="sans-serif" font-size="13" lengthAdjust="spacing" textLength="7" x="201.3864" y="554.0807">1</text><!--MD5=[b72ac8ab7fb5921fceb5036a3902baea]
link Test to Sample--><path codeLine="51" d="M273.15,487.32 C283.65,515.18 296.39,549.01 305.78,573.92 " fill="none" id="Test-to-Sample" style="stroke:#A80036;stroke-width:1.0;"/><polygon fill="#A80036" points="307.61,578.77,308.1853,568.938,305.8497,574.0901,300.6975,571.7545,307.61,578.77" style="stroke:#A80036;stroke-width:1.0;"/><text fill="#000000" font-family="sans-serif" font-size="13" lengthAdjust="spacing" textLength="21" x="292" y="531.4951">has</text><text fill="#000000" font-family="sans-serif" font-size="13" lengthAdjust="spacing" textLength="7" x="268.253" y="508.854">1</text><text fill="#000000" font-family="sans-serif" font-size="13" lengthAdjust="spacing" textLength="5" x="299.7452" y="568.2271">*</text><!--MD5=[8b55b505d6423a18c59127d3585029ae]
link DiagnosisReport to Test--><path codeLine="53" d="M81.09,257.6 C92.22,284.93 111.38,325.23 137,354 C158.3,377.92 188.12,398.29 212.32,412.56 " fill="none" id="DiagnosisReport-to-Test" style="stroke:#A80036;stroke-width:1.0;"/><polygon fill="#A80036" points="216.77,415.15,211.0164,407.1565,212.4527,412.628,206.9812,414.0643,216.77,415.15" style="stroke:#A80036;stroke-width:1.0;"/><text fill="#000000" font-family="sans-serif" font-size="13" lengthAdjust="spacing" textLength="38" x="138" y="350.4951">origins</text><text fill="#000000" font-family="sans-serif" font-size="13" lengthAdjust="spacing" textLength="7" x="75.5843" y="278.8437">1</text><text fill="#000000" font-family="sans-serif" font-size="13" lengthAdjust="spacing" textLength="7" x="202.0058" y="407.2416">1</text><!--MD5=[502b51bc079239060389dab43b7d3470]
link Client to Test--><path codeLine="55" d="M312.95,306.05 C301.78,330.4 289.7,356.7 279.41,379.13 " fill="none" id="Client-to-Test" style="stroke:#A80036;stroke-width:1.0;"/><polygon fill="#A80036" points="277.24,383.85,284.6304,377.3398,279.3262,379.306,277.36,374.0019,277.24,383.85" style="stroke:#A80036;stroke-width:1.0;"/><text fill="#000000" font-family="sans-serif" font-size="13" lengthAdjust="spacing" textLength="75" x="300" y="350.4951">requested by</text><text fill="#000000" font-family="sans-serif" font-size="13" lengthAdjust="spacing" textLength="7" x="302.5512" y="327.0975">1</text><text fill="#000000" font-family="sans-serif" font-size="13" lengthAdjust="spacing" textLength="5" x="275.1566" y="372.9574">*</text><!--MD5=[d10636cd253325cfa00213bda13a40da]
@startuml
'https://plantuml.com/class-diagram

 class Test{
 -code
 -nhsCode
 -createdAt
 -date
 }
class DiagnosisReport{
-date
}
class Client{
-name
-citizenCardNumber
-nhsNumber
-tinNumber
-birthDate
-sex
-phoneNumber
-email
}

class ClinicalAnalysisLab{
-idLaboratory
-name
-address
-phoneNumber
-tin
}

class TestType{
-name
-description
-collectingMethods
}

class Company{
-designation
}

class Sample{
-date
}
Company "1"- ->"*" Client : has
Company "1"- ->"*" Test : performs
Company "1"- ->"*" ClinicalAnalysisLab : owns

ClinicalAnalysisLab "1" - ->"*" Test : analysis

Test "*"- ->"1" TestType : is of
Test "1" - -> "*" Sample : has

DiagnosisReport "1"- ->"1" Test : origins

Client "1"- ->"*" Test : requested by

@enduml

@startuml

 class Test{
 -code
 -nhsCode
 -createdAt
 -date
 }
class DiagnosisReport{
-date
}
class Client{
-name
-citizenCardNumber
-nhsNumber
-tinNumber
-birthDate
-sex
-phoneNumber
-email
}

class ClinicalAnalysisLab{
-idLaboratory
-name
-address
-phoneNumber
-tin
}

class TestType{
-name
-description
-collectingMethods
}

class Company{
-designation
}

class Sample{
-date
}
Company "1"- ->"*" Client : has
Company "1"- ->"*" Test : performs
Company "1"- ->"*" ClinicalAnalysisLab : owns

ClinicalAnalysisLab "1" - ->"*" Test : analysis

Test "*"- ->"1" TestType : is of
Test "1" - -> "*" Sample : has

DiagnosisReport "1"- ->"1" Test : origins

Client "1"- ->"*" Test : requested by

@enduml

PlantUML version 1.2021.7(Sun May 23 13:40:07 BST 2021)
(GPL source distribution)
Java Runtime: OpenJDK Runtime Environment
JVM: OpenJDK 64-Bit Server VM
Default Encoding: Cp1252
Language: pt
Country: PT
--></g></svg>