<?xml version="1.0" encoding="UTF-8" standalone="no"?><svg xmlns="http://www.w3.org/2000/svg" xmlns:xlink="http://www.w3.org/1999/xlink" contentScriptType="application/ecmascript" contentStyleType="text/css" height="1050px" preserveAspectRatio="none" style="width:268px;height:1050px;background:#FFFFFF;" version="1.1" viewBox="0 0 268 1050" width="268px" zoomAndPan="magnify"><defs><filter height="300%" id="fk8mqabguz1pv" width="300%" x="-1" y="-1"><feGaussianBlur result="blurOut" stdDeviation="2.0"/><feColorMatrix in="blurOut" result="blurOut2" type="matrix" values="0 0 0 0 0 0 0 0 0 0 0 0 0 0 0 0 0 0 .4 0"/><feOffset dx="4.0" dy="4.0" in="blurOut2" result="blurOut3"/><feBlend in="SourceGraphic" in2="blurOut3" mode="normal"/></filter></defs><g><!--MD5=[a6239649e81f925441fa75fd1609c23e]
class ImportDataUI--><rect codeLine="3" fill="#FEFECE" filter="url(#fk8mqabguz1pv)" height="48" id="ImportDataUI" style="stroke:#A80036;stroke-width:1.5;" width="105" x="93" y="7"/><ellipse cx="108" cy="23" fill="#ADD1B2" rx="11" ry="11" style="stroke:#A80036;stroke-width:1.0;"/><path d="M110,19.5 Q110.2031,19 110.4375,18.75 Q110.6719,18.5 110.9375,18.5 Q111.4063,18.5 111.7031,18.7813 Q112,19.0625 112,19.7188 L112,21.2813 Q112,21.9375 111.7188,22.2188 Q111.4375,22.5 111,22.5 Q110.6094,22.5 110.3594,22.3281 Q110.1094,22.1563 110,21.7031 Q109.9531,21.3906 109.7813,21.2188 Q109.4688,20.8906 108.9063,20.7031 Q108.3438,20.5 107.7813,20.5 Q107.0781,20.5 106.4844,20.7813 Q105.9063,21.0625 105.4531,21.6875 Q105,22.3125 105,23.1719 L105,24.0938 Q105,25.125 105.8438,25.8125 Q106.6875,26.5 108.1875,26.5 Q109.0781,26.5 109.7031,26.2969 Q110.0625,26.1875 110.4688,25.8281 Q110.7344,25.625 110.875,25.5625 Q111.0156,25.5 111.1875,25.5 Q111.5156,25.5 111.75,25.7656 Q112,26.0156 112,26.375 Q112,26.7188 111.6563,27.125 Q111.1563,27.7188 110.3594,28.0469 Q109.3125,28.5 108.0313,28.5 Q106.5313,28.5 105.3281,27.9063 Q104.3594,27.4375 103.6719,26.4219 Q103,25.4063 103,24.2031 L103,23.1094 Q103,21.8594 103.5938,20.7656 Q104.2031,19.6719 105.25,19.0938 Q106.3125,18.5 107.5,18.5 Q108.2188,18.5 108.8438,18.75 Q109.4688,19 110,19.5 Z " fill="#000000"/><text fill="#000000" font-family="sans-serif" font-size="12" lengthAdjust="spacing" textLength="73" x="122" y="27.9102">ImportDataUI</text><line style="stroke:#A80036;stroke-width:1.5;" x1="94" x2="197" y1="39" y2="39"/><line style="stroke:#A80036;stroke-width:1.5;" x1="94" x2="197" y1="47" y2="47"/><!--MD5=[0de750faa6f786c2564c37df8aaca333]
class ImportDataController--><rect codeLine="6" fill="#FEFECE" filter="url(#fk8mqabguz1pv)" height="61.8359" id="ImportDataController" style="stroke:#A80036;stroke-width:1.5;" width="147" x="72" y="116"/><ellipse cx="87" cy="132" fill="#ADD1B2" rx="11" ry="11" style="stroke:#A80036;stroke-width:1.0;"/><path d="M89,128.5 Q89.2031,128 89.4375,127.75 Q89.6719,127.5 89.9375,127.5 Q90.4063,127.5 90.7031,127.7813 Q91,128.0625 91,128.7188 L91,130.2813 Q91,130.9375 90.7188,131.2188 Q90.4375,131.5 90,131.5 Q89.6094,131.5 89.3594,131.3281 Q89.1094,131.1563 89,130.7031 Q88.9531,130.3906 88.7813,130.2188 Q88.4688,129.8906 87.9063,129.7031 Q87.3438,129.5 86.7813,129.5 Q86.0781,129.5 85.4844,129.7813 Q84.9063,130.0625 84.4531,130.6875 Q84,131.3125 84,132.1719 L84,133.0938 Q84,134.125 84.8438,134.8125 Q85.6875,135.5 87.1875,135.5 Q88.0781,135.5 88.7031,135.2969 Q89.0625,135.1875 89.4688,134.8281 Q89.7344,134.625 89.875,134.5625 Q90.0156,134.5 90.1875,134.5 Q90.5156,134.5 90.75,134.7656 Q91,135.0156 91,135.375 Q91,135.7188 90.6563,136.125 Q90.1563,136.7188 89.3594,137.0469 Q88.3125,137.5 87.0313,137.5 Q85.5313,137.5 84.3281,136.9063 Q83.3594,136.4375 82.6719,135.4219 Q82,134.4063 82,133.2031 L82,132.1094 Q82,130.8594 82.5938,129.7656 Q83.2031,128.6719 84.25,128.0938 Q85.3125,127.5 86.5,127.5 Q87.2188,127.5 87.8438,127.75 Q88.4688,128 89,128.5 Z " fill="#000000"/><text fill="#000000" font-family="sans-serif" font-size="12" lengthAdjust="spacing" textLength="115" x="101" y="136.9102">ImportDataController</text><line style="stroke:#A80036;stroke-width:1.5;" x1="73" x2="218" y1="148" y2="148"/><line style="stroke:#A80036;stroke-width:1.5;" x1="73" x2="218" y1="156" y2="156"/><ellipse cx="83" cy="167" fill="#84BE84" rx="3" ry="3" style="stroke:#038048;stroke-width:1.0;"/><text fill="#000000" font-family="sans-serif" font-size="11" lengthAdjust="spacing" textLength="39" x="92" y="171.4189">getFile()</text><!--MD5=[3bb1fff8eac7f10a2cbf766809a043c1]
class ImportDataService--><rect codeLine="9" fill="#FEFECE" filter="url(#fk8mqabguz1pv)" height="158.6875" id="ImportDataService" style="stroke:#A80036;stroke-width:1.5;" width="133" x="79" y="239"/><ellipse cx="94" cy="255" fill="#ADD1B2" rx="11" ry="11" style="stroke:#A80036;stroke-width:1.0;"/><path d="M96,251.5 Q96.2031,251 96.4375,250.75 Q96.6719,250.5 96.9375,250.5 Q97.4063,250.5 97.7031,250.7813 Q98,251.0625 98,251.7188 L98,253.2813 Q98,253.9375 97.7188,254.2188 Q97.4375,254.5 97,254.5 Q96.6094,254.5 96.3594,254.3281 Q96.1094,254.1563 96,253.7031 Q95.9531,253.3906 95.7813,253.2188 Q95.4688,252.8906 94.9063,252.7031 Q94.3438,252.5 93.7813,252.5 Q93.0781,252.5 92.4844,252.7813 Q91.9063,253.0625 91.4531,253.6875 Q91,254.3125 91,255.1719 L91,256.0938 Q91,257.125 91.8438,257.8125 Q92.6875,258.5 94.1875,258.5 Q95.0781,258.5 95.7031,258.2969 Q96.0625,258.1875 96.4688,257.8281 Q96.7344,257.625 96.875,257.5625 Q97.0156,257.5 97.1875,257.5 Q97.5156,257.5 97.75,257.7656 Q98,258.0156 98,258.375 Q98,258.7188 97.6563,259.125 Q97.1563,259.7188 96.3594,260.0469 Q95.3125,260.5 94.0313,260.5 Q92.5313,260.5 91.3281,259.9063 Q90.3594,259.4375 89.6719,258.4219 Q89,257.4063 89,256.2031 L89,255.1094 Q89,253.8594 89.5938,252.7656 Q90.2031,251.6719 91.25,251.0938 Q92.3125,250.5 93.5,250.5 Q94.2188,250.5 94.8438,250.75 Q95.4688,251 96,251.5 Z " fill="#000000"/><text fill="#000000" font-family="sans-serif" font-size="12" lengthAdjust="spacing" textLength="101" x="108" y="259.9102">ImportDataService</text><line style="stroke:#A80036;stroke-width:1.5;" x1="80" x2="211" y1="271" y2="271"/><line style="stroke:#A80036;stroke-width:1.5;" x1="80" x2="211" y1="279" y2="279"/><ellipse cx="90" cy="290" fill="#84BE84" rx="3" ry="3" style="stroke:#038048;stroke-width:1.0;"/><text fill="#000000" font-family="sans-serif" font-size="11" lengthAdjust="spacing" textLength="84" x="99" y="294.4189">getFileFromPath()</text><ellipse cx="90" cy="303.8359" fill="#84BE84" rx="3" ry="3" style="stroke:#038048;stroke-width:1.0;"/><text fill="#000000" font-family="sans-serif" font-size="11" lengthAdjust="spacing" textLength="100" x="99" y="308.2549">validateTypeofTest()</text><ellipse cx="90" cy="317.6719" fill="#84BE84" rx="3" ry="3" style="stroke:#038048;stroke-width:1.0;"/><text fill="#000000" font-family="sans-serif" font-size="11" lengthAdjust="spacing" textLength="63" x="99" y="322.0908">validateLab()</text><ellipse cx="90" cy="331.5078" fill="#84BE84" rx="3" ry="3" style="stroke:#038048;stroke-width:1.0;"/><text fill="#000000" font-family="sans-serif" font-size="11" lengthAdjust="spacing" textLength="80" x="99" y="335.9268">getTypeOfTest()</text><ellipse cx="90" cy="345.3438" fill="#84BE84" rx="3" ry="3" style="stroke:#038048;stroke-width:1.0;"/><text fill="#000000" font-family="sans-serif" font-size="11" lengthAdjust="spacing" textLength="80" x="99" y="349.7627">getTestResults()</text><ellipse cx="90" cy="359.1797" fill="#84BE84" rx="3" ry="3" style="stroke:#038048;stroke-width:1.0;"/><text fill="#000000" font-family="sans-serif" font-size="11" lengthAdjust="spacing" textLength="95" x="99" y="363.5986">getListParameters()</text><ellipse cx="90" cy="373.0156" fill="#84BE84" rx="3" ry="3" style="stroke:#038048;stroke-width:1.0;"/><text fill="#000000" font-family="sans-serif" font-size="11" lengthAdjust="spacing" textLength="100" x="99" y="377.4346">setTestIgGan(igGan)</text><ellipse cx="90" cy="386.8516" fill="#84BE84" rx="3" ry="3" style="stroke:#038048;stroke-width:1.0;"/><text fill="#000000" font-family="sans-serif" font-size="11" lengthAdjust="spacing" textLength="32" x="99" y="391.2705">save()</text><!--MD5=[02e4b9b7573f1156f41e60aa5b4e25a4]
class Company--><rect codeLine="20" fill="#FEFECE" filter="url(#fk8mqabguz1pv)" height="117.1797" id="Company" style="stroke:#A80036;stroke-width:1.5;" width="121" x="85" y="459"/><ellipse cx="116.2" cy="475" fill="#ADD1B2" rx="11" ry="11" style="stroke:#A80036;stroke-width:1.0;"/><path d="M118.2,471.5 Q118.4031,471 118.6375,470.75 Q118.8719,470.5 119.1375,470.5 Q119.6063,470.5 119.9031,470.7813 Q120.2,471.0625 120.2,471.7188 L120.2,473.2813 Q120.2,473.9375 119.9188,474.2188 Q119.6375,474.5 119.2,474.5 Q118.8094,474.5 118.5594,474.3281 Q118.3094,474.1563 118.2,473.7031 Q118.1531,473.3906 117.9813,473.2188 Q117.6688,472.8906 117.1063,472.7031 Q116.5438,472.5 115.9813,472.5 Q115.2781,472.5 114.6844,472.7813 Q114.1063,473.0625 113.6531,473.6875 Q113.2,474.3125 113.2,475.1719 L113.2,476.0938 Q113.2,477.125 114.0438,477.8125 Q114.8875,478.5 116.3875,478.5 Q117.2781,478.5 117.9031,478.2969 Q118.2625,478.1875 118.6688,477.8281 Q118.9344,477.625 119.075,477.5625 Q119.2156,477.5 119.3875,477.5 Q119.7156,477.5 119.95,477.7656 Q120.2,478.0156 120.2,478.375 Q120.2,478.7188 119.8563,479.125 Q119.3563,479.7188 118.5594,480.0469 Q117.5125,480.5 116.2313,480.5 Q114.7313,480.5 113.5281,479.9063 Q112.5594,479.4375 111.8719,478.4219 Q111.2,477.4063 111.2,476.2031 L111.2,475.1094 Q111.2,473.8594 111.7938,472.7656 Q112.4031,471.6719 113.45,471.0938 Q114.5125,470.5 115.7,470.5 Q116.4188,470.5 117.0438,470.75 Q117.6688,471 118.2,471.5 Z " fill="#000000"/><text fill="#000000" font-family="sans-serif" font-size="12" lengthAdjust="spacing" textLength="53" x="133.8" y="479.9102">Company</text><line style="stroke:#A80036;stroke-width:1.5;" x1="86" x2="205" y1="491" y2="491"/><rect fill="none" height="6" style="stroke:#C82930;stroke-width:1.0;" width="6" x="93" y="499"/><text fill="#000000" font-family="sans-serif" font-size="11" lengthAdjust="spacing" textLength="55" x="105" y="506.4189">desingation</text><line style="stroke:#A80036;stroke-width:1.5;" x1="86" x2="205" y1="512.8359" y2="512.8359"/><ellipse cx="96" cy="523.8359" fill="#84BE84" rx="3" ry="3" style="stroke:#038048;stroke-width:1.0;"/><text fill="#000000" font-family="sans-serif" font-size="11" lengthAdjust="spacing" textLength="70" x="105" y="528.2549">getTestStore()</text><ellipse cx="96" cy="537.6719" fill="#84BE84" rx="3" ry="3" style="stroke:#038048;stroke-width:1.0;"/><text fill="#000000" font-family="sans-serif" font-size="11" lengthAdjust="spacing" textLength="75" x="105" y="542.0908">getClientStore()</text><ellipse cx="96" cy="551.5078" fill="#84BE84" rx="3" ry="3" style="stroke:#038048;stroke-width:1.0;"/><text fill="#000000" font-family="sans-serif" font-size="11" lengthAdjust="spacing" textLength="95" x="105" y="555.9268">getListParameters()</text><ellipse cx="96" cy="565.3438" fill="#84BE84" rx="3" ry="3" style="stroke:#038048;stroke-width:1.0;"/><text fill="#000000" font-family="sans-serif" font-size="11" lengthAdjust="spacing" textLength="80" x="105" y="569.7627">getTypeOfTest()</text><!--MD5=[0f6f7964b844a64b0496af0dda7914bd]
class TestStore--><rect codeLine="28" fill="#FEFECE" filter="url(#fk8mqabguz1pv)" height="117.1797" id="TestStore" style="stroke:#A80036;stroke-width:1.5;" width="103" x="15" y="654"/><ellipse cx="38.1" cy="670" fill="#ADD1B2" rx="11" ry="11" style="stroke:#A80036;stroke-width:1.0;"/><path d="M40.1,666.5 Q40.3031,666 40.5375,665.75 Q40.7719,665.5 41.0375,665.5 Q41.5063,665.5 41.8031,665.7813 Q42.1,666.0625 42.1,666.7188 L42.1,668.2813 Q42.1,668.9375 41.8188,669.2188 Q41.5375,669.5 41.1,669.5 Q40.7094,669.5 40.4594,669.3281 Q40.2094,669.1563 40.1,668.7031 Q40.0531,668.3906 39.8813,668.2188 Q39.5688,667.8906 39.0063,667.7031 Q38.4438,667.5 37.8813,667.5 Q37.1781,667.5 36.5844,667.7813 Q36.0063,668.0625 35.5531,668.6875 Q35.1,669.3125 35.1,670.1719 L35.1,671.0938 Q35.1,672.125 35.9438,672.8125 Q36.7875,673.5 38.2875,673.5 Q39.1781,673.5 39.8031,673.2969 Q40.1625,673.1875 40.5688,672.8281 Q40.8344,672.625 40.975,672.5625 Q41.1156,672.5 41.2875,672.5 Q41.6156,672.5 41.85,672.7656 Q42.1,673.0156 42.1,673.375 Q42.1,673.7188 41.7563,674.125 Q41.2563,674.7188 40.4594,675.0469 Q39.4125,675.5 38.1313,675.5 Q36.6313,675.5 35.4281,674.9063 Q34.4594,674.4375 33.7719,673.4219 Q33.1,672.4063 33.1,671.2031 L33.1,670.1094 Q33.1,668.8594 33.6938,667.7656 Q34.3031,666.6719 35.35,666.0938 Q36.4125,665.5 37.6,665.5 Q38.3188,665.5 38.9438,665.75 Q39.5688,666 40.1,666.5 Z " fill="#000000"/><text fill="#000000" font-family="sans-serif" font-size="12" lengthAdjust="spacing" textLength="53" x="53.9" y="674.9102">TestStore</text><line style="stroke:#A80036;stroke-width:1.5;" x1="16" x2="117" y1="686" y2="686"/><rect fill="none" height="6" style="stroke:#C82930;stroke-width:1.0;" width="6" x="23" y="694"/><text fill="#000000" font-family="sans-serif" font-size="11" lengthAdjust="spacing" textLength="18" x="35" y="701.4189">test</text><line style="stroke:#A80036;stroke-width:1.5;" x1="16" x2="117" y1="707.8359" y2="707.8359"/><ellipse cx="26" cy="718.8359" fill="#84BE84" rx="3" ry="3" style="stroke:#038048;stroke-width:1.0;"/><text fill="#000000" font-family="sans-serif" font-size="11" lengthAdjust="spacing" textLength="51" x="35" y="723.2549">newTest()</text><ellipse cx="26" cy="732.6719" fill="#84BE84" rx="3" ry="3" style="stroke:#038048;stroke-width:1.0;"/><text fill="#000000" font-family="sans-serif" font-size="11" lengthAdjust="spacing" textLength="72" x="35" y="737.0908">setTestIgGan()</text><ellipse cx="26" cy="746.5078" fill="#84BE84" rx="3" ry="3" style="stroke:#038048;stroke-width:1.0;"/><text fill="#000000" font-family="sans-serif" font-size="11" lengthAdjust="spacing" textLength="77" x="35" y="750.9268">addTestResult()</text><ellipse cx="26" cy="760.3438" fill="#84BE84" rx="3" ry="3" style="stroke:#038048;stroke-width:1.0;"/><text fill="#000000" font-family="sans-serif" font-size="11" lengthAdjust="spacing" textLength="32" x="35" y="764.7627">save()</text><!--MD5=[55cb992be19579b505cea3c5691093cb]
class ClientStore--><rect codeLine="36" fill="#FEFECE" filter="url(#fk8mqabguz1pv)" height="89.5078" id="ClientStore" style="stroke:#A80036;stroke-width:1.5;" width="93" x="161" y="667.5"/><ellipse cx="176" cy="683.5" fill="#ADD1B2" rx="11" ry="11" style="stroke:#A80036;stroke-width:1.0;"/><path d="M178,680 Q178.2031,679.5 178.4375,679.25 Q178.6719,679 178.9375,679 Q179.4063,679 179.7031,679.2813 Q180,679.5625 180,680.2188 L180,681.7813 Q180,682.4375 179.7188,682.7188 Q179.4375,683 179,683 Q178.6094,683 178.3594,682.8281 Q178.1094,682.6563 178,682.2031 Q177.9531,681.8906 177.7813,681.7188 Q177.4688,681.3906 176.9063,681.2031 Q176.3438,681 175.7813,681 Q175.0781,681 174.4844,681.2813 Q173.9063,681.5625 173.4531,682.1875 Q173,682.8125 173,683.6719 L173,684.5938 Q173,685.625 173.8438,686.3125 Q174.6875,687 176.1875,687 Q177.0781,687 177.7031,686.7969 Q178.0625,686.6875 178.4688,686.3281 Q178.7344,686.125 178.875,686.0625 Q179.0156,686 179.1875,686 Q179.5156,686 179.75,686.2656 Q180,686.5156 180,686.875 Q180,687.2188 179.6563,687.625 Q179.1563,688.2188 178.3594,688.5469 Q177.3125,689 176.0313,689 Q174.5313,689 173.3281,688.4063 Q172.3594,687.9375 171.6719,686.9219 Q171,685.9063 171,684.7031 L171,683.6094 Q171,682.3594 171.5938,681.2656 Q172.2031,680.1719 173.25,679.5938 Q174.3125,679 175.5,679 Q176.2188,679 176.8438,679.25 Q177.4688,679.5 178,680 Z " fill="#000000"/><text fill="#000000" font-family="sans-serif" font-size="12" lengthAdjust="spacing" textLength="61" x="190" y="688.4102">ClientStore</text><line style="stroke:#A80036;stroke-width:1.5;" x1="162" x2="253" y1="699.5" y2="699.5"/><rect fill="none" height="6" style="stroke:#C82930;stroke-width:1.0;" width="6" x="169" y="707.5"/><text fill="#000000" font-family="sans-serif" font-size="11" lengthAdjust="spacing" textLength="26" x="181" y="714.9189">Client</text><ellipse cx="172" cy="724.3359" rx="3" ry="3" style="stroke:#038048;stroke-width:1.0;fill:none;"/><text fill="#000000" font-family="sans-serif" font-size="11" lengthAdjust="spacing" textLength="48" x="181" y="728.7549">newClient</text><ellipse cx="172" cy="738.1719" rx="3" ry="3" style="stroke:#038048;stroke-width:1.0;fill:none;"/><text fill="#000000" font-family="sans-serif" font-size="11" lengthAdjust="spacing" textLength="24" x="181" y="742.5908">save</text><line style="stroke:#A80036;stroke-width:1.5;" x1="162" x2="253" y1="749.0078" y2="749.0078"/><!--MD5=[a9f433d3ac54c85159d4ca2bfce47124]
class TypeofTest--><rect codeLine="41" fill="#FEFECE" filter="url(#fk8mqabguz1pv)" height="61.8359" id="TypeofTest" style="stroke:#A80036;stroke-width:1.5;" width="119" x="7" y="975"/><ellipse cx="34.15" cy="991" fill="#ADD1B2" rx="11" ry="11" style="stroke:#A80036;stroke-width:1.0;"/><path d="M36.15,987.5 Q36.3531,987 36.5875,986.75 Q36.8219,986.5 37.0875,986.5 Q37.5563,986.5 37.8531,986.7813 Q38.15,987.0625 38.15,987.7188 L38.15,989.2813 Q38.15,989.9375 37.8688,990.2188 Q37.5875,990.5 37.15,990.5 Q36.7594,990.5 36.5094,990.3281 Q36.2594,990.1563 36.15,989.7031 Q36.1031,989.3906 35.9313,989.2188 Q35.6188,988.8906 35.0563,988.7031 Q34.4938,988.5 33.9313,988.5 Q33.2281,988.5 32.6344,988.7813 Q32.0563,989.0625 31.6031,989.6875 Q31.15,990.3125 31.15,991.1719 L31.15,992.0938 Q31.15,993.125 31.9938,993.8125 Q32.8375,994.5 34.3375,994.5 Q35.2281,994.5 35.8531,994.2969 Q36.2125,994.1875 36.6188,993.8281 Q36.8844,993.625 37.025,993.5625 Q37.1656,993.5 37.3375,993.5 Q37.6656,993.5 37.9,993.7656 Q38.15,994.0156 38.15,994.375 Q38.15,994.7188 37.8063,995.125 Q37.3063,995.7188 36.5094,996.0469 Q35.4625,996.5 34.1813,996.5 Q32.6813,996.5 31.4781,995.9063 Q30.5094,995.4375 29.8219,994.4219 Q29.15,993.4063 29.15,992.2031 L29.15,991.1094 Q29.15,989.8594 29.7438,988.7656 Q30.3531,987.6719 31.4,987.0938 Q32.4625,986.5 33.65,986.5 Q34.3688,986.5 34.9938,986.75 Q35.6188,987 36.15,987.5 Z " fill="#000000"/><text fill="#000000" font-family="sans-serif" font-size="12" lengthAdjust="spacing" textLength="60" x="50.85" y="995.9102">TypeofTest</text><line style="stroke:#A80036;stroke-width:1.5;" x1="8" x2="125" y1="1007" y2="1007"/><rect fill="none" height="6" style="stroke:#C82930;stroke-width:1.0;" width="6" x="15" y="1015"/><text fill="#000000" font-family="sans-serif" font-size="11" lengthAdjust="spacing" textLength="93" x="27" y="1022.4189">ParameterCategory</text><line style="stroke:#A80036;stroke-width:1.5;" x1="8" x2="125" y1="1028.8359" y2="1028.8359"/><!--MD5=[df38be88ccee13e832d6fafd6288a4ca]
class Test--><rect codeLine="44" fill="#FEFECE" filter="url(#fk8mqabguz1pv)" height="48" id="Test" style="stroke:#A80036;stroke-width:1.5;" width="56" x="38.5" y="849"/><ellipse cx="53.5" cy="865" fill="#ADD1B2" rx="11" ry="11" style="stroke:#A80036;stroke-width:1.0;"/><path d="M55.5,861.5 Q55.7031,861 55.9375,860.75 Q56.1719,860.5 56.4375,860.5 Q56.9063,860.5 57.2031,860.7813 Q57.5,861.0625 57.5,861.7188 L57.5,863.2813 Q57.5,863.9375 57.2188,864.2188 Q56.9375,864.5 56.5,864.5 Q56.1094,864.5 55.8594,864.3281 Q55.6094,864.1563 55.5,863.7031 Q55.4531,863.3906 55.2813,863.2188 Q54.9688,862.8906 54.4063,862.7031 Q53.8438,862.5 53.2813,862.5 Q52.5781,862.5 51.9844,862.7813 Q51.4063,863.0625 50.9531,863.6875 Q50.5,864.3125 50.5,865.1719 L50.5,866.0938 Q50.5,867.125 51.3438,867.8125 Q52.1875,868.5 53.6875,868.5 Q54.5781,868.5 55.2031,868.2969 Q55.5625,868.1875 55.9688,867.8281 Q56.2344,867.625 56.375,867.5625 Q56.5156,867.5 56.6875,867.5 Q57.0156,867.5 57.25,867.7656 Q57.5,868.0156 57.5,868.375 Q57.5,868.7188 57.1563,869.125 Q56.6563,869.7188 55.8594,870.0469 Q54.8125,870.5 53.5313,870.5 Q52.0313,870.5 50.8281,869.9063 Q49.8594,869.4375 49.1719,868.4219 Q48.5,867.4063 48.5,866.2031 L48.5,865.1094 Q48.5,863.8594 49.0938,862.7656 Q49.7031,861.6719 50.75,861.0938 Q51.8125,860.5 53,860.5 Q53.7188,860.5 54.3438,860.75 Q54.9688,861 55.5,861.5 Z " fill="#000000"/><text fill="#000000" font-family="sans-serif" font-size="12" lengthAdjust="spacing" textLength="24" x="67.5" y="869.9102">Test</text><line style="stroke:#A80036;stroke-width:1.5;" x1="39.5" x2="93.5" y1="881" y2="881"/><line style="stroke:#A80036;stroke-width:1.5;" x1="39.5" x2="93.5" y1="889" y2="889"/><!--MD5=[cf3bc92a44460320e65819fdcc32a039]
link ImportDataUI to ImportDataController--><path codeLine="46" d="M145.5,55.07 C145.5,71.01 145.5,92.51 145.5,110.6 " fill="none" id="ImportDataUI-to-ImportDataController" style="stroke:#A80036;stroke-width:1.0;stroke-dasharray:7.0,7.0;"/><polygon fill="#A80036" points="145.5,115.61,149.5,106.61,145.5,110.61,141.5,106.61,145.5,115.61" style="stroke:#A80036;stroke-width:1.0;"/><!--MD5=[47d2ea82ec0b8e5041b6732f556afc8c]
link ImportDataController to ImportDataService--><path codeLine="47" d="M145.5,178.3 C145.5,193.93 145.5,213.84 145.5,233.68 " fill="none" id="ImportDataController-to-ImportDataService" style="stroke:#A80036;stroke-width:1.0;stroke-dasharray:7.0,7.0;"/><polygon fill="#A80036" points="145.5,238.72,149.5,229.72,145.5,233.72,141.5,229.72,145.5,238.72" style="stroke:#A80036;stroke-width:1.0;"/><!--MD5=[270e38e627d6fcd32f5be42ec6dcc519]
link ImportDataService to TestStore--><path codeLine="48" d="M92.59,398.05 C82.27,417.21 72.96,438.2 67.5,459 C50.97,521.92 53.27,596.74 58.12,648.53 " fill="none" id="ImportDataService-to-TestStore" style="stroke:#A80036;stroke-width:1.0;stroke-dasharray:7.0,7.0;"/><polygon fill="#A80036" points="58.63,653.78,61.7359,644.4337,58.1438,648.8037,53.7738,645.2116,58.63,653.78" style="stroke:#A80036;stroke-width:1.0;"/><!--MD5=[4d8941d4fbf87e21662a01d38c9a6e95]
link ImportDataService to Company--><path codeLine="49" d="M145.5,398.21 C145.5,416.57 145.5,435.88 145.5,453.45 " fill="none" id="ImportDataService-to-Company" style="stroke:#A80036;stroke-width:1.0;stroke-dasharray:7.0,7.0;"/><polygon fill="#A80036" points="145.5,458.85,149.5,449.85,145.5,453.85,141.5,449.85,145.5,458.85" style="stroke:#A80036;stroke-width:1.0;"/><!--MD5=[1522a4971248acb78a6b9abbb97105e3]
link ImportDataService to ClientStore--><path codeLine="50" d="M196.84,398.07 C207.3,417.32 217.05,438.34 223.5,459 C245.42,529.26 249.6,551.4 237.5,624 C235.38,636.73 231.63,650.08 227.5,662.42 " fill="none" id="ImportDataService-to-ClientStore" style="stroke:#A80036;stroke-width:1.0;stroke-dasharray:7.0,7.0;"/><polygon fill="#A80036" points="225.83,667.27,232.5232,660.045,227.4454,662.5381,224.9522,657.4603,225.83,667.27" style="stroke:#A80036;stroke-width:1.0;"/><!--MD5=[7f6cf7f175eae0af66201860de5de971]
link Company to TestStore--><path codeLine="52" d="M121.9,576.14 C112.48,599.16 101.62,625.71 92.01,649.17 " fill="none" id="Company-to-TestStore" style="stroke:#A80036;stroke-width:1.0;"/><polygon fill="#A80036" points="90.11,653.82,97.2174,647.002,92.0015,649.1916,89.8119,643.9757,90.11,653.82" style="stroke:#A80036;stroke-width:1.0;"/><text fill="#000000" font-family="sans-serif" font-size="13" lengthAdjust="spacing" textLength="49" x="109.5" y="620.4951">contains</text><text fill="#000000" font-family="sans-serif" font-size="13" lengthAdjust="spacing" textLength="7" x="111.5972" y="597.7673">1</text><text fill="#000000" font-family="sans-serif" font-size="13" lengthAdjust="spacing" textLength="7" x="85.5609" y="643.199">1</text><!--MD5=[a11230341c8e65219708844feaa40162]
link Company to ClientStore--><path codeLine="53" d="M164.02,576.14 C172.85,603.65 183.31,636.2 191.76,662.49 " fill="none" id="Company-to-ClientStore" style="stroke:#A80036;stroke-width:1.0;"/><polygon fill="#A80036" points="193.31,667.33,194.3735,657.5387,191.7846,662.5684,186.7549,659.9794,193.31,667.33" style="stroke:#A80036;stroke-width:1.0;"/><text fill="#000000" font-family="sans-serif" font-size="13" lengthAdjust="spacing" textLength="49" x="179.5" y="620.4951">contains</text><text fill="#000000" font-family="sans-serif" font-size="13" lengthAdjust="spacing" textLength="14" x="151.424" y="597.7673">10</text><text fill="#000000" font-family="sans-serif" font-size="13" lengthAdjust="spacing" textLength="7" x="183.6012" y="656.7481">1</text><!--MD5=[b0f4f6db8206580012ef9cd998ed01c5]
link TestStore to Test--><path codeLine="55" d="M66.5,771.17 C66.5,795.87 66.5,823.6 66.5,843.72 " fill="none" id="TestStore-to-Test" style="stroke:#A80036;stroke-width:1.0;"/><polygon fill="#A80036" points="66.5,848.92,70.5,839.92,66.5,843.92,62.5,839.92,66.5,848.92" style="stroke:#A80036;stroke-width:1.0;"/><text fill="#000000" font-family="sans-serif" font-size="13" lengthAdjust="spacing" textLength="38" x="67.5" y="815.4951">Stores</text><text fill="#000000" font-family="sans-serif" font-size="13" lengthAdjust="spacing" textLength="5" x="61.1953" y="792.801">*</text><text fill="#000000" font-family="sans-serif" font-size="13" lengthAdjust="spacing" textLength="7" x="58.6031" y="838.2397">1</text><!--MD5=[4af0da6589daef121ae9c1cde1d83bf9]
link Test to TypeofTest--><path codeLine="56" d="M66.5,897.12 C66.5,917.2 66.5,946.58 66.5,969.62 " fill="none" id="Test-to-TypeofTest" style="stroke:#A80036;stroke-width:1.0;"/><polygon fill="#A80036" points="66.5,974.73,70.5,965.73,66.5,969.73,62.5,965.73,66.5,974.73" style="stroke:#A80036;stroke-width:1.0;"/><text fill="#000000" font-family="sans-serif" font-size="13" lengthAdjust="spacing" textLength="24" x="67.5" y="941.4951">is of</text><text fill="#000000" font-family="sans-serif" font-size="13" lengthAdjust="spacing" textLength="7" x="58.6469" y="918.4872">1</text><text fill="#000000" font-family="sans-serif" font-size="13" lengthAdjust="spacing" textLength="7" x="58.7781" y="964.1789">1</text><!--MD5=[d13e338850405a80296031203de06077]
@startuml
'https://plantuml.com/class-diagram

class ImportDataUI{

}
class ImportDataController{
+getFile()
}
class ImportDataService{

+getFileFromPath()
+validateTypeofTest()
+validateLab()
+getTypeOfTest()
+getTestResults()
+getListParameters()
+setTestIgGan(igGan)
+save()
}
class Company {
-desingation
+getTestStore()
+getClientStore()
+getListParameters()
+getTypeOfTest()
}

class TestStore{
-test
+newTest()
+setTestIgGan()
+addTestResult()
+save()
}

class ClientStore{
-Client
+newClient
+save
}
class TypeofTest{
-ParameterCategory
}
class Test {
}
ImportDataUI ..> ImportDataController
ImportDataController ..> ImportDataService
ImportDataService ..> TestStore
ImportDataService ..> Company
ImportDataService ..> ClientStore

Company "1"- ->"1" TestStore : contains
Company "10"- ->"1" ClientStore : contains

TestStore "*"- ->"1" Test : Stores
Test "1" - -> "1" TypeofTest : is of
@enduml

@startuml

class ImportDataUI{

}
class ImportDataController{
+getFile()
}
class ImportDataService{

+getFileFromPath()
+validateTypeofTest()
+validateLab()
+getTypeOfTest()
+getTestResults()
+getListParameters()
+setTestIgGan(igGan)
+save()
}
class Company {
-desingation
+getTestStore()
+getClientStore()
+getListParameters()
+getTypeOfTest()
}

class TestStore{
-test
+newTest()
+setTestIgGan()
+addTestResult()
+save()
}

class ClientStore{
-Client
+newClient
+save
}
class TypeofTest{
-ParameterCategory
}
class Test {
}
ImportDataUI ..> ImportDataController
ImportDataController ..> ImportDataService
ImportDataService ..> TestStore
ImportDataService ..> Company
ImportDataService ..> ClientStore

Company "1"- ->"1" TestStore : contains
Company "10"- ->"1" ClientStore : contains

TestStore "*"- ->"1" Test : Stores
Test "1" - -> "1" TypeofTest : is of
@enduml

PlantUML version 1.2021.7(Sun May 23 13:40:07 BST 2021)
(GPL source distribution)
Java Runtime: OpenJDK Runtime Environment
JVM: OpenJDK 64-Bit Server VM
Default Encoding: Cp1252
Language: pt
Country: PT
--></g></svg>