<?xml version="1.0" encoding="UTF-8" standalone="no"?><svg xmlns="http://www.w3.org/2000/svg" xmlns:xlink="http://www.w3.org/1999/xlink" contentScriptType="application/ecmascript" contentStyleType="text/css" height="800px" preserveAspectRatio="none" style="width:876px;height:800px;" version="1.1" viewBox="0 0 876 800" width="876.25px" zoomAndPan="magnify"><defs><filter height="300%" id="f10e5rd9b2o5n6" width="300%" x="-1" y="-1"><feGaussianBlur result="blurOut" stdDeviation="2.5"/><feColorMatrix in="blurOut" result="blurOut2" type="matrix" values="0 0 0 0 0 0 0 0 0 0 0 0 0 0 0 0 0 0 .4 0"/><feOffset dx="5.0" dy="5.0" in="blurOut2" result="blurOut3"/><feBlend in="SourceGraphic" in2="blurOut3" mode="normal"/></filter></defs><g><!--MD5=[df38be88ccee13e832d6fafd6288a4ca]
class Test--><rect codeLine="6" fill="#FEFECE" filter="url(#f10e5rd9b2o5n6)" height="146.4746" id="Test" style="stroke:#A80036;stroke-width:1.875;" width="296.25" x="176.875" y="8.75"/><ellipse cx="304.6875" cy="28.75" fill="#ADD1B2" rx="13.75" ry="13.75" style="stroke:#A80036;stroke-width:1.25;"/><path d="M307.1875,24.375 Q307.4414,23.75 307.7344,23.4375 Q308.0273,23.125 308.3594,23.125 Q308.9453,23.125 309.3164,23.4766 Q309.6875,23.8281 309.6875,24.6484 L309.6875,26.6016 Q309.6875,27.4219 309.3359,27.7734 Q308.9844,28.125 308.4375,28.125 Q307.9492,28.125 307.6367,27.9102 Q307.3242,27.6953 307.1875,27.1289 Q307.1289,26.7383 306.9141,26.5234 Q306.5234,26.1133 305.8203,25.8789 Q305.1172,25.625 304.4141,25.625 Q303.5352,25.625 302.793,25.9766 Q302.0703,26.3281 301.5039,27.1094 Q300.9375,27.8906 300.9375,28.9648 L300.9375,30.1172 Q300.9375,31.4063 301.9922,32.2656 Q303.0469,33.125 304.9219,33.125 Q306.0352,33.125 306.8164,32.8711 Q307.2656,32.7344 307.7734,32.2852 Q308.1055,32.0313 308.2813,31.9531 Q308.457,31.875 308.6719,31.875 Q309.082,31.875 309.375,32.207 Q309.6875,32.5195 309.6875,32.9688 Q309.6875,33.3984 309.2578,33.9063 Q308.6328,34.6484 307.6367,35.0586 Q306.3281,35.625 304.7266,35.625 Q302.8516,35.625 301.3477,34.8828 Q300.1367,34.2969 299.2773,33.0273 Q298.4375,31.7578 298.4375,30.2539 L298.4375,28.8867 Q298.4375,27.3242 299.1797,25.957 Q299.9414,24.5898 301.25,23.8672 Q302.5781,23.125 304.0625,23.125 Q304.9609,23.125 305.7422,23.4375 Q306.5234,23.75 307.1875,24.375 Z " fill="#000000"/><text fill="#000000" font-family="sans-serif" font-size="15" lengthAdjust="spacing" textLength="30" x="330.3125" y="34.8877">Test</text><line style="stroke:#A80036;stroke-width:1.875;" x1="178.125" x2="471.875" y1="48.75" y2="48.75"/><text fill="#000000" font-family="sans-serif" font-size="13.75" lengthAdjust="spacing" textLength="35" x="184.375" y="68.0237">-code</text><text fill="#000000" font-family="sans-serif" font-size="13.75" lengthAdjust="spacing" textLength="60" x="184.375" y="85.3186">-NhsCode</text><text fill="#000000" font-family="sans-serif" font-size="13.75" lengthAdjust="spacing" textLength="65" x="184.375" y="102.6135">-createdAt</text><line style="stroke:#A80036;stroke-width:1.875;" x1="178.125" x2="471.875" y1="110.6348" y2="110.6348"/><text fill="#000000" font-family="sans-serif" font-size="13.75" lengthAdjust="spacing" textLength="281.25" x="184.375" y="129.9084">+addTestResult(parameterCode, result, metric)</text><text fill="#000000" font-family="sans-serif" font-size="13.75" lengthAdjust="spacing" textLength="236.25" x="184.375" y="147.2034">+getTestParameterFor(parameterCode)</text><!--MD5=[f69a48f7b38bde3533dca6607cc4e94a]
class TypeOfTest--><rect codeLine="14" fill="#FEFECE" filter="url(#f10e5rd9b2o5n6)" height="146.4746" id="TypeOfTest" style="stroke:#A80036;stroke-width:1.875;" width="142.5" x="138.75" y="252.5"/><ellipse cx="168.75" cy="272.5" fill="#ADD1B2" rx="13.75" ry="13.75" style="stroke:#A80036;stroke-width:1.25;"/><path d="M171.25,268.125 Q171.5039,267.5 171.7969,267.1875 Q172.0898,266.875 172.4219,266.875 Q173.0078,266.875 173.3789,267.2266 Q173.75,267.5781 173.75,268.3984 L173.75,270.3516 Q173.75,271.1719 173.3984,271.5234 Q173.0469,271.875 172.5,271.875 Q172.0117,271.875 171.6992,271.6602 Q171.3867,271.4453 171.25,270.8789 Q171.1914,270.4883 170.9766,270.2734 Q170.5859,269.8633 169.8828,269.6289 Q169.1797,269.375 168.4766,269.375 Q167.5977,269.375 166.8555,269.7266 Q166.1328,270.0781 165.5664,270.8594 Q165,271.6406 165,272.7148 L165,273.8672 Q165,275.1563 166.0547,276.0156 Q167.1094,276.875 168.9844,276.875 Q170.0977,276.875 170.8789,276.6211 Q171.3281,276.4844 171.8359,276.0352 Q172.168,275.7813 172.3438,275.7031 Q172.5195,275.625 172.7344,275.625 Q173.1445,275.625 173.4375,275.957 Q173.75,276.2695 173.75,276.7188 Q173.75,277.1484 173.3203,277.6563 Q172.6953,278.3984 171.6992,278.8086 Q170.3906,279.375 168.7891,279.375 Q166.9141,279.375 165.4102,278.6328 Q164.1992,278.0469 163.3398,276.7773 Q162.5,275.5078 162.5,274.0039 L162.5,272.6367 Q162.5,271.0742 163.2422,269.707 Q164.0039,268.3398 165.3125,267.6172 Q166.6406,266.875 168.125,266.875 Q169.0234,266.875 169.8047,267.1875 Q170.5859,267.5 171.25,268.125 Z " fill="#000000"/><text fill="#000000" font-family="sans-serif" font-size="15" lengthAdjust="spacing" textLength="77.5" x="188.75" y="278.6377">TypeOfTest</text><line style="stroke:#A80036;stroke-width:1.875;" x1="140" x2="280" y1="292.5" y2="292.5"/><text fill="#000000" font-family="sans-serif" font-size="13.75" lengthAdjust="spacing" textLength="35" x="146.25" y="311.7737">-code</text><text fill="#000000" font-family="sans-serif" font-size="13.75" lengthAdjust="spacing" textLength="71.25" x="146.25" y="329.0686">-description</text><text fill="#000000" font-family="sans-serif" font-size="13.75" lengthAdjust="spacing" textLength="112.5" x="146.25" y="346.3635">-collectingMethods</text><text fill="#000000" font-family="sans-serif" font-size="13.75" lengthAdjust="spacing" textLength="86.25" x="146.25" y="363.6584">-parameterCat</text><line style="stroke:#A80036;stroke-width:1.875;" x1="140" x2="280" y1="371.6797" y2="371.6797"/><text fill="#000000" font-family="sans-serif" font-size="13.75" lengthAdjust="spacing" textLength="127.5" x="146.25" y="390.9534">+getExternalModule()</text><!--MD5=[1f6362a5c8f21d8d6a0fce68f3a92a4e]
class Parameter--><rect codeLine="23" fill="#FEFECE" filter="url(#f10e5rd9b2o5n6)" height="111.8848" id="Parameter" style="stroke:#A80036;stroke-width:1.875;" width="112.5" x="407.5" y="504.375"/><ellipse cx="426.25" cy="524.375" fill="#ADD1B2" rx="13.75" ry="13.75" style="stroke:#A80036;stroke-width:1.25;"/><path d="M428.75,520 Q429.0039,519.375 429.2969,519.0625 Q429.5898,518.75 429.9219,518.75 Q430.5078,518.75 430.8789,519.1016 Q431.25,519.4531 431.25,520.2734 L431.25,522.2266 Q431.25,523.0469 430.8984,523.3984 Q430.5469,523.75 430,523.75 Q429.5117,523.75 429.1992,523.5352 Q428.8867,523.3203 428.75,522.7539 Q428.6914,522.3633 428.4766,522.1484 Q428.0859,521.7383 427.3828,521.5039 Q426.6797,521.25 425.9766,521.25 Q425.0977,521.25 424.3555,521.6016 Q423.6328,521.9531 423.0664,522.7344 Q422.5,523.5156 422.5,524.5898 L422.5,525.7422 Q422.5,527.0313 423.5547,527.8906 Q424.6094,528.75 426.4844,528.75 Q427.5977,528.75 428.3789,528.4961 Q428.8281,528.3594 429.3359,527.9102 Q429.668,527.6563 429.8438,527.5781 Q430.0195,527.5 430.2344,527.5 Q430.6445,527.5 430.9375,527.832 Q431.25,528.1445 431.25,528.5938 Q431.25,529.0234 430.8203,529.5313 Q430.1953,530.2734 429.1992,530.6836 Q427.8906,531.25 426.2891,531.25 Q424.4141,531.25 422.9102,530.5078 Q421.6992,529.9219 420.8398,528.6523 Q420,527.3828 420,525.8789 L420,524.5117 Q420,522.9492 420.7422,521.582 Q421.5039,520.2148 422.8125,519.4922 Q424.1406,518.75 425.625,518.75 Q426.5234,518.75 427.3047,519.0625 Q428.0859,519.375 428.75,520 Z " fill="#000000"/><text fill="#000000" font-family="sans-serif" font-size="15" lengthAdjust="spacing" textLength="72.5" x="443.75" y="530.5127">Parameter</text><line style="stroke:#A80036;stroke-width:1.875;" x1="408.75" x2="518.75" y1="544.375" y2="544.375"/><text fill="#000000" font-family="sans-serif" font-size="13.75" lengthAdjust="spacing" textLength="35" x="415" y="563.6487">-code</text><text fill="#000000" font-family="sans-serif" font-size="13.75" lengthAdjust="spacing" textLength="70" x="415" y="580.9436">-shortName</text><text fill="#000000" font-family="sans-serif" font-size="13.75" lengthAdjust="spacing" textLength="71.25" x="415" y="598.2385">-description</text><line style="stroke:#A80036;stroke-width:1.875;" x1="408.75" x2="518.75" y1="606.2598" y2="606.2598"/><!--MD5=[0f07739f46effee96e095e9c408da841]
class TestParameter--><rect codeLine="29" fill="#FEFECE" filter="url(#f10e5rd9b2o5n6)" height="94.5898" id="TestParameter" style="stroke:#A80036;stroke-width:1.875;" width="230" x="348.75" y="278.125"/><ellipse cx="407.1875" cy="298.125" fill="#ADD1B2" rx="13.75" ry="13.75" style="stroke:#A80036;stroke-width:1.25;"/><path d="M409.6875,293.75 Q409.9414,293.125 410.2344,292.8125 Q410.5273,292.5 410.8594,292.5 Q411.4453,292.5 411.8164,292.8516 Q412.1875,293.2031 412.1875,294.0234 L412.1875,295.9766 Q412.1875,296.7969 411.8359,297.1484 Q411.4844,297.5 410.9375,297.5 Q410.4492,297.5 410.1367,297.2852 Q409.8242,297.0703 409.6875,296.5039 Q409.6289,296.1133 409.4141,295.8984 Q409.0234,295.4883 408.3203,295.2539 Q407.6172,295 406.9141,295 Q406.0352,295 405.293,295.3516 Q404.5703,295.7031 404.0039,296.4844 Q403.4375,297.2656 403.4375,298.3398 L403.4375,299.4922 Q403.4375,300.7813 404.4922,301.6406 Q405.5469,302.5 407.4219,302.5 Q408.5352,302.5 409.3164,302.2461 Q409.7656,302.1094 410.2734,301.6602 Q410.6055,301.4063 410.7813,301.3281 Q410.957,301.25 411.1719,301.25 Q411.582,301.25 411.875,301.582 Q412.1875,301.8945 412.1875,302.3438 Q412.1875,302.7734 411.7578,303.2813 Q411.1328,304.0234 410.1367,304.4336 Q408.8281,305 407.2266,305 Q405.3516,305 403.8477,304.2578 Q402.6367,303.6719 401.7773,302.4023 Q400.9375,301.1328 400.9375,299.6289 L400.9375,298.2617 Q400.9375,296.6992 401.6797,295.332 Q402.4414,293.9648 403.75,293.2422 Q405.0781,292.5 406.5625,292.5 Q407.4609,292.5 408.2422,292.8125 Q409.0234,293.125 409.6875,293.75 Z " fill="#000000"/><text fill="#000000" font-family="sans-serif" font-size="15" lengthAdjust="spacing" textLength="102.5" x="432.8125" y="304.2627">TestParameter</text><line style="stroke:#A80036;stroke-width:1.875;" x1="350" x2="577.5" y1="318.125" y2="318.125"/><line style="stroke:#A80036;stroke-width:1.875;" x1="350" x2="577.5" y1="328.125" y2="328.125"/><text fill="#000000" font-family="sans-serif" font-size="13.75" lengthAdjust="spacing" textLength="97.5" x="356.25" y="347.3987">+getParameter()</text><text fill="#000000" font-family="sans-serif" font-size="13.75" lengthAdjust="spacing" textLength="215" x="356.25" y="364.6936">+addResult(result, metric, refValue)</text><!--MD5=[4e608140b854dae633589343bce77383]
class TestParameterResult--><rect codeLine="34" fill="#FEFECE" filter="url(#f10e5rd9b2o5n6)" height="129.1797" id="TestParameterResult" style="stroke:#A80036;stroke-width:1.875;" width="295" x="563.75" y="496.25"/><ellipse cx="632.1875" cy="516.25" fill="#ADD1B2" rx="13.75" ry="13.75" style="stroke:#A80036;stroke-width:1.25;"/><path d="M634.6875,511.875 Q634.9414,511.25 635.2344,510.9375 Q635.5273,510.625 635.8594,510.625 Q636.4453,510.625 636.8164,510.9766 Q637.1875,511.3281 637.1875,512.1484 L637.1875,514.1016 Q637.1875,514.9219 636.8359,515.2734 Q636.4844,515.625 635.9375,515.625 Q635.4492,515.625 635.1367,515.4102 Q634.8242,515.1953 634.6875,514.6289 Q634.6289,514.2383 634.4141,514.0234 Q634.0234,513.6133 633.3203,513.3789 Q632.6172,513.125 631.9141,513.125 Q631.0352,513.125 630.293,513.4766 Q629.5703,513.8281 629.0039,514.6094 Q628.4375,515.3906 628.4375,516.4648 L628.4375,517.6172 Q628.4375,518.9063 629.4922,519.7656 Q630.5469,520.625 632.4219,520.625 Q633.5352,520.625 634.3164,520.3711 Q634.7656,520.2344 635.2734,519.7852 Q635.6055,519.5313 635.7813,519.4531 Q635.957,519.375 636.1719,519.375 Q636.582,519.375 636.875,519.707 Q637.1875,520.0195 637.1875,520.4688 Q637.1875,520.8984 636.7578,521.4063 Q636.1328,522.1484 635.1367,522.5586 Q633.8281,523.125 632.2266,523.125 Q630.3516,523.125 628.8477,522.3828 Q627.6367,521.7969 626.7773,520.5273 Q625.9375,519.2578 625.9375,517.7539 L625.9375,516.3867 Q625.9375,514.8242 626.6797,513.457 Q627.4414,512.0898 628.75,511.3672 Q630.0781,510.625 631.5625,510.625 Q632.4609,510.625 633.2422,510.9375 Q634.0234,511.25 634.6875,511.875 Z " fill="#000000"/><text fill="#000000" font-family="sans-serif" font-size="15" lengthAdjust="spacing" textLength="147.5" x="657.8125" y="522.3877">TestParameterResult</text><line style="stroke:#A80036;stroke-width:1.875;" x1="565" x2="857.5" y1="536.25" y2="536.25"/><text fill="#000000" font-family="sans-serif" font-size="13.75" lengthAdjust="spacing" textLength="65" x="571.25" y="555.5237">-createdAt</text><text fill="#000000" font-family="sans-serif" font-size="13.75" lengthAdjust="spacing" textLength="37.5" x="571.25" y="572.8186">-value</text><text fill="#000000" font-family="sans-serif" font-size="13.75" lengthAdjust="spacing" textLength="37.5" x="571.25" y="590.1135">-meric</text><line style="stroke:#A80036;stroke-width:1.875;" x1="565" x2="857.5" y1="598.1348" y2="598.1348"/><text fill="#000000" font-family="sans-serif" font-size="13.75" lengthAdjust="spacing" textLength="280" x="571.25" y="617.4084">+TestParameterResult(result, metric, refValue)</text><!--MD5=[8f188b89eff49accb0f38c057b38a9f2]
class ExternalModule--><rect codeLine="41" fill="#FEFECE" filter="url(#f10e5rd9b2o5n6)" height="77.2949" id="ExternalModule" style="stroke:#A80036;stroke-width:1.875;" width="355" x="8.75" y="521.875"/><ellipse cx="128.4375" cy="541.875" fill="#ADD1B2" rx="13.75" ry="13.75" style="stroke:#A80036;stroke-width:1.25;"/><path d="M130.9375,537.5 Q131.1914,536.875 131.4844,536.5625 Q131.7773,536.25 132.1094,536.25 Q132.6953,536.25 133.0664,536.6016 Q133.4375,536.9531 133.4375,537.7734 L133.4375,539.7266 Q133.4375,540.5469 133.0859,540.8984 Q132.7344,541.25 132.1875,541.25 Q131.6992,541.25 131.3867,541.0352 Q131.0742,540.8203 130.9375,540.2539 Q130.8789,539.8633 130.6641,539.6484 Q130.2734,539.2383 129.5703,539.0039 Q128.8672,538.75 128.1641,538.75 Q127.2852,538.75 126.543,539.1016 Q125.8203,539.4531 125.2539,540.2344 Q124.6875,541.0156 124.6875,542.0898 L124.6875,543.2422 Q124.6875,544.5313 125.7422,545.3906 Q126.7969,546.25 128.6719,546.25 Q129.7852,546.25 130.5664,545.9961 Q131.0156,545.8594 131.5234,545.4102 Q131.8555,545.1563 132.0313,545.0781 Q132.207,545 132.4219,545 Q132.832,545 133.125,545.332 Q133.4375,545.6445 133.4375,546.0938 Q133.4375,546.5234 133.0078,547.0313 Q132.3828,547.7734 131.3867,548.1836 Q130.0781,548.75 128.4766,548.75 Q126.6016,548.75 125.0977,548.0078 Q123.8867,547.4219 123.0273,546.1523 Q122.1875,544.8828 122.1875,543.3789 L122.1875,542.0117 Q122.1875,540.4492 122.9297,539.082 Q123.6914,537.7148 125,536.9922 Q126.3281,536.25 127.8125,536.25 Q128.7109,536.25 129.4922,536.5625 Q130.2734,536.875 130.9375,537.5 Z " fill="#000000"/><text fill="#000000" font-family="sans-serif" font-size="15" lengthAdjust="spacing" textLength="105" x="154.0625" y="548.0127">ExternalModule</text><line style="stroke:#A80036;stroke-width:1.875;" x1="10" x2="362.5" y1="561.875" y2="561.875"/><line style="stroke:#A80036;stroke-width:1.875;" x1="10" x2="362.5" y1="571.875" y2="571.875"/><text fill="#000000" font-family="sans-serif" font-size="13.75" lengthAdjust="spacing" textLength="340" x="16.25" y="591.1487">+ReferenceValue getReferenceValue(Parameter param)</text><!--MD5=[1c357e7e7fdba398bcadd6e61afe49f5]
class ReferenceValue--><rect codeLine="49" fill="#FEFECE" filter="url(#f10e5rd9b2o5n6)" height="60" id="ReferenceValue" style="stroke:#A80036;stroke-width:1.875;" width="150" x="636.25" y="722.5"/><ellipse cx="655" cy="742.5" fill="#ADD1B2" rx="13.75" ry="13.75" style="stroke:#A80036;stroke-width:1.25;"/><path d="M657.5,738.125 Q657.7539,737.5 658.0469,737.1875 Q658.3398,736.875 658.6719,736.875 Q659.2578,736.875 659.6289,737.2266 Q660,737.5781 660,738.3984 L660,740.3516 Q660,741.1719 659.6484,741.5234 Q659.2969,741.875 658.75,741.875 Q658.2617,741.875 657.9492,741.6602 Q657.6367,741.4453 657.5,740.8789 Q657.4414,740.4883 657.2266,740.2734 Q656.8359,739.8633 656.1328,739.6289 Q655.4297,739.375 654.7266,739.375 Q653.8477,739.375 653.1055,739.7266 Q652.3828,740.0781 651.8164,740.8594 Q651.25,741.6406 651.25,742.7148 L651.25,743.8672 Q651.25,745.1563 652.3047,746.0156 Q653.3594,746.875 655.2344,746.875 Q656.3477,746.875 657.1289,746.6211 Q657.5781,746.4844 658.0859,746.0352 Q658.418,745.7813 658.5938,745.7031 Q658.7695,745.625 658.9844,745.625 Q659.3945,745.625 659.6875,745.957 Q660,746.2695 660,746.7188 Q660,747.1484 659.5703,747.6563 Q658.9453,748.3984 657.9492,748.8086 Q656.6406,749.375 655.0391,749.375 Q653.1641,749.375 651.6602,748.6328 Q650.4492,748.0469 649.5898,746.7773 Q648.75,745.5078 648.75,744.0039 L648.75,742.6367 Q648.75,741.0742 649.4922,739.707 Q650.2539,738.3398 651.5625,737.6172 Q652.8906,736.875 654.375,736.875 Q655.2734,736.875 656.0547,737.1875 Q656.8359,737.5 657.5,738.125 Z " fill="#000000"/><text fill="#000000" font-family="sans-serif" font-size="15" lengthAdjust="spacing" textLength="110" x="672.5" y="748.6377">ReferenceValue</text><line style="stroke:#A80036;stroke-width:1.875;" x1="637.5" x2="785" y1="762.5" y2="762.5"/><line style="stroke:#A80036;stroke-width:1.875;" x1="637.5" x2="785" y1="772.5" y2="772.5"/><!--MD5=[52200cc2361fa0ac0481dd6ffcdb824b]
link TestParameterResult to ReferenceValue--><path codeLine="54" d="M711.25,625.4625 C711.25,655.45 711.25,690.1125 711.25,715.45 " fill="none" id="TestParameterResult-to-ReferenceValue" style="stroke:#A80036;stroke-width:1.25;"/><polygon fill="#A80036" points="711.25,722.0125,716.25,710.7625,711.25,715.7625,706.25,710.7625,711.25,722.0125" style="stroke:#A80036;stroke-width:1.25;"/><text fill="#000000" font-family="sans-serif" font-size="16.25" lengthAdjust="spacing" textLength="53.75" x="712.5" y="680.6189">records</text><text fill="#000000" font-family="sans-serif" font-size="16.25" lengthAdjust="spacing" textLength="8.75" x="701.9121" y="652.3883">1</text><text fill="#000000" font-family="sans-serif" font-size="16.25" lengthAdjust="spacing" textLength="8.75" x="701.4336" y="709.0661">1</text><!--MD5=[0e00e25ac6b8c14659aaff2cf7e5df08]
link TestParameter to TestParameterResult--><path codeLine="55" d="M513.2375,373.3625 C549.3,407.2375 598.7,453.65 639.15,491.6375 " fill="none" id="TestParameter-to-TestParameterResult" style="stroke:#A80036;stroke-width:1.25;"/><polygon fill="#A80036" points="644.025,496.225,639.2374,484.883,639.4654,491.9504,632.398,492.1783,644.025,496.225" style="stroke:#A80036;stroke-width:1.25;"/><text fill="#000000" font-family="sans-serif" font-size="16.25" lengthAdjust="spacing" textLength="61.25" x="602.5" y="454.3689">contains</text><text fill="#000000" font-family="sans-serif" font-size="16.25" lengthAdjust="spacing" textLength="8.75" x="511.6773" y="399.501">1</text><text fill="#000000" font-family="sans-serif" font-size="16.25" lengthAdjust="spacing" textLength="27.5" x="605.1379" y="482.6321">0..1</text><!--MD5=[92e8e476cc9e9004a7125f53a120ec97]
link TestParameter to Parameter--><path codeLine="56" d="M463.75,373.3625 C463.75,408.9375 463.75,458.35 463.75,497.3125 " fill="none" id="TestParameter-to-Parameter" style="stroke:#A80036;stroke-width:1.25;"/><polygon fill="#A80036" points="463.75,503.9625,468.75,492.7125,463.75,497.7125,458.75,492.7125,463.75,503.9625" style="stroke:#A80036;stroke-width:1.25;"/><text fill="#000000" font-family="sans-serif" font-size="16.25" lengthAdjust="spacing" textLength="58.75" x="465" y="454.3689">refers to</text><text fill="#000000" font-family="sans-serif" font-size="16.25" lengthAdjust="spacing" textLength="6.25" x="457.002" y="399.501">*</text><text fill="#000000" font-family="sans-serif" font-size="16.25" lengthAdjust="spacing" textLength="8.75" x="454.3301" y="490.7045">1</text><!--MD5=[f24c888dadeb846430474fe80a58922b]
link Test to TestParameter--><path codeLine="57" d="M366.4375,155.175 C388.025,192.725 413.95,237.7875 433.6125,271.975 " fill="none" id="Test-to-TestParameter" style="stroke:#A80036;stroke-width:1.25;"/><polygon fill="#A80036" points="436.9625,277.7875,435.6961,265.5417,433.8501,272.3676,427.0242,270.5216,436.9625,277.7875" style="stroke:#A80036;stroke-width:1.25;"/><polygon fill="#000000" points="406.866,209.3876,404.4137,197.7551,398.0446,201.4181,406.866,209.3876" style="stroke:#000000;stroke-width:1.25;"/><text fill="#000000" font-family="sans-serif" font-size="16.25" lengthAdjust="spacing" textLength="145" x="415" y="210.6189">requests analysis of</text><text fill="#000000" font-family="sans-serif" font-size="16.25" lengthAdjust="spacing" textLength="8.75" x="362.2045" y="182.2092">1</text><text fill="#000000" font-family="sans-serif" font-size="16.25" lengthAdjust="spacing" textLength="25" x="404.9644" y="264.4298">1..*</text><!--MD5=[14ee0e434cef03b3d48ccfb011c195a6]
link Test to TypeOfTest--><path codeLine="58" d="M290.65,155.175 C276.9375,183.95 261.1125,217.1375 247.1375,246.4625 " fill="none" id="Test-to-TypeOfTest" style="stroke:#A80036;stroke-width:1.25;"/><polygon fill="#A80036" points="244.375,252.275,253.7369,244.2801,247.0697,246.6358,244.7141,239.9686,244.375,252.275" style="stroke:#A80036;stroke-width:1.25;"/><text fill="#000000" font-family="sans-serif" font-size="16.25" lengthAdjust="spacing" textLength="30" x="271.25" y="210.6189">is of</text><text fill="#000000" font-family="sans-serif" font-size="16.25" lengthAdjust="spacing" textLength="6.25" x="279.8327" y="182.2092">*</text><text fill="#000000" font-family="sans-serif" font-size="16.25" lengthAdjust="spacing" textLength="8.75" x="239.2813" y="238.9987">1</text><!--MD5=[b3c4bc4a8394bdf9a19e71dc880ccc83]
link TypeOfTest to ExternalModule--><path codeLine="59" d="M202.65,398.85 C198.75,436.9875 194.0875,482.5875 190.7375,515.425 " fill="none" id="TypeOfTest-to-ExternalModule" style="stroke:#A80036;stroke-width:1.25;"/><polygon fill="#A80036" points="190.0875,521.825,196.2186,511.1492,190.7306,515.6082,186.2717,510.1202,190.0875,521.825" style="stroke:#A80036;stroke-width:1.25;"/><text fill="#000000" font-family="sans-serif" font-size="16.25" lengthAdjust="spacing" textLength="97.5" x="198.75" y="454.3689">makes use of</text><text fill="#000000" font-family="sans-serif" font-size="16.25" lengthAdjust="spacing" textLength="6.25" x="195.1234" y="425.875">*</text><text fill="#000000" font-family="sans-serif" font-size="16.25" lengthAdjust="spacing" textLength="8.75" x="181.2199" y="508.0894">1</text><!--MD5=[b57a10a143493749c0669f36da9c1f4e]
@startuml

skinparam classAttributeIconSize 0



class Test{
- code
- NhsCode
- createdAt
+ addTestResult(parameterCode, result, metric)
+ getTestParameterFor(parameterCode)
}

class TypeOfTest{
- code
- description
- collectingMethods
- parameterCat
+ getExternalModule()
}


class Parameter{
- code
- shortName
- description
}

class TestParameter{
+getParameter()
+addResult(result, metric, refValue)
}

class TestParameterResult{
- createdAt
- value
- meric
+ TestParameterResult(result, metric, refValue)
}

class ExternalModule {
+ ReferenceValue getReferenceValue(Parameter param)
}


class ReferenceValue{
}

class ReferenceValue{
}



TestParameterResult "1" - -> "1" ReferenceValue : records
TestParameter "1" - -> "0..1" TestParameterResult : contains
TestParameter "*" - -> "1" Parameter : refers to
Test "1" - -> "1..*" TestParameter : requests analysis of >
Test "*" - -> "1" TypeOfTest : is of
TypeOfTest "*" - -> "1" ExternalModule : makes use of



@enduml

PlantUML version 1.2021.5(Sun Apr 25 12:20:28 BST 2021)
(GPL source distribution)
Java Runtime: OpenJDK Runtime Environment
JVM: OpenJDK 64-Bit Server VM
Default Encoding: Cp1252
Language: pt
Country: PT
--></g></svg>