<?xml version="1.0" encoding="UTF-8" standalone="no"?><svg xmlns="http://www.w3.org/2000/svg" xmlns:xlink="http://www.w3.org/1999/xlink" contentScriptType="application/ecmascript" contentStyleType="text/css" height="162.5px" preserveAspectRatio="none" style="width:952px;height:162px;" version="1.1" viewBox="0 0 952 162" width="952.5px" zoomAndPan="magnify"><defs><filter height="300%" id="fvic0l4bw65hq" width="300%" x="-1" y="-1"><feGaussianBlur result="blurOut" stdDeviation="2.5"/><feColorMatrix in="blurOut" result="blurOut2" type="matrix" values="0 0 0 0 0 0 0 0 0 0 0 0 0 0 0 0 0 0 .4 0"/><feOffset dx="5.0" dy="5.0" in="blurOut2" result="blurOut3"/><feBlend in="SourceGraphic" in2="blurOut3" mode="normal"/></filter></defs><g><!--MD5=[02e4b9b7573f1156f41e60aa5b4e25a4]
class Company--><rect codeLine="7" fill="#FEFECE" filter="url(#fvic0l4bw65hq)" height="67.2949" id="Company" style="stroke:#A80036;stroke-width:1.875;" width="106.25" x="8.75" y="43.125"/><ellipse cx="27.5" cy="63.125" fill="#ADD1B2" rx="13.75" ry="13.75" style="stroke:#A80036;stroke-width:1.25;"/><path d="M30,58.75 Q30.2539,58.125 30.5469,57.8125 Q30.8398,57.5 31.1719,57.5 Q31.7578,57.5 32.1289,57.8516 Q32.5,58.2031 32.5,59.0234 L32.5,60.9766 Q32.5,61.7969 32.1484,62.1484 Q31.7969,62.5 31.25,62.5 Q30.7617,62.5 30.4492,62.2852 Q30.1367,62.0703 30,61.5039 Q29.9414,61.1133 29.7266,60.8984 Q29.3359,60.4883 28.6328,60.2539 Q27.9297,60 27.2266,60 Q26.3477,60 25.6055,60.3516 Q24.8828,60.7031 24.3164,61.4844 Q23.75,62.2656 23.75,63.3398 L23.75,64.4922 Q23.75,65.7813 24.8047,66.6406 Q25.8594,67.5 27.7344,67.5 Q28.8477,67.5 29.6289,67.2461 Q30.0781,67.1094 30.5859,66.6602 Q30.918,66.4063 31.0938,66.3281 Q31.2695,66.25 31.4844,66.25 Q31.8945,66.25 32.1875,66.582 Q32.5,66.8945 32.5,67.3438 Q32.5,67.7734 32.0703,68.2813 Q31.4453,69.0234 30.4492,69.4336 Q29.1406,70 27.5391,70 Q25.6641,70 24.1602,69.2578 Q22.9492,68.6719 22.0898,67.4023 Q21.25,66.1328 21.25,64.6289 L21.25,63.2617 Q21.25,61.6992 21.9922,60.332 Q22.7539,58.9648 24.0625,58.2422 Q25.3906,57.5 26.875,57.5 Q27.7734,57.5 28.5547,57.8125 Q29.3359,58.125 30,58.75 Z " fill="#000000"/><text fill="#000000" font-family="sans-serif" font-size="15" lengthAdjust="spacing" textLength="66.25" x="45" y="69.2627">Company</text><line style="stroke:#A80036;stroke-width:1.875;" x1="10" x2="113.75" y1="83.125" y2="83.125"/><text fill="#000000" font-family="sans-serif" font-size="13.75" lengthAdjust="spacing" textLength="73.75" x="16.25" y="102.3987">-designation</text><!--MD5=[db6d18d8099558415abc41d00477ab92]
class Admin--><rect codeLine="11" fill="#FEFECE" filter="url(#fvic0l4bw65hq)" height="50" id="Admin" style="stroke:#A80036;stroke-width:1.875;" width="83.75" x="255" y="51.875"/><ellipse cx="273.75" cy="71.875" fill="#ADD1B2" rx="13.75" ry="13.75" style="stroke:#A80036;stroke-width:1.25;"/><path d="M276.25,67.5 Q276.5039,66.875 276.7969,66.5625 Q277.0898,66.25 277.4219,66.25 Q278.0078,66.25 278.3789,66.6016 Q278.75,66.9531 278.75,67.7734 L278.75,69.7266 Q278.75,70.5469 278.3984,70.8984 Q278.0469,71.25 277.5,71.25 Q277.0117,71.25 276.6992,71.0352 Q276.3867,70.8203 276.25,70.2539 Q276.1914,69.8633 275.9766,69.6484 Q275.5859,69.2383 274.8828,69.0039 Q274.1797,68.75 273.4766,68.75 Q272.5977,68.75 271.8555,69.1016 Q271.1328,69.4531 270.5664,70.2344 Q270,71.0156 270,72.0898 L270,73.2422 Q270,74.5313 271.0547,75.3906 Q272.1094,76.25 273.9844,76.25 Q275.0977,76.25 275.8789,75.9961 Q276.3281,75.8594 276.8359,75.4102 Q277.168,75.1563 277.3438,75.0781 Q277.5195,75 277.7344,75 Q278.1445,75 278.4375,75.332 Q278.75,75.6445 278.75,76.0938 Q278.75,76.5234 278.3203,77.0313 Q277.6953,77.7734 276.6992,78.1836 Q275.3906,78.75 273.7891,78.75 Q271.9141,78.75 270.4102,78.0078 Q269.1992,77.4219 268.3398,76.1523 Q267.5,74.8828 267.5,73.3789 L267.5,72.0117 Q267.5,70.4492 268.2422,69.082 Q269.0039,67.7148 270.3125,66.9922 Q271.6406,66.25 273.125,66.25 Q274.0234,66.25 274.8047,66.5625 Q275.5859,66.875 276.25,67.5 Z " fill="#000000"/><text fill="#000000" font-family="sans-serif" font-size="15" lengthAdjust="spacing" textLength="43.75" x="291.25" y="78.0127">Admin</text><line style="stroke:#A80036;stroke-width:1.875;" x1="256.25" x2="337.5" y1="91.875" y2="91.875"/><!--MD5=[28d9d7ef96b34fdc6ab3814c5cef79ce]
class ClinicalAnalysisLab--><rect codeLine="14" fill="#FEFECE" filter="url(#fvic0l4bw65hq)" height="136.4746" id="ClinicalAnalysisLab" style="stroke:#A80036;stroke-width:1.875;" width="175" x="486.25" y="8.75"/><ellipse cx="505" cy="28.75" fill="#ADD1B2" rx="13.75" ry="13.75" style="stroke:#A80036;stroke-width:1.25;"/><path d="M507.5,24.375 Q507.7539,23.75 508.0469,23.4375 Q508.3398,23.125 508.6719,23.125 Q509.2578,23.125 509.6289,23.4766 Q510,23.8281 510,24.6484 L510,26.6016 Q510,27.4219 509.6484,27.7734 Q509.2969,28.125 508.75,28.125 Q508.2617,28.125 507.9492,27.9102 Q507.6367,27.6953 507.5,27.1289 Q507.4414,26.7383 507.2266,26.5234 Q506.8359,26.1133 506.1328,25.8789 Q505.4297,25.625 504.7266,25.625 Q503.8477,25.625 503.1055,25.9766 Q502.3828,26.3281 501.8164,27.1094 Q501.25,27.8906 501.25,28.9648 L501.25,30.1172 Q501.25,31.4063 502.3047,32.2656 Q503.3594,33.125 505.2344,33.125 Q506.3477,33.125 507.1289,32.8711 Q507.5781,32.7344 508.0859,32.2852 Q508.418,32.0313 508.5938,31.9531 Q508.7695,31.875 508.9844,31.875 Q509.3945,31.875 509.6875,32.207 Q510,32.5195 510,32.9688 Q510,33.3984 509.5703,33.9063 Q508.9453,34.6484 507.9492,35.0586 Q506.6406,35.625 505.0391,35.625 Q503.1641,35.625 501.6602,34.8828 Q500.4492,34.2969 499.5898,33.0273 Q498.75,31.7578 498.75,30.2539 L498.75,28.8867 Q498.75,27.3242 499.4922,25.957 Q500.2539,24.5898 501.5625,23.8672 Q502.8906,23.125 504.375,23.125 Q505.2734,23.125 506.0547,23.4375 Q506.8359,23.75 507.5,24.375 Z " fill="#000000"/><text fill="#000000" font-family="sans-serif" font-size="15" lengthAdjust="spacing" textLength="135" x="522.5" y="34.8877">ClinicalAnalysisLab</text><line style="stroke:#A80036;stroke-width:1.875;" x1="487.5" x2="660" y1="48.75" y2="48.75"/><text fill="#000000" font-family="sans-serif" font-size="13.75" lengthAdjust="spacing" textLength="81.25" x="493.75" y="68.0237">-idLaboratory</text><text fill="#000000" font-family="sans-serif" font-size="13.75" lengthAdjust="spacing" textLength="37.5" x="493.75" y="85.3186">-name</text><text fill="#000000" font-family="sans-serif" font-size="13.75" lengthAdjust="spacing" textLength="55" x="493.75" y="102.6135">-address</text><text fill="#000000" font-family="sans-serif" font-size="13.75" lengthAdjust="spacing" textLength="88.75" x="493.75" y="119.9084">-phoneNumber</text><text fill="#000000" font-family="sans-serif" font-size="13.75" lengthAdjust="spacing" textLength="18.75" x="493.75" y="137.2034">-tin</text><!--MD5=[f69a48f7b38bde3533dca6607cc4e94a]
class TypeOfTest--><rect codeLine="22" fill="#FEFECE" filter="url(#fvic0l4bw65hq)" height="50" id="TypeOfTest" style="stroke:#A80036;stroke-width:1.875;" width="117.5" x="817.5" y="51.875"/><ellipse cx="836.25" cy="71.875" fill="#ADD1B2" rx="13.75" ry="13.75" style="stroke:#A80036;stroke-width:1.25;"/><path d="M838.75,67.5 Q839.0039,66.875 839.2969,66.5625 Q839.5898,66.25 839.9219,66.25 Q840.5078,66.25 840.8789,66.6016 Q841.25,66.9531 841.25,67.7734 L841.25,69.7266 Q841.25,70.5469 840.8984,70.8984 Q840.5469,71.25 840,71.25 Q839.5117,71.25 839.1992,71.0352 Q838.8867,70.8203 838.75,70.2539 Q838.6914,69.8633 838.4766,69.6484 Q838.0859,69.2383 837.3828,69.0039 Q836.6797,68.75 835.9766,68.75 Q835.0977,68.75 834.3555,69.1016 Q833.6328,69.4531 833.0664,70.2344 Q832.5,71.0156 832.5,72.0898 L832.5,73.2422 Q832.5,74.5313 833.5547,75.3906 Q834.6094,76.25 836.4844,76.25 Q837.5977,76.25 838.3789,75.9961 Q838.8281,75.8594 839.3359,75.4102 Q839.668,75.1563 839.8438,75.0781 Q840.0195,75 840.2344,75 Q840.6445,75 840.9375,75.332 Q841.25,75.6445 841.25,76.0938 Q841.25,76.5234 840.8203,77.0313 Q840.1953,77.7734 839.1992,78.1836 Q837.8906,78.75 836.2891,78.75 Q834.4141,78.75 832.9102,78.0078 Q831.6992,77.4219 830.8398,76.1523 Q830,74.8828 830,73.3789 L830,72.0117 Q830,70.4492 830.7422,69.082 Q831.5039,67.7148 832.8125,66.9922 Q834.1406,66.25 835.625,66.25 Q836.5234,66.25 837.3047,66.5625 Q838.0859,66.875 838.75,67.5 Z " fill="#000000"/><text fill="#000000" font-family="sans-serif" font-size="15" lengthAdjust="spacing" textLength="77.5" x="853.75" y="78.0127">TypeOfTest</text><line style="stroke:#A80036;stroke-width:1.875;" x1="818.75" x2="933.75" y1="91.875" y2="91.875"/><!--MD5=[f1c2b2c569abc5f56c317b9d8f3fddee]
link Company to Admin--><path codeLine="25" d="M115.3,76.875 C157.475,76.875 216.0125,76.875 254.8125,76.875 " fill="none" id="Company-Admin" style="stroke:#A80036;stroke-width:1.25;"/><polygon fill="#000000" points="165,65.8447,153.6936,62.1711,153.6936,69.5184,165,65.8447" style="stroke:#000000;stroke-width:1.25;"/><text fill="#000000" font-family="sans-serif" font-size="16.25" lengthAdjust="spacing" textLength="46.25" x="170" y="72.4939">knows</text><text fill="#000000" font-family="sans-serif" font-size="16.25" lengthAdjust="spacing" textLength="8.75" x="124.8731" y="95.4535">1</text><text fill="#000000" font-family="sans-serif" font-size="16.25" lengthAdjust="spacing" textLength="6.25" x="238.6777" y="95.9795">*</text><!--MD5=[29ee09d91803d388a0216a1b6be87d3d]
link Admin to ClinicalAnalysisLab--><path codeLine="26" d="M339.2,76.875 C377.775,76.875 436.7125,76.875 485.7,76.875 " fill="none" id="Admin-ClinicalAnalysisLab" style="stroke:#A80036;stroke-width:1.25;"/><polygon fill="#000000" points="388.75,65.8447,377.4436,62.1711,377.4436,69.5184,388.75,65.8447" style="stroke:#000000;stroke-width:1.25;"/><text fill="#000000" font-family="sans-serif" font-size="16.25" lengthAdjust="spacing" textLength="53.75" x="393.75" y="72.4939">creates</text><text fill="#000000" font-family="sans-serif" font-size="16.25" lengthAdjust="spacing" textLength="25" x="348.623" y="95.5004">1..*</text><text fill="#000000" font-family="sans-serif" font-size="16.25" lengthAdjust="spacing" textLength="8.75" x="467.4187" y="94.7862">1</text><!--MD5=[e190990623ebc3ed6a070d63cf340225]
link ClinicalAnalysisLab to TypeOfTest--><path codeLine="27" d="M661.375,76.875 C711.4,76.875 773.0125,76.875 817.2,76.875 " fill="none" id="ClinicalAnalysisLab-TypeOfTest" style="stroke:#A80036;stroke-width:1.25;"/><polygon fill="#000000" points="711.25,65.8447,699.9436,62.1711,699.9436,69.5184,711.25,65.8447" style="stroke:#000000;stroke-width:1.25;"/><text fill="#000000" font-family="sans-serif" font-size="16.25" lengthAdjust="spacing" textLength="62.5" x="716.25" y="72.4939">performs</text><text fill="#000000" font-family="sans-serif" font-size="16.25" lengthAdjust="spacing" textLength="8.75" x="671.4375" y="94.8494">1</text><text fill="#000000" font-family="sans-serif" font-size="16.25" lengthAdjust="spacing" textLength="25" x="782.5855" y="95.1172">1..*</text><!--MD5=[2c54db5396285992077fa0b875e608c0]
@startuml
skinparam classAttributeIconSize 0
hide methods
left to right direction
skinparam linetype polyline


Class Company{
-designation
}

Class Admin{
}

Class ClinicalAnalysisLab{
-idLaboratory
-name
-address
-phoneNumber
-tin
}

Class TypeOfTest{
}

Company "1" - - "*" Admin : knows >
Admin "1..*" - - "1" ClinicalAnalysisLab : creates >
ClinicalAnalysisLab "1" - - "1..*" TypeOfTest : performs >

@enduml

PlantUML version 1.2021.5(Sun Apr 25 12:20:28 BST 2021)
(GPL source distribution)
Java Runtime: OpenJDK Runtime Environment
JVM: Dynamic Code Evolution 64-Bit Server VM
Default Encoding: Cp1252
Language: pt
Country: PT
--></g></svg>