<?xml version="1.0" encoding="UTF-8" standalone="no"?><svg xmlns="http://www.w3.org/2000/svg" xmlns:xlink="http://www.w3.org/1999/xlink" contentScriptType="application/ecmascript" contentStyleType="text/css" height="272px" preserveAspectRatio="none" style="width:463px;height:272px;" version="1.1" viewBox="0 0 463 272" width="463px" zoomAndPan="magnify"><defs><filter height="300%" id="fpcmjx32pciu9" width="300%" x="-1" y="-1"><feGaussianBlur result="blurOut" stdDeviation="2.0"/><feColorMatrix in="blurOut" result="blurOut2" type="matrix" values="0 0 0 0 0 0 0 0 0 0 0 0 0 0 0 0 0 0 .4 0"/><feOffset dx="4.0" dy="4.0" in="blurOut2" result="blurOut3"/><feBlend in="SourceGraphic" in2="blurOut3" mode="normal"/></filter></defs><g><!--MD5=[02e4b9b7573f1156f41e60aa5b4e25a4]
class Company--><rect codeLine="6" fill="#FEFECE" filter="url(#fpcmjx32pciu9)" height="53.8359" id="Company" style="stroke:#A80036;stroke-width:1.5;" width="85" x="7" y="48.5"/><ellipse cx="22" cy="64.5" fill="#ADD1B2" rx="11" ry="11" style="stroke:#A80036;stroke-width:1.0;"/><path d="M24,61 Q24.2031,60.5 24.4375,60.25 Q24.6719,60 24.9375,60 Q25.4063,60 25.7031,60.2813 Q26,60.5625 26,61.2188 L26,62.7813 Q26,63.4375 25.7188,63.7188 Q25.4375,64 25,64 Q24.6094,64 24.3594,63.8281 Q24.1094,63.6563 24,63.2031 Q23.9531,62.8906 23.7813,62.7188 Q23.4688,62.3906 22.9063,62.2031 Q22.3438,62 21.7813,62 Q21.0781,62 20.4844,62.2813 Q19.9063,62.5625 19.4531,63.1875 Q19,63.8125 19,64.6719 L19,65.5938 Q19,66.625 19.8438,67.3125 Q20.6875,68 22.1875,68 Q23.0781,68 23.7031,67.7969 Q24.0625,67.6875 24.4688,67.3281 Q24.7344,67.125 24.875,67.0625 Q25.0156,67 25.1875,67 Q25.5156,67 25.75,67.2656 Q26,67.5156 26,67.875 Q26,68.2188 25.6563,68.625 Q25.1563,69.2188 24.3594,69.5469 Q23.3125,70 22.0313,70 Q20.5313,70 19.3281,69.4063 Q18.3594,68.9375 17.6719,67.9219 Q17,66.9063 17,65.7031 L17,64.6094 Q17,63.3594 17.5938,62.2656 Q18.2031,61.1719 19.25,60.5938 Q20.3125,60 21.5,60 Q22.2188,60 22.8438,60.25 Q23.4688,60.5 24,61 Z " fill="#000000"/><text fill="#000000" font-family="sans-serif" font-size="12" lengthAdjust="spacing" textLength="53" x="36" y="69.4102">Company</text><line style="stroke:#A80036;stroke-width:1.5;" x1="8" x2="91" y1="80.5" y2="80.5"/><text fill="#000000" font-family="sans-serif" font-size="11" lengthAdjust="spacing" textLength="59" x="13" y="95.9189">-designation</text><!--MD5=[7421f545a0d8420c5bec41e74b387d9c]
class Employee--><rect codeLine="10" fill="#FEFECE" filter="url(#fpcmjx32pciu9)" height="136.8516" id="Employee" style="stroke:#A80036;stroke-width:1.5;" width="96" x="183.5" y="7"/><ellipse cx="202.55" cy="23" fill="#ADD1B2" rx="11" ry="11" style="stroke:#A80036;stroke-width:1.0;"/><path d="M204.55,19.5 Q204.7531,19 204.9875,18.75 Q205.2219,18.5 205.4875,18.5 Q205.9563,18.5 206.2531,18.7813 Q206.55,19.0625 206.55,19.7188 L206.55,21.2813 Q206.55,21.9375 206.2688,22.2188 Q205.9875,22.5 205.55,22.5 Q205.1594,22.5 204.9094,22.3281 Q204.6594,22.1563 204.55,21.7031 Q204.5031,21.3906 204.3313,21.2188 Q204.0188,20.8906 203.4563,20.7031 Q202.8938,20.5 202.3313,20.5 Q201.6281,20.5 201.0344,20.7813 Q200.4563,21.0625 200.0031,21.6875 Q199.55,22.3125 199.55,23.1719 L199.55,24.0938 Q199.55,25.125 200.3938,25.8125 Q201.2375,26.5 202.7375,26.5 Q203.6281,26.5 204.2531,26.2969 Q204.6125,26.1875 205.0188,25.8281 Q205.2844,25.625 205.425,25.5625 Q205.5656,25.5 205.7375,25.5 Q206.0656,25.5 206.3,25.7656 Q206.55,26.0156 206.55,26.375 Q206.55,26.7188 206.2063,27.125 Q205.7063,27.7188 204.9094,28.0469 Q203.8625,28.5 202.5813,28.5 Q201.0813,28.5 199.8781,27.9063 Q198.9094,27.4375 198.2219,26.4219 Q197.55,25.4063 197.55,24.2031 L197.55,23.1094 Q197.55,21.8594 198.1438,20.7656 Q198.7531,19.6719 199.8,19.0938 Q200.8625,18.5 202.05,18.5 Q202.7688,18.5 203.3938,18.75 Q204.0188,19 204.55,19.5 Z " fill="#000000"/><text fill="#000000" font-family="sans-serif" font-size="12" lengthAdjust="spacing" textLength="55" x="217.45" y="27.9102">Employee</text><line style="stroke:#A80036;stroke-width:1.5;" x1="184.5" x2="278.5" y1="39" y2="39"/><text fill="#000000" font-family="sans-serif" font-size="11" lengthAdjust="spacing" textLength="12" x="189.5" y="54.4189">-id</text><text fill="#000000" font-family="sans-serif" font-size="11" lengthAdjust="spacing" textLength="30" x="189.5" y="68.2549">-name</text><text fill="#000000" font-family="sans-serif" font-size="11" lengthAdjust="spacing" textLength="44" x="189.5" y="82.0908">-address</text><text fill="#000000" font-family="sans-serif" font-size="11" lengthAdjust="spacing" textLength="71" x="189.5" y="95.9268">-phoneNumber</text><text fill="#000000" font-family="sans-serif" font-size="11" lengthAdjust="spacing" textLength="28" x="189.5" y="109.7627">-email</text><text fill="#000000" font-family="sans-serif" font-size="11" lengthAdjust="spacing" textLength="47" x="189.5" y="123.5986">-socCode</text><text fill="#000000" font-family="sans-serif" font-size="11" lengthAdjust="spacing" textLength="84" x="189.5" y="137.4346">-organizationRole</text><!--MD5=[7d96fd15f3014691d2fcaf89c5791e2a]
class SpecialistDoctor--><rect codeLine="21" fill="#FEFECE" filter="url(#fpcmjx32pciu9)" height="53.8359" id="SpecialistDoctor" style="stroke:#A80036;stroke-width:1.5;" width="124" x="169.5" y="205"/><ellipse cx="185.4" cy="221" fill="#ADD1B2" rx="11" ry="11" style="stroke:#A80036;stroke-width:1.0;"/><path d="M187.4,217.5 Q187.6031,217 187.8375,216.75 Q188.0719,216.5 188.3375,216.5 Q188.8063,216.5 189.1031,216.7813 Q189.4,217.0625 189.4,217.7188 L189.4,219.2813 Q189.4,219.9375 189.1188,220.2188 Q188.8375,220.5 188.4,220.5 Q188.0094,220.5 187.7594,220.3281 Q187.5094,220.1563 187.4,219.7031 Q187.3531,219.3906 187.1813,219.2188 Q186.8688,218.8906 186.3063,218.7031 Q185.7438,218.5 185.1813,218.5 Q184.4781,218.5 183.8844,218.7813 Q183.3063,219.0625 182.8531,219.6875 Q182.4,220.3125 182.4,221.1719 L182.4,222.0938 Q182.4,223.125 183.2438,223.8125 Q184.0875,224.5 185.5875,224.5 Q186.4781,224.5 187.1031,224.2969 Q187.4625,224.1875 187.8688,223.8281 Q188.1344,223.625 188.275,223.5625 Q188.4156,223.5 188.5875,223.5 Q188.9156,223.5 189.15,223.7656 Q189.4,224.0156 189.4,224.375 Q189.4,224.7188 189.0563,225.125 Q188.5563,225.7188 187.7594,226.0469 Q186.7125,226.5 185.4313,226.5 Q183.9313,226.5 182.7281,225.9063 Q181.7594,225.4375 181.0719,224.4219 Q180.4,223.4063 180.4,222.2031 L180.4,221.1094 Q180.4,219.8594 180.9938,218.7656 Q181.6031,217.6719 182.65,217.0938 Q183.7125,216.5 184.9,216.5 Q185.6188,216.5 186.2438,216.75 Q186.8688,217 187.4,217.5 Z " fill="#000000"/><text fill="#000000" font-family="sans-serif" font-size="12" lengthAdjust="spacing" textLength="90" x="199.6" y="225.9102">SpecialistDoctor</text><line style="stroke:#A80036;stroke-width:1.5;" x1="170.5" x2="292.5" y1="237" y2="237"/><text fill="#000000" font-family="sans-serif" font-size="11" lengthAdjust="spacing" textLength="112" x="175.5" y="252.4189">-int doctorIndexNumber</text><!--MD5=[3fd616f346a44cd59a91eb10b19e157c]
class User--><rect codeLine="25" fill="#FEFECE" filter="url(#fpcmjx32pciu9)" height="81.5078" id="User" style="stroke:#A80036;stroke-width:1.5;" width="66" x="383.5" y="34.5"/><ellipse cx="401.65" cy="50.5" fill="#ADD1B2" rx="11" ry="11" style="stroke:#A80036;stroke-width:1.0;"/><path d="M403.65,47 Q403.8531,46.5 404.0875,46.25 Q404.3219,46 404.5875,46 Q405.0563,46 405.3531,46.2813 Q405.65,46.5625 405.65,47.2188 L405.65,48.7813 Q405.65,49.4375 405.3688,49.7188 Q405.0875,50 404.65,50 Q404.2594,50 404.0094,49.8281 Q403.7594,49.6563 403.65,49.2031 Q403.6031,48.8906 403.4313,48.7188 Q403.1188,48.3906 402.5563,48.2031 Q401.9938,48 401.4313,48 Q400.7281,48 400.1344,48.2813 Q399.5563,48.5625 399.1031,49.1875 Q398.65,49.8125 398.65,50.6719 L398.65,51.5938 Q398.65,52.625 399.4938,53.3125 Q400.3375,54 401.8375,54 Q402.7281,54 403.3531,53.7969 Q403.7125,53.6875 404.1188,53.3281 Q404.3844,53.125 404.525,53.0625 Q404.6656,53 404.8375,53 Q405.1656,53 405.4,53.2656 Q405.65,53.5156 405.65,53.875 Q405.65,54.2188 405.3063,54.625 Q404.8063,55.2188 404.0094,55.5469 Q402.9625,56 401.6813,56 Q400.1813,56 398.9781,55.4063 Q398.0094,54.9375 397.3219,53.9219 Q396.65,52.9063 396.65,51.7031 L396.65,50.6094 Q396.65,49.3594 397.2438,48.2656 Q397.8531,47.1719 398.9,46.5938 Q399.9625,46 401.15,46 Q401.8688,46 402.4938,46.25 Q403.1188,46.5 403.65,47 Z " fill="#000000"/><text fill="#000000" font-family="sans-serif" font-size="12" lengthAdjust="spacing" textLength="27" x="416.35" y="55.4102">User</text><line style="stroke:#A80036;stroke-width:1.5;" x1="384.5" x2="448.5" y1="66.5" y2="66.5"/><text fill="#000000" font-family="sans-serif" font-size="11" lengthAdjust="spacing" textLength="30" x="389.5" y="81.9189">-name</text><text fill="#000000" font-family="sans-serif" font-size="11" lengthAdjust="spacing" textLength="28" x="389.5" y="95.7549">-email</text><text fill="#000000" font-family="sans-serif" font-size="11" lengthAdjust="spacing" textLength="54" x="389.5" y="109.5908">-password</text><!--MD5=[09366576ee87d48d594df10cacc83f45]
link Company to Employee--><path codeLine="31" d="M92.17,75.5 C119.49,75.5 154.99,75.5 183.32,75.5 " fill="none" id="Company-Employee" style="stroke:#A80036;stroke-width:1.0;"/><polygon fill="#000000" points="119.25,63.6758,110.2049,60.7369,110.2049,66.6147,119.25,63.6758" style="stroke:#000000;stroke-width:1.0;"/><text fill="#000000" font-family="sans-serif" font-size="13" lengthAdjust="spacing" textLength="42" x="123.25" y="68.9951">employ</text><text fill="#000000" font-family="sans-serif" font-size="13" lengthAdjust="spacing" textLength="7" x="100.1055" y="71.6644">1</text><text fill="#000000" font-family="sans-serif" font-size="13" lengthAdjust="spacing" textLength="5" x="170.5596" y="71.8084">*</text><!--MD5=[372bd27a178b4208a6d241b4516ac7e6]
reverse link Employee to SpecialistDoctor--><path codeLine="32" d="M231.5,164.42 C231.5,179.11 231.5,193.27 231.5,204.73 " fill="none" id="Employee-backto-SpecialistDoctor" style="stroke:#A80036;stroke-width:1.0;"/><polygon fill="none" points="224.5,164.27,231.5,144.27,238.5,164.27,224.5,164.27" style="stroke:#A80036;stroke-width:1.0;"/><!--MD5=[22fb9506fac029fc1d2ae00f0eb8d606]
link Employee to User--><path codeLine="33" d="M279.62,75.5 C312.28,75.5 354.6,75.5 383.48,75.5 " fill="none" id="Employee-User" style="stroke:#A80036;stroke-width:1.0;"/><polygon fill="#000000" points="307,63.6758,297.9549,60.7369,297.9549,66.6147,307,63.6758" style="stroke:#000000;stroke-width:1.0;"/><text fill="#000000" font-family="sans-serif" font-size="13" lengthAdjust="spacing" textLength="54" x="311" y="68.9951">relates to</text><text fill="#000000" font-family="sans-serif" font-size="13" lengthAdjust="spacing" textLength="22" x="287.5643" y="90.1037">0..1</text><text fill="#000000" font-family="sans-serif" font-size="13" lengthAdjust="spacing" textLength="7" x="368.4913" y="71.3374">1</text><!--MD5=[8e2c24732e20361213ea8fe23a0dcbb5]
@startuml

skinparam classAttributeIconSize 0
hide methods


class Company{
-designation
}

class Employee{
-id
-name
-address
-phoneNumber
-email
-socCode
-organizationRole
}


class SpecialistDoctor{
-int doctorIndexNumber
}

class User{
-name
-email
-password
}

Company "1"-right-"*" Employee: > employ
Employee <|- - SpecialistDoctor
User "1"-left-"0..1" Employee: < relates to

@enduml

PlantUML version 1.2021.5(Sun Apr 25 12:20:28 BST 2021)
(GPL source distribution)
Java Runtime: OpenJDK Runtime Environment
JVM: Dynamic Code Evolution 64-Bit Server VM
Default Encoding: Cp1252
Language: pt
Country: PT
--></g></svg>