<?xml version="1.0" encoding="UTF-8" standalone="no"?><svg xmlns="http://www.w3.org/2000/svg" xmlns:xlink="http://www.w3.org/1999/xlink" contentScriptType="application/ecmascript" contentStyleType="text/css" height="546px" preserveAspectRatio="none" style="width:846px;height:546px;" version="1.1" viewBox="0 0 846 546" width="846px" zoomAndPan="magnify"><defs><filter height="300%" id="fol8lmygd2ud3" width="300%" x="-1" y="-1"><feGaussianBlur result="blurOut" stdDeviation="2.0"/><feColorMatrix in="blurOut" result="blurOut2" type="matrix" values="0 0 0 0 0 0 0 0 0 0 0 0 0 0 0 0 0 0 .4 0"/><feOffset dx="4.0" dy="4.0" in="blurOut2" result="blurOut3"/><feBlend in="SourceGraphic" in2="blurOut3" mode="normal"/></filter></defs><g><rect fill="#FFFFFF" filter="url(#fol8lmygd2ud3)" height="352.3516" style="stroke:#A80036;stroke-width:1.0;" width="10" x="59.5" y="99.6094"/><rect fill="#FFFFFF" filter="url(#fol8lmygd2ud3)" height="52.7031" style="stroke:#A80036;stroke-width:1.0;" width="10" x="783.5" y="99.6094"/><rect fill="#FFFFFF" filter="url(#fol8lmygd2ud3)" height="30.3516" style="stroke:#A80036;stroke-width:1.0;" width="10" x="783.5" y="208.0156"/><rect fill="#FFFFFF" filter="url(#fol8lmygd2ud3)" height="30" style="stroke:#A80036;stroke-width:1.0;" width="10" x="783.5" y="268.7188"/><rect fill="#FFFFFF" filter="url(#fol8lmygd2ud3)" height="37.3516" style="stroke:#A80036;stroke-width:1.0;" width="10" x="783.5" y="344.9063"/><rect fill="#FFFFFF" filter="url(#fol8lmygd2ud3)" height="30.3516" style="stroke:#A80036;stroke-width:1.0;" width="10" x="783.5" y="412.6094"/><rect fill="#FFFFFF" filter="url(#fol8lmygd2ud3)" height="185.5938" style="stroke:#000000;stroke-width:2.0;" width="822.5" x="10" y="167.3125"/><rect fill="#FFFFFF" height="46.1875" style="stroke:none;stroke-width:1.0;" width="822.5" x="10" y="306.7188"/><line style="stroke:#A80036;stroke-width:1.0;stroke-dasharray:5.0,5.0;" x1="64" x2="64" y1="89.6094" y2="460.9609"/><line style="stroke:#A80036;stroke-width:1.0;stroke-dasharray:5.0,5.0;" x1="788.5" x2="788.5" y1="89.6094" y2="460.9609"/><text fill="#000000" font-family="sans-serif" font-size="14" lengthAdjust="spacing" textLength="83" x="20" y="86.5332">Administrator</text><ellipse cx="64.5" cy="15" fill="#FEFECE" filter="url(#fol8lmygd2ud3)" rx="8" ry="8" style="stroke:#A80036;stroke-width:2.0;"/><path d="M64.5,23 L64.5,50 M51.5,31 L77.5,31 M64.5,50 L51.5,65 M64.5,50 L77.5,65 " fill="none" filter="url(#fol8lmygd2ud3)" style="stroke:#A80036;stroke-width:2.0;"/><text fill="#000000" font-family="sans-serif" font-size="14" lengthAdjust="spacing" textLength="83" x="20" y="474.4941">Administrator</text><ellipse cx="64.5" cy="487.5703" fill="#FEFECE" filter="url(#fol8lmygd2ud3)" rx="8" ry="8" style="stroke:#A80036;stroke-width:2.0;"/><path d="M64.5,495.5703 L64.5,522.5703 M51.5,503.5703 L77.5,503.5703 M64.5,522.5703 L51.5,537.5703 M64.5,522.5703 L77.5,537.5703 " fill="none" filter="url(#fol8lmygd2ud3)" style="stroke:#A80036;stroke-width:2.0;"/><rect fill="#FEFECE" filter="url(#fol8lmygd2ud3)" height="31.6094" style="stroke:#A80036;stroke-width:1.5;" width="64" x="754.5" y="53"/><text fill="#000000" font-family="sans-serif" font-size="14" lengthAdjust="spacing" textLength="50" x="761.5" y="74.5332">:System</text><rect fill="#FEFECE" filter="url(#fol8lmygd2ud3)" height="31.6094" style="stroke:#A80036;stroke-width:1.5;" width="64" x="754.5" y="459.9609"/><text fill="#000000" font-family="sans-serif" font-size="14" lengthAdjust="spacing" textLength="50" x="761.5" y="481.4941">:System</text><rect fill="#FFFFFF" filter="url(#fol8lmygd2ud3)" height="352.3516" style="stroke:#A80036;stroke-width:1.0;" width="10" x="59.5" y="99.6094"/><rect fill="#FFFFFF" filter="url(#fol8lmygd2ud3)" height="52.7031" style="stroke:#A80036;stroke-width:1.0;" width="10" x="783.5" y="99.6094"/><rect fill="#FFFFFF" filter="url(#fol8lmygd2ud3)" height="30.3516" style="stroke:#A80036;stroke-width:1.0;" width="10" x="783.5" y="208.0156"/><rect fill="#FFFFFF" filter="url(#fol8lmygd2ud3)" height="30" style="stroke:#A80036;stroke-width:1.0;" width="10" x="783.5" y="268.7188"/><rect fill="#FFFFFF" filter="url(#fol8lmygd2ud3)" height="37.3516" style="stroke:#A80036;stroke-width:1.0;" width="10" x="783.5" y="344.9063"/><rect fill="#FFFFFF" filter="url(#fol8lmygd2ud3)" height="30.3516" style="stroke:#A80036;stroke-width:1.0;" width="10" x="783.5" y="412.6094"/><polygon fill="#A80036" points="771.5,117.9609,781.5,121.9609,771.5,125.9609,775.5,121.9609" style="stroke:#A80036;stroke-width:1.0;"/><line style="stroke:#A80036;stroke-width:1.0;" x1="69.5" x2="777.5" y1="121.9609" y2="121.9609"/><text fill="#000000" font-family="sans-serif" font-size="13" font-weight="bold" lengthAdjust="spacing" textLength="7" x="76.5" y="117.1045">1</text><text fill="#000000" font-family="sans-serif" font-size="13" lengthAdjust="spacing" textLength="166" x="87.5" y="117.1045">starts to register a employee</text><polygon fill="#A80036" points="80.5,148.3125,70.5,152.3125,80.5,156.3125,76.5,152.3125" style="stroke:#A80036;stroke-width:1.0;"/><line style="stroke:#A80036;stroke-width:1.0;stroke-dasharray:2.0,2.0;" x1="74.5" x2="787.5" y1="152.3125" y2="152.3125"/><text fill="#000000" font-family="sans-serif" font-size="13" font-weight="bold" lengthAdjust="spacing" textLength="7" x="86.5" y="147.4561">2</text><text fill="#000000" font-family="sans-serif" font-size="13" lengthAdjust="spacing" textLength="679" x="97.5" y="147.4561">requests the data for the employee (employee ID, organization role, name, address, phone number, email, SOC code)</text><path d="M10,167.3125 L71,167.3125 L71,175.3125 L61,185.3125 L10,185.3125 L10,167.3125 " fill="#EEEEEE" style="stroke:#000000;stroke-width:1.0;"/><rect fill="none" height="185.5938" style="stroke:#000000;stroke-width:2.0;" width="822.5" x="10" y="167.3125"/><text fill="#000000" font-family="sans-serif" font-size="13" font-weight="bold" lengthAdjust="spacing" textLength="16" x="25" y="181.8076">alt</text><text fill="#000000" font-family="sans-serif" font-size="11" font-weight="bold" lengthAdjust="spacing" textLength="215" x="86" y="180.7314">[if organization role = Specialist Doctor]</text><polygon fill="#A80036" points="771.5,204.0156,781.5,208.0156,771.5,212.0156,775.5,208.0156" style="stroke:#A80036;stroke-width:1.0;"/><line style="stroke:#A80036;stroke-width:1.0;" x1="69.5" x2="777.5" y1="208.0156" y2="208.0156"/><text fill="#000000" font-family="sans-serif" font-size="13" font-weight="bold" lengthAdjust="spacing" textLength="7" x="76.5" y="203.1592">3</text><text fill="#000000" font-family="sans-serif" font-size="13" lengthAdjust="spacing" textLength="151" x="87.5" y="203.1592">inserts the requested data</text><polygon fill="#A80036" points="80.5,234.3672,70.5,238.3672,80.5,242.3672,76.5,238.3672" style="stroke:#A80036;stroke-width:1.0;"/><line style="stroke:#A80036;stroke-width:1.0;stroke-dasharray:2.0,2.0;" x1="74.5" x2="787.5" y1="238.3672" y2="238.3672"/><text fill="#000000" font-family="sans-serif" font-size="13" font-weight="bold" lengthAdjust="spacing" textLength="7" x="86.5" y="233.5107">4</text><text fill="#000000" font-family="sans-serif" font-size="13" lengthAdjust="spacing" textLength="404" x="97.5" y="233.5107">presents introduced information and asks for the Doctor Index Number</text><polygon fill="#A80036" points="771.5,264.7188,781.5,268.7188,771.5,272.7188,775.5,268.7188" style="stroke:#A80036;stroke-width:1.0;"/><line style="stroke:#A80036;stroke-width:1.0;" x1="69.5" x2="777.5" y1="268.7188" y2="268.7188"/><text fill="#000000" font-family="sans-serif" font-size="13" font-weight="bold" lengthAdjust="spacing" textLength="7" x="76.5" y="263.8623">5</text><text fill="#000000" font-family="sans-serif" font-size="13" lengthAdjust="spacing" textLength="151" x="87.5" y="263.8623">inserts the requested data</text><line style="stroke:#000000;stroke-width:1.0;stroke-dasharray:2.0,2.0;" x1="10" x2="832.5" y1="307.7188" y2="307.7188"/><text fill="#000000" font-family="sans-serif" font-size="11" font-weight="bold" lengthAdjust="spacing" textLength="208" x="15" y="319.1377">[organization role != Specialist Doctor]</text><polygon fill="#A80036" points="771.5,340.9063,781.5,344.9063,771.5,348.9063,775.5,344.9063" style="stroke:#A80036;stroke-width:1.0;"/><line style="stroke:#A80036;stroke-width:1.0;" x1="69.5" x2="777.5" y1="344.9063" y2="344.9063"/><text fill="#000000" font-family="sans-serif" font-size="13" font-weight="bold" lengthAdjust="spacing" textLength="7" x="76.5" y="340.0498">6</text><text fill="#000000" font-family="sans-serif" font-size="13" lengthAdjust="spacing" textLength="151" x="87.5" y="340.0498">inserts the requested data</text><polygon fill="#A80036" points="80.5,378.2578,70.5,382.2578,80.5,386.2578,76.5,382.2578" style="stroke:#A80036;stroke-width:1.0;"/><line style="stroke:#A80036;stroke-width:1.0;stroke-dasharray:2.0,2.0;" x1="74.5" x2="787.5" y1="382.2578" y2="382.2578"/><text fill="#000000" font-family="sans-serif" font-size="13" font-weight="bold" lengthAdjust="spacing" textLength="7" x="86.5" y="377.4014">7</text><text fill="#000000" font-family="sans-serif" font-size="13" lengthAdjust="spacing" textLength="250" x="97.5" y="377.4014">validates the data and asks for confirmation</text><polygon fill="#A80036" points="771.5,408.6094,781.5,412.6094,771.5,416.6094,775.5,412.6094" style="stroke:#A80036;stroke-width:1.0;"/><line style="stroke:#A80036;stroke-width:1.0;" x1="69.5" x2="777.5" y1="412.6094" y2="412.6094"/><text fill="#000000" font-family="sans-serif" font-size="13" font-weight="bold" lengthAdjust="spacing" textLength="7" x="76.5" y="407.7529">8</text><text fill="#000000" font-family="sans-serif" font-size="13" lengthAdjust="spacing" textLength="49" x="87.5" y="407.7529">confirms</text><polygon fill="#A80036" points="80.5,438.9609,70.5,442.9609,80.5,446.9609,76.5,442.9609" style="stroke:#A80036;stroke-width:1.0;"/><line style="stroke:#A80036;stroke-width:1.0;stroke-dasharray:2.0,2.0;" x1="74.5" x2="787.5" y1="442.9609" y2="442.9609"/><text fill="#000000" font-family="sans-serif" font-size="13" font-weight="bold" lengthAdjust="spacing" textLength="7" x="86.5" y="438.1045">9</text><text fill="#000000" font-family="sans-serif" font-size="13" lengthAdjust="spacing" textLength="387" x="97.5" y="438.1045">saves the data of the employee and sends a successful notification</text><!--MD5=[3b391aae654312a13be997f0b3b2cfff]
@startuml

autonumber
actor "Administrator" as ADMIN

participant ":System" as SYSTEM

activate ADMIN
activate SYSTEM

ADMIN -> SYSTEM : starts to register a employee

SYSTEM - -> ADMIN : requests the data for the employee (employee ID, organization role, name, address, phone number, email, SOC code)

deactivate SYSTEM

alt if organization role = Specialist Doctor

ADMIN -> SYSTEM : inserts the requested data

activate SYSTEM

SYSTEM - -> ADMIN : presents introduced information and asks for the Doctor Index Number

deactivate SYSTEM

ADMIN -> SYSTEM : inserts the requested data

activate SYSTEM
deactivate SYSTEM

else organization role != Specialist Doctor

ADMIN -> SYSTEM : inserts the requested data

activate SYSTEM

end

activate SYSTEM

SYSTEM - -> ADMIN : validates the data and asks for confirmation

deactivate SYSTEM

ADMIN -> SYSTEM : confirms 

activate SYSTEM

SYSTEM - -> ADMIN : saves the data of the employee and sends a successful notification

deactivate SYSTEM

@enduml

PlantUML version 1.2021.5(Sun Apr 25 12:20:28 BST 2021)
(GPL source distribution)
Java Runtime: OpenJDK Runtime Environment
JVM: Dynamic Code Evolution 64-Bit Server VM
Default Encoding: Cp1252
Language: pt
Country: PT
--></g></svg>