<?xml version="1.0" encoding="UTF-8" standalone="no"?><svg xmlns="http://www.w3.org/2000/svg" xmlns:xlink="http://www.w3.org/1999/xlink" contentScriptType="application/ecmascript" contentStyleType="text/css" height="1011px" preserveAspectRatio="none" style="width:3047px;height:1011px;" version="1.1" viewBox="0 0 3047 1011" width="3047px" zoomAndPan="magnify"><defs><filter height="300%" id="f1ry407abtrgnu" width="300%" x="-1" y="-1"><feGaussianBlur result="blurOut" stdDeviation="2.0"/><feColorMatrix in="blurOut" result="blurOut2" type="matrix" values="0 0 0 0 0 0 0 0 0 0 0 0 0 0 0 0 0 0 .4 0"/><feOffset dx="4.0" dy="4.0" in="blurOut2" result="blurOut3"/><feBlend in="SourceGraphic" in2="blurOut3" mode="normal"/></filter></defs><g><rect fill="#FFFFFF" filter="url(#f1ry407abtrgnu)" height="817.4375" style="stroke:#A80036;stroke-width:1.0;" width="10" x="59.5" y="99.6094"/><rect fill="#FFFFFF" filter="url(#f1ry407abtrgnu)" height="30.3516" style="stroke:#A80036;stroke-width:1.0;" width="10" x="857.5" y="121.9609"/><rect fill="#FFFFFF" filter="url(#f1ry407abtrgnu)" height="30.3516" style="stroke:#A80036;stroke-width:1.0;" width="10" x="857.5" y="182.6641"/><rect fill="#FFFFFF" filter="url(#f1ry407abtrgnu)" height="194.7578" style="stroke:#A80036;stroke-width:1.0;" width="10" x="857.5" y="243.3672"/><rect fill="#FFFFFF" filter="url(#f1ry407abtrgnu)" height="30.3516" style="stroke:#A80036;stroke-width:1.0;" width="10" x="857.5" y="493.8281"/><rect fill="#FFFFFF" filter="url(#f1ry407abtrgnu)" height="164.7578" style="stroke:#A80036;stroke-width:1.0;" width="10" x="857.5" y="561.5313"/><rect fill="#FFFFFF" filter="url(#f1ry407abtrgnu)" height="151.4063" style="stroke:#A80036;stroke-width:1.0;" width="10" x="857.5" y="756.6406"/><rect fill="#FFFFFF" filter="url(#f1ry407abtrgnu)" height="415.2188" style="stroke:#A80036;stroke-width:1.0;" width="10" x="1436.5" y="273.7188"/><rect fill="#FFFFFF" filter="url(#f1ry407abtrgnu)" height="90.7031" style="stroke:#A80036;stroke-width:1.0;" width="10" x="1436.5" y="786.9922"/><rect fill="#FFFFFF" filter="url(#f1ry407abtrgnu)" height="60.3516" style="stroke:#A80036;stroke-width:1.0;" width="10" x="2056.5" y="304.0703"/><rect fill="#FFFFFF" filter="url(#f1ry407abtrgnu)" height="66.7031" style="stroke:#A80036;stroke-width:1.0;" width="10" x="2056.5" y="622.2344"/><rect fill="#FFFFFF" filter="url(#f1ry407abtrgnu)" height="60.3516" style="stroke:#A80036;stroke-width:1.0;" width="10" x="2056.5" y="817.3438"/><rect fill="#FFFFFF" filter="url(#f1ry407abtrgnu)" height="189.7578" style="stroke:#A80036;stroke-width:1.0;" width="10" x="2591.5" y="334.4219"/><rect fill="#FFFFFF" filter="url(#f1ry407abtrgnu)" height="73.7031" style="stroke:#A80036;stroke-width:1.0;" width="10" x="2760.5" y="652.5859"/><rect fill="#FFFFFF" filter="url(#f1ry407abtrgnu)" height="30" style="stroke:#A80036;stroke-width:1.0;" width="10" x="2973.5" y="847.6953"/><rect fill="#FFFFFF" filter="url(#f1ry407abtrgnu)" height="79.0547" style="stroke:#000000;stroke-width:2.0;" width="937" x="10" y="453.125"/><line style="stroke:#A80036;stroke-width:1.0;stroke-dasharray:5.0,5.0;" x1="64" x2="64" y1="89.6094" y2="926.0469"/><line style="stroke:#A80036;stroke-width:1.0;stroke-dasharray:5.0,5.0;" x1="862" x2="862" y1="89.6094" y2="926.0469"/><line style="stroke:#A80036;stroke-width:1.0;stroke-dasharray:5.0,5.0;" x1="1441" x2="1441" y1="89.6094" y2="926.0469"/><line style="stroke:#A80036;stroke-width:1.0;stroke-dasharray:5.0,5.0;" x1="2061.5" x2="2061.5" y1="89.6094" y2="926.0469"/><line style="stroke:#A80036;stroke-width:1.0;stroke-dasharray:5.0,5.0;" x1="2596" x2="2596" y1="89.6094" y2="926.0469"/><line style="stroke:#A80036;stroke-width:1.0;stroke-dasharray:5.0,5.0;" x1="2765" x2="2765" y1="89.6094" y2="926.0469"/><line style="stroke:#A80036;stroke-width:1.0;stroke-dasharray:5.0,5.0;" x1="2978.5" x2="2978.5" y1="89.6094" y2="926.0469"/><text fill="#000000" font-family="sans-serif" font-size="14" lengthAdjust="spacing" textLength="83" x="20" y="86.5332">Administrator</text><ellipse cx="64.5" cy="15" fill="#FEFECE" filter="url(#f1ry407abtrgnu)" rx="8" ry="8" style="stroke:#A80036;stroke-width:2.0;"/><path d="M64.5,23 L64.5,50 M51.5,31 L77.5,31 M64.5,50 L51.5,65 M64.5,50 L77.5,65 " fill="none" filter="url(#f1ry407abtrgnu)" style="stroke:#A80036;stroke-width:2.0;"/><text fill="#000000" font-family="sans-serif" font-size="14" lengthAdjust="spacing" textLength="83" x="20" y="939.5801">Administrator</text><ellipse cx="64.5" cy="952.6563" fill="#FEFECE" filter="url(#f1ry407abtrgnu)" rx="8" ry="8" style="stroke:#A80036;stroke-width:2.0;"/><path d="M64.5,960.6563 L64.5,987.6563 M51.5,968.6563 L77.5,968.6563 M64.5,987.6563 L51.5,1002.6563 M64.5,987.6563 L77.5,1002.6563 " fill="none" filter="url(#f1ry407abtrgnu)" style="stroke:#A80036;stroke-width:2.0;"/><rect fill="#FEFECE" filter="url(#f1ry407abtrgnu)" height="31.6094" style="stroke:#A80036;stroke-width:1.5;" width="145" x="788" y="53"/><text fill="#000000" font-family="sans-serif" font-size="14" lengthAdjust="spacing" textLength="131" x="795" y="74.5332">:RegisterEmployeeUI</text><rect fill="#FEFECE" filter="url(#f1ry407abtrgnu)" height="31.6094" style="stroke:#A80036;stroke-width:1.5;" width="145" x="788" y="925.0469"/><text fill="#000000" font-family="sans-serif" font-size="14" lengthAdjust="spacing" textLength="131" x="795" y="946.5801">:RegisterEmployeeUI</text><rect fill="#FEFECE" filter="url(#f1ry407abtrgnu)" height="31.6094" style="stroke:#A80036;stroke-width:1.5;" width="195" x="1342" y="53"/><text fill="#000000" font-family="sans-serif" font-size="14" lengthAdjust="spacing" textLength="181" x="1349" y="74.5332">:RegisterEmployeeController</text><rect fill="#FEFECE" filter="url(#f1ry407abtrgnu)" height="31.6094" style="stroke:#A80036;stroke-width:1.5;" width="195" x="1342" y="925.0469"/><text fill="#000000" font-family="sans-serif" font-size="14" lengthAdjust="spacing" textLength="181" x="1349" y="946.5801">:RegisterEmployeeController</text><rect fill="#FEFECE" filter="url(#f1ry407abtrgnu)" height="31.6094" style="stroke:#A80036;stroke-width:1.5;" width="78" x="2020.5" y="53"/><text fill="#000000" font-family="sans-serif" font-size="14" lengthAdjust="spacing" textLength="64" x="2027.5" y="74.5332">:Company</text><rect fill="#FEFECE" filter="url(#f1ry407abtrgnu)" height="31.6094" style="stroke:#A80036;stroke-width:1.5;" width="78" x="2020.5" y="925.0469"/><text fill="#000000" font-family="sans-serif" font-size="14" lengthAdjust="spacing" textLength="64" x="2027.5" y="946.5801">:Company</text><rect fill="#FEFECE" filter="url(#f1ry407abtrgnu)" height="31.6094" style="stroke:#A80036;stroke-width:1.5;" width="115" x="2537" y="53"/><text fill="#000000" font-family="sans-serif" font-size="14" lengthAdjust="spacing" textLength="101" x="2544" y="74.5332">emp : Employee</text><rect fill="#FEFECE" filter="url(#f1ry407abtrgnu)" height="31.6094" style="stroke:#A80036;stroke-width:1.5;" width="115" x="2537" y="925.0469"/><text fill="#000000" font-family="sans-serif" font-size="14" lengthAdjust="spacing" textLength="101" x="2544" y="946.5801">emp : Employee</text><rect fill="#FEFECE" filter="url(#f1ry407abtrgnu)" height="31.6094" style="stroke:#A80036;stroke-width:1.5;" width="155" x="2686" y="53"/><text fill="#000000" font-family="sans-serif" font-size="14" lengthAdjust="spacing" textLength="141" x="2693" y="74.5332">emp : SpecialistDoctor</text><rect fill="#FEFECE" filter="url(#f1ry407abtrgnu)" height="31.6094" style="stroke:#A80036;stroke-width:1.5;" width="155" x="2686" y="925.0469"/><text fill="#000000" font-family="sans-serif" font-size="14" lengthAdjust="spacing" textLength="141" x="2693" y="946.5801">emp : SpecialistDoctor</text><rect fill="#FEFECE" filter="url(#f1ry407abtrgnu)" height="31.6094" style="stroke:#A80036;stroke-width:1.5;" width="114" x="2919.5" y="53"/><text fill="#000000" font-family="sans-serif" font-size="14" lengthAdjust="spacing" textLength="100" x="2926.5" y="74.5332">:EmployeeStore</text><rect fill="#FEFECE" filter="url(#f1ry407abtrgnu)" height="31.6094" style="stroke:#A80036;stroke-width:1.5;" width="114" x="2919.5" y="925.0469"/><text fill="#000000" font-family="sans-serif" font-size="14" lengthAdjust="spacing" textLength="100" x="2926.5" y="946.5801">:EmployeeStore</text><rect fill="#FFFFFF" filter="url(#f1ry407abtrgnu)" height="817.4375" style="stroke:#A80036;stroke-width:1.0;" width="10" x="59.5" y="99.6094"/><rect fill="#FFFFFF" filter="url(#f1ry407abtrgnu)" height="30.3516" style="stroke:#A80036;stroke-width:1.0;" width="10" x="857.5" y="121.9609"/><rect fill="#FFFFFF" filter="url(#f1ry407abtrgnu)" height="30.3516" style="stroke:#A80036;stroke-width:1.0;" width="10" x="857.5" y="182.6641"/><rect fill="#FFFFFF" filter="url(#f1ry407abtrgnu)" height="194.7578" style="stroke:#A80036;stroke-width:1.0;" width="10" x="857.5" y="243.3672"/><rect fill="#FFFFFF" filter="url(#f1ry407abtrgnu)" height="30.3516" style="stroke:#A80036;stroke-width:1.0;" width="10" x="857.5" y="493.8281"/><rect fill="#FFFFFF" filter="url(#f1ry407abtrgnu)" height="164.7578" style="stroke:#A80036;stroke-width:1.0;" width="10" x="857.5" y="561.5313"/><rect fill="#FFFFFF" filter="url(#f1ry407abtrgnu)" height="151.4063" style="stroke:#A80036;stroke-width:1.0;" width="10" x="857.5" y="756.6406"/><rect fill="#FFFFFF" filter="url(#f1ry407abtrgnu)" height="415.2188" style="stroke:#A80036;stroke-width:1.0;" width="10" x="1436.5" y="273.7188"/><rect fill="#FFFFFF" filter="url(#f1ry407abtrgnu)" height="90.7031" style="stroke:#A80036;stroke-width:1.0;" width="10" x="1436.5" y="786.9922"/><rect fill="#FFFFFF" filter="url(#f1ry407abtrgnu)" height="60.3516" style="stroke:#A80036;stroke-width:1.0;" width="10" x="2056.5" y="304.0703"/><rect fill="#FFFFFF" filter="url(#f1ry407abtrgnu)" height="66.7031" style="stroke:#A80036;stroke-width:1.0;" width="10" x="2056.5" y="622.2344"/><rect fill="#FFFFFF" filter="url(#f1ry407abtrgnu)" height="60.3516" style="stroke:#A80036;stroke-width:1.0;" width="10" x="2056.5" y="817.3438"/><rect fill="#FFFFFF" filter="url(#f1ry407abtrgnu)" height="189.7578" style="stroke:#A80036;stroke-width:1.0;" width="10" x="2591.5" y="334.4219"/><rect fill="#FFFFFF" filter="url(#f1ry407abtrgnu)" height="73.7031" style="stroke:#A80036;stroke-width:1.0;" width="10" x="2760.5" y="652.5859"/><rect fill="#FFFFFF" filter="url(#f1ry407abtrgnu)" height="30" style="stroke:#A80036;stroke-width:1.0;" width="10" x="2973.5" y="847.6953"/><polygon fill="#A80036" points="845.5,117.9609,855.5,121.9609,845.5,125.9609,849.5,121.9609" style="stroke:#A80036;stroke-width:1.0;"/><line style="stroke:#A80036;stroke-width:1.0;" x1="69.5" x2="851.5" y1="121.9609" y2="121.9609"/><text fill="#000000" font-family="sans-serif" font-size="13" font-weight="bold" lengthAdjust="spacing" textLength="7" x="76.5" y="117.1045">1</text><text fill="#000000" font-family="sans-serif" font-size="13" lengthAdjust="spacing" textLength="183" x="87.5" y="117.1045">requests to register a employee</text><polygon fill="#A80036" points="80.5,148.3125,70.5,152.3125,80.5,156.3125,76.5,152.3125" style="stroke:#A80036;stroke-width:1.0;"/><line style="stroke:#A80036;stroke-width:1.0;stroke-dasharray:2.0,2.0;" x1="74.5" x2="861.5" y1="152.3125" y2="152.3125"/><text fill="#000000" font-family="sans-serif" font-size="13" font-weight="bold" lengthAdjust="spacing" textLength="7" x="86.5" y="147.4561">2</text><text fill="#000000" font-family="sans-serif" font-size="13" lengthAdjust="spacing" textLength="753" x="97.5" y="147.4561">asks for the necessary data about the employee (employeeID, organization role, name, address, phone number, email, SOC code)</text><polygon fill="#A80036" points="845.5,178.6641,855.5,182.6641,845.5,186.6641,849.5,182.6641" style="stroke:#A80036;stroke-width:1.0;"/><line style="stroke:#A80036;stroke-width:1.0;" x1="69.5" x2="851.5" y1="182.6641" y2="182.6641"/><text fill="#000000" font-family="sans-serif" font-size="13" font-weight="bold" lengthAdjust="spacing" textLength="7" x="76.5" y="177.8076">3</text><text fill="#000000" font-family="sans-serif" font-size="13" lengthAdjust="spacing" textLength="172" x="87.5" y="177.8076">introduces the requested data</text><polygon fill="#A80036" points="1429.5,209.0156,1439.5,213.0156,1429.5,217.0156,1433.5,213.0156" style="stroke:#A80036;stroke-width:1.0;"/><line style="stroke:#A80036;stroke-width:1.0;" x1="862.5" x2="1435.5" y1="213.0156" y2="213.0156"/><text fill="#000000" font-family="sans-serif" font-size="13" font-weight="bold" lengthAdjust="spacing" textLength="7" x="869.5" y="208.1592">4</text><text fill="#000000" font-family="sans-serif" font-size="13" lengthAdjust="spacing" textLength="539" x="880.5" y="208.1592">newEmployee(employeeId, organizationRole, name, address, phoneNumber, email, socCode)</text><polygon fill="#A80036" points="845.5,239.3672,855.5,243.3672,845.5,247.3672,849.5,243.3672" style="stroke:#A80036;stroke-width:1.0;"/><line style="stroke:#A80036;stroke-width:1.0;" x1="69.5" x2="851.5" y1="243.3672" y2="243.3672"/><text fill="#000000" font-family="sans-serif" font-size="13" font-weight="bold" lengthAdjust="spacing" textLength="7" x="76.5" y="238.5107">5</text><text fill="#000000" font-family="sans-serif" font-size="13" lengthAdjust="spacing" textLength="151" x="87.5" y="238.5107">inserts the requested data</text><polygon fill="#A80036" points="1424.5,269.7188,1434.5,273.7188,1424.5,277.7188,1428.5,273.7188" style="stroke:#A80036;stroke-width:1.0;"/><line style="stroke:#A80036;stroke-width:1.0;" x1="867.5" x2="1430.5" y1="273.7188" y2="273.7188"/><text fill="#000000" font-family="sans-serif" font-size="13" font-weight="bold" lengthAdjust="spacing" textLength="7" x="874.5" y="268.8623">6</text><text fill="#000000" font-family="sans-serif" font-size="13" lengthAdjust="spacing" textLength="89" x="885.5" y="268.8623">newEmployee()</text><polygon fill="#A80036" points="2044.5,300.0703,2054.5,304.0703,2044.5,308.0703,2048.5,304.0703" style="stroke:#A80036;stroke-width:1.0;"/><line style="stroke:#A80036;stroke-width:1.0;" x1="1446.5" x2="2050.5" y1="304.0703" y2="304.0703"/><text fill="#000000" font-family="sans-serif" font-size="13" font-weight="bold" lengthAdjust="spacing" textLength="7" x="1453.5" y="299.2139">7</text><text fill="#000000" font-family="sans-serif" font-size="13" lengthAdjust="spacing" textLength="580" x="1464.5" y="299.2139">emp = newEmployee(employeeId, organizationRole, name, address, phoneNumber, email, socCode)</text><polygon fill="#A80036" points="2579.5,330.4219,2589.5,334.4219,2579.5,338.4219,2583.5,334.4219" style="stroke:#A80036;stroke-width:1.0;"/><line style="stroke:#A80036;stroke-width:1.0;" x1="2066.5" x2="2585.5" y1="334.4219" y2="334.4219"/><text fill="#000000" font-family="sans-serif" font-size="13" font-weight="bold" lengthAdjust="spacing" textLength="7" x="2073.5" y="329.5654">8</text><text fill="#000000" font-family="sans-serif" font-size="13" lengthAdjust="spacing" textLength="495" x="2084.5" y="329.5654">create(employeeId, organizationRole, name, address, phoneNumber,email, SOCcode)</text><line style="stroke:#A80036;stroke-width:1.0;" x1="2601.5" x2="2643.5" y1="394.7734" y2="394.7734"/><line style="stroke:#A80036;stroke-width:1.0;" x1="2643.5" x2="2643.5" y1="394.7734" y2="407.7734"/><line style="stroke:#A80036;stroke-width:1.0;" x1="2602.5" x2="2643.5" y1="407.7734" y2="407.7734"/><polygon fill="#A80036" points="2612.5,403.7734,2602.5,407.7734,2612.5,411.7734,2608.5,407.7734" style="stroke:#A80036;stroke-width:1.0;"/><text fill="#000000" font-family="sans-serif" font-size="13" font-weight="bold" lengthAdjust="spacing" textLength="7" x="2608.5" y="389.917">9</text><text fill="#000000" font-family="sans-serif" font-size="13" lengthAdjust="spacing" textLength="134" x="2619.5" y="389.917">validateEmployee(emp)</text><polygon fill="#A80036" points="80.5,434.125,70.5,438.125,80.5,442.125,76.5,438.125" style="stroke:#A80036;stroke-width:1.0;"/><line style="stroke:#A80036;stroke-width:1.0;stroke-dasharray:2.0,2.0;" x1="74.5" x2="861.5" y1="438.125" y2="438.125"/><text fill="#000000" font-family="sans-serif" font-size="13" font-weight="bold" lengthAdjust="spacing" textLength="14" x="86.5" y="433.2686">10</text><text fill="#000000" font-family="sans-serif" font-size="13" lengthAdjust="spacing" textLength="198" x="104.5" y="433.2686">presents all introduced information</text><path d="M10,453.125 L71,453.125 L71,461.125 L61,471.125 L10,471.125 L10,453.125 " fill="#EEEEEE" style="stroke:#000000;stroke-width:1.0;"/><rect fill="none" height="79.0547" style="stroke:#000000;stroke-width:2.0;" width="937" x="10" y="453.125"/><text fill="#000000" font-family="sans-serif" font-size="13" font-weight="bold" lengthAdjust="spacing" textLength="16" x="25" y="467.6201">alt</text><text fill="#000000" font-family="sans-serif" font-size="11" font-weight="bold" lengthAdjust="spacing" textLength="211" x="86" y="466.5439">[if organizationRole = SpecialistDoctor]</text><polygon fill="#A80036" points="845.5,489.8281,855.5,493.8281,845.5,497.8281,849.5,493.8281" style="stroke:#A80036;stroke-width:1.0;"/><line style="stroke:#A80036;stroke-width:1.0;" x1="69.5" x2="851.5" y1="493.8281" y2="493.8281"/><text fill="#000000" font-family="sans-serif" font-size="13" font-weight="bold" lengthAdjust="spacing" textLength="14" x="76.5" y="488.9717">11</text><text fill="#000000" font-family="sans-serif" font-size="13" lengthAdjust="spacing" textLength="138" x="94.5" y="488.9717">confirms the information</text><polygon fill="#A80036" points="80.5,520.1797,70.5,524.1797,80.5,528.1797,76.5,524.1797" style="stroke:#A80036;stroke-width:1.0;"/><line style="stroke:#A80036;stroke-width:1.0;stroke-dasharray:2.0,2.0;" x1="74.5" x2="861.5" y1="524.1797" y2="524.1797"/><text fill="#000000" font-family="sans-serif" font-size="13" font-weight="bold" lengthAdjust="spacing" textLength="14" x="86.5" y="519.3232">12</text><text fill="#000000" font-family="sans-serif" font-size="13" lengthAdjust="spacing" textLength="216" x="104.5" y="519.3232">requests the the doctor index number</text><polygon fill="#A80036" points="845.5,557.5313,855.5,561.5313,845.5,565.5313,849.5,561.5313" style="stroke:#A80036;stroke-width:1.0;"/><line style="stroke:#A80036;stroke-width:1.0;" x1="69.5" x2="851.5" y1="561.5313" y2="561.5313"/><text fill="#000000" font-family="sans-serif" font-size="13" font-weight="bold" lengthAdjust="spacing" textLength="14" x="76.5" y="556.6748">13</text><text fill="#000000" font-family="sans-serif" font-size="13" lengthAdjust="spacing" textLength="172" x="94.5" y="556.6748">introduces the requested data</text><polygon fill="#A80036" points="1424.5,587.8828,1434.5,591.8828,1424.5,595.8828,1428.5,591.8828" style="stroke:#A80036;stroke-width:1.0;"/><line style="stroke:#A80036;stroke-width:1.0;" x1="867.5" x2="1430.5" y1="591.8828" y2="591.8828"/><text fill="#000000" font-family="sans-serif" font-size="13" font-weight="bold" lengthAdjust="spacing" textLength="14" x="874.5" y="587.0264">14</text><text fill="#000000" font-family="sans-serif" font-size="13" lengthAdjust="spacing" textLength="114" x="892.5" y="587.0264">newEmployee(emp)</text><polygon fill="#A80036" points="2044.5,618.2344,2054.5,622.2344,2044.5,626.2344,2048.5,622.2344" style="stroke:#A80036;stroke-width:1.0;"/><line style="stroke:#A80036;stroke-width:1.0;" x1="1446.5" x2="2050.5" y1="622.2344" y2="622.2344"/><text fill="#000000" font-family="sans-serif" font-size="13" font-weight="bold" lengthAdjust="spacing" textLength="14" x="1453.5" y="617.3779">15</text><text fill="#000000" font-family="sans-serif" font-size="13" lengthAdjust="spacing" textLength="159" x="1471.5" y="617.3779">setDIN(doctorIndexNumber)</text><polygon fill="#A80036" points="2748.5,648.5859,2758.5,652.5859,2748.5,656.5859,2752.5,652.5859" style="stroke:#A80036;stroke-width:1.0;"/><line style="stroke:#A80036;stroke-width:1.0;" x1="2066.5" x2="2754.5" y1="652.5859" y2="652.5859"/><text fill="#000000" font-family="sans-serif" font-size="13" font-weight="bold" lengthAdjust="spacing" textLength="14" x="2073.5" y="647.7295">16</text><text fill="#000000" font-family="sans-serif" font-size="13" lengthAdjust="spacing" textLength="156" x="2091.5" y="647.7295">create(doctorIndexNumber)</text><line style="stroke:#A80036;stroke-width:1.0;" x1="2770.5" x2="2812.5" y1="687.9375" y2="687.9375"/><line style="stroke:#A80036;stroke-width:1.0;" x1="2812.5" x2="2812.5" y1="687.9375" y2="700.9375"/><line style="stroke:#A80036;stroke-width:1.0;" x1="2765.5" x2="2812.5" y1="700.9375" y2="700.9375"/><polygon fill="#A80036" points="2775.5,696.9375,2765.5,700.9375,2775.5,704.9375,2771.5,700.9375" style="stroke:#A80036;stroke-width:1.0;"/><text fill="#000000" font-family="sans-serif" font-size="13" font-weight="bold" lengthAdjust="spacing" textLength="14" x="2777.5" y="683.0811">17</text><text fill="#000000" font-family="sans-serif" font-size="13" lengthAdjust="spacing" textLength="171" x="2795.5" y="683.0811">validateSpecialistDoctor(emp)</text><polygon fill="#A80036" points="80.5,722.2891,70.5,726.2891,80.5,730.2891,76.5,726.2891" style="stroke:#A80036;stroke-width:1.0;"/><line style="stroke:#A80036;stroke-width:1.0;stroke-dasharray:2.0,2.0;" x1="74.5" x2="861.5" y1="726.2891" y2="726.2891"/><text fill="#000000" font-family="sans-serif" font-size="13" font-weight="bold" lengthAdjust="spacing" textLength="14" x="86.5" y="721.4326">18</text><text fill="#000000" font-family="sans-serif" font-size="13" lengthAdjust="spacing" textLength="314" x="104.5" y="721.4326">validates the introduced data ans asks for confirmation</text><polygon fill="#A80036" points="845.5,752.6406,855.5,756.6406,845.5,760.6406,849.5,756.6406" style="stroke:#A80036;stroke-width:1.0;"/><line style="stroke:#A80036;stroke-width:1.0;" x1="69.5" x2="851.5" y1="756.6406" y2="756.6406"/><text fill="#000000" font-family="sans-serif" font-size="13" font-weight="bold" lengthAdjust="spacing" textLength="14" x="76.5" y="751.7842">19</text><text fill="#000000" font-family="sans-serif" font-size="13" lengthAdjust="spacing" textLength="49" x="94.5" y="751.7842">confirms</text><polygon fill="#A80036" points="1424.5,782.9922,1434.5,786.9922,1424.5,790.9922,1428.5,786.9922" style="stroke:#A80036;stroke-width:1.0;"/><line style="stroke:#A80036;stroke-width:1.0;" x1="867.5" x2="1430.5" y1="786.9922" y2="786.9922"/><text fill="#000000" font-family="sans-serif" font-size="13" font-weight="bold" lengthAdjust="spacing" textLength="14" x="874.5" y="782.1357">20</text><text fill="#000000" font-family="sans-serif" font-size="13" lengthAdjust="spacing" textLength="92" x="892.5" y="782.1357">saveEmployee()</text><polygon fill="#A80036" points="2044.5,813.3438,2054.5,817.3438,2044.5,821.3438,2048.5,817.3438" style="stroke:#A80036;stroke-width:1.0;"/><line style="stroke:#A80036;stroke-width:1.0;" x1="1446.5" x2="2050.5" y1="817.3438" y2="817.3438"/><text fill="#000000" font-family="sans-serif" font-size="13" font-weight="bold" lengthAdjust="spacing" textLength="14" x="1453.5" y="812.4873">21</text><text fill="#000000" font-family="sans-serif" font-size="13" lengthAdjust="spacing" textLength="117" x="1471.5" y="812.4873">saveEmployee(emp)</text><polygon fill="#A80036" points="2961.5,843.6953,2971.5,847.6953,2961.5,851.6953,2965.5,847.6953" style="stroke:#A80036;stroke-width:1.0;"/><line style="stroke:#A80036;stroke-width:1.0;" x1="2066.5" x2="2967.5" y1="847.6953" y2="847.6953"/><text fill="#000000" font-family="sans-serif" font-size="13" font-weight="bold" lengthAdjust="spacing" textLength="14" x="2073.5" y="842.8389">22</text><text fill="#000000" font-family="sans-serif" font-size="13" lengthAdjust="spacing" textLength="112" x="2091.5" y="842.8389">addEmployee(emp)</text><polygon fill="#A80036" points="80.5,904.0469,70.5,908.0469,80.5,912.0469,76.5,908.0469" style="stroke:#A80036;stroke-width:1.0;"/><line style="stroke:#A80036;stroke-width:1.0;stroke-dasharray:2.0,2.0;" x1="74.5" x2="861.5" y1="908.0469" y2="908.0469"/><text fill="#000000" font-family="sans-serif" font-size="13" font-weight="bold" lengthAdjust="spacing" textLength="14" x="86.5" y="903.1904">23</text><text fill="#000000" font-family="sans-serif" font-size="13" lengthAdjust="spacing" textLength="152" x="104.5" y="903.1904">informs success operation</text><!--MD5=[b21f1433c5d2fab4a1187bffead54029]
@startuml

autonumber
actor "Administrator" as admin

participant ":RegisterEmployeeUI" as ui
participant ":RegisterEmployeeController" AS ctrl
participant ":Company" as cmp
participant "emp : Employee" as emp
participant "emp : SpecialistDoctor" as doc
participant ":EmployeeStore" as empStore

activate admin

admin -> ui : requests to register a employee

activate ui

ui - -> admin : asks for the necessary data about the employee (employeeID, organization role, name, address, phone number, email, SOC code)

deactivate ui

admin -> ui : introduces the requested data

activate ui

ui -> ctrl : newEmployee(employeeId, organizationRole, name, address, phoneNumber, email, socCode)

deactivate ui

admin -> ui : inserts the requested data

activate ui

ui -> ctrl : newEmployee()

activate ctrl

ctrl -> cmp : emp = newEmployee(employeeId, organizationRole, name, address, phoneNumber, email, socCode)

activate cmp


cmp -> emp : create(employeeId, organizationRole, name, address, phoneNumber,email, SOCcode)

activate emp
deactivate cmp

emp -> emp :validateEmployee(emp)

ui - -> admin : presents all introduced information

deactivate ui

alt if organizationRole = SpecialistDoctor

admin -> ui : confirms the information

activate ui

ui - -> admin : requests the the doctor index number

deactivate ui

deactivate emp

end

admin -> ui : introduces the requested data

activate ui

ui -> ctrl : newEmployee(emp)

ctrl -> cmp : setDIN(doctorIndexNumber)

activate cmp

cmp -> doc : create(doctorIndexNumber)

activate doc

doc -> doc : validateSpecialistDoctor(emp)


deactivate cmp
deactivate ctrl

ui - -> admin : validates the introduced data ans asks for confirmation


deactivate doc
deactivate ui

admin -> ui : confirms

activate ui

ui -> ctrl : saveEmployee()



activate ctrl

ctrl -> cmp : saveEmployee(emp)

activate cmp

cmp -> empStore : addEmployee(emp)

activate empStore

deactivate cmp
deactivate empStore
deactivate cmp
deactivate ctrl

ui - -> admin : informs success operation

deactivate ui

@enduml

PlantUML version 1.2021.5(Sun Apr 25 12:20:28 BST 2021)
(GPL source distribution)
Java Runtime: OpenJDK Runtime Environment
JVM: Dynamic Code Evolution 64-Bit Server VM
Default Encoding: Cp1252
Language: pt
Country: PT
--></g></svg>