<?xml version="1.0" encoding="UTF-8" standalone="no"?><svg xmlns="http://www.w3.org/2000/svg" xmlns:xlink="http://www.w3.org/1999/xlink" contentScriptType="application/ecmascript" contentStyleType="text/css" height="737px" preserveAspectRatio="none" style="width:486px;height:737px;" version="1.1" viewBox="0 0 486 737" width="486px" zoomAndPan="magnify"><defs><filter height="300%" id="f1i1qe7dc1x4qm" width="300%" x="-1" y="-1"><feGaussianBlur result="blurOut" stdDeviation="2.0"/><feColorMatrix in="blurOut" result="blurOut2" type="matrix" values="0 0 0 0 0 0 0 0 0 0 0 0 0 0 0 0 0 0 .4 0"/><feOffset dx="4.0" dy="4.0" in="blurOut2" result="blurOut3"/><feBlend in="SourceGraphic" in2="blurOut3" mode="normal"/></filter></defs><g><!--MD5=[a126dd63c8621c017159ae62771fbe54]
class RegisterEmployeeUI--><rect codeLine="4" fill="#FEFECE" filter="url(#f1i1qe7dc1x4qm)" height="48" id="RegisterEmployeeUI" style="stroke:#A80036;stroke-width:1.5;" width="146" x="166.5" y="7"/><ellipse cx="181.5" cy="23" fill="#ADD1B2" rx="11" ry="11" style="stroke:#A80036;stroke-width:1.0;"/><path d="M183.5,19.5 Q183.7031,19 183.9375,18.75 Q184.1719,18.5 184.4375,18.5 Q184.9063,18.5 185.2031,18.7813 Q185.5,19.0625 185.5,19.7188 L185.5,21.2813 Q185.5,21.9375 185.2188,22.2188 Q184.9375,22.5 184.5,22.5 Q184.1094,22.5 183.8594,22.3281 Q183.6094,22.1563 183.5,21.7031 Q183.4531,21.3906 183.2813,21.2188 Q182.9688,20.8906 182.4063,20.7031 Q181.8438,20.5 181.2813,20.5 Q180.5781,20.5 179.9844,20.7813 Q179.4063,21.0625 178.9531,21.6875 Q178.5,22.3125 178.5,23.1719 L178.5,24.0938 Q178.5,25.125 179.3438,25.8125 Q180.1875,26.5 181.6875,26.5 Q182.5781,26.5 183.2031,26.2969 Q183.5625,26.1875 183.9688,25.8281 Q184.2344,25.625 184.375,25.5625 Q184.5156,25.5 184.6875,25.5 Q185.0156,25.5 185.25,25.7656 Q185.5,26.0156 185.5,26.375 Q185.5,26.7188 185.1563,27.125 Q184.6563,27.7188 183.8594,28.0469 Q182.8125,28.5 181.5313,28.5 Q180.0313,28.5 178.8281,27.9063 Q177.8594,27.4375 177.1719,26.4219 Q176.5,25.4063 176.5,24.2031 L176.5,23.1094 Q176.5,21.8594 177.0938,20.7656 Q177.7031,19.6719 178.75,19.0938 Q179.8125,18.5 181,18.5 Q181.7188,18.5 182.3438,18.75 Q182.9688,19 183.5,19.5 Z " fill="#000000"/><text fill="#000000" font-family="sans-serif" font-size="12" lengthAdjust="spacing" textLength="114" x="195.5" y="27.9102">RegisterEmployeeUI</text><line style="stroke:#A80036;stroke-width:1.5;" x1="167.5" x2="311.5" y1="39" y2="39"/><line style="stroke:#A80036;stroke-width:1.5;" x1="167.5" x2="311.5" y1="47" y2="47"/><!--MD5=[6a4e699b59c2ecf8286aba2faa72e4bd]
class RegisterEmployeeController--><rect codeLine="7" fill="#FEFECE" filter="url(#f1i1qe7dc1x4qm)" height="75.6719" id="RegisterEmployeeController" style="stroke:#A80036;stroke-width:1.5;" width="464" x="7.5" y="115"/><ellipse cx="157.25" cy="131" fill="#ADD1B2" rx="11" ry="11" style="stroke:#A80036;stroke-width:1.0;"/><path d="M159.25,127.5 Q159.4531,127 159.6875,126.75 Q159.9219,126.5 160.1875,126.5 Q160.6563,126.5 160.9531,126.7813 Q161.25,127.0625 161.25,127.7188 L161.25,129.2813 Q161.25,129.9375 160.9688,130.2188 Q160.6875,130.5 160.25,130.5 Q159.8594,130.5 159.6094,130.3281 Q159.3594,130.1563 159.25,129.7031 Q159.2031,129.3906 159.0313,129.2188 Q158.7188,128.8906 158.1563,128.7031 Q157.5938,128.5 157.0313,128.5 Q156.3281,128.5 155.7344,128.7813 Q155.1563,129.0625 154.7031,129.6875 Q154.25,130.3125 154.25,131.1719 L154.25,132.0938 Q154.25,133.125 155.0938,133.8125 Q155.9375,134.5 157.4375,134.5 Q158.3281,134.5 158.9531,134.2969 Q159.3125,134.1875 159.7188,133.8281 Q159.9844,133.625 160.125,133.5625 Q160.2656,133.5 160.4375,133.5 Q160.7656,133.5 161,133.7656 Q161.25,134.0156 161.25,134.375 Q161.25,134.7188 160.9063,135.125 Q160.4063,135.7188 159.6094,136.0469 Q158.5625,136.5 157.2813,136.5 Q155.7813,136.5 154.5781,135.9063 Q153.6094,135.4375 152.9219,134.4219 Q152.25,133.4063 152.25,132.2031 L152.25,131.1094 Q152.25,129.8594 152.8438,128.7656 Q153.4531,127.6719 154.5,127.0938 Q155.5625,126.5 156.75,126.5 Q157.4688,126.5 158.0938,126.75 Q158.7188,127 159.25,127.5 Z " fill="#000000"/><text fill="#000000" font-family="sans-serif" font-size="12" lengthAdjust="spacing" textLength="156" x="177.75" y="135.9102">RegisterEmployeeController</text><line style="stroke:#A80036;stroke-width:1.5;" x1="8.5" x2="470.5" y1="147" y2="147"/><line style="stroke:#A80036;stroke-width:1.5;" x1="8.5" x2="470.5" y1="155" y2="155"/><text fill="#000000" font-family="sans-serif" font-size="11" lengthAdjust="spacing" textLength="452" x="13.5" y="170.4189">+newEmployee(employeeId, organizationRole, name, address, phoneNumber, email, socCode)</text><text fill="#000000" font-family="sans-serif" font-size="11" lengthAdjust="spacing" textLength="84" x="13.5" y="184.2549">+saveEmployee()</text><!--MD5=[02e4b9b7573f1156f41e60aa5b4e25a4]
class Company--><rect codeLine="12" fill="#FEFECE" filter="url(#f1i1qe7dc1x4qm)" height="89.5078" id="Company" style="stroke:#A80036;stroke-width:1.5;" width="133" x="173" y="251"/><ellipse cx="209.6" cy="267" fill="#ADD1B2" rx="11" ry="11" style="stroke:#A80036;stroke-width:1.0;"/><path d="M211.6,263.5 Q211.8031,263 212.0375,262.75 Q212.2719,262.5 212.5375,262.5 Q213.0063,262.5 213.3031,262.7813 Q213.6,263.0625 213.6,263.7188 L213.6,265.2813 Q213.6,265.9375 213.3188,266.2188 Q213.0375,266.5 212.6,266.5 Q212.2094,266.5 211.9594,266.3281 Q211.7094,266.1563 211.6,265.7031 Q211.5531,265.3906 211.3813,265.2188 Q211.0688,264.8906 210.5063,264.7031 Q209.9438,264.5 209.3813,264.5 Q208.6781,264.5 208.0844,264.7813 Q207.5063,265.0625 207.0531,265.6875 Q206.6,266.3125 206.6,267.1719 L206.6,268.0938 Q206.6,269.125 207.4438,269.8125 Q208.2875,270.5 209.7875,270.5 Q210.6781,270.5 211.3031,270.2969 Q211.6625,270.1875 212.0688,269.8281 Q212.3344,269.625 212.475,269.5625 Q212.6156,269.5 212.7875,269.5 Q213.1156,269.5 213.35,269.7656 Q213.6,270.0156 213.6,270.375 Q213.6,270.7188 213.2563,271.125 Q212.7563,271.7188 211.9594,272.0469 Q210.9125,272.5 209.6313,272.5 Q208.1313,272.5 206.9281,271.9063 Q205.9594,271.4375 205.2719,270.4219 Q204.6,269.4063 204.6,268.2031 L204.6,267.1094 Q204.6,265.8594 205.1938,264.7656 Q205.8031,263.6719 206.85,263.0938 Q207.9125,262.5 209.1,262.5 Q209.8188,262.5 210.4438,262.75 Q211.0688,263 211.6,263.5 Z " fill="#000000"/><text fill="#000000" font-family="sans-serif" font-size="12" lengthAdjust="spacing" textLength="53" x="228.4" y="271.9102">Company</text><line style="stroke:#A80036;stroke-width:1.5;" x1="174" x2="305" y1="283" y2="283"/><text fill="#000000" font-family="sans-serif" font-size="11" lengthAdjust="spacing" textLength="59" x="179" y="298.4189">-designation</text><line style="stroke:#A80036;stroke-width:1.5;" x1="174" x2="305" y1="304.8359" y2="304.8359"/><text fill="#000000" font-family="sans-serif" font-size="11" lengthAdjust="spacing" textLength="121" x="179" y="320.2549">+getEmployeesRegistry()</text><text fill="#000000" font-family="sans-serif" font-size="11" lengthAdjust="spacing" textLength="101" x="179" y="334.0908">+getDoctorRegistry()</text><!--MD5=[7421f545a0d8420c5bec41e74b387d9c]
class Employee--><rect codeLine="19" fill="#FEFECE" filter="url(#f1i1qe7dc1x4qm)" height="172.5234" id="Employee" style="stroke:#A80036;stroke-width:1.5;" width="365" x="57" y="401"/><ellipse cx="207.75" cy="417" fill="#ADD1B2" rx="11" ry="11" style="stroke:#A80036;stroke-width:1.0;"/><path d="M209.75,413.5 Q209.9531,413 210.1875,412.75 Q210.4219,412.5 210.6875,412.5 Q211.1563,412.5 211.4531,412.7813 Q211.75,413.0625 211.75,413.7188 L211.75,415.2813 Q211.75,415.9375 211.4688,416.2188 Q211.1875,416.5 210.75,416.5 Q210.3594,416.5 210.1094,416.3281 Q209.8594,416.1563 209.75,415.7031 Q209.7031,415.3906 209.5313,415.2188 Q209.2188,414.8906 208.6563,414.7031 Q208.0938,414.5 207.5313,414.5 Q206.8281,414.5 206.2344,414.7813 Q205.6563,415.0625 205.2031,415.6875 Q204.75,416.3125 204.75,417.1719 L204.75,418.0938 Q204.75,419.125 205.5938,419.8125 Q206.4375,420.5 207.9375,420.5 Q208.8281,420.5 209.4531,420.2969 Q209.8125,420.1875 210.2188,419.8281 Q210.4844,419.625 210.625,419.5625 Q210.7656,419.5 210.9375,419.5 Q211.2656,419.5 211.5,419.7656 Q211.75,420.0156 211.75,420.375 Q211.75,420.7188 211.4063,421.125 Q210.9063,421.7188 210.1094,422.0469 Q209.0625,422.5 207.7813,422.5 Q206.2813,422.5 205.0781,421.9063 Q204.1094,421.4375 203.4219,420.4219 Q202.75,419.4063 202.75,418.2031 L202.75,417.1094 Q202.75,415.8594 203.3438,414.7656 Q203.9531,413.6719 205,413.0938 Q206.0625,412.5 207.25,412.5 Q207.9688,412.5 208.5938,412.75 Q209.2188,413 209.75,413.5 Z " fill="#000000"/><text fill="#000000" font-family="sans-serif" font-size="12" lengthAdjust="spacing" textLength="55" x="228.25" y="421.9102">Employee</text><line style="stroke:#A80036;stroke-width:1.5;" x1="58" x2="421" y1="433" y2="433"/><text fill="#000000" font-family="sans-serif" font-size="11" lengthAdjust="spacing" textLength="12" x="63" y="448.4189">-id</text><text fill="#000000" font-family="sans-serif" font-size="11" lengthAdjust="spacing" textLength="84" x="63" y="462.2549">-organizationRole</text><text fill="#000000" font-family="sans-serif" font-size="11" lengthAdjust="spacing" textLength="30" x="63" y="476.0908">-name</text><text fill="#000000" font-family="sans-serif" font-size="11" lengthAdjust="spacing" textLength="44" x="63" y="489.9268">-address</text><text fill="#000000" font-family="sans-serif" font-size="11" lengthAdjust="spacing" textLength="71" x="63" y="503.7627">-phoneNumber</text><text fill="#000000" font-family="sans-serif" font-size="11" lengthAdjust="spacing" textLength="28" x="63" y="517.5986">-email</text><text fill="#000000" font-family="sans-serif" font-size="11" lengthAdjust="spacing" textLength="47" x="63" y="531.4346">-socCode</text><line style="stroke:#A80036;stroke-width:1.5;" x1="58" x2="421" y1="537.8516" y2="537.8516"/><text fill="#000000" font-family="sans-serif" font-size="11" lengthAdjust="spacing" textLength="353" x="63" y="553.2705">+create(role, employeeId, name, address, phoneNumber, email, socCode)</text><text fill="#000000" font-family="sans-serif" font-size="11" lengthAdjust="spacing" textLength="97" x="63" y="567.1064">+validateEmployee()</text><!--MD5=[7d96fd15f3014691d2fcaf89c5791e2a]
class SpecialistDoctor--><rect codeLine="31" fill="#FEFECE" filter="url(#f1i1qe7dc1x4qm)" height="89.5078" id="SpecialistDoctor" style="stroke:#A80036;stroke-width:1.5;" width="465" x="7" y="634"/><ellipse cx="190.25" cy="650" fill="#ADD1B2" rx="11" ry="11" style="stroke:#A80036;stroke-width:1.0;"/><path d="M192.25,646.5 Q192.4531,646 192.6875,645.75 Q192.9219,645.5 193.1875,645.5 Q193.6563,645.5 193.9531,645.7813 Q194.25,646.0625 194.25,646.7188 L194.25,648.2813 Q194.25,648.9375 193.9688,649.2188 Q193.6875,649.5 193.25,649.5 Q192.8594,649.5 192.6094,649.3281 Q192.3594,649.1563 192.25,648.7031 Q192.2031,648.3906 192.0313,648.2188 Q191.7188,647.8906 191.1563,647.7031 Q190.5938,647.5 190.0313,647.5 Q189.3281,647.5 188.7344,647.7813 Q188.1563,648.0625 187.7031,648.6875 Q187.25,649.3125 187.25,650.1719 L187.25,651.0938 Q187.25,652.125 188.0938,652.8125 Q188.9375,653.5 190.4375,653.5 Q191.3281,653.5 191.9531,653.2969 Q192.3125,653.1875 192.7188,652.8281 Q192.9844,652.625 193.125,652.5625 Q193.2656,652.5 193.4375,652.5 Q193.7656,652.5 194,652.7656 Q194.25,653.0156 194.25,653.375 Q194.25,653.7188 193.9063,654.125 Q193.4063,654.7188 192.6094,655.0469 Q191.5625,655.5 190.2813,655.5 Q188.7813,655.5 187.5781,654.9063 Q186.6094,654.4375 185.9219,653.4219 Q185.25,652.4063 185.25,651.2031 L185.25,650.1094 Q185.25,648.8594 185.8438,647.7656 Q186.4531,646.6719 187.5,646.0938 Q188.5625,645.5 189.75,645.5 Q190.4688,645.5 191.0938,645.75 Q191.7188,646 192.25,646.5 Z " fill="#000000"/><text fill="#000000" font-family="sans-serif" font-size="12" lengthAdjust="spacing" textLength="90" x="210.75" y="654.9102">SpecialistDoctor</text><line style="stroke:#A80036;stroke-width:1.5;" x1="8" x2="471" y1="666" y2="666"/><text fill="#000000" font-family="sans-serif" font-size="11" lengthAdjust="spacing" textLength="98" x="13" y="681.4189">-doctorIndexNumber</text><line style="stroke:#A80036;stroke-width:1.5;" x1="8" x2="471" y1="687.8359" y2="687.8359"/><text fill="#000000" font-family="sans-serif" font-size="11" lengthAdjust="spacing" textLength="453" x="13" y="703.2549">+create(role, EmployeeId, name, address, phoneNumber, email, socCode, doctorIndexNumber)</text><text fill="#000000" font-family="sans-serif" font-size="11" lengthAdjust="spacing" textLength="129" x="13" y="717.0908">+validateSpecialistDoctor()</text><!--MD5=[3fd241ca11f270f6bde54c00b8a8581a]
link RegisterEmployeeUI to RegisterEmployeeController--><path codeLine="37" d="M239.5,55.14 C239.5,70.58 239.5,91.33 239.5,109.67 " fill="none" id="RegisterEmployeeUI-to-RegisterEmployeeController" style="stroke:#A80036;stroke-width:1.0;stroke-dasharray:7.0,7.0;"/><polygon fill="#A80036" points="239.5,114.77,243.5,105.77,239.5,109.77,235.5,105.77,239.5,114.77" style="stroke:#A80036;stroke-width:1.0;"/><!--MD5=[969ee03aa52aee79b0e607297418cbd4]
link RegisterEmployeeController to Company--><path codeLine="38" d="M239.5,191.05 C239.5,207.83 239.5,227.9 239.5,245.91 " fill="none" id="RegisterEmployeeController-to-Company" style="stroke:#A80036;stroke-width:1.0;stroke-dasharray:7.0,7.0;"/><polygon fill="#A80036" points="239.5,250.93,243.5,241.93,239.5,245.93,235.5,241.93,239.5,250.93" style="stroke:#A80036;stroke-width:1.0;"/><!--MD5=[09366576ee87d48d594df10cacc83f45]
link Company to Employee--><path codeLine="39" d="M239.5,341.43 C239.5,357.63 239.5,376.59 239.5,395.37 " fill="none" id="Company-to-Employee" style="stroke:#A80036;stroke-width:1.0;stroke-dasharray:7.0,7.0;"/><polygon fill="#A80036" points="239.5,400.65,243.5,391.65,239.5,395.65,235.5,391.65,239.5,400.65" style="stroke:#A80036;stroke-width:1.0;"/><!--MD5=[372bd27a178b4208a6d241b4516ac7e6]
reverse link Employee to SpecialistDoctor--><path codeLine="40" d="M239.5,594.52 C239.5,608.4 239.5,621.95 239.5,633.95 " fill="none" id="Employee-backto-SpecialistDoctor" style="stroke:#A80036;stroke-width:1.0;"/><polygon fill="none" points="232.5,594.1,239.5,574.1,246.5,594.1,232.5,594.1" style="stroke:#A80036;stroke-width:1.0;"/><!--MD5=[782cfb0bd5ddc87333488896f9839b99]
@startuml

skinparam classAttributeIconSize 0

class RegisterEmployeeUI{
}

class RegisterEmployeeController{
 +newEmployee(employeeId, organizationRole, name, address, phoneNumber, email, socCode)
 +saveEmployee()
}

class Company{
 -designation
  
 +getEmployeesRegistry()
 +getDoctorRegistry()
}

class Employee{
 -id
 -organizationRole
 -name
 -address
 -phoneNumber
 -email
 -socCode
 +create(role, employeeId, name, address, phoneNumber, email, socCode)
 +validateEmployee()
 }

class SpecialistDoctor{
 -doctorIndexNumber
 +create(role, EmployeeId, name, address, phoneNumber, email, socCode, doctorIndexNumber)
 +validateSpecialistDoctor()
}

RegisterEmployeeUI ..> RegisterEmployeeController
RegisterEmployeeController ..> Company
Company ..> Employee
Employee <|- - SpecialistDoctor

@enduml

PlantUML version 1.2021.5(Sun Apr 25 12:20:28 BST 2021)
(GPL source distribution)
Java Runtime: OpenJDK Runtime Environment
JVM: Dynamic Code Evolution 64-Bit Server VM
Default Encoding: Cp1252
Language: pt
Country: PT
--></g></svg>