<?xml version="1.0" encoding="UTF-8" standalone="no"?><svg xmlns="http://www.w3.org/2000/svg" xmlns:xlink="http://www.w3.org/1999/xlink" contentScriptType="application/ecmascript" contentStyleType="text/css" height="497.5px" preserveAspectRatio="none" style="width:753px;height:497px;" version="1.1" viewBox="0 0 753 497" width="753.75px" zoomAndPan="magnify"><defs><filter height="300%" id="f88rkcft2jjq0" width="300%" x="-1" y="-1"><feGaussianBlur result="blurOut" stdDeviation="2.5"/><feColorMatrix in="blurOut" result="blurOut2" type="matrix" values="0 0 0 0 0 0 0 0 0 0 0 0 0 0 0 0 0 0 .4 0"/><feOffset dx="5.0" dy="5.0" in="blurOut2" result="blurOut3"/><feBlend in="SourceGraphic" in2="blurOut3" mode="normal"/></filter></defs><g><!--MD5=[6017f56a87b244e108fd0d8749edd53c]
class CreateParameterCategoryUI--><rect codeLine="2" fill="#FEFECE" filter="url(#f88rkcft2jjq0)" height="60" id="CreateParameterCategoryUI" style="stroke:#A80036;stroke-width:1.875;" width="235" x="264.375" y="8.75"/><ellipse cx="283.125" cy="28.75" fill="#ADD1B2" rx="13.75" ry="13.75" style="stroke:#A80036;stroke-width:1.25;"/><path d="M285.625,24.375 Q285.8789,23.75 286.1719,23.4375 Q286.4648,23.125 286.7969,23.125 Q287.3828,23.125 287.7539,23.4766 Q288.125,23.8281 288.125,24.6484 L288.125,26.6016 Q288.125,27.4219 287.7734,27.7734 Q287.4219,28.125 286.875,28.125 Q286.3867,28.125 286.0742,27.9102 Q285.7617,27.6953 285.625,27.1289 Q285.5664,26.7383 285.3516,26.5234 Q284.9609,26.1133 284.2578,25.8789 Q283.5547,25.625 282.8516,25.625 Q281.9727,25.625 281.2305,25.9766 Q280.5078,26.3281 279.9414,27.1094 Q279.375,27.8906 279.375,28.9648 L279.375,30.1172 Q279.375,31.4063 280.4297,32.2656 Q281.4844,33.125 283.3594,33.125 Q284.4727,33.125 285.2539,32.8711 Q285.7031,32.7344 286.2109,32.2852 Q286.543,32.0313 286.7188,31.9531 Q286.8945,31.875 287.1094,31.875 Q287.5195,31.875 287.8125,32.207 Q288.125,32.5195 288.125,32.9688 Q288.125,33.3984 287.6953,33.9063 Q287.0703,34.6484 286.0742,35.0586 Q284.7656,35.625 283.1641,35.625 Q281.2891,35.625 279.7852,34.8828 Q278.5742,34.2969 277.7148,33.0273 Q276.875,31.7578 276.875,30.2539 L276.875,28.8867 Q276.875,27.3242 277.6172,25.957 Q278.3789,24.5898 279.6875,23.8672 Q281.0156,23.125 282.5,23.125 Q283.3984,23.125 284.1797,23.4375 Q284.9609,23.75 285.625,24.375 Z " fill="#000000"/><text fill="#000000" font-family="sans-serif" font-size="15" lengthAdjust="spacing" textLength="195" x="300.625" y="34.8877">CreateParameterCategoryUI</text><line style="stroke:#A80036;stroke-width:1.875;" x1="265.625" x2="498.125" y1="48.75" y2="48.75"/><line style="stroke:#A80036;stroke-width:1.875;" x1="265.625" x2="498.125" y1="58.75" y2="58.75"/><!--MD5=[43bb81d93caae6cc68206df5797cd1c4]
class CreateParameterCategoryController--><rect codeLine="4" fill="#FEFECE" filter="url(#f88rkcft2jjq0)" height="111.8848" id="CreateParameterCategoryController" style="stroke:#A80036;stroke-width:1.875;" width="336.25" x="213.75" y="145"/><ellipse cx="254.4375" cy="165" fill="#ADD1B2" rx="13.75" ry="13.75" style="stroke:#A80036;stroke-width:1.25;"/><path d="M256.9375,160.625 Q257.1914,160 257.4844,159.6875 Q257.7773,159.375 258.1094,159.375 Q258.6953,159.375 259.0664,159.7266 Q259.4375,160.0781 259.4375,160.8984 L259.4375,162.8516 Q259.4375,163.6719 259.0859,164.0234 Q258.7344,164.375 258.1875,164.375 Q257.6992,164.375 257.3867,164.1602 Q257.0742,163.9453 256.9375,163.3789 Q256.8789,162.9883 256.6641,162.7734 Q256.2734,162.3633 255.5703,162.1289 Q254.8672,161.875 254.1641,161.875 Q253.2852,161.875 252.543,162.2266 Q251.8203,162.5781 251.2539,163.3594 Q250.6875,164.1406 250.6875,165.2148 L250.6875,166.3672 Q250.6875,167.6563 251.7422,168.5156 Q252.7969,169.375 254.6719,169.375 Q255.7852,169.375 256.5664,169.1211 Q257.0156,168.9844 257.5234,168.5352 Q257.8555,168.2813 258.0313,168.2031 Q258.207,168.125 258.4219,168.125 Q258.832,168.125 259.125,168.457 Q259.4375,168.7695 259.4375,169.2188 Q259.4375,169.6484 259.0078,170.1563 Q258.3828,170.8984 257.3867,171.3086 Q256.0781,171.875 254.4766,171.875 Q252.6016,171.875 251.0977,171.1328 Q249.8867,170.5469 249.0273,169.2773 Q248.1875,168.0078 248.1875,166.5039 L248.1875,165.1367 Q248.1875,163.5742 248.9297,162.207 Q249.6914,160.8398 251,160.1172 Q252.3281,159.375 253.8125,159.375 Q254.7109,159.375 255.4922,159.6875 Q256.2734,160 256.9375,160.625 Z " fill="#000000"/><text fill="#000000" font-family="sans-serif" font-size="15" lengthAdjust="spacing" textLength="247.5" x="276.8125" y="171.1377">CreateParameterCategoryController</text><line style="stroke:#A80036;stroke-width:1.875;" x1="215" x2="548.75" y1="185" y2="185"/><line style="stroke:#A80036;stroke-width:1.875;" x1="215" x2="548.75" y1="195" y2="195"/><ellipse cx="227.5" cy="208.75" fill="#84BE84" rx="3.75" ry="3.75" style="stroke:#038048;stroke-width:1.25;"/><text fill="#000000" font-family="sans-serif" font-size="13.75" lengthAdjust="spacing" textLength="303.75" x="238.75" y="214.2737">CreateParameterCategory(Code,description,nhsid)</text><ellipse cx="227.5" cy="226.0449" fill="#84BE84" rx="3.75" ry="3.75" style="stroke:#038048;stroke-width:1.25;"/><text fill="#000000" font-family="sans-serif" font-size="13.75" lengthAdjust="spacing" textLength="173.75" x="238.75" y="231.5686">saveTestTypeList(TestType)</text><ellipse cx="227.5" cy="243.3398" fill="#84BE84" rx="3.75" ry="3.75" style="stroke:#038048;stroke-width:1.25;"/><text fill="#000000" font-family="sans-serif" font-size="13.75" lengthAdjust="spacing" textLength="156.25" x="238.75" y="248.8635">saveParameterCategory()</text><!--MD5=[02e4b9b7573f1156f41e60aa5b4e25a4]
class Company--><rect codeLine="10" fill="#FEFECE" filter="url(#f88rkcft2jjq0)" height="146.4746" id="Company" style="stroke:#A80036;stroke-width:1.875;" width="336.25" x="8.75" y="333.75"/><ellipse cx="138.4375" cy="353.75" fill="#ADD1B2" rx="13.75" ry="13.75" style="stroke:#A80036;stroke-width:1.25;"/><path d="M140.9375,349.375 Q141.1914,348.75 141.4844,348.4375 Q141.7773,348.125 142.1094,348.125 Q142.6953,348.125 143.0664,348.4766 Q143.4375,348.8281 143.4375,349.6484 L143.4375,351.6016 Q143.4375,352.4219 143.0859,352.7734 Q142.7344,353.125 142.1875,353.125 Q141.6992,353.125 141.3867,352.9102 Q141.0742,352.6953 140.9375,352.1289 Q140.8789,351.7383 140.6641,351.5234 Q140.2734,351.1133 139.5703,350.8789 Q138.8672,350.625 138.1641,350.625 Q137.2852,350.625 136.543,350.9766 Q135.8203,351.3281 135.2539,352.1094 Q134.6875,352.8906 134.6875,353.9648 L134.6875,355.1172 Q134.6875,356.4063 135.7422,357.2656 Q136.7969,358.125 138.6719,358.125 Q139.7852,358.125 140.5664,357.8711 Q141.0156,357.7344 141.5234,357.2852 Q141.8555,357.0313 142.0313,356.9531 Q142.207,356.875 142.4219,356.875 Q142.832,356.875 143.125,357.207 Q143.4375,357.5195 143.4375,357.9688 Q143.4375,358.3984 143.0078,358.9063 Q142.3828,359.6484 141.3867,360.0586 Q140.0781,360.625 138.4766,360.625 Q136.6016,360.625 135.0977,359.8828 Q133.8867,359.2969 133.0273,358.0273 Q132.1875,356.7578 132.1875,355.2539 L132.1875,353.8867 Q132.1875,352.3242 132.9297,350.957 Q133.6914,349.5898 135,348.8672 Q136.3281,348.125 137.8125,348.125 Q138.7109,348.125 139.4922,348.4375 Q140.2734,348.75 140.9375,349.375 Z " fill="#000000"/><text fill="#000000" font-family="sans-serif" font-size="15" lengthAdjust="spacing" textLength="66.25" x="164.0625" y="359.8877">Company</text><line style="stroke:#A80036;stroke-width:1.875;" x1="10" x2="343.75" y1="373.75" y2="373.75"/><rect fill="none" height="7.5" style="stroke:#C82930;stroke-width:1.25;" width="7.5" x="18.75" y="383.75"/><text fill="#000000" font-family="sans-serif" font-size="13.75" lengthAdjust="spacing" textLength="107.5" x="33.75" y="393.0237">String designation</text><line style="stroke:#A80036;stroke-width:1.875;" x1="10" x2="343.75" y1="401.0449" y2="401.0449"/><ellipse cx="22.5" cy="414.7949" fill="#84BE84" rx="3.75" ry="3.75" style="stroke:#038048;stroke-width:1.25;"/><text fill="#000000" font-family="sans-serif" font-size="13.75" lengthAdjust="spacing" textLength="303.75" x="33.75" y="420.3186">CreateParameterCategory(Code,description,nhsid)</text><ellipse cx="22.5" cy="432.0898" fill="#84BE84" rx="3.75" ry="3.75" style="stroke:#038048;stroke-width:1.25;"/><text fill="#000000" font-family="sans-serif" font-size="13.75" lengthAdjust="spacing" textLength="187.5" x="33.75" y="437.6135">validateParameterCategory(pc)</text><ellipse cx="22.5" cy="449.3848" fill="#84BE84" rx="3.75" ry="3.75" style="stroke:#038048;stroke-width:1.25;"/><text fill="#000000" font-family="sans-serif" font-size="13.75" lengthAdjust="spacing" textLength="171.25" x="33.75" y="454.9084">saveParameterCategory(pc)</text><rect fill="#F24D5C" height="7.5" style="stroke:#C82930;stroke-width:1.25;" width="7.5" x="18.75" y="462.9297"/><text fill="#000000" font-family="sans-serif" font-size="13.75" lengthAdjust="spacing" textLength="163.75" x="33.75" y="472.2034">addParameterCategory(pc)</text><!--MD5=[36afb6bbd95a8ac778c4537c55a683d5]
class ParameterCategory--><rect codeLine="18" fill="#FEFECE" filter="url(#f88rkcft2jjq0)" height="129.1797" id="ParameterCategory" style="stroke:#A80036;stroke-width:1.875;" width="296.25" x="440" y="342.5"/><ellipse cx="515.9375" cy="362.5" fill="#ADD1B2" rx="13.75" ry="13.75" style="stroke:#A80036;stroke-width:1.25;"/><path d="M518.4375,358.125 Q518.6914,357.5 518.9844,357.1875 Q519.2773,356.875 519.6094,356.875 Q520.1953,356.875 520.5664,357.2266 Q520.9375,357.5781 520.9375,358.3984 L520.9375,360.3516 Q520.9375,361.1719 520.5859,361.5234 Q520.2344,361.875 519.6875,361.875 Q519.1992,361.875 518.8867,361.6602 Q518.5742,361.4453 518.4375,360.8789 Q518.3789,360.4883 518.1641,360.2734 Q517.7734,359.8633 517.0703,359.6289 Q516.3672,359.375 515.6641,359.375 Q514.7852,359.375 514.043,359.7266 Q513.3203,360.0781 512.7539,360.8594 Q512.1875,361.6406 512.1875,362.7148 L512.1875,363.8672 Q512.1875,365.1563 513.2422,366.0156 Q514.2969,366.875 516.1719,366.875 Q517.2852,366.875 518.0664,366.6211 Q518.5156,366.4844 519.0234,366.0352 Q519.3555,365.7813 519.5313,365.7031 Q519.707,365.625 519.9219,365.625 Q520.332,365.625 520.625,365.957 Q520.9375,366.2695 520.9375,366.7188 Q520.9375,367.1484 520.5078,367.6563 Q519.8828,368.3984 518.8867,368.8086 Q517.5781,369.375 515.9766,369.375 Q514.1016,369.375 512.5977,368.6328 Q511.3867,368.0469 510.5273,366.7773 Q509.6875,365.5078 509.6875,364.0039 L509.6875,362.6367 Q509.6875,361.0742 510.4297,359.707 Q511.1914,358.3398 512.5,357.6172 Q513.8281,356.875 515.3125,356.875 Q516.2109,356.875 516.9922,357.1875 Q517.7734,357.5 518.4375,358.125 Z " fill="#000000"/><text fill="#000000" font-family="sans-serif" font-size="15" lengthAdjust="spacing" textLength="133.75" x="541.5625" y="368.6377">ParameterCategory</text><line style="stroke:#A80036;stroke-width:1.875;" x1="441.25" x2="735" y1="382.5" y2="382.5"/><rect fill="none" height="7.5" style="stroke:#C82930;stroke-width:1.25;" width="7.5" x="450" y="392.5"/><text fill="#000000" font-family="sans-serif" font-size="13.75" lengthAdjust="spacing" textLength="30" x="465" y="401.7737">code</text><rect fill="none" height="7.5" style="stroke:#C82930;stroke-width:1.25;" width="7.5" x="450" y="409.7949"/><text fill="#000000" font-family="sans-serif" font-size="13.75" lengthAdjust="spacing" textLength="66.25" x="465" y="419.0686">description</text><rect fill="none" height="7.5" style="stroke:#C82930;stroke-width:1.25;" width="7.5" x="450" y="427.0898"/><text fill="#000000" font-family="sans-serif" font-size="13.75" lengthAdjust="spacing" textLength="32.5" x="465" y="436.3635">nhsid</text><line style="stroke:#A80036;stroke-width:1.875;" x1="441.25" x2="735" y1="444.3848" y2="444.3848"/><ellipse cx="453.75" cy="458.1348" fill="#84BE84" rx="3.75" ry="3.75" style="stroke:#038048;stroke-width:1.25;"/><text fill="#000000" font-family="sans-serif" font-size="13.75" lengthAdjust="spacing" textLength="263.75" x="465" y="463.6584">ParameterCategory(Code,description,nhsid)</text><!--MD5=[93b1b9218398b0464d36d46d0f539949]
link CreateParameterCategoryUI to CreateParameterCategoryController--><path codeLine="25" d="M381.875,68.975 C381.875,88.2375 381.875,114.275 381.875,138.0625 " fill="none" id="CreateParameterCategoryUI-to-CreateParameterCategoryController" style="stroke:#A80036;stroke-width:1.25;stroke-dasharray:7.0,7.0;"/><polygon fill="#A80036" points="381.875,144.7,386.875,133.45,381.875,138.45,376.875,133.45,381.875,144.7" style="stroke:#A80036;stroke-width:1.25;"/><!--MD5=[a00c31f7a5d66db29f7adf0293377a3b]
link CreateParameterCategoryController to Company--><path codeLine="26" d="M325.8625,258 C303.85,279.8125 278.225,305.2125 254.4875,328.725 " fill="none" id="CreateParameterCategoryController-to-Company" style="stroke:#A80036;stroke-width:1.25;stroke-dasharray:7.0,7.0;"/><polygon fill="#A80036" points="249.7625,333.4,261.2796,329.0503,254.2086,329.0074,254.2515,321.9365,249.7625,333.4" style="stroke:#A80036;stroke-width:1.25;"/><!--MD5=[869a0022b647c5cba08cf9438b652be2]
link CreateParameterCategoryController to ParameterCategory--><path codeLine="27" d="M438.2375,258 C463.2625,282.65 492.9625,311.9 519.2875,337.825 " fill="none" id="CreateParameterCategoryController-to-ParameterCategory" style="stroke:#A80036;stroke-width:1.25;stroke-dasharray:7.0,7.0;"/><polygon fill="#A80036" points="523.825,342.3,519.3127,330.8457,519.3699,337.9165,512.2991,337.9738,523.825,342.3" style="stroke:#A80036;stroke-width:1.25;"/><!--MD5=[93b4f25fb503a8e0e9a46b1d30ff3f44]
link Company to ParameterCategory--><path codeLine="28" d="M345.3375,406.875 C374.4125,406.875 404.5125,406.875 433.2125,406.875 " fill="none" id="Company-to-ParameterCategory" style="stroke:#A80036;stroke-width:1.25;"/><polygon fill="#A80036" points="439.7,406.875,428.45,401.875,433.45,406.875,428.45,411.875,439.7,406.875" style="stroke:#A80036;stroke-width:1.25;"/><text fill="#000000" font-family="sans-serif" font-size="16.25" lengthAdjust="spacing" textLength="48.75" x="368.125" y="398.7439">adopts</text><text fill="#000000" font-family="sans-serif" font-size="16.25" lengthAdjust="spacing" textLength="8.75" x="354.7896" y="403.2029">1</text><text fill="#000000" font-family="sans-serif" font-size="16.25" lengthAdjust="spacing" textLength="6.25" x="423.7413" y="403.1036">*</text><!--MD5=[398fa6c6a5473f82b86f45cc95fa0c6d]
@startuml

class CreateParameterCategoryUI

class CreateParameterCategoryController{
+CreateParameterCategory(Code,description,nhsid)
+saveTestTypeList(TestType)
+saveParameterCategory()
}

class Company{
-String designation
+CreateParameterCategory(Code,description,nhsid)
+validateParameterCategory(pc)
+saveParameterCategory(pc)
-addParameterCategory(pc)
}

class ParameterCategory {
-code
-description
-nhsid
+ParameterCategory(Code,description,nhsid)
}

CreateParameterCategoryUI ..> CreateParameterCategoryController
CreateParameterCategoryController ..> Company
CreateParameterCategoryController ..> ParameterCategory
Company "1" -> "*" ParameterCategory : adopts

@enduml

PlantUML version 1.2021.4(Sun Apr 04 09:49:39 BST 2021)
(GPL source distribution)
Java Runtime: OpenJDK Runtime Environment
JVM: Dynamic Code Evolution 64-Bit Server VM
Default Encoding: Cp1252
Language: pt
Country: PT
--></g></svg>