<?xml version="1.0" encoding="UTF-8" standalone="no"?><svg xmlns="http://www.w3.org/2000/svg" xmlns:xlink="http://www.w3.org/1999/xlink" contentScriptType="application/ecmascript" contentStyleType="text/css" height="501px" preserveAspectRatio="none" style="width:313px;height:501px;" version="1.1" viewBox="0 0 313 501" width="313px" zoomAndPan="magnify"><defs><filter height="300%" id="f76m0ndnpbfem" width="300%" x="-1" y="-1"><feGaussianBlur result="blurOut" stdDeviation="2.0"/><feColorMatrix in="blurOut" result="blurOut2" type="matrix" values="0 0 0 0 0 0 0 0 0 0 0 0 0 0 0 0 0 0 .4 0"/><feOffset dx="4.0" dy="4.0" in="blurOut2" result="blurOut3"/><feBlend in="SourceGraphic" in2="blurOut3" mode="normal"/></filter></defs><g><!--MD5=[02e4b9b7573f1156f41e60aa5b4e25a4]
class Company--><rect codeLine="3" fill="#FEFECE" filter="url(#f76m0ndnpbfem)" height="53.8359" id="Company" style="stroke:#A80036;stroke-width:1.5;" width="85" x="132.5" y="7"/><ellipse cx="147.5" cy="23" fill="#ADD1B2" rx="11" ry="11" style="stroke:#A80036;stroke-width:1.0;"/><path d="M149.5,19.5 Q149.7031,19 149.9375,18.75 Q150.1719,18.5 150.4375,18.5 Q150.9063,18.5 151.2031,18.7813 Q151.5,19.0625 151.5,19.7188 L151.5,21.2813 Q151.5,21.9375 151.2188,22.2188 Q150.9375,22.5 150.5,22.5 Q150.1094,22.5 149.8594,22.3281 Q149.6094,22.1563 149.5,21.7031 Q149.4531,21.3906 149.2813,21.2188 Q148.9688,20.8906 148.4063,20.7031 Q147.8438,20.5 147.2813,20.5 Q146.5781,20.5 145.9844,20.7813 Q145.4063,21.0625 144.9531,21.6875 Q144.5,22.3125 144.5,23.1719 L144.5,24.0938 Q144.5,25.125 145.3438,25.8125 Q146.1875,26.5 147.6875,26.5 Q148.5781,26.5 149.2031,26.2969 Q149.5625,26.1875 149.9688,25.8281 Q150.2344,25.625 150.375,25.5625 Q150.5156,25.5 150.6875,25.5 Q151.0156,25.5 151.25,25.7656 Q151.5,26.0156 151.5,26.375 Q151.5,26.7188 151.1563,27.125 Q150.6563,27.7188 149.8594,28.0469 Q148.8125,28.5 147.5313,28.5 Q146.0313,28.5 144.8281,27.9063 Q143.8594,27.4375 143.1719,26.4219 Q142.5,25.4063 142.5,24.2031 L142.5,23.1094 Q142.5,21.8594 143.0938,20.7656 Q143.7031,19.6719 144.75,19.0938 Q145.8125,18.5 147,18.5 Q147.7188,18.5 148.3438,18.75 Q148.9688,19 149.5,19.5 Z " fill="#000000"/><text fill="#000000" font-family="sans-serif" font-size="12" lengthAdjust="spacing" textLength="53" x="161.5" y="27.9102">Company</text><line style="stroke:#A80036;stroke-width:1.5;" x1="133.5" x2="216.5" y1="39" y2="39"/><rect fill="none" height="6" style="stroke:#C82930;stroke-width:1.0;" width="6" x="140.5" y="47"/><text fill="#000000" font-family="sans-serif" font-size="11" lengthAdjust="spacing" textLength="55" x="152.5" y="54.4189">designation</text><!--MD5=[1f6362a5c8f21d8d6a0fce68f3a92a4e]
class Parameter--><rect codeLine="7" fill="#FEFECE" filter="url(#f76m0ndnpbfem)" height="53.8359" id="Parameter" style="stroke:#A80036;stroke-width:1.5;" width="90" x="7" y="155"/><ellipse cx="22" cy="171" fill="#ADD1B2" rx="11" ry="11" style="stroke:#A80036;stroke-width:1.0;"/><path d="M24,167.5 Q24.2031,167 24.4375,166.75 Q24.6719,166.5 24.9375,166.5 Q25.4063,166.5 25.7031,166.7813 Q26,167.0625 26,167.7188 L26,169.2813 Q26,169.9375 25.7188,170.2188 Q25.4375,170.5 25,170.5 Q24.6094,170.5 24.3594,170.3281 Q24.1094,170.1563 24,169.7031 Q23.9531,169.3906 23.7813,169.2188 Q23.4688,168.8906 22.9063,168.7031 Q22.3438,168.5 21.7813,168.5 Q21.0781,168.5 20.4844,168.7813 Q19.9063,169.0625 19.4531,169.6875 Q19,170.3125 19,171.1719 L19,172.0938 Q19,173.125 19.8438,173.8125 Q20.6875,174.5 22.1875,174.5 Q23.0781,174.5 23.7031,174.2969 Q24.0625,174.1875 24.4688,173.8281 Q24.7344,173.625 24.875,173.5625 Q25.0156,173.5 25.1875,173.5 Q25.5156,173.5 25.75,173.7656 Q26,174.0156 26,174.375 Q26,174.7188 25.6563,175.125 Q25.1563,175.7188 24.3594,176.0469 Q23.3125,176.5 22.0313,176.5 Q20.5313,176.5 19.3281,175.9063 Q18.3594,175.4375 17.6719,174.4219 Q17,173.4063 17,172.2031 L17,171.1094 Q17,169.8594 17.5938,168.7656 Q18.2031,167.6719 19.25,167.0938 Q20.3125,166.5 21.5,166.5 Q22.2188,166.5 22.8438,166.75 Q23.4688,167 24,167.5 Z " fill="#000000"/><text fill="#000000" font-family="sans-serif" font-size="12" lengthAdjust="spacing" textLength="58" x="36" y="175.9102">Parameter</text><line style="stroke:#A80036;stroke-width:1.5;" x1="8" x2="96" y1="187" y2="187"/><rect fill="none" height="6" style="stroke:#C82930;stroke-width:1.0;" width="6" x="15" y="195"/><text fill="#000000" font-family="sans-serif" font-size="11" lengthAdjust="spacing" textLength="55" x="27" y="202.4189">designation</text><!--MD5=[36afb6bbd95a8ac778c4537c55a683d5]
class ParameterCategory--><rect codeLine="11" fill="#FEFECE" filter="url(#f76m0ndnpbfem)" height="81.5078" id="ParameterCategory" style="stroke:#A80036;stroke-width:1.5;" width="139" x="89.5" y="287"/><ellipse cx="104.5" cy="303" fill="#ADD1B2" rx="11" ry="11" style="stroke:#A80036;stroke-width:1.0;"/><path d="M106.5,299.5 Q106.7031,299 106.9375,298.75 Q107.1719,298.5 107.4375,298.5 Q107.9063,298.5 108.2031,298.7813 Q108.5,299.0625 108.5,299.7188 L108.5,301.2813 Q108.5,301.9375 108.2188,302.2188 Q107.9375,302.5 107.5,302.5 Q107.1094,302.5 106.8594,302.3281 Q106.6094,302.1563 106.5,301.7031 Q106.4531,301.3906 106.2813,301.2188 Q105.9688,300.8906 105.4063,300.7031 Q104.8438,300.5 104.2813,300.5 Q103.5781,300.5 102.9844,300.7813 Q102.4063,301.0625 101.9531,301.6875 Q101.5,302.3125 101.5,303.1719 L101.5,304.0938 Q101.5,305.125 102.3438,305.8125 Q103.1875,306.5 104.6875,306.5 Q105.5781,306.5 106.2031,306.2969 Q106.5625,306.1875 106.9688,305.8281 Q107.2344,305.625 107.375,305.5625 Q107.5156,305.5 107.6875,305.5 Q108.0156,305.5 108.25,305.7656 Q108.5,306.0156 108.5,306.375 Q108.5,306.7188 108.1563,307.125 Q107.6563,307.7188 106.8594,308.0469 Q105.8125,308.5 104.5313,308.5 Q103.0313,308.5 101.8281,307.9063 Q100.8594,307.4375 100.1719,306.4219 Q99.5,305.4063 99.5,304.2031 L99.5,303.1094 Q99.5,301.8594 100.0938,300.7656 Q100.7031,299.6719 101.75,299.0938 Q102.8125,298.5 104,298.5 Q104.7188,298.5 105.3438,298.75 Q105.9688,299 106.5,299.5 Z " fill="#000000"/><text fill="#000000" font-family="sans-serif" font-size="12" lengthAdjust="spacing" textLength="107" x="118.5" y="307.9102">ParameterCategory</text><line style="stroke:#A80036;stroke-width:1.5;" x1="90.5" x2="227.5" y1="319" y2="319"/><rect fill="none" height="6" style="stroke:#C82930;stroke-width:1.0;" width="6" x="97.5" y="327"/><text fill="#000000" font-family="sans-serif" font-size="11" lengthAdjust="spacing" textLength="24" x="109.5" y="334.4189">code</text><rect fill="none" height="6" style="stroke:#C82930;stroke-width:1.0;" width="6" x="97.5" y="340.8359"/><text fill="#000000" font-family="sans-serif" font-size="11" lengthAdjust="spacing" textLength="53" x="109.5" y="348.2549">description</text><rect fill="none" height="6" style="stroke:#C82930;stroke-width:1.0;" width="6" x="97.5" y="354.6719"/><text fill="#000000" font-family="sans-serif" font-size="11" lengthAdjust="spacing" textLength="26" x="109.5" y="362.0908">nhsid</text><!--MD5=[da547346deef918ea16944ba046651ef]
class Administrator--><rect codeLine="17" fill="#FEFECE" filter="url(#f76m0ndnpbfem)" height="40" id="Administrator" style="stroke:#A80036;stroke-width:1.5;" width="105" x="167.5" y="447"/><ellipse cx="182.5" cy="463" fill="#ADD1B2" rx="11" ry="11" style="stroke:#A80036;stroke-width:1.0;"/><path d="M184.5,459.5 Q184.7031,459 184.9375,458.75 Q185.1719,458.5 185.4375,458.5 Q185.9063,458.5 186.2031,458.7813 Q186.5,459.0625 186.5,459.7188 L186.5,461.2813 Q186.5,461.9375 186.2188,462.2188 Q185.9375,462.5 185.5,462.5 Q185.1094,462.5 184.8594,462.3281 Q184.6094,462.1563 184.5,461.7031 Q184.4531,461.3906 184.2813,461.2188 Q183.9688,460.8906 183.4063,460.7031 Q182.8438,460.5 182.2813,460.5 Q181.5781,460.5 180.9844,460.7813 Q180.4063,461.0625 179.9531,461.6875 Q179.5,462.3125 179.5,463.1719 L179.5,464.0938 Q179.5,465.125 180.3438,465.8125 Q181.1875,466.5 182.6875,466.5 Q183.5781,466.5 184.2031,466.2969 Q184.5625,466.1875 184.9688,465.8281 Q185.2344,465.625 185.375,465.5625 Q185.5156,465.5 185.6875,465.5 Q186.0156,465.5 186.25,465.7656 Q186.5,466.0156 186.5,466.375 Q186.5,466.7188 186.1563,467.125 Q185.6563,467.7188 184.8594,468.0469 Q183.8125,468.5 182.5313,468.5 Q181.0313,468.5 179.8281,467.9063 Q178.8594,467.4375 178.1719,466.4219 Q177.5,465.4063 177.5,464.2031 L177.5,463.1094 Q177.5,461.8594 178.0938,460.7656 Q178.7031,459.6719 179.75,459.0938 Q180.8125,458.5 182,458.5 Q182.7188,458.5 183.3438,458.75 Q183.9688,459 184.5,459.5 Z " fill="#000000"/><text fill="#000000" font-family="sans-serif" font-size="12" lengthAdjust="spacing" textLength="73" x="196.5" y="467.9102">Administrator</text><line style="stroke:#A80036;stroke-width:1.5;" x1="168.5" x2="271.5" y1="479" y2="479"/><!--MD5=[12d76240d3c3c66074d4ec2ea8bf469c]
link Company to Parameter--><path codeLine="19" d="M132.21,51.39 C113.5,60.5 92.73,73.57 79,91 C64.47,109.45 57.74,135.62 54.64,154.99 " fill="none" id="Company-Parameter" style="stroke:#A80036;stroke-width:1.0;"/><text fill="#000000" font-family="sans-serif" font-size="13" lengthAdjust="spacing" textLength="59" x="82.5" y="105.4951">capable of</text><polygon fill="#000000" points="82.0032,120.5298,89.777,115.0508,85.0719,111.5279,82.0032,120.5298" style="stroke:#000000;stroke-width:1.0;"/><text fill="#000000" font-family="sans-serif" font-size="13" lengthAdjust="spacing" textLength="55" x="93" y="121.8467">analysing</text><text fill="#000000" font-family="sans-serif" font-size="13" lengthAdjust="spacing" textLength="7" x="117.5432" y="50.483">1</text><text fill="#000000" font-family="sans-serif" font-size="13" lengthAdjust="spacing" textLength="5" x="49.6741" y="144.0143">*</text><!--MD5=[93b4f25fb503a8e0e9a46b1d30ff3f44]
link Company to ParameterCategory--><path codeLine="20" d="M173.57,61.17 C170.76,112.4 164.52,226.23 161.19,286.98 " fill="none" id="Company-ParameterCategory" style="stroke:#A80036;stroke-width:1.0;"/><polygon fill="#000000" points="173.7263,187.1683,177.156,178.2976,171.2869,177.9759,173.7263,187.1683" style="stroke:#000000;stroke-width:1.0;"/><text fill="#000000" font-family="sans-serif" font-size="13" lengthAdjust="spacing" textLength="39" x="183" y="187.4951">adopts</text><text fill="#000000" font-family="sans-serif" font-size="13" lengthAdjust="spacing" textLength="7" x="165.4916" y="82.415">1</text><text fill="#000000" font-family="sans-serif" font-size="13" lengthAdjust="spacing" textLength="5" x="156.1367" y="276.1223">*</text><!--MD5=[eaea43e34e45c5b9d20b595fc78f1f20]
link Company to Administrator--><path codeLine="21" d="M190.22,61.22 C203.24,84.91 221.37,121.17 231,155 C260.91,260.03 253.54,289.98 260,399 C260.47,406.99 262.69,409.46 260,417 C256.09,427.97 248.56,438.25 241.08,446.54 " fill="none" id="Company-Administrator" style="stroke:#A80036;stroke-width:1.0;"/><polygon fill="#000000" points="257.6543,253.1328,259.3843,243.7809,253.557,244.5501,257.6543,253.1328" style="stroke:#000000;stroke-width:1.0;"/><text fill="#000000" font-family="sans-serif" font-size="13" lengthAdjust="spacing" textLength="39" x="266" y="253.4951">Knows</text><text fill="#000000" font-family="sans-serif" font-size="13" lengthAdjust="spacing" textLength="7" x="185.7838" y="82.4759">1</text><text fill="#000000" font-family="sans-serif" font-size="13" lengthAdjust="spacing" textLength="5" x="241.3056" y="436.0802">*</text><!--MD5=[6df8849671cb880f6936e94aa30db6f9]
link Parameter to ParameterCategory--><path codeLine="23" d="M40.33,209.17 C35.52,224.05 32.77,242.55 41,257 C51.9,276.15 70.33,290.6 89.43,301.24 " fill="none" id="Parameter-ParameterCategory" style="stroke:#A80036;stroke-width:1.0;"/><polygon fill="#000000" points="48.3528,252.5876,46.6898,243.2236,41.5033,245.9895,48.3528,252.5876" style="stroke:#000000;stroke-width:1.0;"/><text fill="#000000" font-family="sans-serif" font-size="13" lengthAdjust="spacing" textLength="93" x="55" y="253.4951">presented under</text><text fill="#000000" font-family="sans-serif" font-size="13" lengthAdjust="spacing" textLength="5" x="32.2303" y="230.415">*</text><text fill="#000000" font-family="sans-serif" font-size="13" lengthAdjust="spacing" textLength="7" x="74.438" y="294.9794">1</text><!--MD5=[8fed49cf12a674e36a1de475622ee091]
link ParameterCategory to Administrator--><path codeLine="25" d="M164.67,369.3 C167.84,384.76 172.69,402.22 180,417 C185.36,427.83 193.5,438.4 201.04,446.93 " fill="none" id="ParameterCategory-Administrator" style="stroke:#A80036;stroke-width:1.0;"/><polygon fill="#000000" points="187.1213,412.7035,185.9452,403.2659,180.6225,405.7596,187.1213,412.7035" style="stroke:#000000;stroke-width:1.0;"/><text fill="#000000" font-family="sans-serif" font-size="13" lengthAdjust="spacing" textLength="61" x="194" y="413.4951">created by</text><text fill="#000000" font-family="sans-serif" font-size="13" lengthAdjust="spacing" textLength="5" x="160.1356" y="390.098">*</text><text fill="#000000" font-family="sans-serif" font-size="13" lengthAdjust="spacing" textLength="7" x="187.4424" y="436.2312">1</text><!--MD5=[3f3e63c4b2874547d767f03b567a01bd]
@startuml
hide methods

class Company{
-designation
}

class Parameter{
-designation
}

class ParameterCategory{
-code
-description
-nhsid
}

class Administrator

Company "1" - - "*" Parameter : capable of \n analysing >
Company "1" - - "*" ParameterCategory : adopts  >
Company "1" - - "*" Administrator :Knows >

Parameter "*" - - "1" ParameterCategory : presented under >

ParameterCategory "*" - - "1" Administrator : created by >

@enduml

PlantUML version 1.2021.00(Sun Jan 10 10:25:05 GMT 2021)
(GPL source distribution)
Java Runtime: OpenJDK Runtime Environment
JVM: OpenJDK 64-Bit Server VM
Default Encoding: Cp1252
Language: pt
Country: PT
--></g></svg>