<?xml version="1.0" encoding="UTF-8" standalone="no"?><svg xmlns="http://www.w3.org/2000/svg" xmlns:xlink="http://www.w3.org/1999/xlink" contentScriptType="application/ecmascript" contentStyleType="text/css" height="377px" preserveAspectRatio="none" style="width:385px;height:377px;" version="1.1" viewBox="0 0 385 377" width="385px" zoomAndPan="magnify"><defs><filter height="300%" id="f82z5n2kqauzh" width="300%" x="-1" y="-1"><feGaussianBlur result="blurOut" stdDeviation="2.0"/><feColorMatrix in="blurOut" result="blurOut2" type="matrix" values="0 0 0 0 0 0 0 0 0 0 0 0 0 0 0 0 0 0 .4 0"/><feOffset dx="4.0" dy="4.0" in="blurOut2" result="blurOut3"/><feBlend in="SourceGraphic" in2="blurOut3" mode="normal"/></filter></defs><g><rect fill="#FFFFFF" filter="url(#f82z5n2kqauzh)" height="174.1094" style="stroke:#A80036;stroke-width:1.0;" width="10" x="39.5" y="99.6094"/><rect fill="#FFFFFF" filter="url(#f82z5n2kqauzh)" height="30.3516" style="stroke:#A80036;stroke-width:1.0;" width="10" x="336.5" y="121.9609"/><rect fill="#FFFFFF" filter="url(#f82z5n2kqauzh)" height="30.3516" style="stroke:#A80036;stroke-width:1.0;" width="10" x="336.5" y="182.6641"/><rect fill="#FFFFFF" filter="url(#f82z5n2kqauzh)" height="30.3516" style="stroke:#A80036;stroke-width:1.0;" width="10" x="336.5" y="243.3672"/><line style="stroke:#A80036;stroke-width:1.0;stroke-dasharray:5.0,5.0;" x1="44" x2="44" y1="89.6094" y2="291.7188"/><line style="stroke:#A80036;stroke-width:1.0;stroke-dasharray:5.0,5.0;" x1="341.5" x2="341.5" y1="89.6094" y2="291.7188"/><text fill="#000000" font-family="sans-serif" font-size="14" lengthAdjust="spacing" textLength="73" x="5" y="86.5332">receptionist</text><ellipse cx="44.5" cy="15" fill="#FEFECE" filter="url(#f82z5n2kqauzh)" rx="8" ry="8" style="stroke:#A80036;stroke-width:2.0;"/><path d="M44.5,23 L44.5,50 M31.5,31 L57.5,31 M44.5,50 L31.5,65 M44.5,50 L57.5,65 " fill="none" filter="url(#f82z5n2kqauzh)" style="stroke:#A80036;stroke-width:2.0;"/><text fill="#000000" font-family="sans-serif" font-size="14" lengthAdjust="spacing" textLength="73" x="5" y="305.252">receptionist</text><ellipse cx="44.5" cy="318.3281" fill="#FEFECE" filter="url(#f82z5n2kqauzh)" rx="8" ry="8" style="stroke:#A80036;stroke-width:2.0;"/><path d="M44.5,326.3281 L44.5,353.3281 M31.5,334.3281 L57.5,334.3281 M44.5,353.3281 L31.5,368.3281 M44.5,353.3281 L57.5,368.3281 " fill="none" filter="url(#f82z5n2kqauzh)" style="stroke:#A80036;stroke-width:2.0;"/><rect fill="#FEFECE" filter="url(#f82z5n2kqauzh)" height="31.6094" style="stroke:#A80036;stroke-width:1.5;" width="64" x="307.5" y="53"/><text fill="#000000" font-family="sans-serif" font-size="14" lengthAdjust="spacing" textLength="50" x="314.5" y="74.5332">:System</text><rect fill="#FEFECE" filter="url(#f82z5n2kqauzh)" height="31.6094" style="stroke:#A80036;stroke-width:1.5;" width="64" x="307.5" y="290.7188"/><text fill="#000000" font-family="sans-serif" font-size="14" lengthAdjust="spacing" textLength="50" x="314.5" y="312.252">:System</text><rect fill="#FFFFFF" filter="url(#f82z5n2kqauzh)" height="174.1094" style="stroke:#A80036;stroke-width:1.0;" width="10" x="39.5" y="99.6094"/><rect fill="#FFFFFF" filter="url(#f82z5n2kqauzh)" height="30.3516" style="stroke:#A80036;stroke-width:1.0;" width="10" x="336.5" y="121.9609"/><rect fill="#FFFFFF" filter="url(#f82z5n2kqauzh)" height="30.3516" style="stroke:#A80036;stroke-width:1.0;" width="10" x="336.5" y="182.6641"/><rect fill="#FFFFFF" filter="url(#f82z5n2kqauzh)" height="30.3516" style="stroke:#A80036;stroke-width:1.0;" width="10" x="336.5" y="243.3672"/><polygon fill="#A80036" points="324.5,117.9609,334.5,121.9609,324.5,125.9609,328.5,121.9609" style="stroke:#A80036;stroke-width:1.0;"/><line style="stroke:#A80036;stroke-width:1.0;" x1="49.5" x2="330.5" y1="121.9609" y2="121.9609"/><text fill="#000000" font-family="sans-serif" font-size="13" font-weight="bold" lengthAdjust="spacing" textLength="7" x="56.5" y="117.1045">1</text><text fill="#000000" font-family="sans-serif" font-size="13" lengthAdjust="spacing" textLength="244" x="67.5" y="117.1045">asks to register a new parameter category</text><polygon fill="#A80036" points="60.5,148.3125,50.5,152.3125,60.5,156.3125,56.5,152.3125" style="stroke:#A80036;stroke-width:1.0;"/><line style="stroke:#A80036;stroke-width:1.0;stroke-dasharray:2.0,2.0;" x1="54.5" x2="340.5" y1="152.3125" y2="152.3125"/><text fill="#000000" font-family="sans-serif" font-size="13" font-weight="bold" lengthAdjust="spacing" textLength="7" x="66.5" y="147.4561">2</text><text fill="#000000" font-family="sans-serif" font-size="13" lengthAdjust="spacing" textLength="221" x="77.5" y="147.4561">requests data (code,description,nhsid)</text><polygon fill="#A80036" points="324.5,178.6641,334.5,182.6641,324.5,186.6641,328.5,182.6641" style="stroke:#A80036;stroke-width:1.0;"/><line style="stroke:#A80036;stroke-width:1.0;" x1="49.5" x2="330.5" y1="182.6641" y2="182.6641"/><text fill="#000000" font-family="sans-serif" font-size="13" font-weight="bold" lengthAdjust="spacing" textLength="7" x="56.5" y="177.8076">3</text><text fill="#000000" font-family="sans-serif" font-size="13" lengthAdjust="spacing" textLength="122" x="67.5" y="177.8076">types requested data</text><polygon fill="#A80036" points="60.5,209.0156,50.5,213.0156,60.5,217.0156,56.5,213.0156" style="stroke:#A80036;stroke-width:1.0;"/><line style="stroke:#A80036;stroke-width:1.0;stroke-dasharray:2.0,2.0;" x1="54.5" x2="340.5" y1="213.0156" y2="213.0156"/><text fill="#000000" font-family="sans-serif" font-size="13" font-weight="bold" lengthAdjust="spacing" textLength="7" x="66.5" y="208.1592">4</text><text fill="#000000" font-family="sans-serif" font-size="13" lengthAdjust="spacing" textLength="252" x="77.5" y="208.1592">shows the data and requests a confirmation</text><polygon fill="#A80036" points="324.5,239.3672,334.5,243.3672,324.5,247.3672,328.5,243.3672" style="stroke:#A80036;stroke-width:1.0;"/><line style="stroke:#A80036;stroke-width:1.0;" x1="49.5" x2="330.5" y1="243.3672" y2="243.3672"/><text fill="#000000" font-family="sans-serif" font-size="13" font-weight="bold" lengthAdjust="spacing" textLength="7" x="56.5" y="238.5107">5</text><text fill="#000000" font-family="sans-serif" font-size="13" lengthAdjust="spacing" textLength="100" x="67.5" y="238.5107">confirms the data</text><polygon fill="#A80036" points="55.5,269.7188,45.5,273.7188,55.5,277.7188,51.5,273.7188" style="stroke:#A80036;stroke-width:1.0;"/><line style="stroke:#A80036;stroke-width:1.0;stroke-dasharray:2.0,2.0;" x1="49.5" x2="340.5" y1="273.7188" y2="273.7188"/><text fill="#000000" font-family="sans-serif" font-size="13" font-weight="bold" lengthAdjust="spacing" textLength="7" x="61.5" y="268.8623">6</text><text fill="#000000" font-family="sans-serif" font-size="13" lengthAdjust="spacing" textLength="156" x="72.5" y="268.8623">informs opreration success</text><!--MD5=[abf5de54e00b38f978486cd8e02c0942]
@startuml
autonumber
actor "receptionist" as recep

activate recep
recep -> ":System" : asks to register a new parameter category
activate ":System"
":System" - -> recep : requests data (code,description,nhsid)
deactivate ":System"

recep -> ":System" : types requested data
activate ":System"
":System" - -> recep : shows the data and requests a confirmation
deactivate ":System"

recep -> ":System" : confirms the data
activate ":System"
":System" - -> recep : informs opreration success
deactivate ":System"

deactivate recep
@enduml

PlantUML version 1.2021.00(Sun Jan 10 10:25:05 GMT 2021)
(GPL source distribution)
Java Runtime: OpenJDK Runtime Environment
JVM: OpenJDK 64-Bit Server VM
Default Encoding: Cp1252
Language: pt
Country: PT
--></g></svg>