<?xml version="1.0" encoding="UTF-8" standalone="no"?><svg xmlns="http://www.w3.org/2000/svg" xmlns:xlink="http://www.w3.org/1999/xlink" contentScriptType="application/ecmascript" contentStyleType="text/css" height="724px" preserveAspectRatio="none" style="width:858px;height:724px;background:#FFFFFF;" version="1.1" viewBox="0 0 858 724" width="858px" zoomAndPan="magnify"><defs><filter height="300%" id="f1cfu65hzh95ca" width="300%" x="-1" y="-1"><feGaussianBlur result="blurOut" stdDeviation="2.0"/><feColorMatrix in="blurOut" result="blurOut2" type="matrix" values="0 0 0 0 0 0 0 0 0 0 0 0 0 0 0 0 0 0 .4 0"/><feOffset dx="4.0" dy="4.0" in="blurOut2" result="blurOut3"/><feBlend in="SourceGraphic" in2="blurOut3" mode="normal"/></filter></defs><g><!--MD5=[71152100d89f377ebd8dc97f1c2b0d02]
class RegisterClientUI--><rect codeLine="4" fill="#FEFECE" filter="url(#f1cfu65hzh95ca)" height="48" id="RegisterClientUI" style="stroke:#A80036;stroke-width:1.5;" width="127" x="495" y="7"/><ellipse cx="510" cy="23" fill="#ADD1B2" rx="11" ry="11" style="stroke:#A80036;stroke-width:1.0;"/><path d="M512.3438,18.6719 C511.4063,18.2344 510.8125,18.0938 509.9375,18.0938 C507.3125,18.0938 505.3125,20.1719 505.3125,22.8906 L505.3125,24.0156 C505.3125,26.5938 507.4219,28.4844 510.3125,28.4844 C511.5313,28.4844 512.6875,28.1875 513.4375,27.6406 C514.0156,27.2344 514.3438,26.7813 514.3438,26.3906 C514.3438,25.9375 513.9531,25.5469 513.4844,25.5469 C513.2656,25.5469 513.0625,25.625 512.875,25.8125 C512.4219,26.2969 512.4219,26.2969 512.2344,26.3906 C511.8125,26.6563 511.125,26.7813 510.3594,26.7813 C508.3125,26.7813 507.0156,25.6875 507.0156,23.9844 L507.0156,22.8906 C507.0156,21.1094 508.2656,19.7969 510,19.7969 C510.5781,19.7969 511.1875,19.9531 511.6563,20.2031 C512.1406,20.4844 512.3125,20.7031 512.4063,21.1094 C512.4688,21.5156 512.5,21.6406 512.6406,21.7656 C512.7813,21.9063 513.0156,22.0156 513.2344,22.0156 C513.5,22.0156 513.7656,21.875 513.9375,21.6563 C514.0469,21.5 514.0781,21.3125 514.0781,20.8906 L514.0781,19.4688 C514.0781,19.0313 514.0625,18.9063 513.9688,18.75 C513.8125,18.4844 513.5313,18.3438 513.2344,18.3438 C512.9375,18.3438 512.7344,18.4375 512.5156,18.75 L512.3438,18.6719 Z " fill="#000000"/><text fill="#000000" font-family="sans-serif" font-size="12" lengthAdjust="spacing" textLength="95" x="524" y="27.1543">RegisterClientUI</text><line style="stroke:#A80036;stroke-width:1.5;" x1="496" x2="621" y1="39" y2="39"/><line style="stroke:#A80036;stroke-width:1.5;" x1="496" x2="621" y1="47" y2="47"/><!--MD5=[1a7fda4a36185bcd740bdf14b2b3a45e]
class RegisterClientController--><rect codeLine="8" fill="#FEFECE" filter="url(#f1cfu65hzh95ca)" height="73.6094" id="RegisterClientController" style="stroke:#A80036;stroke-width:1.5;" width="572" x="272.5" y="116"/><ellipse cx="483.25" cy="132" fill="#ADD1B2" rx="11" ry="11" style="stroke:#A80036;stroke-width:1.0;"/><path d="M485.5938,127.6719 C484.6563,127.2344 484.0625,127.0938 483.1875,127.0938 C480.5625,127.0938 478.5625,129.1719 478.5625,131.8906 L478.5625,133.0156 C478.5625,135.5938 480.6719,137.4844 483.5625,137.4844 C484.7813,137.4844 485.9375,137.1875 486.6875,136.6406 C487.2656,136.2344 487.5938,135.7813 487.5938,135.3906 C487.5938,134.9375 487.2031,134.5469 486.7344,134.5469 C486.5156,134.5469 486.3125,134.625 486.125,134.8125 C485.6719,135.2969 485.6719,135.2969 485.4844,135.3906 C485.0625,135.6563 484.375,135.7813 483.6094,135.7813 C481.5625,135.7813 480.2656,134.6875 480.2656,132.9844 L480.2656,131.8906 C480.2656,130.1094 481.5156,128.7969 483.25,128.7969 C483.8281,128.7969 484.4375,128.9531 484.9063,129.2031 C485.3906,129.4844 485.5625,129.7031 485.6563,130.1094 C485.7188,130.5156 485.75,130.6406 485.8906,130.7656 C486.0313,130.9063 486.2656,131.0156 486.4844,131.0156 C486.75,131.0156 487.0156,130.875 487.1875,130.6563 C487.2969,130.5 487.3281,130.3125 487.3281,129.8906 L487.3281,128.4688 C487.3281,128.0313 487.3125,127.9063 487.2188,127.75 C487.0625,127.4844 486.7813,127.3438 486.4844,127.3438 C486.1875,127.3438 485.9844,127.4375 485.7656,127.75 L485.5938,127.6719 Z " fill="#000000"/><text fill="#000000" font-family="sans-serif" font-size="12" lengthAdjust="spacing" textLength="142" x="503.75" y="136.1543">RegisterClientController</text><line style="stroke:#A80036;stroke-width:1.5;" x1="273.5" x2="843.5" y1="148" y2="148"/><line style="stroke:#A80036;stroke-width:1.5;" x1="273.5" x2="843.5" y1="156" y2="156"/><text fill="#000000" font-family="sans-serif" font-size="11" lengthAdjust="spacing" textLength="560" x="278.5" y="170.2104">+newClient(cardNumber, nhs, birthDate, sex, TIF, phoneNumber, email, name, password, address)</text><text fill="#000000" font-family="sans-serif" font-size="11" lengthAdjust="spacing" textLength="94" x="278.5" y="183.0151">+registerClient()</text><!--MD5=[02e4b9b7573f1156f41e60aa5b4e25a4]
class Company--><rect codeLine="14" fill="#FEFECE" filter="url(#f1cfu65hzh95ca)" height="112.0234" id="Company" style="stroke:#A80036;stroke-width:1.5;" width="585" x="7" y="251"/><ellipse cx="267.25" cy="267" fill="#ADD1B2" rx="11" ry="11" style="stroke:#A80036;stroke-width:1.0;"/><path d="M269.5938,262.6719 C268.6563,262.2344 268.0625,262.0938 267.1875,262.0938 C264.5625,262.0938 262.5625,264.1719 262.5625,266.8906 L262.5625,268.0156 C262.5625,270.5938 264.6719,272.4844 267.5625,272.4844 C268.7813,272.4844 269.9375,272.1875 270.6875,271.6406 C271.2656,271.2344 271.5938,270.7813 271.5938,270.3906 C271.5938,269.9375 271.2031,269.5469 270.7344,269.5469 C270.5156,269.5469 270.3125,269.625 270.125,269.8125 C269.6719,270.2969 269.6719,270.2969 269.4844,270.3906 C269.0625,270.6563 268.375,270.7813 267.6094,270.7813 C265.5625,270.7813 264.2656,269.6875 264.2656,267.9844 L264.2656,266.8906 C264.2656,265.1094 265.5156,263.7969 267.25,263.7969 C267.8281,263.7969 268.4375,263.9531 268.9063,264.2031 C269.3906,264.4844 269.5625,264.7031 269.6563,265.1094 C269.7188,265.5156 269.75,265.6406 269.8906,265.7656 C270.0313,265.9063 270.2656,266.0156 270.4844,266.0156 C270.75,266.0156 271.0156,265.875 271.1875,265.6563 C271.2969,265.5 271.3281,265.3125 271.3281,264.8906 L271.3281,263.4688 C271.3281,263.0313 271.3125,262.9063 271.2188,262.75 C271.0625,262.4844 270.7813,262.3438 270.4844,262.3438 C270.1875,262.3438 269.9844,262.4375 269.7656,262.75 L269.5938,262.6719 Z " fill="#000000"/><text fill="#000000" font-family="sans-serif" font-size="12" lengthAdjust="spacing" textLength="56" x="287.75" y="271.1543">Company</text><line style="stroke:#A80036;stroke-width:1.5;" x1="8" x2="591" y1="283" y2="283"/><text fill="#000000" font-family="sans-serif" font-size="11" lengthAdjust="spacing" textLength="70" x="13" y="297.2104">-designation</text><line style="stroke:#A80036;stroke-width:1.5;" x1="8" x2="591" y1="303.8047" y2="303.8047"/><text fill="#000000" font-family="sans-serif" font-size="11" lengthAdjust="spacing" textLength="573" x="13" y="318.0151">+createClient(cardNumber, nhs, birthDate, sex, TIF, phoneNumber, email, name, password, address)</text><text fill="#000000" font-family="sans-serif" font-size="11" lengthAdjust="spacing" textLength="127" x="13" y="330.8198">+validateClient(client)</text><text fill="#000000" font-family="sans-serif" font-size="11" lengthAdjust="spacing" textLength="125" x="13" y="343.6245">+registerClient(client)</text><text fill="#000000" font-family="sans-serif" font-size="11" lengthAdjust="spacing" textLength="97" x="13" y="356.4292">-addClient(client)</text><!--MD5=[ed6624c6556d5e7b1bd23032162d20b7]
class Client--><rect codeLine="24" fill="#FEFECE" filter="url(#f1cfu65hzh95ca)" height="188.8516" id="Client" style="stroke:#A80036;stroke-width:1.5;" width="548" x="243.5" y="522"/><ellipse cx="496.75" cy="538" fill="#ADD1B2" rx="11" ry="11" style="stroke:#A80036;stroke-width:1.0;"/><path d="M499.0938,533.6719 C498.1563,533.2344 497.5625,533.0938 496.6875,533.0938 C494.0625,533.0938 492.0625,535.1719 492.0625,537.8906 L492.0625,539.0156 C492.0625,541.5938 494.1719,543.4844 497.0625,543.4844 C498.2813,543.4844 499.4375,543.1875 500.1875,542.6406 C500.7656,542.2344 501.0938,541.7813 501.0938,541.3906 C501.0938,540.9375 500.7031,540.5469 500.2344,540.5469 C500.0156,540.5469 499.8125,540.625 499.625,540.8125 C499.1719,541.2969 499.1719,541.2969 498.9844,541.3906 C498.5625,541.6563 497.875,541.7813 497.1094,541.7813 C495.0625,541.7813 493.7656,540.6875 493.7656,538.9844 L493.7656,537.8906 C493.7656,536.1094 495.0156,534.7969 496.75,534.7969 C497.3281,534.7969 497.9375,534.9531 498.4063,535.2031 C498.8906,535.4844 499.0625,535.7031 499.1563,536.1094 C499.2188,536.5156 499.25,536.6406 499.3906,536.7656 C499.5313,536.9063 499.7656,537.0156 499.9844,537.0156 C500.25,537.0156 500.5156,536.875 500.6875,536.6563 C500.7969,536.5 500.8281,536.3125 500.8281,535.8906 L500.8281,534.4688 C500.8281,534.0313 500.8125,533.9063 500.7188,533.75 C500.5625,533.4844 500.2813,533.3438 499.9844,533.3438 C499.6875,533.3438 499.4844,533.4375 499.2656,533.75 L499.0938,533.6719 Z " fill="#000000"/><text fill="#000000" font-family="sans-serif" font-size="12" lengthAdjust="spacing" textLength="33" x="517.25" y="542.1543">Client</text><line style="stroke:#A80036;stroke-width:1.5;" x1="244.5" x2="790.5" y1="554" y2="554"/><text fill="#000000" font-family="sans-serif" font-size="11" lengthAdjust="spacing" textLength="73" x="249.5" y="568.2104">-cardNumber</text><text fill="#000000" font-family="sans-serif" font-size="11" lengthAdjust="spacing" textLength="24" x="249.5" y="581.0151">-nhs</text><text fill="#000000" font-family="sans-serif" font-size="11" lengthAdjust="spacing" textLength="57" x="249.5" y="593.8198">-birthDate</text><text fill="#000000" font-family="sans-serif" font-size="11" lengthAdjust="spacing" textLength="25" x="249.5" y="606.6245">-sex</text><text fill="#000000" font-family="sans-serif" font-size="11" lengthAdjust="spacing" textLength="20" x="249.5" y="619.4292">-TIF</text><text fill="#000000" font-family="sans-serif" font-size="11" lengthAdjust="spacing" textLength="85" x="249.5" y="632.2339">-phoneNumber</text><text fill="#000000" font-family="sans-serif" font-size="11" lengthAdjust="spacing" textLength="36" x="249.5" y="645.0386">-email</text><text fill="#000000" font-family="sans-serif" font-size="11" lengthAdjust="spacing" textLength="37" x="249.5" y="657.8433">-name</text><text fill="#000000" font-family="sans-serif" font-size="11" lengthAdjust="spacing" textLength="57" x="249.5" y="670.6479">-password</text><text fill="#000000" font-family="sans-serif" font-size="11" lengthAdjust="spacing" textLength="49" x="249.5" y="683.4526">-address</text><line style="stroke:#A80036;stroke-width:1.5;" x1="244.5" x2="790.5" y1="690.0469" y2="690.0469"/><text fill="#000000" font-family="sans-serif" font-size="11" lengthAdjust="spacing" textLength="536" x="249.5" y="704.2573">+Client(cardNumber, nhs, birthDate, sex, TIF, phoneNumber, email, name, password, address)</text><!--MD5=[55cb992be19579b505cea3c5691093cb]
class ClientStore--><rect codeLine="40" fill="#FEFECE" filter="url(#f1cfu65hzh95ca)" height="99.2188" id="ClientStore" style="stroke:#A80036;stroke-width:1.5;" width="389" x="105" y="393"/><ellipse cx="262.25" cy="409" fill="#ADD1B2" rx="11" ry="11" style="stroke:#A80036;stroke-width:1.0;"/><path d="M264.5938,404.6719 C263.6563,404.2344 263.0625,404.0938 262.1875,404.0938 C259.5625,404.0938 257.5625,406.1719 257.5625,408.8906 L257.5625,410.0156 C257.5625,412.5938 259.6719,414.4844 262.5625,414.4844 C263.7813,414.4844 264.9375,414.1875 265.6875,413.6406 C266.2656,413.2344 266.5938,412.7813 266.5938,412.3906 C266.5938,411.9375 266.2031,411.5469 265.7344,411.5469 C265.5156,411.5469 265.3125,411.625 265.125,411.8125 C264.6719,412.2969 264.6719,412.2969 264.4844,412.3906 C264.0625,412.6563 263.375,412.7813 262.6094,412.7813 C260.5625,412.7813 259.2656,411.6875 259.2656,409.9844 L259.2656,408.8906 C259.2656,407.1094 260.5156,405.7969 262.25,405.7969 C262.8281,405.7969 263.4375,405.9531 263.9063,406.2031 C264.3906,406.4844 264.5625,406.7031 264.6563,407.1094 C264.7188,407.5156 264.75,407.6406 264.8906,407.7656 C265.0313,407.9063 265.2656,408.0156 265.4844,408.0156 C265.75,408.0156 266.0156,407.875 266.1875,407.6563 C266.2969,407.5 266.3281,407.3125 266.3281,406.8906 L266.3281,405.4688 C266.3281,405.0313 266.3125,404.9063 266.2188,404.75 C266.0625,404.4844 265.7813,404.3438 265.4844,404.3438 C265.1875,404.3438 264.9844,404.4375 264.7656,404.75 L264.5938,404.6719 Z " fill="#000000"/><text fill="#000000" font-family="sans-serif" font-size="12" lengthAdjust="spacing" textLength="66" x="282.75" y="413.1543">ClientStore</text><line style="stroke:#A80036;stroke-width:1.5;" x1="106" x2="493" y1="425" y2="425"/><line style="stroke:#A80036;stroke-width:1.5;" x1="106" x2="493" y1="433" y2="433"/><text fill="#000000" font-family="sans-serif" font-size="11" lengthAdjust="spacing" textLength="377" x="111" y="447.2104">+newClient(name, citizenCardNumber, tinNumber, birthDate, sex)</text><text fill="#000000" font-family="sans-serif" font-size="11" lengthAdjust="spacing" textLength="106" x="111" y="460.0151">+validateClient(ct)</text><text fill="#000000" font-family="sans-serif" font-size="11" lengthAdjust="spacing" textLength="88" x="111" y="472.8198">+saveClient(ct)</text><text fill="#000000" font-family="sans-serif" font-size="11" lengthAdjust="spacing" textLength="76" x="111" y="485.6245">-addClient(ct)</text><!--MD5=[98d2d934d445daef8d5bcbeea20c1f70]
link RegisterClientUI to RegisterClientController--><path codeLine="47" d="M558.5,55.137 C558.5,70.825 558.5,92.003 558.5,110.555 " fill="none" id="RegisterClientUI-to-RegisterClientController" style="stroke:#A80036;stroke-width:1.0;stroke-dasharray:7.0,7.0;"/><polygon fill="#A80036" points="558.5,115.711,562.5,106.711,558.5,110.711,554.5,106.711,558.5,115.711" style="stroke:#A80036;stroke-width:1.0;"/><!--MD5=[198be3749d42ca56b2a20022cdc44bdd]
link RegisterClientController to Company--><path codeLine="48" d="M497.121,190.022 C467.486,207.414 431.198,228.71 397.843,248.285 " fill="none" id="RegisterClientController-to-Company" style="stroke:#A80036;stroke-width:1.0;stroke-dasharray:7.0,7.0;"/><polygon fill="#A80036" points="393.368,250.911,403.1548,249.8073,397.6807,248.3811,399.107,242.907,393.368,250.911" style="stroke:#A80036;stroke-width:1.0;"/><!--MD5=[a11230341c8e65219708844feaa40162]
link Company to ClientStore--><path codeLine="49" d="M299.5,363.07 C299.5,371.278 299.5,379.73 299.5,387.907 " fill="none" id="Company-to-ClientStore" style="stroke:#A80036;stroke-width:1.0;"/><polygon fill="#A80036" points="299.5,392.958,303.5,383.958,299.5,387.958,295.5,383.958,299.5,392.958" style="stroke:#A80036;stroke-width:1.0;"/><text fill="#000000" font-family="sans-serif" font-size="13" lengthAdjust="spacing" textLength="30" x="268.5" y="373.9069">uses</text><text fill="#000000" font-family="sans-serif" font-size="13" lengthAdjust="spacing" textLength="8" x="300.1042" y="381.9924">1</text><text fill="#000000" font-family="sans-serif" font-size="13" lengthAdjust="spacing" textLength="8" x="290.9375" y="381.9973">1</text><!--MD5=[1d934105a045dbf126514c6917bd5072]
link ClientStore to Client--><path codeLine="50" d="M361.096,492.099 C371.729,500.488 383.11,509.468 394.703,518.614 " fill="none" id="ClientStore-to-Client" style="stroke:#A80036;stroke-width:1.0;"/><polygon fill="#A80036" points="398.641,521.722,394.0543,513.0064,394.7161,518.6244,389.0981,519.2862,398.641,521.722" style="stroke:#A80036;stroke-width:1.0;"/><text fill="#000000" font-family="sans-serif" font-size="13" lengthAdjust="spacing" textLength="33" x="345.919" y="503.0169">store</text><text fill="#000000" font-family="sans-serif" font-size="13" lengthAdjust="spacing" textLength="8" x="361.1954" y="512.1894">1</text><text fill="#000000" font-family="sans-serif" font-size="13" lengthAdjust="spacing" textLength="7" x="384.0253" y="512.2661">*</text><!--MD5=[6eee883fdf517d3604e8bd0f2058e9aa]
link Company to Client--><path codeLine="51" d="M465.76,363.164 C477.038,371.732 487.196,381.612 495.5,393 C521.104,428.111 528.522,475.063 528.763,516.786 " fill="none" id="Company-to-Client" style="stroke:#A80036;stroke-width:1.0;stroke-dasharray:7.0,7.0;"/><polygon fill="#A80036" points="528.757,521.847,532.7673,512.8516,528.7627,516.847,524.7673,512.8424,528.757,521.847" style="stroke:#A80036;stroke-width:1.0;"/><!--MD5=[ed103a8ea2b4d350bb3452ad82ebe4da]
link RegisterClientController to Client--><path codeLine="52" d="M582.83,190.076 C593.243,207.648 604.21,229.573 609.5,251 C621.43,299.327 618.152,313.98 609.5,363 C600.248,415.416 580.972,471.259 562.443,517.065 " fill="none" id="RegisterClientController-to-Client" style="stroke:#A80036;stroke-width:1.0;stroke-dasharray:7.0,7.0;"/><polygon fill="#A80036" points="560.537,521.749,567.6338,514.9199,562.4213,517.1176,560.2236,511.9051,560.537,521.749" style="stroke:#A80036;stroke-width:1.0;"/><!--MD5=[bfb64e74ad5f2d58e17b03e066442b5b]
@startuml
'https://plantuml.com/class-diagram
skinparam classAttributeIconSize 0

class RegisterClientUI
{
}

class RegisterClientController
{
    +newClient(cardNumber, nhs, birthDate, sex, TIF, phoneNumber, email, name, password, address)
    +registerClient()
}

class Company
{
-designation

+createClient(cardNumber, nhs, birthDate, sex, TIF, phoneNumber, email, name, password, address)
+validateClient(client)
+registerClient(client)
-addClient(client)
}

class Client
{
-cardNumber
-nhs
-birthDate
-sex
-TIF
-phoneNumber
-email
-name
-password
-address

+Client(cardNumber, nhs, birthDate, sex, TIF, phoneNumber, email, name, password, address)
}

class ClientStore{
+newClient(name, citizenCardNumber, tinNumber, birthDate, sex)
+validateClient(ct)
+saveClient(ct)
-addClient(ct)
}

RegisterClientUI ..> RegisterClientController
RegisterClientController ..> Company
Company"1" -> "1"ClientStore : uses
ClientStore"1" ->"*" Client : store
Company ..> Client
RegisterClientController ..> Client
@enduml

@startuml
skinparam classAttributeIconSize 0

class RegisterClientUI
{
}

class RegisterClientController
{
    +newClient(cardNumber, nhs, birthDate, sex, TIF, phoneNumber, email, name, password, address)
    +registerClient()
}

class Company
{
-designation

+createClient(cardNumber, nhs, birthDate, sex, TIF, phoneNumber, email, name, password, address)
+validateClient(client)
+registerClient(client)
-addClient(client)
}

class Client
{
-cardNumber
-nhs
-birthDate
-sex
-TIF
-phoneNumber
-email
-name
-password
-address

+Client(cardNumber, nhs, birthDate, sex, TIF, phoneNumber, email, name, password, address)
}

class ClientStore{
+newClient(name, citizenCardNumber, tinNumber, birthDate, sex)
+validateClient(ct)
+saveClient(ct)
-addClient(ct)
}

RegisterClientUI ..> RegisterClientController
RegisterClientController ..> Company
Company"1" -> "1"ClientStore : uses
ClientStore"1" ->"*" Client : store
Company ..> Client
RegisterClientController ..> Client
@enduml

PlantUML version 1.2021.6beta6(Unknown compile time)
(GPL source distribution)
Java Runtime: Java(TM) SE Runtime Environment
JVM: Java HotSpot(TM) 64-Bit Server VM
Default Encoding: UTF-8
Language: en
Country: US
--></g></svg>