<?xml version="1.0" encoding="UTF-8" standalone="no"?><svg xmlns="http://www.w3.org/2000/svg" xmlns:xlink="http://www.w3.org/1999/xlink" contentScriptType="application/ecmascript" contentStyleType="text/css" height="243px" preserveAspectRatio="none" style="width:572px;height:243px;" version="1.1" viewBox="0 0 572 243" width="572px" zoomAndPan="magnify"><defs><filter height="300%" id="f1tfg7pjy8l2do" width="300%" x="-1" y="-1"><feGaussianBlur result="blurOut" stdDeviation="2.0"/><feColorMatrix in="blurOut" result="blurOut2" type="matrix" values="0 0 0 0 0 0 0 0 0 0 0 0 0 0 0 0 0 0 .4 0"/><feOffset dx="4.0" dy="4.0" in="blurOut2" result="blurOut3"/><feBlend in="SourceGraphic" in2="blurOut3" mode="normal"/></filter></defs><g><!--MD5=[02e4b9b7573f1156f41e60aa5b4e25a4]
class Company--><rect codeLine="7" fill="#FEFECE" filter="url(#f1tfg7pjy8l2do)" height="40" id="Company" style="stroke:#A80036;stroke-width:1.5;" width="88" x="7" y="64.5"/><ellipse cx="22" cy="80.5" fill="#ADD1B2" rx="11" ry="11" style="stroke:#A80036;stroke-width:1.0;"/><path d="M24.3438,76.1719 C23.4063,75.7344 22.8125,75.5938 21.9375,75.5938 C19.3125,75.5938 17.3125,77.6719 17.3125,80.3906 L17.3125,81.5156 C17.3125,84.0938 19.4219,85.9844 22.3125,85.9844 C23.5313,85.9844 24.6875,85.6875 25.4375,85.1406 C26.0156,84.7344 26.3438,84.2813 26.3438,83.8906 C26.3438,83.4375 25.9531,83.0469 25.4844,83.0469 C25.2656,83.0469 25.0625,83.125 24.875,83.3125 C24.4219,83.7969 24.4219,83.7969 24.2344,83.8906 C23.8125,84.1563 23.125,84.2813 22.3594,84.2813 C20.3125,84.2813 19.0156,83.1875 19.0156,81.4844 L19.0156,80.3906 C19.0156,78.6094 20.2656,77.2969 22,77.2969 C22.5781,77.2969 23.1875,77.4531 23.6563,77.7031 C24.1406,77.9844 24.3125,78.2031 24.4063,78.6094 C24.4688,79.0156 24.5,79.1406 24.6406,79.2656 C24.7813,79.4063 25.0156,79.5156 25.2344,79.5156 C25.5,79.5156 25.7656,79.375 25.9375,79.1563 C26.0469,79 26.0781,78.8125 26.0781,78.3906 L26.0781,76.9688 C26.0781,76.5313 26.0625,76.4063 25.9688,76.25 C25.8125,75.9844 25.5313,75.8438 25.2344,75.8438 C24.9375,75.8438 24.7344,75.9375 24.5156,76.25 L24.3438,76.1719 Z " fill="#000000"/><text fill="#000000" font-family="sans-serif" font-size="12" lengthAdjust="spacing" textLength="56" x="36" y="84.6543">Company</text><line style="stroke:#A80036;stroke-width:1.5;" x1="8" x2="94" y1="96.5" y2="96.5"/><!--MD5=[ed6624c6556d5e7b1bd23032162d20b7]
class Client--><rect codeLine="12" fill="#FEFECE" filter="url(#f1tfg7pjy8l2do)" height="155.2422" id="Client" style="stroke:#A80036;stroke-width:1.5;" width="119" x="439" y="7"/><ellipse cx="478.3" cy="23" fill="#ADD1B2" rx="11" ry="11" style="stroke:#A80036;stroke-width:1.0;"/><path d="M480.6438,18.6719 C479.7063,18.2344 479.1125,18.0938 478.2375,18.0938 C475.6125,18.0938 473.6125,20.1719 473.6125,22.8906 L473.6125,24.0156 C473.6125,26.5938 475.7219,28.4844 478.6125,28.4844 C479.8313,28.4844 480.9875,28.1875 481.7375,27.6406 C482.3156,27.2344 482.6438,26.7813 482.6438,26.3906 C482.6438,25.9375 482.2531,25.5469 481.7844,25.5469 C481.5656,25.5469 481.3625,25.625 481.175,25.8125 C480.7219,26.2969 480.7219,26.2969 480.5344,26.3906 C480.1125,26.6563 479.425,26.7813 478.6594,26.7813 C476.6125,26.7813 475.3156,25.6875 475.3156,23.9844 L475.3156,22.8906 C475.3156,21.1094 476.5656,19.7969 478.3,19.7969 C478.8781,19.7969 479.4875,19.9531 479.9563,20.2031 C480.4406,20.4844 480.6125,20.7031 480.7063,21.1094 C480.7688,21.5156 480.8,21.6406 480.9406,21.7656 C481.0813,21.9063 481.3156,22.0156 481.5344,22.0156 C481.8,22.0156 482.0656,21.875 482.2375,21.6563 C482.3469,21.5 482.3781,21.3125 482.3781,20.8906 L482.3781,19.4688 C482.3781,19.0313 482.3625,18.9063 482.2688,18.75 C482.1125,18.4844 481.8313,18.3438 481.5344,18.3438 C481.2375,18.3438 481.0344,18.4375 480.8156,18.75 L480.6438,18.6719 Z " fill="#000000"/><text fill="#000000" font-family="sans-serif" font-size="12" lengthAdjust="spacing" textLength="33" x="497.7" y="27.1543">Client</text><line style="stroke:#A80036;stroke-width:1.5;" x1="440" x2="557" y1="39" y2="39"/><text fill="#000000" font-family="sans-serif" font-size="11" lengthAdjust="spacing" textLength="91" x="445" y="53.2104">-int cardNumber</text><text fill="#000000" font-family="sans-serif" font-size="11" lengthAdjust="spacing" textLength="42" x="445" y="66.0151">-int nhs</text><text fill="#000000" font-family="sans-serif" font-size="11" lengthAdjust="spacing" textLength="75" x="445" y="78.8198">-int birthDate</text><text fill="#000000" font-family="sans-serif" font-size="11" lengthAdjust="spacing" textLength="62" x="445" y="91.6245">-String sex</text><text fill="#000000" font-family="sans-serif" font-size="11" lengthAdjust="spacing" textLength="38" x="445" y="104.4292">-int TIF</text><text fill="#000000" font-family="sans-serif" font-size="11" lengthAdjust="spacing" textLength="107" x="445" y="117.2339">-int  phoneNumber</text><text fill="#000000" font-family="sans-serif" font-size="11" lengthAdjust="spacing" textLength="73" x="445" y="130.0386">-String email</text><text fill="#000000" font-family="sans-serif" font-size="11" lengthAdjust="spacing" textLength="74" x="445" y="142.8433">-String name</text><text fill="#000000" font-family="sans-serif" font-size="11" lengthAdjust="spacing" textLength="75" x="445" y="155.6479">-int password</text><!--MD5=[8e0ff4fb9ad8e90335f8f7ad6808b682]
class Recepcionist--><rect codeLine="24" fill="#FEFECE" filter="url(#f1tfg7pjy8l2do)" height="116.8281" id="Recepcionist" style="stroke:#A80036;stroke-width:1.5;" width="115" x="193" y="113"/><ellipse cx="210.7" cy="129" fill="#ADD1B2" rx="11" ry="11" style="stroke:#A80036;stroke-width:1.0;"/><path d="M213.0438,124.6719 C212.1063,124.2344 211.5125,124.0938 210.6375,124.0938 C208.0125,124.0938 206.0125,126.1719 206.0125,128.8906 L206.0125,130.0156 C206.0125,132.5938 208.1219,134.4844 211.0125,134.4844 C212.2313,134.4844 213.3875,134.1875 214.1375,133.6406 C214.7156,133.2344 215.0438,132.7813 215.0438,132.3906 C215.0438,131.9375 214.6531,131.5469 214.1844,131.5469 C213.9656,131.5469 213.7625,131.625 213.575,131.8125 C213.1219,132.2969 213.1219,132.2969 212.9344,132.3906 C212.5125,132.6563 211.825,132.7813 211.0594,132.7813 C209.0125,132.7813 207.7156,131.6875 207.7156,129.9844 L207.7156,128.8906 C207.7156,127.1094 208.9656,125.7969 210.7,125.7969 C211.2781,125.7969 211.8875,125.9531 212.3563,126.2031 C212.8406,126.4844 213.0125,126.7031 213.1063,127.1094 C213.1688,127.5156 213.2,127.6406 213.3406,127.7656 C213.4813,127.9063 213.7156,128.0156 213.9344,128.0156 C214.2,128.0156 214.4656,127.875 214.6375,127.6563 C214.7469,127.5 214.7781,127.3125 214.7781,126.8906 L214.7781,125.4688 C214.7781,125.0313 214.7625,124.9063 214.6688,124.75 C214.5125,124.4844 214.2313,124.3438 213.9344,124.3438 C213.6375,124.3438 213.4344,124.4375 213.2156,124.75 L213.0438,124.6719 Z " fill="#000000"/><text fill="#000000" font-family="sans-serif" font-size="12" lengthAdjust="spacing" textLength="77" x="225.3" y="133.1543">Recepcionist</text><line style="stroke:#A80036;stroke-width:1.5;" x1="194" x2="307" y1="145" y2="145"/><text fill="#000000" font-family="sans-serif" font-size="11" lengthAdjust="spacing" textLength="34" x="199" y="159.2104">-int ID</text><text fill="#000000" font-family="sans-serif" font-size="11" lengthAdjust="spacing" textLength="63" x="199" y="172.0151">-String role</text><text fill="#000000" font-family="sans-serif" font-size="11" lengthAdjust="spacing" textLength="74" x="199" y="184.8198">-String nome</text><text fill="#000000" font-family="sans-serif" font-size="11" lengthAdjust="spacing" textLength="103" x="199" y="197.6245">-int phoneNumber</text><text fill="#000000" font-family="sans-serif" font-size="11" lengthAdjust="spacing" textLength="73" x="199" y="210.4292">-String email</text><text fill="#000000" font-family="sans-serif" font-size="11" lengthAdjust="spacing" textLength="47" x="199" y="223.2339">-int SOC</text><!--MD5=[a92870a4747a4a48d48d5d5e5ecf3e20]
link Recepcionist to Client--><path codeLine="34" d="M308.246,151.4312 C347.409,137.581 399.344,119.214 438.902,105.224 " fill="none" id="Recepcionist-Client" style="stroke:#A80036;stroke-width:1.0;"/><polygon fill="#000000" points="347.7139,108.3993,338.2065,108.6444,340.1663,114.1859,347.7139,108.3993" style="stroke:#000000;stroke-width:1.0;"/><text fill="#000000" font-family="sans-serif" font-size="13" lengthAdjust="spacing" textLength="56" x="352" y="114.5669">registers</text><text fill="#000000" font-family="sans-serif" font-size="13" lengthAdjust="spacing" textLength="8" x="316.1572" y="161.9072">1</text><text fill="#000000" font-family="sans-serif" font-size="13" lengthAdjust="spacing" textLength="23" x="408.1257" y="120.3719">1..*</text><!--MD5=[6eee883fdf517d3604e8bd0f2058e9aa]
link Company to Client--><path codeLine="35" d="M95.1212,84.5 C175.48,84.5 348.192,84.5 438.987,84.5 " fill="none" id="Company-Client" style="stroke:#A80036;stroke-width:1.0;"/><polygon fill="#000000" points="241.5,76.0664,232.4549,73.1275,232.4549,79.0053,241.5,76.0664" style="stroke:#000000;stroke-width:1.0;"/><text fill="#000000" font-family="sans-serif" font-size="13" lengthAdjust="spacing" textLength="23" x="245.5" y="80.5669">has</text><text fill="#000000" font-family="sans-serif" font-size="13" lengthAdjust="spacing" textLength="8" x="103.0913" y="97.8201">1</text><text fill="#000000" font-family="sans-serif" font-size="13" lengthAdjust="spacing" textLength="23" x="408.22" y="97.3812">1..*</text><!--MD5=[b4ca43a1c0fb988e80ea454d1cb2e753]
link Company to Recepcionist--><path codeLine="36" d="M95.3422,103.593 C123.957,116.197 161.748,132.8448 192.751,146.5019 " fill="none" id="Company-Recepcionist" style="stroke:#A80036;stroke-width:1.0;"/><polygon fill="#000000" points="134.5757,112.082,127.4829,105.7462,125.1134,111.1253,134.5757,112.082" style="stroke:#000000;stroke-width:1.0;"/><text fill="#000000" font-family="sans-serif" font-size="13" lengthAdjust="spacing" textLength="23" x="139" y="114.5669">has</text><text fill="#000000" font-family="sans-serif" font-size="13" lengthAdjust="spacing" textLength="8" x="100.7056" y="124.4908">1</text><text fill="#000000" font-family="sans-serif" font-size="13" lengthAdjust="spacing" textLength="23" x="162.1769" y="156.6716">1..*</text><!--MD5=[6868c4b0060d176115f65047dda88d9e]
@startuml
skinparam classAttributeIconSize 0
hide methods
left to right direction
skinparam linetype polyline


Class Company{


}

Class Client{
-int cardNumber
-int nhs
-int birthDate
-String sex
-int TIF
-int  phoneNumber
-String email
-String name
-int password
}

Class Recepcionist{
-int ID
-String role
-String nome
-int phoneNumber
-String email
-int SOC

}

Recepcionist "1" - - "1..*" Client : registers >
Company "1" - - "1..*" Client : has >
Company "1" - - "1..*" Recepcionist : has >
@enduml

PlantUML version 1.2021.5(Sun Apr 25 11:20:28 UTC 2021)
(GPL source distribution)
Java Runtime: Java(TM) SE Runtime Environment
JVM: Java HotSpot(TM) 64-Bit Server VM
Default Encoding: UTF-8
Language: en
Country: US
--></g></svg>