<?xml version="1.0" encoding="UTF-8" standalone="no"?><svg xmlns="http://www.w3.org/2000/svg" xmlns:xlink="http://www.w3.org/1999/xlink" contentScriptType="application/ecmascript" contentStyleType="text/css" height="471.25px" preserveAspectRatio="none" style="width:486px;height:471px;" version="1.1" viewBox="0 0 486 471" width="486.25px" zoomAndPan="magnify"><defs><filter height="300%" id="fem82rd0ttrnu" width="300%" x="-1" y="-1"><feGaussianBlur result="blurOut" stdDeviation="2.5"/><feColorMatrix in="blurOut" result="blurOut2" type="matrix" values="0 0 0 0 0 0 0 0 0 0 0 0 0 0 0 0 0 0 .4 0"/><feOffset dx="5.0" dy="5.0" in="blurOut2" result="blurOut3"/><feBlend in="SourceGraphic" in2="blurOut3" mode="normal"/></filter></defs><g><rect fill="#FFFFFF" filter="url(#fem82rd0ttrnu)" height="228.8867" style="stroke:#A80036;stroke-width:1.25;" width="12.5" x="126.875" y="124.5117"/><rect fill="#FFFFFF" filter="url(#fem82rd0ttrnu)" height="37.9395" style="stroke:#A80036;stroke-width:1.25;" width="12.5" x="423.125" y="152.4512"/><rect fill="#FFFFFF" filter="url(#fem82rd0ttrnu)" height="37.9395" style="stroke:#A80036;stroke-width:1.25;" width="12.5" x="423.125" y="228.3301"/><rect fill="#FFFFFF" filter="url(#fem82rd0ttrnu)" height="37.9395" style="stroke:#A80036;stroke-width:1.25;" width="12.5" x="423.125" y="304.209"/><line style="stroke:#A80036;stroke-width:1.25;stroke-dasharray:5.0,5.0;" x1="132.5" x2="132.5" y1="112.0117" y2="364.6484"/><line style="stroke:#A80036;stroke-width:1.25;stroke-dasharray:5.0,5.0;" x1="429.375" x2="429.375" y1="112.0117" y2="364.6484"/><text fill="#000000" font-family="sans-serif" font-size="17.5" lengthAdjust="spacing" textLength="246.25" x="6.25" y="108.1665">Clinical Chemistry Technologist</text><ellipse cx="133.125" cy="18.75" fill="#FEFECE" filter="url(#fem82rd0ttrnu)" rx="10" ry="10" style="stroke:#A80036;stroke-width:2.5;"/><path d="M133.125,28.75 L133.125,62.5 M116.875,38.75 L149.375,38.75 M133.125,62.5 L116.875,81.25 M133.125,62.5 L149.375,81.25 " fill="none" filter="url(#fem82rd0ttrnu)" style="stroke:#A80036;stroke-width:2.5;"/><text fill="#000000" font-family="sans-serif" font-size="17.5" lengthAdjust="spacing" textLength="246.25" x="6.25" y="381.5649">Clinical Chemistry Technologist</text><ellipse cx="133.125" cy="397.9102" fill="#FEFECE" filter="url(#fem82rd0ttrnu)" rx="10" ry="10" style="stroke:#A80036;stroke-width:2.5;"/><path d="M133.125,407.9102 L133.125,441.6602 M116.875,417.9102 L149.375,417.9102 M133.125,441.6602 L116.875,460.4102 M133.125,441.6602 L149.375,460.4102 " fill="none" filter="url(#fem82rd0ttrnu)" style="stroke:#A80036;stroke-width:2.5;"/><rect fill="#FEFECE" filter="url(#fem82rd0ttrnu)" height="39.5117" style="stroke:#A80036;stroke-width:1.875;" width="85" x="384.375" y="66.25"/><text fill="#000000" font-family="sans-serif" font-size="17.5" lengthAdjust="spacing" textLength="67.5" x="393.125" y="93.1665">: System</text><rect fill="#FEFECE" filter="url(#fem82rd0ttrnu)" height="39.5117" style="stroke:#A80036;stroke-width:1.875;" width="85" x="384.375" y="363.3984"/><text fill="#000000" font-family="sans-serif" font-size="17.5" lengthAdjust="spacing" textLength="67.5" x="393.125" y="390.3149">: System</text><rect fill="#FFFFFF" filter="url(#fem82rd0ttrnu)" height="228.8867" style="stroke:#A80036;stroke-width:1.25;" width="12.5" x="126.875" y="124.5117"/><rect fill="#FFFFFF" filter="url(#fem82rd0ttrnu)" height="37.9395" style="stroke:#A80036;stroke-width:1.25;" width="12.5" x="423.125" y="152.4512"/><rect fill="#FFFFFF" filter="url(#fem82rd0ttrnu)" height="37.9395" style="stroke:#A80036;stroke-width:1.25;" width="12.5" x="423.125" y="228.3301"/><rect fill="#FFFFFF" filter="url(#fem82rd0ttrnu)" height="37.9395" style="stroke:#A80036;stroke-width:1.25;" width="12.5" x="423.125" y="304.209"/><polygon fill="#A80036" points="408.125,147.4512,420.625,152.4512,408.125,157.4512,413.125,152.4512" style="stroke:#A80036;stroke-width:1.25;"/><line style="stroke:#A80036;stroke-width:1.25;" x1="139.375" x2="415.625" y1="152.4512" y2="152.4512"/><text fill="#000000" font-family="sans-serif" font-size="16.25" font-weight="bold" lengthAdjust="spacing" textLength="8.75" x="148.125" y="146.3806">1</text><text fill="#000000" font-family="sans-serif" font-size="16.25" lengthAdjust="spacing" textLength="246.25" x="161.875" y="146.3806">asks to show all registered clients</text><polygon fill="#A80036" points="153.125,185.3906,140.625,190.3906,153.125,195.3906,148.125,190.3906" style="stroke:#A80036;stroke-width:1.25;"/><line style="stroke:#A80036;stroke-width:1.25;stroke-dasharray:2.0,2.0;" x1="145.625" x2="428.125" y1="190.3906" y2="190.3906"/><text fill="#000000" font-family="sans-serif" font-size="16.25" font-weight="bold" lengthAdjust="spacing" textLength="8.75" x="160.625" y="184.3201">2</text><text fill="#000000" font-family="sans-serif" font-size="16.25" lengthAdjust="spacing" textLength="120" x="174.375" y="184.3201">what is the order</text><polygon fill="#A80036" points="408.125,223.3301,420.625,228.3301,408.125,233.3301,413.125,228.3301" style="stroke:#A80036;stroke-width:1.25;"/><line style="stroke:#A80036;stroke-width:1.25;" x1="139.375" x2="415.625" y1="228.3301" y2="228.3301"/><text fill="#000000" font-family="sans-serif" font-size="16.25" font-weight="bold" lengthAdjust="spacing" textLength="8.75" x="148.125" y="222.2595">3</text><text fill="#000000" font-family="sans-serif" font-size="16.25" lengthAdjust="spacing" textLength="112.5" x="161.875" y="222.2595">select the order</text><polygon fill="#A80036" points="153.125,261.2695,140.625,266.2695,153.125,271.2695,148.125,266.2695" style="stroke:#A80036;stroke-width:1.25;"/><line style="stroke:#A80036;stroke-width:1.25;stroke-dasharray:2.0,2.0;" x1="145.625" x2="428.125" y1="266.2695" y2="266.2695"/><text fill="#000000" font-family="sans-serif" font-size="16.25" font-weight="bold" lengthAdjust="spacing" textLength="8.75" x="160.625" y="260.199">4</text><text fill="#000000" font-family="sans-serif" font-size="16.25" lengthAdjust="spacing" textLength="187.5" x="174.375" y="260.199">show all registered clients</text><polygon fill="#A80036" points="408.125,299.209,420.625,304.209,408.125,309.209,413.125,304.209" style="stroke:#A80036;stroke-width:1.25;"/><line style="stroke:#A80036;stroke-width:1.25;" x1="139.375" x2="415.625" y1="304.209" y2="304.209"/><text fill="#000000" font-family="sans-serif" font-size="16.25" font-weight="bold" lengthAdjust="spacing" textLength="8.75" x="148.125" y="298.1384">5</text><text fill="#000000" font-family="sans-serif" font-size="16.25" lengthAdjust="spacing" textLength="101.25" x="161.875" y="298.1384">select a client</text><polygon fill="#A80036" points="153.125,337.1484,140.625,342.1484,153.125,347.1484,148.125,342.1484" style="stroke:#A80036;stroke-width:1.25;"/><line style="stroke:#A80036;stroke-width:1.25;stroke-dasharray:2.0,2.0;" x1="145.625" x2="428.125" y1="342.1484" y2="342.1484"/><text fill="#000000" font-family="sans-serif" font-size="16.25" font-weight="bold" lengthAdjust="spacing" textLength="8.75" x="160.625" y="336.0779">6</text><text fill="#000000" font-family="sans-serif" font-size="16.25" lengthAdjust="spacing" textLength="135" x="174.375" y="336.0779">show client history</text><!--MD5=[c130f52e3f7bb1859e9a03e6a3ee3a79]
@startuml
autonumber
actor "Clinical Chemistry Technologist" as CCT

participant ": System" as S

activate CCT
CCT -> S : asks to show all registered clients
activate S
S - -> CCT : what is the order
deactivate S

CCT -> S : select the order
activate S
S - -> CCT : show all registered clients
deactivate S

CCT -> S : select a client
activate S
S - -> CCT : show client history
deactivate S


@enduml

PlantUML version 1.2021.5(Sun Apr 25 12:20:28 BST 2021)
(GPL source distribution)
Java Runtime: OpenJDK Runtime Environment
JVM: OpenJDK 64-Bit Server VM
Default Encoding: Cp1252
Language: pt
Country: PT
--></g></svg>