<?xml version="1.0" encoding="UTF-8" standalone="no"?><svg xmlns="http://www.w3.org/2000/svg" xmlns:xlink="http://www.w3.org/1999/xlink" contentScriptType="application/ecmascript" contentStyleType="text/css" height="916.25px" preserveAspectRatio="none" style="width:447px;height:916px;" version="1.1" viewBox="0 0 447 916" width="447.5px" zoomAndPan="magnify"><defs><filter height="300%" id="f14pjpb94uctfx" width="300%" x="-1" y="-1"><feGaussianBlur result="blurOut" stdDeviation="2.5"/><feColorMatrix in="blurOut" result="blurOut2" type="matrix" values="0 0 0 0 0 0 0 0 0 0 0 0 0 0 0 0 0 0 .4 0"/><feOffset dx="5.0" dy="5.0" in="blurOut2" result="blurOut3"/><feBlend in="SourceGraphic" in2="blurOut3" mode="normal"/></filter></defs><g><!--MD5=[012ee2a8bf3ae2b319009b06f951c2e5]
class ClinicalChemistryTechnologist--><rect codeLine="4" fill="#FEFECE" filter="url(#f14pjpb94uctfx)" height="60" id="ClinicalChemistryTechnologist" style="stroke:#A80036;stroke-width:1.875;" width="250" x="8.75" y="275"/><ellipse cx="27.5" cy="295" fill="#ADD1B2" rx="13.75" ry="13.75" style="stroke:#A80036;stroke-width:1.25;"/><path d="M30,290.625 Q30.2539,290 30.5469,289.6875 Q30.8398,289.375 31.1719,289.375 Q31.7578,289.375 32.1289,289.7266 Q32.5,290.0781 32.5,290.8984 L32.5,292.8516 Q32.5,293.6719 32.1484,294.0234 Q31.7969,294.375 31.25,294.375 Q30.7617,294.375 30.4492,294.1602 Q30.1367,293.9453 30,293.3789 Q29.9414,292.9883 29.7266,292.7734 Q29.3359,292.3633 28.6328,292.1289 Q27.9297,291.875 27.2266,291.875 Q26.3477,291.875 25.6055,292.2266 Q24.8828,292.5781 24.3164,293.3594 Q23.75,294.1406 23.75,295.2148 L23.75,296.3672 Q23.75,297.6563 24.8047,298.5156 Q25.8594,299.375 27.7344,299.375 Q28.8477,299.375 29.6289,299.1211 Q30.0781,298.9844 30.5859,298.5352 Q30.918,298.2813 31.0938,298.2031 Q31.2695,298.125 31.4844,298.125 Q31.8945,298.125 32.1875,298.457 Q32.5,298.7695 32.5,299.2188 Q32.5,299.6484 32.0703,300.1563 Q31.4453,300.8984 30.4492,301.3086 Q29.1406,301.875 27.5391,301.875 Q25.6641,301.875 24.1602,301.1328 Q22.9492,300.5469 22.0898,299.2773 Q21.25,298.0078 21.25,296.5039 L21.25,295.1367 Q21.25,293.5742 21.9922,292.207 Q22.7539,290.8398 24.0625,290.1172 Q25.3906,289.375 26.875,289.375 Q27.7734,289.375 28.5547,289.6875 Q29.3359,290 30,290.625 Z " fill="#000000"/><text fill="#000000" font-family="sans-serif" font-size="15" lengthAdjust="spacing" textLength="210" x="45" y="301.1377">ClinicalChemistryTechnologist</text><line style="stroke:#A80036;stroke-width:1.875;" x1="10" x2="257.5" y1="315" y2="315"/><line style="stroke:#A80036;stroke-width:1.875;" x1="10" x2="257.5" y1="325" y2="325"/><!--MD5=[7421f545a0d8420c5bec41e74b387d9c]
class Employee--><rect codeLine="7" fill="#FEFECE" filter="url(#f14pjpb94uctfx)" height="181.0645" id="Employee" style="stroke:#A80036;stroke-width:1.875;" width="121.25" x="143.125" y="8.75"/><ellipse cx="167.5" cy="28.75" fill="#ADD1B2" rx="13.75" ry="13.75" style="stroke:#A80036;stroke-width:1.25;"/><path d="M170,24.375 Q170.2539,23.75 170.5469,23.4375 Q170.8398,23.125 171.1719,23.125 Q171.7578,23.125 172.1289,23.4766 Q172.5,23.8281 172.5,24.6484 L172.5,26.6016 Q172.5,27.4219 172.1484,27.7734 Q171.7969,28.125 171.25,28.125 Q170.7617,28.125 170.4492,27.9102 Q170.1367,27.6953 170,27.1289 Q169.9414,26.7383 169.7266,26.5234 Q169.3359,26.1133 168.6328,25.8789 Q167.9297,25.625 167.2266,25.625 Q166.3477,25.625 165.6055,25.9766 Q164.8828,26.3281 164.3164,27.1094 Q163.75,27.8906 163.75,28.9648 L163.75,30.1172 Q163.75,31.4063 164.8047,32.2656 Q165.8594,33.125 167.7344,33.125 Q168.8477,33.125 169.6289,32.8711 Q170.0781,32.7344 170.5859,32.2852 Q170.918,32.0313 171.0938,31.9531 Q171.2695,31.875 171.4844,31.875 Q171.8945,31.875 172.1875,32.207 Q172.5,32.5195 172.5,32.9688 Q172.5,33.3984 172.0703,33.9063 Q171.4453,34.6484 170.4492,35.0586 Q169.1406,35.625 167.5391,35.625 Q165.6641,35.625 164.1602,34.8828 Q162.9492,34.2969 162.0898,33.0273 Q161.25,31.7578 161.25,30.2539 L161.25,28.8867 Q161.25,27.3242 161.9922,25.957 Q162.7539,24.5898 164.0625,23.8672 Q165.3906,23.125 166.875,23.125 Q167.7734,23.125 168.5547,23.4375 Q169.3359,23.75 170,24.375 Z " fill="#000000"/><text fill="#000000" font-family="sans-serif" font-size="15" lengthAdjust="spacing" textLength="68.75" x="186.25" y="34.8877">Employee</text><line style="stroke:#A80036;stroke-width:1.875;" x1="144.375" x2="263.125" y1="48.75" y2="48.75"/><text fill="#000000" font-family="sans-serif" font-size="13.75" lengthAdjust="spacing" textLength="33.75" x="150.625" y="68.0237">-int ID</text><text fill="#000000" font-family="sans-serif" font-size="13.75" lengthAdjust="spacing" textLength="66.25" x="150.625" y="85.3186">-String role</text><text fill="#000000" font-family="sans-serif" font-size="13.75" lengthAdjust="spacing" textLength="93.75" x="150.625" y="102.6135">-String address</text><text fill="#000000" font-family="sans-serif" font-size="13.75" lengthAdjust="spacing" textLength="76.25" x="150.625" y="119.9084">-String name</text><text fill="#000000" font-family="sans-serif" font-size="13.75" lengthAdjust="spacing" textLength="106.25" x="150.625" y="137.2034">-int phoneNumber</text><text fill="#000000" font-family="sans-serif" font-size="13.75" lengthAdjust="spacing" textLength="73.75" x="150.625" y="154.4983">-String email</text><text fill="#000000" font-family="sans-serif" font-size="13.75" lengthAdjust="spacing" textLength="76.25" x="150.625" y="171.7932">-int socCode</text><line style="stroke:#A80036;stroke-width:1.875;" x1="144.375" x2="263.125" y1="179.8145" y2="179.8145"/><!--MD5=[02e4b9b7573f1156f41e60aa5b4e25a4]
class Company--><rect codeLine="17" fill="#FEFECE" filter="url(#f14pjpb94uctfx)" height="77.2949" id="Company" style="stroke:#A80036;stroke-width:1.875;" width="127.5" x="302.5" y="266.25"/><ellipse cx="330.8125" cy="286.25" fill="#ADD1B2" rx="13.75" ry="13.75" style="stroke:#A80036;stroke-width:1.25;"/><path d="M333.3125,281.875 Q333.5664,281.25 333.8594,280.9375 Q334.1523,280.625 334.4844,280.625 Q335.0703,280.625 335.4414,280.9766 Q335.8125,281.3281 335.8125,282.1484 L335.8125,284.1016 Q335.8125,284.9219 335.4609,285.2734 Q335.1094,285.625 334.5625,285.625 Q334.0742,285.625 333.7617,285.4102 Q333.4492,285.1953 333.3125,284.6289 Q333.2539,284.2383 333.0391,284.0234 Q332.6484,283.6133 331.9453,283.3789 Q331.2422,283.125 330.5391,283.125 Q329.6602,283.125 328.918,283.4766 Q328.1953,283.8281 327.6289,284.6094 Q327.0625,285.3906 327.0625,286.4648 L327.0625,287.6172 Q327.0625,288.9063 328.1172,289.7656 Q329.1719,290.625 331.0469,290.625 Q332.1602,290.625 332.9414,290.3711 Q333.3906,290.2344 333.8984,289.7852 Q334.2305,289.5313 334.4063,289.4531 Q334.582,289.375 334.7969,289.375 Q335.207,289.375 335.5,289.707 Q335.8125,290.0195 335.8125,290.4688 Q335.8125,290.8984 335.3828,291.4063 Q334.7578,292.1484 333.7617,292.5586 Q332.4531,293.125 330.8516,293.125 Q328.9766,293.125 327.4727,292.3828 Q326.2617,291.7969 325.4023,290.5273 Q324.5625,289.2578 324.5625,287.7539 L324.5625,286.3867 Q324.5625,284.8242 325.3047,283.457 Q326.0664,282.0898 327.375,281.3672 Q328.7031,280.625 330.1875,280.625 Q331.0859,280.625 331.8672,280.9375 Q332.6484,281.25 333.3125,281.875 Z " fill="#000000"/><text fill="#000000" font-family="sans-serif" font-size="15" lengthAdjust="spacing" textLength="66.25" x="350.4375" y="292.3877">Company</text><line style="stroke:#A80036;stroke-width:1.875;" x1="303.75" x2="428.75" y1="306.25" y2="306.25"/><text fill="#000000" font-family="sans-serif" font-size="13.75" lengthAdjust="spacing" textLength="112.5" x="310" y="325.5237">-String designation</text><line style="stroke:#A80036;stroke-width:1.875;" x1="303.75" x2="428.75" y1="333.5449" y2="333.5449"/><!--MD5=[ed6624c6556d5e7b1bd23032162d20b7]
class Client--><rect codeLine="22" fill="#FEFECE" filter="url(#f14pjpb94uctfx)" height="94.5898" id="Client" style="stroke:#A80036;stroke-width:1.875;" width="113.75" x="309.375" y="420"/><ellipse cx="343.3125" cy="440" fill="#ADD1B2" rx="13.75" ry="13.75" style="stroke:#A80036;stroke-width:1.25;"/><path d="M345.8125,435.625 Q346.0664,435 346.3594,434.6875 Q346.6523,434.375 346.9844,434.375 Q347.5703,434.375 347.9414,434.7266 Q348.3125,435.0781 348.3125,435.8984 L348.3125,437.8516 Q348.3125,438.6719 347.9609,439.0234 Q347.6094,439.375 347.0625,439.375 Q346.5742,439.375 346.2617,439.1602 Q345.9492,438.9453 345.8125,438.3789 Q345.7539,437.9883 345.5391,437.7734 Q345.1484,437.3633 344.4453,437.1289 Q343.7422,436.875 343.0391,436.875 Q342.1602,436.875 341.418,437.2266 Q340.6953,437.5781 340.1289,438.3594 Q339.5625,439.1406 339.5625,440.2148 L339.5625,441.3672 Q339.5625,442.6563 340.6172,443.5156 Q341.6719,444.375 343.5469,444.375 Q344.6602,444.375 345.4414,444.1211 Q345.8906,443.9844 346.3984,443.5352 Q346.7305,443.2813 346.9063,443.2031 Q347.082,443.125 347.2969,443.125 Q347.707,443.125 348,443.457 Q348.3125,443.7695 348.3125,444.2188 Q348.3125,444.6484 347.8828,445.1563 Q347.2578,445.8984 346.2617,446.3086 Q344.9531,446.875 343.3516,446.875 Q341.4766,446.875 339.9727,446.1328 Q338.7617,445.5469 337.9023,444.2773 Q337.0625,443.0078 337.0625,441.5039 L337.0625,440.1367 Q337.0625,438.5742 337.8047,437.207 Q338.5664,435.8398 339.875,435.1172 Q341.2031,434.375 342.6875,434.375 Q343.5859,434.375 344.3672,434.6875 Q345.1484,435 345.8125,435.625 Z " fill="#000000"/><text fill="#000000" font-family="sans-serif" font-size="15" lengthAdjust="spacing" textLength="40" x="364.1875" y="446.1377">Client</text><line style="stroke:#A80036;stroke-width:1.875;" x1="310.625" x2="421.875" y1="460" y2="460"/><text fill="#000000" font-family="sans-serif" font-size="13.75" lengthAdjust="spacing" textLength="71.25" x="316.875" y="479.2737">String name</text><text fill="#000000" font-family="sans-serif" font-size="13.75" lengthAdjust="spacing" textLength="98.75" x="316.875" y="496.5686">String tinNumber</text><line style="stroke:#A80036;stroke-width:1.875;" x1="310.625" x2="421.875" y1="504.5898" y2="504.5898"/><!--MD5=[2741598bdf59a7d7e0d5c97658fd3022]
class Result--><rect codeLine="27" fill="#FEFECE" filter="url(#f14pjpb94uctfx)" height="60" id="Result" style="stroke:#A80036;stroke-width:1.875;" width="85" x="323.75" y="838.75"/><ellipse cx="342.5" cy="858.75" fill="#ADD1B2" rx="13.75" ry="13.75" style="stroke:#A80036;stroke-width:1.25;"/><path d="M345,854.375 Q345.2539,853.75 345.5469,853.4375 Q345.8398,853.125 346.1719,853.125 Q346.7578,853.125 347.1289,853.4766 Q347.5,853.8281 347.5,854.6484 L347.5,856.6016 Q347.5,857.4219 347.1484,857.7734 Q346.7969,858.125 346.25,858.125 Q345.7617,858.125 345.4492,857.9102 Q345.1367,857.6953 345,857.1289 Q344.9414,856.7383 344.7266,856.5234 Q344.3359,856.1133 343.6328,855.8789 Q342.9297,855.625 342.2266,855.625 Q341.3477,855.625 340.6055,855.9766 Q339.8828,856.3281 339.3164,857.1094 Q338.75,857.8906 338.75,858.9648 L338.75,860.1172 Q338.75,861.4063 339.8047,862.2656 Q340.8594,863.125 342.7344,863.125 Q343.8477,863.125 344.6289,862.8711 Q345.0781,862.7344 345.5859,862.2852 Q345.918,862.0313 346.0938,861.9531 Q346.2695,861.875 346.4844,861.875 Q346.8945,861.875 347.1875,862.207 Q347.5,862.5195 347.5,862.9688 Q347.5,863.3984 347.0703,863.9063 Q346.4453,864.6484 345.4492,865.0586 Q344.1406,865.625 342.5391,865.625 Q340.6641,865.625 339.1602,864.8828 Q337.9492,864.2969 337.0898,863.0273 Q336.25,861.7578 336.25,860.2539 L336.25,858.8867 Q336.25,857.3242 336.9922,855.957 Q337.7539,854.5898 339.0625,853.8672 Q340.3906,853.125 341.875,853.125 Q342.7734,853.125 343.5547,853.4375 Q344.3359,853.75 345,854.375 Z " fill="#000000"/><text fill="#000000" font-family="sans-serif" font-size="15" lengthAdjust="spacing" textLength="45" x="360" y="864.8877">Result</text><line style="stroke:#A80036;stroke-width:1.875;" x1="325" x2="407.5" y1="878.75" y2="878.75"/><line style="stroke:#A80036;stroke-width:1.875;" x1="325" x2="407.5" y1="888.75" y2="888.75"/><!--MD5=[df38be88ccee13e832d6fafd6288a4ca]
class Test--><rect codeLine="30" fill="#FEFECE" filter="url(#f14pjpb94uctfx)" height="129.1797" id="Test" style="stroke:#A80036;stroke-width:1.875;" width="128.75" x="301.875" y="612.5"/><ellipse cx="347.0625" cy="632.5" fill="#ADD1B2" rx="13.75" ry="13.75" style="stroke:#A80036;stroke-width:1.25;"/><path d="M349.5625,628.125 Q349.8164,627.5 350.1094,627.1875 Q350.4023,626.875 350.7344,626.875 Q351.3203,626.875 351.6914,627.2266 Q352.0625,627.5781 352.0625,628.3984 L352.0625,630.3516 Q352.0625,631.1719 351.7109,631.5234 Q351.3594,631.875 350.8125,631.875 Q350.3242,631.875 350.0117,631.6602 Q349.6992,631.4453 349.5625,630.8789 Q349.5039,630.4883 349.2891,630.2734 Q348.8984,629.8633 348.1953,629.6289 Q347.4922,629.375 346.7891,629.375 Q345.9102,629.375 345.168,629.7266 Q344.4453,630.0781 343.8789,630.8594 Q343.3125,631.6406 343.3125,632.7148 L343.3125,633.8672 Q343.3125,635.1563 344.3672,636.0156 Q345.4219,636.875 347.2969,636.875 Q348.4102,636.875 349.1914,636.6211 Q349.6406,636.4844 350.1484,636.0352 Q350.4805,635.7813 350.6563,635.7031 Q350.832,635.625 351.0469,635.625 Q351.457,635.625 351.75,635.957 Q352.0625,636.2695 352.0625,636.7188 Q352.0625,637.1484 351.6328,637.6563 Q351.0078,638.3984 350.0117,638.8086 Q348.7031,639.375 347.1016,639.375 Q345.2266,639.375 343.7227,638.6328 Q342.5117,638.0469 341.6523,636.7773 Q340.8125,635.5078 340.8125,634.0039 L340.8125,632.6367 Q340.8125,631.0742 341.5547,629.707 Q342.3164,628.3398 343.625,627.6172 Q344.9531,626.875 346.4375,626.875 Q347.3359,626.875 348.1172,627.1875 Q348.8984,627.5 349.5625,628.125 Z " fill="#000000"/><text fill="#000000" font-family="sans-serif" font-size="15" lengthAdjust="spacing" textLength="30" x="370.4375" y="638.6377">Test</text><line style="stroke:#A80036;stroke-width:1.875;" x1="303.125" x2="429.375" y1="652.5" y2="652.5"/><text fill="#000000" font-family="sans-serif" font-size="13.75" lengthAdjust="spacing" textLength="113.75" x="309.375" y="671.7737">String clientTinNum</text><text fill="#000000" font-family="sans-serif" font-size="13.75" lengthAdjust="spacing" textLength="35" x="309.375" y="689.0686">-code</text><text fill="#000000" font-family="sans-serif" font-size="13.75" lengthAdjust="spacing" textLength="60" x="309.375" y="706.3635">-NhsCode</text><text fill="#000000" font-family="sans-serif" font-size="13.75" lengthAdjust="spacing" textLength="65" x="309.375" y="723.6584">-createdAt</text><line style="stroke:#A80036;stroke-width:1.875;" x1="303.125" x2="429.375" y1="731.6797" y2="731.6797"/><!--MD5=[4c7c52c4bf7e982cdae6fb6daeda4b43]
reverse link Employee to ClinicalChemistryTechnologist--><path codeLine="37" d="M164.5875,214.275 C156.85,236.7125 149.4,258.35 143.75,274.725 " fill="none" id="Employee-backto-ClinicalChemistryTechnologist" style="stroke:#A80036;stroke-width:1.25;"/><polygon fill="none" points="156.425,211.1,172.8375,190.3125,172.975,216.8,156.425,211.1" style="stroke:#A80036;stroke-width:1.25;"/><!--MD5=[a21ac01aea57359108bf2640b980fc27]
reverse link Employee to Company--><path codeLine="38" d="M268.7375,181.85 C291.9625,210.8875 317.0375,242.2375 335.9375,265.8625 " fill="none" id="Employee-backto-Company" style="stroke:#A80036;stroke-width:1.25;"/><polygon fill="#A80036" points="264.725,176.8375,267.8432,188.7471,268.6272,181.7197,275.6546,182.5037,264.725,176.8375" style="stroke:#A80036;stroke-width:1.25;"/><text fill="#000000" font-family="sans-serif" font-size="16.25" lengthAdjust="spacing" textLength="8.75" x="274.3233" y="183.6608">1</text><text fill="#000000" font-family="sans-serif" font-size="16.25" lengthAdjust="spacing" textLength="25" x="302.1074" y="252.6633">1..*</text><!--MD5=[6eee883fdf517d3604e8bd0f2058e9aa]
link Company to Client--><path codeLine="39" d="M366.25,343.7625 C366.25,364.5375 366.25,390.6875 366.25,413.4875 " fill="none" id="Company-to-Client" style="stroke:#A80036;stroke-width:1.25;"/><polygon fill="#A80036" points="366.25,419.8125,371.25,408.5625,366.25,413.5625,361.25,408.5625,366.25,419.8125" style="stroke:#A80036;stroke-width:1.25;"/><text fill="#000000" font-family="sans-serif" font-size="16.25" lengthAdjust="spacing" textLength="25" x="338.7891" y="370.295">1..*</text><text fill="#000000" font-family="sans-serif" font-size="16.25" lengthAdjust="spacing" textLength="25" x="339.0234" y="406.4815">1..*</text><!--MD5=[9163865a413f55935f47e026f9eaa033]
link Test to Result--><path codeLine="40" d="M366.25,741.7125 C366.25,774.375 366.25,812.6 366.25,838.2625 " fill="none" id="Test-Result" style="stroke:#A80036;stroke-width:1.25;"/><text fill="#000000" font-family="sans-serif" font-size="16.25" lengthAdjust="spacing" textLength="26.25" x="367.5" y="796.8689">has</text><text fill="#000000" font-family="sans-serif" font-size="16.25" lengthAdjust="spacing" textLength="8.75" x="356.9121" y="768.6383">1</text><text fill="#000000" font-family="sans-serif" font-size="16.25" lengthAdjust="spacing" textLength="8.75" x="356.4336" y="825.3161">1</text><!--MD5=[502b51bc079239060389dab43b7d3470]
link Client to Test--><path codeLine="41" d="M366.25,515.175 C366.25,543.8875 366.25,581.1125 366.25,612.4875 " fill="none" id="Client-Test" style="stroke:#A80036;stroke-width:1.25;"/><text fill="#000000" font-family="sans-serif" font-size="16.25" lengthAdjust="spacing" textLength="62.5" x="367.5" y="570.6189">performs</text><text fill="#000000" font-family="sans-serif" font-size="16.25" lengthAdjust="spacing" textLength="25" x="339.2578" y="541.3036">1..*</text><text fill="#000000" font-family="sans-serif" font-size="16.25" lengthAdjust="spacing" textLength="25" x="339.4922" y="598.8963">1..*</text><!--MD5=[dc02c84a2a2a6a389359b687d26b3a48]
@startuml

skinparam classAttributeIconSize 0

class ClinicalChemistryTechnologist{
}

class Employee{
- int ID
- String role
- String address
- String name
- int phoneNumber
- String email
- int socCode
}

class Company{
- String designation
}


class Client{
String name
String tinNumber
}

class Result{
}

class Test{
String clientTinNum
- code
- NhsCode
- createdAt
}

Employee <|- -  ClinicalChemistryTechnologist
Employee "1" <- - "1..*" Company
Company "1..*" - -> "1..*" Client
Test "1" - - "1" Result : has
Client "1..*" - - "1..*" Test : performs



@enduml

PlantUML version 1.2021.5(Sun Apr 25 12:20:28 BST 2021)
(GPL source distribution)
Java Runtime: OpenJDK Runtime Environment
JVM: OpenJDK 64-Bit Server VM
Default Encoding: Cp1252
Language: pt
Country: PT
--></g></svg>