<?xml version="1.0" encoding="UTF-8" standalone="no"?><svg xmlns="http://www.w3.org/2000/svg" xmlns:xlink="http://www.w3.org/1999/xlink" contentScriptType="application/ecmascript" contentStyleType="text/css" height="1533px" preserveAspectRatio="none" style="width:1705px;height:1533px;" version="1.1" viewBox="0 0 1705 1533" width="1705px" zoomAndPan="magnify"><defs><filter height="300%" id="f1tb6yi027yz3m" width="300%" x="-1" y="-1"><feGaussianBlur result="blurOut" stdDeviation="2.0"/><feColorMatrix in="blurOut" result="blurOut2" type="matrix" values="0 0 0 0 0 0 0 0 0 0 0 0 0 0 0 0 0 0 .4 0"/><feOffset dx="4.0" dy="4.0" in="blurOut2" result="blurOut3"/><feBlend in="SourceGraphic" in2="blurOut3" mode="normal"/></filter></defs><g><!--MD5=[86c7c362de55a38b660185a1328fe18d]
class Organization--><rect codeLine="7" fill="#FEFECE" filter="url(#f1tb6yi027yz3m)" height="40" id="Organization" style="stroke:#A80036;stroke-width:1.5;" width="108" x="7" y="896.5659"/><ellipse cx="22" cy="912.5659" fill="#ADD1B2" rx="11" ry="11" style="stroke:#A80036;stroke-width:1.0;"/><path d="M24.3438,908.2378 C23.4063,907.8003 22.8125,907.6597 21.9375,907.6597 C19.3125,907.6597 17.3125,909.7378 17.3125,912.4565 L17.3125,913.5815 C17.3125,916.1597 19.4219,918.0503 22.3125,918.0503 C23.5313,918.0503 24.6875,917.7534 25.4375,917.2065 C26.0156,916.8003 26.3438,916.3472 26.3438,915.9565 C26.3438,915.5034 25.9531,915.1128 25.4844,915.1128 C25.2656,915.1128 25.0625,915.1909 24.875,915.3784 C24.4219,915.8628 24.4219,915.8628 24.2344,915.9565 C23.8125,916.2222 23.125,916.3472 22.3594,916.3472 C20.3125,916.3472 19.0156,915.2534 19.0156,913.5503 L19.0156,912.4565 C19.0156,910.6753 20.2656,909.3628 22,909.3628 C22.5781,909.3628 23.1875,909.519 23.6563,909.769 C24.1406,910.0503 24.3125,910.269 24.4063,910.6753 C24.4688,911.0815 24.5,911.2065 24.6406,911.3315 C24.7813,911.4722 25.0156,911.5815 25.2344,911.5815 C25.5,911.5815 25.7656,911.4409 25.9375,911.2222 C26.0469,911.0659 26.0781,910.8784 26.0781,910.4565 L26.0781,909.0347 C26.0781,908.5972 26.0625,908.4722 25.9688,908.3159 C25.8125,908.0503 25.5313,907.9097 25.2344,907.9097 C24.9375,907.9097 24.7344,908.0034 24.5156,908.3159 L24.3438,908.2378 Z " fill="#000000"/><text fill="#000000" font-family="sans-serif" font-size="12" lengthAdjust="spacing" textLength="76" x="36" y="916.7202">Organization</text><line style="stroke:#A80036;stroke-width:1.5;" x1="8" x2="114" y1="928.5659" y2="928.5659"/><!--MD5=[28d9d7ef96b34fdc6ab3814c5cef79ce]
class ClinicalAnalysisLab--><rect codeLine="14" fill="#FEFECE" filter="url(#f1tb6yi027yz3m)" height="104.0234" id="ClinicalAnalysisLab" style="stroke:#A80036;stroke-width:1.5;" width="143" x="219" y="544.5659"/><ellipse cx="234" cy="560.5659" fill="#ADD1B2" rx="11" ry="11" style="stroke:#A80036;stroke-width:1.0;"/><path d="M236.3438,556.2378 C235.4063,555.8003 234.8125,555.6597 233.9375,555.6597 C231.3125,555.6597 229.3125,557.7378 229.3125,560.4565 L229.3125,561.5815 C229.3125,564.1597 231.4219,566.0503 234.3125,566.0503 C235.5313,566.0503 236.6875,565.7534 237.4375,565.2065 C238.0156,564.8003 238.3438,564.3472 238.3438,563.9565 C238.3438,563.5034 237.9531,563.1128 237.4844,563.1128 C237.2656,563.1128 237.0625,563.1909 236.875,563.3784 C236.4219,563.8628 236.4219,563.8628 236.2344,563.9565 C235.8125,564.2222 235.125,564.3472 234.3594,564.3472 C232.3125,564.3472 231.0156,563.2534 231.0156,561.5503 L231.0156,560.4565 C231.0156,558.6753 232.2656,557.3628 234,557.3628 C234.5781,557.3628 235.1875,557.519 235.6563,557.769 C236.1406,558.0503 236.3125,558.269 236.4063,558.6753 C236.4688,559.0815 236.5,559.2065 236.6406,559.3315 C236.7813,559.4722 237.0156,559.5815 237.2344,559.5815 C237.5,559.5815 237.7656,559.4409 237.9375,559.2222 C238.0469,559.0659 238.0781,558.8784 238.0781,558.4565 L238.0781,557.0347 C238.0781,556.5972 238.0625,556.4722 237.9688,556.3159 C237.8125,556.0503 237.5313,555.9097 237.2344,555.9097 C236.9375,555.9097 236.7344,556.0034 236.5156,556.3159 L236.3438,556.2378 Z " fill="#000000"/><text fill="#000000" font-family="sans-serif" font-size="12" lengthAdjust="spacing" textLength="111" x="248" y="564.7202">ClinicalAnalysisLab</text><line style="stroke:#A80036;stroke-width:1.5;" x1="220" x2="361" y1="576.5659" y2="576.5659"/><text fill="#000000" font-family="sans-serif" font-size="11" lengthAdjust="spacing" textLength="32" x="225" y="590.7764">-int id</text><text fill="#000000" font-family="sans-serif" font-size="11" lengthAdjust="spacing" textLength="74" x="225" y="603.5811">-String name</text><text fill="#000000" font-family="sans-serif" font-size="11" lengthAdjust="spacing" textLength="85" x="225" y="616.3857">-String location</text><text fill="#000000" font-family="sans-serif" font-size="11" lengthAdjust="spacing" textLength="103" x="225" y="629.1904">-int phoneNumber</text><text fill="#000000" font-family="sans-serif" font-size="11" lengthAdjust="spacing" textLength="84" x="225" y="641.9951">-int TINnumber</text><!--MD5=[c0965b0a4a9b8d5588b97b1dc4cd2510]
class ClinicalAnalysis--><rect codeLine="25" fill="#FEFECE" filter="url(#f1tb6yi027yz3m)" height="104.0234" id="ClinicalAnalysis" style="stroke:#A80036;stroke-width:1.5;" width="131" x="1361" y="54.5659"/><ellipse cx="1380.05" cy="70.5659" fill="#ADD1B2" rx="11" ry="11" style="stroke:#A80036;stroke-width:1.0;"/><path d="M1382.3938,66.2378 C1381.4563,65.8003 1380.8625,65.6597 1379.9875,65.6597 C1377.3625,65.6597 1375.3625,67.7378 1375.3625,70.4565 L1375.3625,71.5815 C1375.3625,74.1597 1377.4719,76.0503 1380.3625,76.0503 C1381.5813,76.0503 1382.7375,75.7534 1383.4875,75.2065 C1384.0656,74.8003 1384.3938,74.3472 1384.3938,73.9565 C1384.3938,73.5034 1384.0031,73.1128 1383.5344,73.1128 C1383.3156,73.1128 1383.1125,73.1909 1382.925,73.3784 C1382.4719,73.8628 1382.4719,73.8628 1382.2844,73.9565 C1381.8625,74.2222 1381.175,74.3472 1380.4094,74.3472 C1378.3625,74.3472 1377.0656,73.2534 1377.0656,71.5503 L1377.0656,70.4565 C1377.0656,68.6753 1378.3156,67.3628 1380.05,67.3628 C1380.6281,67.3628 1381.2375,67.519 1381.7063,67.769 C1382.1906,68.0503 1382.3625,68.269 1382.4563,68.6753 C1382.5188,69.0815 1382.55,69.2065 1382.6906,69.3315 C1382.8313,69.4722 1383.0656,69.5815 1383.2844,69.5815 C1383.55,69.5815 1383.8156,69.4409 1383.9875,69.2222 C1384.0969,69.0659 1384.1281,68.8784 1384.1281,68.4565 L1384.1281,67.0347 C1384.1281,66.5972 1384.1125,66.4722 1384.0188,66.3159 C1383.8625,66.0503 1383.5813,65.9097 1383.2844,65.9097 C1382.9875,65.9097 1382.7844,66.0034 1382.5656,66.3159 L1382.3938,66.2378 Z " fill="#000000"/><text fill="#000000" font-family="sans-serif" font-size="12" lengthAdjust="spacing" textLength="90" x="1394.95" y="74.7202">ClinicalAnalysis</text><line style="stroke:#A80036;stroke-width:1.5;" x1="1362" x2="1491" y1="86.5659" y2="86.5659"/><text fill="#000000" font-family="sans-serif" font-size="11" lengthAdjust="spacing" textLength="95" x="1367" y="100.7764">-int internalCode</text><text fill="#000000" font-family="sans-serif" font-size="11" lengthAdjust="spacing" textLength="74" x="1367" y="113.5811">-int NHScode</text><text fill="#000000" font-family="sans-serif" font-size="11" lengthAdjust="spacing" textLength="85" x="1367" y="126.3857">-String method</text><text fill="#000000" font-family="sans-serif" font-size="11" lengthAdjust="spacing" textLength="119" x="1367" y="139.1904">-Date validationDate</text><text fill="#000000" font-family="sans-serif" font-size="11" lengthAdjust="spacing" textLength="115" x="1367" y="151.9951">-Hour validationHour</text><!--MD5=[a8cdb1e9a553f5119d5d6ee12fd8c3d3]
class ChemicalLab--><rect codeLine="35" fill="#FEFECE" filter="url(#f1tb6yi027yz3m)" height="91.2188" id="ChemicalLab" style="stroke:#A80036;stroke-width:1.5;" width="155" x="213" y="1383.0659"/><ellipse cx="249.6" cy="1399.0659" fill="#ADD1B2" rx="11" ry="11" style="stroke:#A80036;stroke-width:1.0;"/><path d="M251.9438,1394.7378 C251.0063,1394.3003 250.4125,1394.1597 249.5375,1394.1597 C246.9125,1394.1597 244.9125,1396.2378 244.9125,1398.9565 L244.9125,1400.0815 C244.9125,1402.6597 247.0219,1404.5503 249.9125,1404.5503 C251.1313,1404.5503 252.2875,1404.2534 253.0375,1403.7065 C253.6156,1403.3003 253.9438,1402.8472 253.9438,1402.4565 C253.9438,1402.0034 253.5531,1401.6128 253.0844,1401.6128 C252.8656,1401.6128 252.6625,1401.6909 252.475,1401.8784 C252.0219,1402.3628 252.0219,1402.3628 251.8344,1402.4565 C251.4125,1402.7222 250.725,1402.8472 249.9594,1402.8472 C247.9125,1402.8472 246.6156,1401.7534 246.6156,1400.0503 L246.6156,1398.9565 C246.6156,1397.1753 247.8656,1395.8628 249.6,1395.8628 C250.1781,1395.8628 250.7875,1396.019 251.2563,1396.269 C251.7406,1396.5503 251.9125,1396.769 252.0063,1397.1753 C252.0688,1397.5815 252.1,1397.7065 252.2406,1397.8315 C252.3813,1397.9722 252.6156,1398.0815 252.8344,1398.0815 C253.1,1398.0815 253.3656,1397.9409 253.5375,1397.7222 C253.6469,1397.5659 253.6781,1397.3784 253.6781,1396.9565 L253.6781,1395.5347 C253.6781,1395.0972 253.6625,1394.9722 253.5688,1394.8159 C253.4125,1394.5503 253.1313,1394.4097 252.8344,1394.4097 C252.5375,1394.4097 252.3344,1394.5034 252.1156,1394.8159 L251.9438,1394.7378 Z " fill="#000000"/><text fill="#000000" font-family="sans-serif" font-size="12" lengthAdjust="spacing" textLength="75" x="268.4" y="1403.2202">ChemicalLab</text><line style="stroke:#A80036;stroke-width:1.5;" x1="214" x2="367" y1="1415.0659" y2="1415.0659"/><text fill="#000000" font-family="sans-serif" font-size="11" lengthAdjust="spacing" textLength="74" x="219" y="1429.2764">-String name</text><text fill="#000000" font-family="sans-serif" font-size="11" lengthAdjust="spacing" textLength="103" x="219" y="1442.0811">-int phoneNumber</text><text fill="#000000" font-family="sans-serif" font-size="11" lengthAdjust="spacing" textLength="97" x="219" y="1454.8857">-int teamNumber</text><text fill="#000000" font-family="sans-serif" font-size="11" lengthAdjust="spacing" textLength="143" x="219" y="1467.6904">-int numberPositivResults</text><!--MD5=[a05769ccb6ff68467d0f03d44782bb8a]
class ChemicalAnalysis--><rect codeLine="44" fill="#FEFECE" filter="url(#f1tb6yi027yz3m)" height="78.4141" id="ChemicalAnalysis" style="stroke:#A80036;stroke-width:1.5;" width="135" x="803.5" y="1331.5659"/><ellipse cx="818.5" cy="1347.5659" fill="#ADD1B2" rx="11" ry="11" style="stroke:#A80036;stroke-width:1.0;"/><path d="M820.8438,1343.2378 C819.9063,1342.8003 819.3125,1342.6597 818.4375,1342.6597 C815.8125,1342.6597 813.8125,1344.7378 813.8125,1347.4565 L813.8125,1348.5815 C813.8125,1351.1597 815.9219,1353.0503 818.8125,1353.0503 C820.0313,1353.0503 821.1875,1352.7534 821.9375,1352.2065 C822.5156,1351.8003 822.8438,1351.3472 822.8438,1350.9565 C822.8438,1350.5034 822.4531,1350.1128 821.9844,1350.1128 C821.7656,1350.1128 821.5625,1350.1909 821.375,1350.3784 C820.9219,1350.8628 820.9219,1350.8628 820.7344,1350.9565 C820.3125,1351.2222 819.625,1351.3472 818.8594,1351.3472 C816.8125,1351.3472 815.5156,1350.2534 815.5156,1348.5503 L815.5156,1347.4565 C815.5156,1345.6753 816.7656,1344.3628 818.5,1344.3628 C819.0781,1344.3628 819.6875,1344.519 820.1563,1344.769 C820.6406,1345.0503 820.8125,1345.269 820.9063,1345.6753 C820.9688,1346.0815 821,1346.2065 821.1406,1346.3315 C821.2813,1346.4722 821.5156,1346.5815 821.7344,1346.5815 C822,1346.5815 822.2656,1346.4409 822.4375,1346.2222 C822.5469,1346.0659 822.5781,1345.8784 822.5781,1345.4565 L822.5781,1344.0347 C822.5781,1343.5972 822.5625,1343.4722 822.4688,1343.3159 C822.3125,1343.0503 822.0313,1342.9097 821.7344,1342.9097 C821.4375,1342.9097 821.2344,1343.0034 821.0156,1343.3159 L820.8438,1343.2378 Z " fill="#000000"/><text fill="#000000" font-family="sans-serif" font-size="12" lengthAdjust="spacing" textLength="103" x="832.5" y="1351.7202">ChemicalAnalysis</text><line style="stroke:#A80036;stroke-width:1.5;" x1="804.5" x2="937.5" y1="1363.5659" y2="1363.5659"/><text fill="#000000" font-family="sans-serif" font-size="11" lengthAdjust="spacing" textLength="115" x="809.5" y="1377.7764">-Date dateChemical</text><text fill="#000000" font-family="sans-serif" font-size="11" lengthAdjust="spacing" textLength="112" x="809.5" y="1390.5811">-Hour hourChemical</text><text fill="#000000" font-family="sans-serif" font-size="11" lengthAdjust="spacing" textLength="120" x="809.5" y="1403.3857">-Date hourDiagnostic</text><!--MD5=[76b5e19c9337179d2d7ae334371d68c8]
class Notification--><rect codeLine="50" fill="#FEFECE" filter="url(#f1tb6yi027yz3m)" height="52.8047" id="Notification" style="stroke:#A80036;stroke-width:1.5;" width="106" x="1107" y="702.0659"/><ellipse cx="1125.6" cy="718.0659" fill="#ADD1B2" rx="11" ry="11" style="stroke:#A80036;stroke-width:1.0;"/><path d="M1127.9438,713.7378 C1127.0063,713.3003 1126.4125,713.1597 1125.5375,713.1597 C1122.9125,713.1597 1120.9125,715.2378 1120.9125,717.9565 L1120.9125,719.0815 C1120.9125,721.6597 1123.0219,723.5503 1125.9125,723.5503 C1127.1313,723.5503 1128.2875,723.2534 1129.0375,722.7065 C1129.6156,722.3003 1129.9438,721.8472 1129.9438,721.4565 C1129.9438,721.0034 1129.5531,720.6128 1129.0844,720.6128 C1128.8656,720.6128 1128.6625,720.6909 1128.475,720.8784 C1128.0219,721.3628 1128.0219,721.3628 1127.8344,721.4565 C1127.4125,721.7222 1126.725,721.8472 1125.9594,721.8472 C1123.9125,721.8472 1122.6156,720.7534 1122.6156,719.0503 L1122.6156,717.9565 C1122.6156,716.1753 1123.8656,714.8628 1125.6,714.8628 C1126.1781,714.8628 1126.7875,715.019 1127.2563,715.269 C1127.7406,715.5503 1127.9125,715.769 1128.0063,716.1753 C1128.0688,716.5815 1128.1,716.7065 1128.2406,716.8315 C1128.3813,716.9722 1128.6156,717.0815 1128.8344,717.0815 C1129.1,717.0815 1129.3656,716.9409 1129.5375,716.7222 C1129.6469,716.5659 1129.6781,716.3784 1129.6781,715.9565 L1129.6781,714.5347 C1129.6781,714.0972 1129.6625,713.9722 1129.5688,713.8159 C1129.4125,713.5503 1129.1313,713.4097 1128.8344,713.4097 C1128.5375,713.4097 1128.3344,713.5034 1128.1156,713.8159 L1127.9438,713.7378 Z " fill="#000000"/><text fill="#000000" font-family="sans-serif" font-size="12" lengthAdjust="spacing" textLength="66" x="1140.4" y="722.2202">Notification</text><line style="stroke:#A80036;stroke-width:1.5;" x1="1108" x2="1212" y1="734.0659" y2="734.0659"/><text fill="#000000" font-family="sans-serif" font-size="11" lengthAdjust="spacing" textLength="94" x="1113" y="748.2764">-String message</text><!--MD5=[71a6289ef8058e80be215d299e5db1be]
class BloodAnalysis--><rect codeLine="56" fill="#FEFECE" filter="url(#f1tb6yi027yz3m)" height="78.4141" id="BloodAnalysis" style="stroke:#A80036;stroke-width:1.5;" width="116" x="1368.5" y="193.5659"/><ellipse cx="1383.5" cy="209.5659" fill="#ADD1B2" rx="11" ry="11" style="stroke:#A80036;stroke-width:1.0;"/><path d="M1385.8438,205.2378 C1384.9063,204.8003 1384.3125,204.6597 1383.4375,204.6597 C1380.8125,204.6597 1378.8125,206.7378 1378.8125,209.4565 L1378.8125,210.5815 C1378.8125,213.1597 1380.9219,215.0503 1383.8125,215.0503 C1385.0313,215.0503 1386.1875,214.7534 1386.9375,214.2065 C1387.5156,213.8003 1387.8438,213.3472 1387.8438,212.9565 C1387.8438,212.5034 1387.4531,212.1128 1386.9844,212.1128 C1386.7656,212.1128 1386.5625,212.1909 1386.375,212.3784 C1385.9219,212.8628 1385.9219,212.8628 1385.7344,212.9565 C1385.3125,213.2222 1384.625,213.3472 1383.8594,213.3472 C1381.8125,213.3472 1380.5156,212.2534 1380.5156,210.5503 L1380.5156,209.4565 C1380.5156,207.6753 1381.7656,206.3628 1383.5,206.3628 C1384.0781,206.3628 1384.6875,206.519 1385.1563,206.769 C1385.6406,207.0503 1385.8125,207.269 1385.9063,207.6753 C1385.9688,208.0815 1386,208.2065 1386.1406,208.3315 C1386.2813,208.4722 1386.5156,208.5815 1386.7344,208.5815 C1387,208.5815 1387.2656,208.4409 1387.4375,208.2222 C1387.5469,208.0659 1387.5781,207.8784 1387.5781,207.4565 L1387.5781,206.0347 C1387.5781,205.5972 1387.5625,205.4722 1387.4688,205.3159 C1387.3125,205.0503 1387.0313,204.9097 1386.7344,204.9097 C1386.4375,204.9097 1386.2344,205.0034 1386.0156,205.3159 L1385.8438,205.2378 Z " fill="#000000"/><text fill="#000000" font-family="sans-serif" font-size="12" lengthAdjust="spacing" textLength="84" x="1397.5" y="213.7202">BloodAnalysis</text><line style="stroke:#A80036;stroke-width:1.5;" x1="1369.5" x2="1483.5" y1="225.5659" y2="225.5659"/><text fill="#000000" font-family="sans-serif" font-size="11" lengthAdjust="spacing" textLength="89" x="1374.5" y="239.7764">-int numberRBC</text><text fill="#000000" font-family="sans-serif" font-size="11" lengthAdjust="spacing" textLength="93" x="1374.5" y="252.5811">-int numberWBC</text><text fill="#000000" font-family="sans-serif" font-size="11" lengthAdjust="spacing" textLength="85" x="1374.5" y="265.3857">-int numberPLT</text><!--MD5=[5c21708e279ec6fdb925c03544a86352]
class CovidTest--><rect codeLine="65" fill="#FEFECE" filter="url(#f1tb6yi027yz3m)" height="40" id="CovidTest" style="stroke:#A80036;stroke-width:1.5;" width="92" x="1380.5" y="306.5659"/><ellipse cx="1395.5" cy="322.5659" fill="#ADD1B2" rx="11" ry="11" style="stroke:#A80036;stroke-width:1.0;"/><path d="M1397.8438,318.2378 C1396.9063,317.8003 1396.3125,317.6597 1395.4375,317.6597 C1392.8125,317.6597 1390.8125,319.7378 1390.8125,322.4565 L1390.8125,323.5815 C1390.8125,326.1597 1392.9219,328.0503 1395.8125,328.0503 C1397.0313,328.0503 1398.1875,327.7534 1398.9375,327.2065 C1399.5156,326.8003 1399.8438,326.3472 1399.8438,325.9565 C1399.8438,325.5034 1399.4531,325.1128 1398.9844,325.1128 C1398.7656,325.1128 1398.5625,325.1909 1398.375,325.3784 C1397.9219,325.8628 1397.9219,325.8628 1397.7344,325.9565 C1397.3125,326.2222 1396.625,326.3472 1395.8594,326.3472 C1393.8125,326.3472 1392.5156,325.2534 1392.5156,323.5503 L1392.5156,322.4565 C1392.5156,320.6753 1393.7656,319.3628 1395.5,319.3628 C1396.0781,319.3628 1396.6875,319.519 1397.1563,319.769 C1397.6406,320.0503 1397.8125,320.269 1397.9063,320.6753 C1397.9688,321.0815 1398,321.2065 1398.1406,321.3315 C1398.2813,321.4722 1398.5156,321.5815 1398.7344,321.5815 C1399,321.5815 1399.2656,321.4409 1399.4375,321.2222 C1399.5469,321.0659 1399.5781,320.8784 1399.5781,320.4565 L1399.5781,319.0347 C1399.5781,318.5972 1399.5625,318.4722 1399.4688,318.3159 C1399.3125,318.0503 1399.0313,317.9097 1398.7344,317.9097 C1398.4375,317.9097 1398.2344,318.0034 1398.0156,318.3159 L1397.8438,318.2378 Z " fill="#000000"/><text fill="#000000" font-family="sans-serif" font-size="12" lengthAdjust="spacing" textLength="60" x="1409.5" y="326.7202">CovidTest</text><line style="stroke:#A80036;stroke-width:1.5;" x1="1381.5" x2="1471.5" y1="338.5659" y2="338.5659"/><!--MD5=[9681492165142af2a4a3a169d90ee8d4]
class Sample--><rect codeLine="73" fill="#FEFECE" filter="url(#f1tb6yi027yz3m)" height="52.8047" id="Sample" style="stroke:#A80036;stroke-width:1.5;" width="80" x="1120" y="470.0659"/><ellipse cx="1136.35" cy="486.0659" fill="#ADD1B2" rx="11" ry="11" style="stroke:#A80036;stroke-width:1.0;"/><path d="M1138.6938,481.7378 C1137.7563,481.3003 1137.1625,481.1597 1136.2875,481.1597 C1133.6625,481.1597 1131.6625,483.2378 1131.6625,485.9565 L1131.6625,487.0815 C1131.6625,489.6597 1133.7719,491.5503 1136.6625,491.5503 C1137.8813,491.5503 1139.0375,491.2534 1139.7875,490.7065 C1140.3656,490.3003 1140.6938,489.8472 1140.6938,489.4565 C1140.6938,489.0034 1140.3031,488.6128 1139.8344,488.6128 C1139.6156,488.6128 1139.4125,488.6909 1139.225,488.8784 C1138.7719,489.3628 1138.7719,489.3628 1138.5844,489.4565 C1138.1625,489.7222 1137.475,489.8472 1136.7094,489.8472 C1134.6625,489.8472 1133.3656,488.7534 1133.3656,487.0503 L1133.3656,485.9565 C1133.3656,484.1753 1134.6156,482.8628 1136.35,482.8628 C1136.9281,482.8628 1137.5375,483.019 1138.0063,483.269 C1138.4906,483.5503 1138.6625,483.769 1138.7563,484.1753 C1138.8188,484.5815 1138.85,484.7065 1138.9906,484.8315 C1139.1313,484.9722 1139.3656,485.0815 1139.5844,485.0815 C1139.85,485.0815 1140.1156,484.9409 1140.2875,484.7222 C1140.3969,484.5659 1140.4281,484.3784 1140.4281,483.9565 L1140.4281,482.5347 C1140.4281,482.0972 1140.4125,481.9722 1140.3188,481.8159 C1140.1625,481.5503 1139.8813,481.4097 1139.5844,481.4097 C1139.2875,481.4097 1139.0844,481.5034 1138.8656,481.8159 L1138.6938,481.7378 Z " fill="#000000"/><text fill="#000000" font-family="sans-serif" font-size="12" lengthAdjust="spacing" textLength="45" x="1150.65" y="490.2202">Sample</text><line style="stroke:#A80036;stroke-width:1.5;" x1="1121" x2="1199" y1="502.0659" y2="502.0659"/><text fill="#000000" font-family="sans-serif" font-size="11" lengthAdjust="spacing" textLength="68" x="1126" y="516.2764">-int barcode</text><!--MD5=[ed6624c6556d5e7b1bd23032162d20b7]
class Client--><rect codeLine="79" fill="#FEFECE" filter="url(#f1tb6yi027yz3m)" height="155.2422" id="Client" style="stroke:#A80036;stroke-width:1.5;" width="119" x="811.5" y="651.0659"/><ellipse cx="850.8" cy="667.0659" fill="#ADD1B2" rx="11" ry="11" style="stroke:#A80036;stroke-width:1.0;"/><path d="M853.1438,662.7378 C852.2063,662.3003 851.6125,662.1597 850.7375,662.1597 C848.1125,662.1597 846.1125,664.2378 846.1125,666.9565 L846.1125,668.0815 C846.1125,670.6597 848.2219,672.5503 851.1125,672.5503 C852.3313,672.5503 853.4875,672.2534 854.2375,671.7065 C854.8156,671.3003 855.1438,670.8472 855.1438,670.4565 C855.1438,670.0034 854.7531,669.6128 854.2844,669.6128 C854.0656,669.6128 853.8625,669.6909 853.675,669.8784 C853.2219,670.3628 853.2219,670.3628 853.0344,670.4565 C852.6125,670.7222 851.925,670.8472 851.1594,670.8472 C849.1125,670.8472 847.8156,669.7534 847.8156,668.0503 L847.8156,666.9565 C847.8156,665.1753 849.0656,663.8628 850.8,663.8628 C851.3781,663.8628 851.9875,664.019 852.4563,664.269 C852.9406,664.5503 853.1125,664.769 853.2063,665.1753 C853.2688,665.5815 853.3,665.7065 853.4406,665.8315 C853.5813,665.9722 853.8156,666.0815 854.0344,666.0815 C854.3,666.0815 854.5656,665.9409 854.7375,665.7222 C854.8469,665.5659 854.8781,665.3784 854.8781,664.9565 L854.8781,663.5347 C854.8781,663.0972 854.8625,662.9722 854.7688,662.8159 C854.6125,662.5503 854.3313,662.4097 854.0344,662.4097 C853.7375,662.4097 853.5344,662.5034 853.3156,662.8159 L853.1438,662.7378 Z " fill="#000000"/><text fill="#000000" font-family="sans-serif" font-size="12" lengthAdjust="spacing" textLength="33" x="870.2" y="671.2202">Client</text><line style="stroke:#A80036;stroke-width:1.5;" x1="812.5" x2="929.5" y1="683.0659" y2="683.0659"/><text fill="#000000" font-family="sans-serif" font-size="11" lengthAdjust="spacing" textLength="91" x="817.5" y="697.2764">-int cardNumber</text><text fill="#000000" font-family="sans-serif" font-size="11" lengthAdjust="spacing" textLength="42" x="817.5" y="710.0811">-int nhs</text><text fill="#000000" font-family="sans-serif" font-size="11" lengthAdjust="spacing" textLength="75" x="817.5" y="722.8857">-int birthDate</text><text fill="#000000" font-family="sans-serif" font-size="11" lengthAdjust="spacing" textLength="62" x="817.5" y="735.6904">-String sex</text><text fill="#000000" font-family="sans-serif" font-size="11" lengthAdjust="spacing" textLength="38" x="817.5" y="748.4951">-int TIF</text><text fill="#000000" font-family="sans-serif" font-size="11" lengthAdjust="spacing" textLength="107" x="817.5" y="761.2998">-int  phoneNumber</text><text fill="#000000" font-family="sans-serif" font-size="11" lengthAdjust="spacing" textLength="73" x="817.5" y="774.1045">-String email</text><text fill="#000000" font-family="sans-serif" font-size="11" lengthAdjust="spacing" textLength="74" x="817.5" y="786.9092">-String name</text><text fill="#000000" font-family="sans-serif" font-size="11" lengthAdjust="spacing" textLength="75" x="817.5" y="799.7139">-int password</text><!--MD5=[a999c1570c205a2156b04a15307bc1ff]
class LabOrder--><rect codeLine="93" fill="#FEFECE" filter="url(#f1tb6yi027yz3m)" height="65.6094" id="LabOrder" style="stroke:#A80036;stroke-width:1.5;" width="138" x="1091" y="167.5659"/><ellipse cx="1128.05" cy="183.5659" fill="#ADD1B2" rx="11" ry="11" style="stroke:#A80036;stroke-width:1.0;"/><path d="M1130.3938,179.2378 C1129.4563,178.8003 1128.8625,178.6597 1127.9875,178.6597 C1125.3625,178.6597 1123.3625,180.7378 1123.3625,183.4565 L1123.3625,184.5815 C1123.3625,187.1597 1125.4719,189.0503 1128.3625,189.0503 C1129.5813,189.0503 1130.7375,188.7534 1131.4875,188.2065 C1132.0656,187.8003 1132.3938,187.3472 1132.3938,186.9565 C1132.3938,186.5034 1132.0031,186.1128 1131.5344,186.1128 C1131.3156,186.1128 1131.1125,186.1909 1130.925,186.3784 C1130.4719,186.8628 1130.4719,186.8628 1130.2844,186.9565 C1129.8625,187.2222 1129.175,187.3472 1128.4094,187.3472 C1126.3625,187.3472 1125.0656,186.2534 1125.0656,184.5503 L1125.0656,183.4565 C1125.0656,181.6753 1126.3156,180.3628 1128.05,180.3628 C1128.6281,180.3628 1129.2375,180.519 1129.7063,180.769 C1130.1906,181.0503 1130.3625,181.269 1130.4563,181.6753 C1130.5188,182.0815 1130.55,182.2065 1130.6906,182.3315 C1130.8313,182.4722 1131.0656,182.5815 1131.2844,182.5815 C1131.55,182.5815 1131.8156,182.4409 1131.9875,182.2222 C1132.0969,182.0659 1132.1281,181.8784 1132.1281,181.4565 L1132.1281,180.0347 C1132.1281,179.5972 1132.1125,179.4722 1132.0188,179.3159 C1131.8625,179.0503 1131.5813,178.9097 1131.2844,178.9097 C1130.9875,178.9097 1130.7844,179.0034 1130.5656,179.3159 L1130.3938,179.2378 Z " fill="#000000"/><text fill="#000000" font-family="sans-serif" font-size="12" lengthAdjust="spacing" textLength="57" x="1146.95" y="187.7202">LabOrder</text><line style="stroke:#A80036;stroke-width:1.5;" x1="1092" x2="1228" y1="199.5659" y2="199.5659"/><text fill="#000000" font-family="sans-serif" font-size="11" lengthAdjust="spacing" textLength="105" x="1097" y="213.7764">-String typeOfTest</text><text fill="#000000" font-family="sans-serif" font-size="11" lengthAdjust="spacing" textLength="126" x="1097" y="226.5811">-int parToBeMeasured</text><!--MD5=[5a42d898e2a5d299cc26761d1eaa7d84]
class Doctor--><rect codeLine="100" fill="#FEFECE" filter="url(#f1tb6yi027yz3m)" height="40" id="Doctor" style="stroke:#A80036;stroke-width:1.5;" width="73" x="834.5" y="180.5659"/><ellipse cx="849.5" cy="196.5659" fill="#ADD1B2" rx="11" ry="11" style="stroke:#A80036;stroke-width:1.0;"/><path d="M851.8438,192.2378 C850.9063,191.8003 850.3125,191.6597 849.4375,191.6597 C846.8125,191.6597 844.8125,193.7378 844.8125,196.4565 L844.8125,197.5815 C844.8125,200.1597 846.9219,202.0503 849.8125,202.0503 C851.0313,202.0503 852.1875,201.7534 852.9375,201.2065 C853.5156,200.8003 853.8438,200.3472 853.8438,199.9565 C853.8438,199.5034 853.4531,199.1128 852.9844,199.1128 C852.7656,199.1128 852.5625,199.1909 852.375,199.3784 C851.9219,199.8628 851.9219,199.8628 851.7344,199.9565 C851.3125,200.2222 850.625,200.3472 849.8594,200.3472 C847.8125,200.3472 846.5156,199.2534 846.5156,197.5503 L846.5156,196.4565 C846.5156,194.6753 847.7656,193.3628 849.5,193.3628 C850.0781,193.3628 850.6875,193.519 851.1563,193.769 C851.6406,194.0503 851.8125,194.269 851.9063,194.6753 C851.9688,195.0815 852,195.2065 852.1406,195.3315 C852.2813,195.4722 852.5156,195.5815 852.7344,195.5815 C853,195.5815 853.2656,195.4409 853.4375,195.2222 C853.5469,195.0659 853.5781,194.8784 853.5781,194.4565 L853.5781,193.0347 C853.5781,192.5972 853.5625,192.4722 853.4688,192.3159 C853.3125,192.0503 853.0313,191.9097 852.7344,191.9097 C852.4375,191.9097 852.2344,192.0034 852.0156,192.3159 L851.8438,192.2378 Z " fill="#000000"/><text fill="#000000" font-family="sans-serif" font-size="12" lengthAdjust="spacing" textLength="41" x="863.5" y="200.7202">Doctor</text><line style="stroke:#A80036;stroke-width:1.5;" x1="835.5" x2="906.5" y1="212.5659" y2="212.5659"/><!--MD5=[8e0ff4fb9ad8e90335f8f7ad6808b682]
class Recepcionist--><rect codeLine="105" fill="#FEFECE" filter="url(#f1tb6yi027yz3m)" height="116.8281" id="Recepcionist" style="stroke:#A80036;stroke-width:1.5;" width="115" x="524.5" y="658.0659"/><ellipse cx="542.2" cy="674.0659" fill="#ADD1B2" rx="11" ry="11" style="stroke:#A80036;stroke-width:1.0;"/><path d="M544.5438,669.7378 C543.6063,669.3003 543.0125,669.1597 542.1375,669.1597 C539.5125,669.1597 537.5125,671.2378 537.5125,673.9565 L537.5125,675.0815 C537.5125,677.6597 539.6219,679.5503 542.5125,679.5503 C543.7313,679.5503 544.8875,679.2534 545.6375,678.7065 C546.2156,678.3003 546.5438,677.8472 546.5438,677.4565 C546.5438,677.0034 546.1531,676.6128 545.6844,676.6128 C545.4656,676.6128 545.2625,676.6909 545.075,676.8784 C544.6219,677.3628 544.6219,677.3628 544.4344,677.4565 C544.0125,677.7222 543.325,677.8472 542.5594,677.8472 C540.5125,677.8472 539.2156,676.7534 539.2156,675.0503 L539.2156,673.9565 C539.2156,672.1753 540.4656,670.8628 542.2,670.8628 C542.7781,670.8628 543.3875,671.019 543.8563,671.269 C544.3406,671.5503 544.5125,671.769 544.6063,672.1753 C544.6688,672.5815 544.7,672.7065 544.8406,672.8315 C544.9813,672.9722 545.2156,673.0815 545.4344,673.0815 C545.7,673.0815 545.9656,672.9409 546.1375,672.7222 C546.2469,672.5659 546.2781,672.3784 546.2781,671.9565 L546.2781,670.5347 C546.2781,670.0972 546.2625,669.9722 546.1688,669.8159 C546.0125,669.5503 545.7313,669.4097 545.4344,669.4097 C545.1375,669.4097 544.9344,669.5034 544.7156,669.8159 L544.5438,669.7378 Z " fill="#000000"/><text fill="#000000" font-family="sans-serif" font-size="12" lengthAdjust="spacing" textLength="77" x="556.8" y="678.2202">Recepcionist</text><line style="stroke:#A80036;stroke-width:1.5;" x1="525.5" x2="638.5" y1="690.0659" y2="690.0659"/><text fill="#000000" font-family="sans-serif" font-size="11" lengthAdjust="spacing" textLength="34" x="530.5" y="704.2764">-int ID</text><text fill="#000000" font-family="sans-serif" font-size="11" lengthAdjust="spacing" textLength="63" x="530.5" y="717.0811">-String role</text><text fill="#000000" font-family="sans-serif" font-size="11" lengthAdjust="spacing" textLength="74" x="530.5" y="729.8857">-String nome</text><text fill="#000000" font-family="sans-serif" font-size="11" lengthAdjust="spacing" textLength="103" x="530.5" y="742.6904">-int phoneNumber</text><text fill="#000000" font-family="sans-serif" font-size="11" lengthAdjust="spacing" textLength="73" x="530.5" y="755.4951">-String email</text><text fill="#000000" font-family="sans-serif" font-size="11" lengthAdjust="spacing" textLength="47" x="530.5" y="768.2998">-int SOC</text><!--MD5=[0f39e4cb6f03951afbf6d14bd2505654]
class Address--><rect codeLine="115" fill="#FEFECE" filter="url(#f1tb6yi027yz3m)" height="40" id="Address" style="stroke:#A80036;stroke-width:1.5;" width="83" x="1118.5" y="1013.5659"/><ellipse cx="1133.5" cy="1029.5659" fill="#ADD1B2" rx="11" ry="11" style="stroke:#A80036;stroke-width:1.0;"/><path d="M1135.8438,1025.2378 C1134.9063,1024.8003 1134.3125,1024.6597 1133.4375,1024.6597 C1130.8125,1024.6597 1128.8125,1026.7378 1128.8125,1029.4565 L1128.8125,1030.5815 C1128.8125,1033.1597 1130.9219,1035.0503 1133.8125,1035.0503 C1135.0313,1035.0503 1136.1875,1034.7534 1136.9375,1034.2065 C1137.5156,1033.8003 1137.8438,1033.3472 1137.8438,1032.9565 C1137.8438,1032.5034 1137.4531,1032.1128 1136.9844,1032.1128 C1136.7656,1032.1128 1136.5625,1032.1909 1136.375,1032.3784 C1135.9219,1032.8628 1135.9219,1032.8628 1135.7344,1032.9565 C1135.3125,1033.2222 1134.625,1033.3472 1133.8594,1033.3472 C1131.8125,1033.3472 1130.5156,1032.2534 1130.5156,1030.5503 L1130.5156,1029.4565 C1130.5156,1027.6753 1131.7656,1026.3628 1133.5,1026.3628 C1134.0781,1026.3628 1134.6875,1026.519 1135.1563,1026.769 C1135.6406,1027.0503 1135.8125,1027.269 1135.9063,1027.6753 C1135.9688,1028.0815 1136,1028.2065 1136.1406,1028.3315 C1136.2813,1028.4722 1136.5156,1028.5815 1136.7344,1028.5815 C1137,1028.5815 1137.2656,1028.4409 1137.4375,1028.2222 C1137.5469,1028.0659 1137.5781,1027.8784 1137.5781,1027.4565 L1137.5781,1026.0347 C1137.5781,1025.5972 1137.5625,1025.4722 1137.4688,1025.3159 C1137.3125,1025.0503 1137.0313,1024.9097 1136.7344,1024.9097 C1136.4375,1024.9097 1136.2344,1025.0034 1136.0156,1025.3159 L1135.8438,1025.2378 Z " fill="#000000"/><text fill="#000000" font-family="sans-serif" font-size="12" lengthAdjust="spacing" textLength="51" x="1147.5" y="1033.7202">Address</text><line style="stroke:#A80036;stroke-width:1.5;" x1="1119.5" x2="1200.5" y1="1045.5659" y2="1045.5659"/><!--MD5=[7d96fd15f3014691d2fcaf89c5791e2a]
class SpecialistDoctor--><rect codeLine="122" fill="#FEFECE" filter="url(#f1tb6yi027yz3m)" height="129.6328" id="SpecialistDoctor" style="stroke:#A80036;stroke-width:1.5;" width="146" x="217.5" y="1131.5659"/><ellipse cx="239.25" cy="1147.5659" fill="#ADD1B2" rx="11" ry="11" style="stroke:#A80036;stroke-width:1.0;"/><path d="M241.5938,1143.2378 C240.6563,1142.8003 240.0625,1142.6597 239.1875,1142.6597 C236.5625,1142.6597 234.5625,1144.7378 234.5625,1147.4565 L234.5625,1148.5815 C234.5625,1151.1597 236.6719,1153.0503 239.5625,1153.0503 C240.7813,1153.0503 241.9375,1152.7534 242.6875,1152.2065 C243.2656,1151.8003 243.5938,1151.3472 243.5938,1150.9565 C243.5938,1150.5034 243.2031,1150.1128 242.7344,1150.1128 C242.5156,1150.1128 242.3125,1150.1909 242.125,1150.3784 C241.6719,1150.8628 241.6719,1150.8628 241.4844,1150.9565 C241.0625,1151.2222 240.375,1151.3472 239.6094,1151.3472 C237.5625,1151.3472 236.2656,1150.2534 236.2656,1148.5503 L236.2656,1147.4565 C236.2656,1145.6753 237.5156,1144.3628 239.25,1144.3628 C239.8281,1144.3628 240.4375,1144.519 240.9063,1144.769 C241.3906,1145.0503 241.5625,1145.269 241.6563,1145.6753 C241.7188,1146.0815 241.75,1146.2065 241.8906,1146.3315 C242.0313,1146.4722 242.2656,1146.5815 242.4844,1146.5815 C242.75,1146.5815 243.0156,1146.4409 243.1875,1146.2222 C243.2969,1146.0659 243.3281,1145.8784 243.3281,1145.4565 L243.3281,1144.0347 C243.3281,1143.5972 243.3125,1143.4722 243.2188,1143.3159 C243.0625,1143.0503 242.7813,1142.9097 242.4844,1142.9097 C242.1875,1142.9097 241.9844,1143.0034 241.7656,1143.3159 L241.5938,1143.2378 Z " fill="#000000"/><text fill="#000000" font-family="sans-serif" font-size="12" lengthAdjust="spacing" textLength="99" x="254.75" y="1151.7202">SpecialistDoctor</text><line style="stroke:#A80036;stroke-width:1.5;" x1="218.5" x2="362.5" y1="1163.5659" y2="1163.5659"/><text fill="#000000" font-family="sans-serif" font-size="11" lengthAdjust="spacing" textLength="34" x="223.5" y="1177.7764">-int ID</text><text fill="#000000" font-family="sans-serif" font-size="11" lengthAdjust="spacing" textLength="63" x="223.5" y="1190.5811">-String role</text><text fill="#000000" font-family="sans-serif" font-size="11" lengthAdjust="spacing" textLength="74" x="223.5" y="1203.3857">-String nome</text><text fill="#000000" font-family="sans-serif" font-size="11" lengthAdjust="spacing" textLength="103" x="223.5" y="1216.1904">-int phoneNumber</text><text fill="#000000" font-family="sans-serif" font-size="11" lengthAdjust="spacing" textLength="73" x="223.5" y="1228.9951">-String email</text><text fill="#000000" font-family="sans-serif" font-size="11" lengthAdjust="spacing" textLength="47" x="223.5" y="1241.7998">-int SOC</text><text fill="#000000" font-family="sans-serif" font-size="11" lengthAdjust="spacing" textLength="134" x="223.5" y="1254.6045">-int doctorIndexNumber</text><!--MD5=[2741598bdf59a7d7e0d5c97658fd3022]
class Result--><rect codeLine="136" fill="#FEFECE" filter="url(#f1tb6yi027yz3m)" height="52.8047" id="Result" style="stroke:#A80036;stroke-width:1.5;" width="68" x="1126" y="1449.0659"/><ellipse cx="1141" cy="1465.0659" fill="#ADD1B2" rx="11" ry="11" style="stroke:#A80036;stroke-width:1.0;"/><path d="M1143.3438,1460.7378 C1142.4063,1460.3003 1141.8125,1460.1597 1140.9375,1460.1597 C1138.3125,1460.1597 1136.3125,1462.2378 1136.3125,1464.9565 L1136.3125,1466.0815 C1136.3125,1468.6597 1138.4219,1470.5503 1141.3125,1470.5503 C1142.5313,1470.5503 1143.6875,1470.2534 1144.4375,1469.7065 C1145.0156,1469.3003 1145.3438,1468.8472 1145.3438,1468.4565 C1145.3438,1468.0034 1144.9531,1467.6128 1144.4844,1467.6128 C1144.2656,1467.6128 1144.0625,1467.6909 1143.875,1467.8784 C1143.4219,1468.3628 1143.4219,1468.3628 1143.2344,1468.4565 C1142.8125,1468.7222 1142.125,1468.8472 1141.3594,1468.8472 C1139.3125,1468.8472 1138.0156,1467.7534 1138.0156,1466.0503 L1138.0156,1464.9565 C1138.0156,1463.1753 1139.2656,1461.8628 1141,1461.8628 C1141.5781,1461.8628 1142.1875,1462.019 1142.6563,1462.269 C1143.1406,1462.5503 1143.3125,1462.769 1143.4063,1463.1753 C1143.4688,1463.5815 1143.5,1463.7065 1143.6406,1463.8315 C1143.7813,1463.9722 1144.0156,1464.0815 1144.2344,1464.0815 C1144.5,1464.0815 1144.7656,1463.9409 1144.9375,1463.7222 C1145.0469,1463.5659 1145.0781,1463.3784 1145.0781,1462.9565 L1145.0781,1461.5347 C1145.0781,1461.0972 1145.0625,1460.9722 1144.9688,1460.8159 C1144.8125,1460.5503 1144.5313,1460.4097 1144.2344,1460.4097 C1143.9375,1460.4097 1143.7344,1460.5034 1143.5156,1460.8159 L1143.3438,1460.7378 Z " fill="#000000"/><text fill="#000000" font-family="sans-serif" font-size="12" lengthAdjust="spacing" textLength="36" x="1155" y="1469.2202">Result</text><line style="stroke:#A80036;stroke-width:1.5;" x1="1127" x2="1193" y1="1481.0659" y2="1481.0659"/><text fill="#000000" font-family="sans-serif" font-size="11" lengthAdjust="spacing" textLength="54" x="1132" y="1495.2764">-int result</text><!--MD5=[8f188b89eff49accb0f38c057b38a9f2]
class ExternalModule--><rect codeLine="144" fill="#FEFECE" filter="url(#f1tb6yi027yz3m)" height="40" id="ExternalModule" style="stroke:#A80036;stroke-width:1.5;" width="124" x="228.5" y="1056.5659"/><ellipse cx="243.5" cy="1072.5659" fill="#ADD1B2" rx="11" ry="11" style="stroke:#A80036;stroke-width:1.0;"/><path d="M245.8438,1068.2378 C244.9063,1067.8003 244.3125,1067.6597 243.4375,1067.6597 C240.8125,1067.6597 238.8125,1069.7378 238.8125,1072.4565 L238.8125,1073.5815 C238.8125,1076.1597 240.9219,1078.0503 243.8125,1078.0503 C245.0313,1078.0503 246.1875,1077.7534 246.9375,1077.2065 C247.5156,1076.8003 247.8438,1076.3472 247.8438,1075.9565 C247.8438,1075.5034 247.4531,1075.1128 246.9844,1075.1128 C246.7656,1075.1128 246.5625,1075.1909 246.375,1075.3784 C245.9219,1075.8628 245.9219,1075.8628 245.7344,1075.9565 C245.3125,1076.2222 244.625,1076.3472 243.8594,1076.3472 C241.8125,1076.3472 240.5156,1075.2534 240.5156,1073.5503 L240.5156,1072.4565 C240.5156,1070.6753 241.7656,1069.3628 243.5,1069.3628 C244.0781,1069.3628 244.6875,1069.519 245.1563,1069.769 C245.6406,1070.0503 245.8125,1070.269 245.9063,1070.6753 C245.9688,1071.0815 246,1071.2065 246.1406,1071.3315 C246.2813,1071.4722 246.5156,1071.5815 246.7344,1071.5815 C247,1071.5815 247.2656,1071.4409 247.4375,1071.2222 C247.5469,1071.0659 247.5781,1070.8784 247.5781,1070.4565 L247.5781,1069.0347 C247.5781,1068.5972 247.5625,1068.4722 247.4688,1068.3159 C247.3125,1068.0503 247.0313,1067.9097 246.7344,1067.9097 C246.4375,1067.9097 246.2344,1068.0034 246.0156,1068.3159 L245.8438,1068.2378 Z " fill="#000000"/><text fill="#000000" font-family="sans-serif" font-size="12" lengthAdjust="spacing" textLength="92" x="257.5" y="1076.7202">ExternalModule</text><line style="stroke:#A80036;stroke-width:1.5;" x1="229.5" x2="351.5" y1="1088.5659" y2="1088.5659"/><!--MD5=[f00dbe8c0302c6aec2cb26b3c659c8fc]
class Report--><rect codeLine="152" fill="#FEFECE" filter="url(#f1tb6yi027yz3m)" height="40" id="Report" style="stroke:#A80036;stroke-width:1.5;" width="72" x="546" y="1042.5659"/><ellipse cx="561" cy="1058.5659" fill="#ADD1B2" rx="11" ry="11" style="stroke:#A80036;stroke-width:1.0;"/><path d="M563.3438,1054.2378 C562.4063,1053.8003 561.8125,1053.6597 560.9375,1053.6597 C558.3125,1053.6597 556.3125,1055.7378 556.3125,1058.4565 L556.3125,1059.5815 C556.3125,1062.1597 558.4219,1064.0503 561.3125,1064.0503 C562.5313,1064.0503 563.6875,1063.7534 564.4375,1063.2065 C565.0156,1062.8003 565.3438,1062.3472 565.3438,1061.9565 C565.3438,1061.5034 564.9531,1061.1128 564.4844,1061.1128 C564.2656,1061.1128 564.0625,1061.1909 563.875,1061.3784 C563.4219,1061.8628 563.4219,1061.8628 563.2344,1061.9565 C562.8125,1062.2222 562.125,1062.3472 561.3594,1062.3472 C559.3125,1062.3472 558.0156,1061.2534 558.0156,1059.5503 L558.0156,1058.4565 C558.0156,1056.6753 559.2656,1055.3628 561,1055.3628 C561.5781,1055.3628 562.1875,1055.519 562.6563,1055.769 C563.1406,1056.0503 563.3125,1056.269 563.4063,1056.6753 C563.4688,1057.0815 563.5,1057.2065 563.6406,1057.3315 C563.7813,1057.4722 564.0156,1057.5815 564.2344,1057.5815 C564.5,1057.5815 564.7656,1057.4409 564.9375,1057.2222 C565.0469,1057.0659 565.0781,1056.8784 565.0781,1056.4565 L565.0781,1055.0347 C565.0781,1054.5972 565.0625,1054.4722 564.9688,1054.3159 C564.8125,1054.0503 564.5313,1053.9097 564.2344,1053.9097 C563.9375,1053.9097 563.7344,1054.0034 563.5156,1054.3159 L563.3438,1054.2378 Z " fill="#000000"/><text fill="#000000" font-family="sans-serif" font-size="12" lengthAdjust="spacing" textLength="40" x="575" y="1062.7202">Report</text><line style="stroke:#A80036;stroke-width:1.5;" x1="547" x2="617" y1="1074.5659" y2="1074.5659"/><!--MD5=[0ca02fc375daaf392e8522c400f885d4]
class ClinicalChemistryTec--><rect codeLine="160" fill="#FEFECE" filter="url(#f1tb6yi027yz3m)" height="116.8281" id="ClinicalChemistryTec" style="stroke:#A80036;stroke-width:1.5;" width="155" x="504.5" y="1245.0659"/><ellipse cx="519.5" cy="1261.0659" fill="#ADD1B2" rx="11" ry="11" style="stroke:#A80036;stroke-width:1.0;"/><path d="M521.8438,1256.7378 C520.9063,1256.3003 520.3125,1256.1597 519.4375,1256.1597 C516.8125,1256.1597 514.8125,1258.2378 514.8125,1260.9565 L514.8125,1262.0815 C514.8125,1264.6597 516.9219,1266.5503 519.8125,1266.5503 C521.0313,1266.5503 522.1875,1266.2534 522.9375,1265.7065 C523.5156,1265.3003 523.8438,1264.8472 523.8438,1264.4565 C523.8438,1264.0034 523.4531,1263.6128 522.9844,1263.6128 C522.7656,1263.6128 522.5625,1263.6909 522.375,1263.8784 C521.9219,1264.3628 521.9219,1264.3628 521.7344,1264.4565 C521.3125,1264.7222 520.625,1264.8472 519.8594,1264.8472 C517.8125,1264.8472 516.5156,1263.7534 516.5156,1262.0503 L516.5156,1260.9565 C516.5156,1259.1753 517.7656,1257.8628 519.5,1257.8628 C520.0781,1257.8628 520.6875,1258.019 521.1563,1258.269 C521.6406,1258.5503 521.8125,1258.769 521.9063,1259.1753 C521.9688,1259.5815 522,1259.7065 522.1406,1259.8315 C522.2813,1259.9722 522.5156,1260.0815 522.7344,1260.0815 C523,1260.0815 523.2656,1259.9409 523.4375,1259.7222 C523.5469,1259.5659 523.5781,1259.3784 523.5781,1258.9565 L523.5781,1257.5347 C523.5781,1257.0972 523.5625,1256.9722 523.4688,1256.8159 C523.3125,1256.5503 523.0313,1256.4097 522.7344,1256.4097 C522.4375,1256.4097 522.2344,1256.5034 522.0156,1256.8159 L521.8438,1256.7378 Z " fill="#000000"/><text fill="#000000" font-family="sans-serif" font-size="12" lengthAdjust="spacing" textLength="123" x="533.5" y="1265.2202">ClinicalChemistryTec</text><line style="stroke:#A80036;stroke-width:1.5;" x1="505.5" x2="658.5" y1="1277.0659" y2="1277.0659"/><text fill="#000000" font-family="sans-serif" font-size="11" lengthAdjust="spacing" textLength="34" x="510.5" y="1291.2764">-int ID</text><text fill="#000000" font-family="sans-serif" font-size="11" lengthAdjust="spacing" textLength="63" x="510.5" y="1304.0811">-String role</text><text fill="#000000" font-family="sans-serif" font-size="11" lengthAdjust="spacing" textLength="74" x="510.5" y="1316.8857">-String nome</text><text fill="#000000" font-family="sans-serif" font-size="11" lengthAdjust="spacing" textLength="103" x="510.5" y="1329.6904">-int phoneNumber</text><text fill="#000000" font-family="sans-serif" font-size="11" lengthAdjust="spacing" textLength="73" x="510.5" y="1342.4951">-String email</text><text fill="#000000" font-family="sans-serif" font-size="11" lengthAdjust="spacing" textLength="47" x="510.5" y="1355.2998">-int SOC</text><!--MD5=[01931d41e78f8996acd44f6f0fd8de28]
class MedicalLabTechnician--><rect codeLine="171" fill="#FEFECE" filter="url(#f1tb6yi027yz3m)" height="116.8281" id="MedicalLabTechnician" style="stroke:#A80036;stroke-width:1.5;" width="162" x="501" y="324.0659"/><ellipse cx="516" cy="340.0659" fill="#ADD1B2" rx="11" ry="11" style="stroke:#A80036;stroke-width:1.0;"/><path d="M518.3438,335.7378 C517.4063,335.3003 516.8125,335.1597 515.9375,335.1597 C513.3125,335.1597 511.3125,337.2378 511.3125,339.9565 L511.3125,341.0815 C511.3125,343.6597 513.4219,345.5503 516.3125,345.5503 C517.5313,345.5503 518.6875,345.2534 519.4375,344.7065 C520.0156,344.3003 520.3438,343.8472 520.3438,343.4565 C520.3438,343.0034 519.9531,342.6128 519.4844,342.6128 C519.2656,342.6128 519.0625,342.6909 518.875,342.8784 C518.4219,343.3628 518.4219,343.3628 518.2344,343.4565 C517.8125,343.7222 517.125,343.8472 516.3594,343.8472 C514.3125,343.8472 513.0156,342.7534 513.0156,341.0503 L513.0156,339.9565 C513.0156,338.1753 514.2656,336.8628 516,336.8628 C516.5781,336.8628 517.1875,337.019 517.6563,337.269 C518.1406,337.5503 518.3125,337.769 518.4063,338.1753 C518.4688,338.5815 518.5,338.7065 518.6406,338.8315 C518.7813,338.9722 519.0156,339.0815 519.2344,339.0815 C519.5,339.0815 519.7656,338.9409 519.9375,338.7222 C520.0469,338.5659 520.0781,338.3784 520.0781,337.9565 L520.0781,336.5347 C520.0781,336.0972 520.0625,335.9722 519.9688,335.8159 C519.8125,335.5503 519.5313,335.4097 519.2344,335.4097 C518.9375,335.4097 518.7344,335.5034 518.5156,335.8159 L518.3438,335.7378 Z " fill="#000000"/><text fill="#000000" font-family="sans-serif" font-size="12" lengthAdjust="spacing" textLength="130" x="530" y="344.2202">MedicalLabTechnician</text><line style="stroke:#A80036;stroke-width:1.5;" x1="502" x2="662" y1="356.0659" y2="356.0659"/><text fill="#000000" font-family="sans-serif" font-size="11" lengthAdjust="spacing" textLength="34" x="507" y="370.2764">-int ID</text><text fill="#000000" font-family="sans-serif" font-size="11" lengthAdjust="spacing" textLength="63" x="507" y="383.0811">-String role</text><text fill="#000000" font-family="sans-serif" font-size="11" lengthAdjust="spacing" textLength="74" x="507" y="395.8857">-String nome</text><text fill="#000000" font-family="sans-serif" font-size="11" lengthAdjust="spacing" textLength="103" x="507" y="408.6904">-int phoneNumber</text><text fill="#000000" font-family="sans-serif" font-size="11" lengthAdjust="spacing" textLength="73" x="507" y="421.4951">-String email</text><text fill="#000000" font-family="sans-serif" font-size="11" lengthAdjust="spacing" textLength="47" x="507" y="434.2998">-int SOC</text><!--MD5=[f69a48f7b38bde3533dca6607cc4e94a]
class TypeOfTest--><rect codeLine="184" fill="#FEFECE" filter="url(#f1tb6yi027yz3m)" height="40" id="TypeOfTest" style="stroke:#A80036;stroke-width:1.5;" width="102" x="1589" y="259.5659"/><ellipse cx="1604" cy="275.5659" fill="#ADD1B2" rx="11" ry="11" style="stroke:#A80036;stroke-width:1.0;"/><path d="M1606.3438,271.2378 C1605.4063,270.8003 1604.8125,270.6597 1603.9375,270.6597 C1601.3125,270.6597 1599.3125,272.7378 1599.3125,275.4565 L1599.3125,276.5815 C1599.3125,279.1597 1601.4219,281.0503 1604.3125,281.0503 C1605.5313,281.0503 1606.6875,280.7534 1607.4375,280.2065 C1608.0156,279.8003 1608.3438,279.3472 1608.3438,278.9565 C1608.3438,278.5034 1607.9531,278.1128 1607.4844,278.1128 C1607.2656,278.1128 1607.0625,278.1909 1606.875,278.3784 C1606.4219,278.8628 1606.4219,278.8628 1606.2344,278.9565 C1605.8125,279.2222 1605.125,279.3472 1604.3594,279.3472 C1602.3125,279.3472 1601.0156,278.2534 1601.0156,276.5503 L1601.0156,275.4565 C1601.0156,273.6753 1602.2656,272.3628 1604,272.3628 C1604.5781,272.3628 1605.1875,272.519 1605.6563,272.769 C1606.1406,273.0503 1606.3125,273.269 1606.4063,273.6753 C1606.4688,274.0815 1606.5,274.2065 1606.6406,274.3315 C1606.7813,274.4722 1607.0156,274.5815 1607.2344,274.5815 C1607.5,274.5815 1607.7656,274.4409 1607.9375,274.2222 C1608.0469,274.0659 1608.0781,273.8784 1608.0781,273.4565 L1608.0781,272.0347 C1608.0781,271.5972 1608.0625,271.4722 1607.9688,271.3159 C1607.8125,271.0503 1607.5313,270.9097 1607.2344,270.9097 C1606.9375,270.9097 1606.7344,271.0034 1606.5156,271.3159 L1606.3438,271.2378 Z " fill="#000000"/><text fill="#000000" font-family="sans-serif" font-size="12" lengthAdjust="spacing" textLength="70" x="1618" y="279.7202">TypeOfTest</text><line style="stroke:#A80036;stroke-width:1.5;" x1="1590" x2="1690" y1="291.5659" y2="291.5659"/><!--MD5=[c6a2171c11447acbe08a3dfeee0e1710]
class Courier--><rect codeLine="192" fill="#FEFECE" filter="url(#f1tb6yi027yz3m)" height="116.8281" id="Courier" style="stroke:#A80036;stroke-width:1.5;" width="115" x="524.5" y="811.0659"/><ellipse cx="557.05" cy="827.0659" fill="#ADD1B2" rx="11" ry="11" style="stroke:#A80036;stroke-width:1.0;"/><path d="M559.3938,822.7378 C558.4563,822.3003 557.8625,822.1597 556.9875,822.1597 C554.3625,822.1597 552.3625,824.2378 552.3625,826.9565 L552.3625,828.0815 C552.3625,830.6597 554.4719,832.5503 557.3625,832.5503 C558.5813,832.5503 559.7375,832.2534 560.4875,831.7065 C561.0656,831.3003 561.3938,830.8472 561.3938,830.4565 C561.3938,830.0034 561.0031,829.6128 560.5344,829.6128 C560.3156,829.6128 560.1125,829.6909 559.925,829.8784 C559.4719,830.3628 559.4719,830.3628 559.2844,830.4565 C558.8625,830.7222 558.175,830.8472 557.4094,830.8472 C555.3625,830.8472 554.0656,829.7534 554.0656,828.0503 L554.0656,826.9565 C554.0656,825.1753 555.3156,823.8628 557.05,823.8628 C557.6281,823.8628 558.2375,824.019 558.7063,824.269 C559.1906,824.5503 559.3625,824.769 559.4563,825.1753 C559.5188,825.5815 559.55,825.7065 559.6906,825.8315 C559.8313,825.9722 560.0656,826.0815 560.2844,826.0815 C560.55,826.0815 560.8156,825.9409 560.9875,825.7222 C561.0969,825.5659 561.1281,825.3784 561.1281,824.9565 L561.1281,823.5347 C561.1281,823.0972 561.1125,822.9722 561.0188,822.8159 C560.8625,822.5503 560.5813,822.4097 560.2844,822.4097 C559.9875,822.4097 559.7844,822.5034 559.5656,822.8159 L559.3938,822.7378 Z " fill="#000000"/><text fill="#000000" font-family="sans-serif" font-size="12" lengthAdjust="spacing" textLength="44" x="574.95" y="831.2202">Courier</text><line style="stroke:#A80036;stroke-width:1.5;" x1="525.5" x2="638.5" y1="843.0659" y2="843.0659"/><text fill="#000000" font-family="sans-serif" font-size="11" lengthAdjust="spacing" textLength="34" x="530.5" y="857.2764">-int ID</text><text fill="#000000" font-family="sans-serif" font-size="11" lengthAdjust="spacing" textLength="63" x="530.5" y="870.0811">-String role</text><text fill="#000000" font-family="sans-serif" font-size="11" lengthAdjust="spacing" textLength="74" x="530.5" y="882.8857">-String nome</text><text fill="#000000" font-family="sans-serif" font-size="11" lengthAdjust="spacing" textLength="103" x="530.5" y="895.6904">-int phoneNumber</text><text fill="#000000" font-family="sans-serif" font-size="11" lengthAdjust="spacing" textLength="73" x="530.5" y="908.4951">-String email</text><text fill="#000000" font-family="sans-serif" font-size="11" lengthAdjust="spacing" textLength="47" x="530.5" y="921.2998">-int SOC</text><!--MD5=[fff5db4abcb6eec6574b9ea9c3ee0eae]
class Delivery--><rect codeLine="205" fill="#FEFECE" filter="url(#f1tb6yi027yz3m)" height="40" id="Delivery" style="stroke:#A80036;stroke-width:1.5;" width="82" x="830" y="575.5659"/><ellipse cx="845" cy="591.5659" fill="#ADD1B2" rx="11" ry="11" style="stroke:#A80036;stroke-width:1.0;"/><path d="M847.3438,587.2378 C846.4063,586.8003 845.8125,586.6597 844.9375,586.6597 C842.3125,586.6597 840.3125,588.7378 840.3125,591.4565 L840.3125,592.5815 C840.3125,595.1597 842.4219,597.0503 845.3125,597.0503 C846.5313,597.0503 847.6875,596.7534 848.4375,596.2065 C849.0156,595.8003 849.3438,595.3472 849.3438,594.9565 C849.3438,594.5034 848.9531,594.1128 848.4844,594.1128 C848.2656,594.1128 848.0625,594.1909 847.875,594.3784 C847.4219,594.8628 847.4219,594.8628 847.2344,594.9565 C846.8125,595.2222 846.125,595.3472 845.3594,595.3472 C843.3125,595.3472 842.0156,594.2534 842.0156,592.5503 L842.0156,591.4565 C842.0156,589.6753 843.2656,588.3628 845,588.3628 C845.5781,588.3628 846.1875,588.519 846.6563,588.769 C847.1406,589.0503 847.3125,589.269 847.4063,589.6753 C847.4688,590.0815 847.5,590.2065 847.6406,590.3315 C847.7813,590.4722 848.0156,590.5815 848.2344,590.5815 C848.5,590.5815 848.7656,590.4409 848.9375,590.2222 C849.0469,590.0659 849.0781,589.8784 849.0781,589.4565 L849.0781,588.0347 C849.0781,587.5972 849.0625,587.4722 848.9688,587.3159 C848.8125,587.0503 848.5313,586.9097 848.2344,586.9097 C847.9375,586.9097 847.7344,587.0034 847.5156,587.3159 L847.3438,587.2378 Z " fill="#000000"/><text fill="#000000" font-family="sans-serif" font-size="12" lengthAdjust="spacing" textLength="50" x="859" y="595.7202">Delivery</text><line style="stroke:#A80036;stroke-width:1.5;" x1="831" x2="911" y1="607.5659" y2="607.5659"/><!--MD5=[c886e9f626b1f684543f4c5ec86b9c7b]
class LabCoordinator--><rect codeLine="212" fill="#FEFECE" filter="url(#f1tb6yi027yz3m)" height="116.8281" id="LabCoordinator" style="stroke:#A80036;stroke-width:1.5;" width="124" x="228.5" y="154.0659"/><ellipse cx="243.5" cy="170.0659" fill="#ADD1B2" rx="11" ry="11" style="stroke:#A80036;stroke-width:1.0;"/><path d="M245.8438,165.7378 C244.9063,165.3003 244.3125,165.1597 243.4375,165.1597 C240.8125,165.1597 238.8125,167.2378 238.8125,169.9565 L238.8125,171.0815 C238.8125,173.6597 240.9219,175.5503 243.8125,175.5503 C245.0313,175.5503 246.1875,175.2534 246.9375,174.7065 C247.5156,174.3003 247.8438,173.8472 247.8438,173.4565 C247.8438,173.0034 247.4531,172.6128 246.9844,172.6128 C246.7656,172.6128 246.5625,172.6909 246.375,172.8784 C245.9219,173.3628 245.9219,173.3628 245.7344,173.4565 C245.3125,173.7222 244.625,173.8472 243.8594,173.8472 C241.8125,173.8472 240.5156,172.7534 240.5156,171.0503 L240.5156,169.9565 C240.5156,168.1753 241.7656,166.8628 243.5,166.8628 C244.0781,166.8628 244.6875,167.019 245.1563,167.269 C245.6406,167.5503 245.8125,167.769 245.9063,168.1753 C245.9688,168.5815 246,168.7065 246.1406,168.8315 C246.2813,168.9722 246.5156,169.0815 246.7344,169.0815 C247,169.0815 247.2656,168.9409 247.4375,168.7222 C247.5469,168.5659 247.5781,168.3784 247.5781,167.9565 L247.5781,166.5347 C247.5781,166.0972 247.5625,165.9722 247.4688,165.8159 C247.3125,165.5503 247.0313,165.4097 246.7344,165.4097 C246.4375,165.4097 246.2344,165.5034 246.0156,165.8159 L245.8438,165.7378 Z " fill="#000000"/><text fill="#000000" font-family="sans-serif" font-size="12" lengthAdjust="spacing" textLength="92" x="257.5" y="174.2202">LabCoordinator</text><line style="stroke:#A80036;stroke-width:1.5;" x1="229.5" x2="351.5" y1="186.0659" y2="186.0659"/><text fill="#000000" font-family="sans-serif" font-size="11" lengthAdjust="spacing" textLength="34" x="234.5" y="200.2764">-int ID</text><text fill="#000000" font-family="sans-serif" font-size="11" lengthAdjust="spacing" textLength="63" x="234.5" y="213.0811">-String role</text><text fill="#000000" font-family="sans-serif" font-size="11" lengthAdjust="spacing" textLength="74" x="234.5" y="225.8857">-String nome</text><text fill="#000000" font-family="sans-serif" font-size="11" lengthAdjust="spacing" textLength="103" x="234.5" y="238.6904">-int phoneNumber</text><text fill="#000000" font-family="sans-serif" font-size="11" lengthAdjust="spacing" textLength="73" x="234.5" y="251.4951">-String email</text><text fill="#000000" font-family="sans-serif" font-size="11" lengthAdjust="spacing" textLength="47" x="234.5" y="264.2998">-int SOC</text><!--MD5=[af5579920c46c1310ecd36108128637b]
class SampleRegistration--><rect codeLine="223" fill="#FEFECE" filter="url(#f1tb6yi027yz3m)" height="40" id="SampleRegistration" style="stroke:#A80036;stroke-width:1.5;" width="148" x="797" y="255.5659"/><ellipse cx="812" cy="271.5659" fill="#ADD1B2" rx="11" ry="11" style="stroke:#A80036;stroke-width:1.0;"/><path d="M814.3438,267.2378 C813.4063,266.8003 812.8125,266.6597 811.9375,266.6597 C809.3125,266.6597 807.3125,268.7378 807.3125,271.4565 L807.3125,272.5815 C807.3125,275.1597 809.4219,277.0503 812.3125,277.0503 C813.5313,277.0503 814.6875,276.7534 815.4375,276.2065 C816.0156,275.8003 816.3438,275.3472 816.3438,274.9565 C816.3438,274.5034 815.9531,274.1128 815.4844,274.1128 C815.2656,274.1128 815.0625,274.1909 814.875,274.3784 C814.4219,274.8628 814.4219,274.8628 814.2344,274.9565 C813.8125,275.2222 813.125,275.3472 812.3594,275.3472 C810.3125,275.3472 809.0156,274.2534 809.0156,272.5503 L809.0156,271.4565 C809.0156,269.6753 810.2656,268.3628 812,268.3628 C812.5781,268.3628 813.1875,268.519 813.6563,268.769 C814.1406,269.0503 814.3125,269.269 814.4063,269.6753 C814.4688,270.0815 814.5,270.2065 814.6406,270.3315 C814.7813,270.4722 815.0156,270.5815 815.2344,270.5815 C815.5,270.5815 815.7656,270.4409 815.9375,270.2222 C816.0469,270.0659 816.0781,269.8784 816.0781,269.4565 L816.0781,268.0347 C816.0781,267.5972 816.0625,267.4722 815.9688,267.3159 C815.8125,267.0503 815.5313,266.9097 815.2344,266.9097 C814.9375,266.9097 814.7344,267.0034 814.5156,267.3159 L814.3438,267.2378 Z " fill="#000000"/><text fill="#000000" font-family="sans-serif" font-size="12" lengthAdjust="spacing" textLength="116" x="826" y="275.7202">SampleRegistration</text><line style="stroke:#A80036;stroke-width:1.5;" x1="798" x2="944" y1="287.5659" y2="287.5659"/><!--MD5=[bd708f2371c655af07b49ddbdb30848a]
link Client to Address--><path codeLine="227" d="M930.506,760.7599 C986.014,791.3039 1061,832.5659 1061,832.5659 C1061,832.5659 1124.46,962.7179 1149.25,1013.5589 " fill="none" id="Client-Address" style="stroke:#A80036;stroke-width:1.0;"/><polygon fill="#000000" points="1007.2717,781.9133,1003.5756,773.1504,999.1307,776.9965,1007.2717,781.9133" style="stroke:#000000;stroke-width:1.0;"/><text fill="#000000" font-family="sans-serif" font-size="13" lengthAdjust="spacing" textLength="23" x="1013" y="782.6328">has</text><text fill="#000000" font-family="sans-serif" font-size="13" lengthAdjust="spacing" textLength="8" x="938.6427" y="777.9056">1</text><text fill="#000000" font-family="sans-serif" font-size="13" lengthAdjust="spacing" textLength="8" x="1136.9172" y="1002.5651">1</text><!--MD5=[bbda5bdb6fbe9204923759693b0ab419]
link Recepcionist to Address--><path codeLine="228" d="M639.611,760.8259 C666.564,781.8979 693,802.5659 693,802.5659 C693,802.5659 945,907.5659 945,907.5659 C945,907.5659 1061,967.5659 1061,967.5659 C1061,967.5659 1100.24,993.9959 1129.06,1013.4049 " fill="none" id="Recepcionist-Address" style="stroke:#A80036;stroke-width:1.0;"/><polygon fill="#000000" points="861.4433,839.4253,854.7531,832.6656,852.0576,837.889,861.4433,839.4253" style="stroke:#000000;stroke-width:1.0;"/><text fill="#000000" font-family="sans-serif" font-size="13" lengthAdjust="spacing" textLength="23" x="866" y="841.6328">has</text><text fill="#000000" font-family="sans-serif" font-size="13" lengthAdjust="spacing" textLength="8" x="647.5049" y="779.5441">1</text><text fill="#000000" font-family="sans-serif" font-size="13" lengthAdjust="spacing" textLength="8" x="1110.7964" y="1002.3659">1</text><!--MD5=[9eb20908fa1f6bf1fc050c957f87e9c1]
link SpecialistDoctor to Address--><path codeLine="229" d="M363.547,1191.8849 C554.84,1179.4549 1061,1146.5659 1061,1146.5659 C1061,1146.5659 1113.29,1086.2709 1141.48,1053.7679 " fill="none" id="SpecialistDoctor-Address" style="stroke:#A80036;stroke-width:1.0;"/><polygon fill="#000000" points="720.923,1156.2583,711.5034,1154.9458,712.531,1160.7331,720.923,1156.2583" style="stroke:#000000;stroke-width:1.0;"/><text fill="#000000" font-family="sans-serif" font-size="13" lengthAdjust="spacing" textLength="23" x="725" y="1161.6328">has</text><text fill="#000000" font-family="sans-serif" font-size="13" lengthAdjust="spacing" textLength="8" x="371.4925" y="1204.2683">1</text><text fill="#000000" font-family="sans-serif" font-size="13" lengthAdjust="spacing" textLength="8" x="1127.1463" y="1073.6447">1</text><!--MD5=[adb28c4aafab4ffc6f40a99ca4c6f67a]
link ClinicalAnalysisLab to Address--><path codeLine="230" d="M322.864,648.8149 C381.308,746.1739 501,945.5659 501,945.5659 C501,945.5659 797,1048.5659 797,1048.5659 C797,1048.5659 945,1048.5659 945,1048.5659 C945,1048.5659 1056.46,1040.7539 1118.5,1036.4049 " fill="none" id="ClinicalAnalysisLab-Address" style="stroke:#A80036;stroke-width:1.0;"/><polygon fill="#000000" points="720.495,1006.322,713.6505,999.7187,711.0764,1005.0029,720.495,1006.322" style="stroke:#000000;stroke-width:1.0;"/><text fill="#000000" font-family="sans-serif" font-size="13" lengthAdjust="spacing" textLength="23" x="725" y="1008.6328">has</text><text fill="#000000" font-family="sans-serif" font-size="13" lengthAdjust="spacing" textLength="8" x="318.4981" y="668.5442">1</text><text fill="#000000" font-family="sans-serif" font-size="13" lengthAdjust="spacing" textLength="8" x="1102.3953" y="1050.3253">1</text><!--MD5=[e0c1dc9fc918f51f95098f4c00ec20d4]
link ChemicalLab to Address--><path codeLine="231" d="M368.065,1428.4487 C540.632,1428.1847 945,1427.5659 945,1427.5659 C945,1427.5659 1061,1240.5659 1061,1240.5659 C1061,1240.5659 1124.77,1105.8769 1149.42,1053.7909 " fill="none" id="ChemicalLab-Address" style="stroke:#A80036;stroke-width:1.0;"/><polygon fill="#000000" points="720.5085,1416.9705,711.0819,1418.2312,713.6232,1423.5313,720.5085,1416.9705" style="stroke:#000000;stroke-width:1.0;"/><text fill="#000000" font-family="sans-serif" font-size="13" lengthAdjust="spacing" textLength="23" x="725" y="1423.6328">has</text><text fill="#000000" font-family="sans-serif" font-size="13" lengthAdjust="spacing" textLength="8" x="376.0941" y="1441.2381">1</text><text fill="#000000" font-family="sans-serif" font-size="13" lengthAdjust="spacing" textLength="8" x="1137.3194" y="1073.6741">1</text><!--MD5=[d9d3abf00452f14caf3c4ab3eed9ae3c]
link ClinicalChemistryTec to Address--><path codeLine="232" d="M659.534,1289.7959 C794.57,1265.5009 1061,1217.5659 1061,1217.5659 C1061,1217.5659 1122.93,1101.2959 1148.33,1053.6069 " fill="none" id="ClinicalChemistryTec-Address" style="stroke:#A80036;stroke-width:1.0;"/><polygon fill="#000000" points="861.502,1227.9569,852.0792,1229.246,854.6365,1234.5384,861.502,1227.9569" style="stroke:#000000;stroke-width:1.0;"/><text fill="#000000" font-family="sans-serif" font-size="13" lengthAdjust="spacing" textLength="23" x="866" y="1234.6328">has</text><text fill="#000000" font-family="sans-serif" font-size="13" lengthAdjust="spacing" textLength="8" x="667.56" y="1301.2606">1</text><text fill="#000000" font-family="sans-serif" font-size="13" lengthAdjust="spacing" textLength="8" x="1146.0769" y="1073.7835">1</text><!--MD5=[d77f81c04b5b94c29a64005097f6855a]
link MedicalLabTechnician to Address--><path codeLine="233" d="M663.295,418.2059 C724.018,445.1659 797,477.5659 797,477.5659 C797,477.5659 1061,560.5659 1061,560.5659 C1061,560.5659 1091,772.5659 1091,772.5659 C1091,772.5659 1137.85,952.4029 1153.78,1013.5189 " fill="none" id="MedicalLabTechnician-Address" style="stroke:#A80036;stroke-width:1.0;"/><polygon fill="#000000" points="860.1794,472.9913,856.696,464.1416,852.1596,467.8792,860.1794,472.9913" style="stroke:#000000;stroke-width:1.0;"/><text fill="#000000" font-family="sans-serif" font-size="13" lengthAdjust="spacing" textLength="23" x="866" y="473.6328">has</text><text fill="#000000" font-family="sans-serif" font-size="13" lengthAdjust="spacing" textLength="8" x="670.8916" y="434.1285">1</text><text fill="#000000" font-family="sans-serif" font-size="13" lengthAdjust="spacing" textLength="8" x="1153.1279" y="1002.5134">1</text><!--MD5=[82f669ff494fd69460f2ac20154402f0]
link Courier to Address--><path codeLine="234" d="M639.542,885.6649 C755.473,918.6729 1017.67,993.3249 1118.47,1022.0249 " fill="none" id="Courier-Address" style="stroke:#A80036;stroke-width:1.0;"/><polygon fill="#000000" points="861.8089,925.5015,853.9143,920.198,852.3047,925.8512,861.8089,925.5015" style="stroke:#000000;stroke-width:1.0;"/><text fill="#000000" font-family="sans-serif" font-size="13" lengthAdjust="spacing" textLength="23" x="866" y="928.6328">has</text><text fill="#000000" font-family="sans-serif" font-size="13" lengthAdjust="spacing" textLength="8" x="647.4271" y="900.775">1</text><text fill="#000000" font-family="sans-serif" font-size="13" lengthAdjust="spacing" textLength="8" x="1102.36" y="1015.712">1</text><!--MD5=[3d4b00f9a1d6f682f770476806519291]
link Organization to ClinicalAnalysisLab--><path codeLine="236" d="M76.2311,896.5489 C111.007,847.6329 201.197,720.7729 252.461,648.6649 " fill="none" id="Organization-ClinicalAnalysisLab" style="stroke:#A80036;stroke-width:1.0;"/><polygon fill="#000000" points="152.8971,734.0572,145.2609,739.7263,150.0514,743.1321,152.8971,734.0572" style="stroke:#000000;stroke-width:1.0;"/><text fill="#000000" font-family="sans-serif" font-size="13" lengthAdjust="spacing" textLength="23" x="159" y="742.6328">has</text><text fill="#000000" font-family="sans-serif" font-size="13" lengthAdjust="spacing" textLength="8" x="71.5302" y="885.5522">1</text><text fill="#000000" font-family="sans-serif" font-size="13" lengthAdjust="spacing" textLength="23" x="222.8042" y="668.7478">1..*</text><!--MD5=[68714f73ef558de777e1b70b704362f4]
link Organization to ChemicalLab--><path codeLine="237" d="M70.3335,936.5999 C101.989,1012.6979 213,1279.5659 213,1279.5659 C213,1279.5659 243.635,1339.2329 266.132,1383.0509 " fill="none" id="Organization-ChemicalLab" style="stroke:#A80036;stroke-width:1.0;"/><polygon fill="#000000" points="152.0082,1115.7113,151.0668,1106.2475,145.6839,1108.6082,152.0082,1115.7113" style="stroke:#000000;stroke-width:1.0;"/><text fill="#000000" font-family="sans-serif" font-size="13" lengthAdjust="spacing" textLength="23" x="159" y="1115.6328">has</text><text fill="#000000" font-family="sans-serif" font-size="13" lengthAdjust="spacing" textLength="8" x="63.9002" y="956.7744">1</text><text fill="#000000" font-family="sans-serif" font-size="13" lengthAdjust="spacing" textLength="8" x="253.7882" y="1371.9933">1</text><!--MD5=[7471b15d97b16c1e8744ea00ac81bc31]
link Courier to Delivery--><path codeLine="239" d="M639.707,832.2749 C693.771,796.7219 767,748.5659 767,748.5659 C767,748.5659 797,633.5659 797,633.5659 C797,633.5659 813.852,624.7939 831.362,615.6789 " fill="none" id="Courier-Delivery" style="stroke:#A80036;stroke-width:1.0;"/><polygon fill="#000000" points="709.3134,736.3878,701.1184,741.2142,705.5204,745.1093,709.3134,736.3878" style="stroke:#000000;stroke-width:1.0;"/><text fill="#000000" font-family="sans-serif" font-size="13" lengthAdjust="spacing" textLength="43" x="715" y="744.6328">makes</text><text fill="#000000" font-family="sans-serif" font-size="13" lengthAdjust="spacing" textLength="8" x="647.6132" y="840.5444">1</text><text fill="#000000" font-family="sans-serif" font-size="13" lengthAdjust="spacing" textLength="23" x="798.9334" y="632.8492">1..*</text><!--MD5=[c3c6f94be6277ac0c69d9e5490d8e686]
link Delivery to Sample--><path codeLine="240" d="M912.208,581.6959 C967.283,562.6979 1065.54,528.8049 1119.98,510.0259 " fill="none" id="Delivery-Sample" style="stroke:#A80036;stroke-width:1.0;"/><polygon fill="#000000" points="1008.7267,520.5019,999.2177,520.6731,1001.1344,526.2297,1008.7267,520.5019" style="stroke:#000000;stroke-width:1.0;"/><text fill="#000000" font-family="sans-serif" font-size="13" lengthAdjust="spacing" textLength="23" x="1013" y="526.6328">has</text><text fill="#000000" font-family="sans-serif" font-size="13" lengthAdjust="spacing" textLength="8" x="919.9781" y="592.6794">1</text><text fill="#000000" font-family="sans-serif" font-size="13" lengthAdjust="spacing" textLength="23" x="1089.091" y="525.3274">1..*</text><!--MD5=[0f54ddb655beb324a1e0000440091ad3]
link ClinicalAnalysisLab to ClinicalAnalysis--><path codeLine="242" d="M322.482,544.5549 C397.165,419.1759 581,110.5659 581,110.5659 C581,110.5659 581,110.5659 1161,110.5659 C1161,110.5659 1282.49,108.7259 1360.8,107.5459 " fill="none" id="ClinicalAnalysisLab-ClinicalAnalysis" style="stroke:#A80036;stroke-width:1.0;"/><polygon fill="#000000" points="851.6085,100.1927,842.1316,100.9927,844.4118,106.4103,851.6085,100.1927" style="stroke:#000000;stroke-width:1.0;"/><text fill="#000000" font-family="sans-serif" font-size="13" lengthAdjust="spacing" textLength="43" x="856" y="106.6328">makes</text><text fill="#000000" font-family="sans-serif" font-size="13" lengthAdjust="spacing" textLength="8" x="318.2421" y="533.6324">1</text><text fill="#000000" font-family="sans-serif" font-size="13" lengthAdjust="spacing" textLength="23" x="1329.8388" y="120.493">1..*</text><!--MD5=[c60e02f9e5e8b1f77319fbe9ff05f314]
link ClinicalAnalysisLab to MedicalLabTechnician--><path codeLine="243" d="M361.949,544.4889 C404.21,513.2459 458.063,473.4459 501.797,441.1159 " fill="none" id="ClinicalAnalysisLab-MedicalLabTechnician" style="stroke:#A80036;stroke-width:1.0;"/><polygon fill="#000000" points="424.5208,452.1602,415.5002,455.1734,418.9941,459.9002,424.5208,452.1602" style="stroke:#000000;stroke-width:1.0;"/><text fill="#000000" font-family="sans-serif" font-size="13" lengthAdjust="spacing" textLength="23" x="429.5" y="459.6328">has</text><text fill="#000000" font-family="sans-serif" font-size="13" lengthAdjust="spacing" textLength="8" x="370.2012" y="551.6862">1</text><text fill="#000000" font-family="sans-serif" font-size="13" lengthAdjust="spacing" textLength="23" x="470.0566" y="459.4927">1..*</text><!--MD5=[352e6d04dbb1ab9c25bfd7cfd841b4cd]
link ClinicalAnalysisLab to Recepcionist--><path codeLine="244" d="M362.32,625.9209 C412.203,646.5979 478.099,673.9129 524.47,693.1339 " fill="none" id="ClinicalAnalysisLab-Recepcionist" style="stroke:#A80036;stroke-width:1.0;"/><polygon fill="#000000" points="425.1189,635.0469,417.8886,628.8685,415.6379,634.2983,425.1189,635.0469" style="stroke:#000000;stroke-width:1.0;"/><text fill="#000000" font-family="sans-serif" font-size="13" lengthAdjust="spacing" textLength="23" x="429.5" y="637.6328">has</text><text fill="#000000" font-family="sans-serif" font-size="13" lengthAdjust="spacing" textLength="8" x="370.1389" y="641.7941">1</text><text fill="#000000" font-family="sans-serif" font-size="13" lengthAdjust="spacing" textLength="23" x="493.4884" y="703.3763">1..*</text><!--MD5=[408b86aa4bbcc4c40c6982bd77ef3040]
link ClinicalAnalysisLab to Client--><path codeLine="245" d="M362.185,604.4419 C412.416,610.0389 471,616.5659 471,616.5659 C471,616.5659 663,640.5659 663,640.5659 C663,640.5659 750.038,677.5669 811.236,703.5839 " fill="none" id="ClinicalAnalysisLab-Client" style="stroke:#A80036;stroke-width:1.0;"/><polygon fill="#000000" points="572.8824,612.2103,564.6836,607.3904,563.4164,613.1301,572.8824,612.2103" style="stroke:#000000;stroke-width:1.0;"/><text fill="#000000" font-family="sans-serif" font-size="13" lengthAdjust="spacing" textLength="23" x="577" y="615.6328">has</text><text fill="#000000" font-family="sans-serif" font-size="13" lengthAdjust="spacing" textLength="8" x="369.99" y="618.1001">1</text><text fill="#000000" font-family="sans-serif" font-size="13" lengthAdjust="spacing" textLength="23" x="780.4415" y="713.7327">1..*</text><!--MD5=[3102c9c4c6a413f2efa632e554350e4b]
link ClinicalAnalysis to TypeOfTest--><path codeLine="247" d="M1491.24,158.7059 C1532.72,192.6359 1584.49,234.9759 1614.44,259.4759 " fill="none" id="ClinicalAnalysis-TypeOfTest" style="stroke:#A80036;stroke-width:1.0;"/><polygon fill="#000000" points="1530.8702,182.2979,1525.7296,174.2964,1522.0082,178.8462,1530.8702,182.2979" style="stroke:#000000;stroke-width:1.0;"/><text fill="#000000" font-family="sans-serif" font-size="13" lengthAdjust="spacing" textLength="22" x="1536" y="183.6328">is a</text><text fill="#000000" font-family="sans-serif" font-size="13" lengthAdjust="spacing" textLength="8" x="1491.4019" y="178.7943">1</text><text fill="#000000" font-family="sans-serif" font-size="13" lengthAdjust="spacing" textLength="8" x="1597.7568" y="248.4578">1</text><!--MD5=[fd40dbaa90f8ec80aacd0bce7fce4714]
link ChemicalLab to ClinicalChemistryTec--><path codeLine="249" d="M368.321,1395.3959 C410.366,1377.2419 462.3,1354.8179 504.323,1336.6729 " fill="none" id="ChemicalLab-ClinicalChemistryTec" style="stroke:#A80036;stroke-width:1.0;"/><polygon fill="#000000" points="425.0904,1340.1503,415.6213,1341.0377,417.9513,1346.434,425.0904,1340.1503" style="stroke:#000000;stroke-width:1.0;"/><text fill="#000000" font-family="sans-serif" font-size="13" lengthAdjust="spacing" textLength="23" x="429.5" y="1346.6328">has</text><text fill="#000000" font-family="sans-serif" font-size="13" lengthAdjust="spacing" textLength="8" x="376.1196" y="1405.012">1</text><text fill="#000000" font-family="sans-serif" font-size="13" lengthAdjust="spacing" textLength="23" x="473.3807" y="1352.3699">1..*</text><!--MD5=[1600e7a04f55ffc2da847b6165e155ca]
link BloodAnalysis to TypeOfTest--><path codeLine="253" d="M1484.73,245.2859 C1517.28,252.5159 1557.64,261.4859 1588.92,268.4359 " fill="none" id="BloodAnalysis-TypeOfTest" style="stroke:#A80036;stroke-width:1.0;"/><polygon fill="#000000" points="1531.881,247.2168,1523.6887,242.386,1522.4138,248.1239,1531.881,247.2168" style="stroke:#000000;stroke-width:1.0;"/><text fill="#000000" font-family="sans-serif" font-size="13" lengthAdjust="spacing" textLength="22" x="1536" y="250.6328">is a</text><text fill="#000000" font-family="sans-serif" font-size="13" lengthAdjust="spacing" textLength="8" x="1492.3143" y="259.8">1</text><text fill="#000000" font-family="sans-serif" font-size="13" lengthAdjust="spacing" textLength="8" x="1572.8301" y="279.9794">1</text><!--MD5=[ebe3de20e99ed7215ad002e5bb8feaff]
link CovidTest to TypeOfTest--><path codeLine="254" d="M1472.61,316.5359 C1506.7,308.9659 1553.49,298.5659 1588.77,290.7259 " fill="none" id="CovidTest-TypeOfTest" style="stroke:#A80036;stroke-width:1.0;"/><polygon fill="#000000" points="1531.881,287.0478,1522.4138,286.1408,1523.6887,291.8787,1531.881,287.0478" style="stroke:#000000;stroke-width:1.0;"/><text fill="#000000" font-family="sans-serif" font-size="13" lengthAdjust="spacing" textLength="22" x="1536" y="292.6328">is a</text><text fill="#000000" font-family="sans-serif" font-size="13" lengthAdjust="spacing" textLength="8" x="1480.5963" y="328.2102">1</text><text fill="#000000" font-family="sans-serif" font-size="13" lengthAdjust="spacing" textLength="8" x="1573.0033" y="305.4262">1</text><!--MD5=[0bde84c484199f8c429a86e32cc6847f]
link Client to LabOrder--><path codeLine="258" d="M930.578,652.3349 C939.064,641.2909 945,633.5659 945,633.5659 C945,633.5659 975,321.5659 975,321.5659 C975,321.5659 1054.24,269.4559 1108.72,233.6259 " fill="none" id="Client-LabOrder" style="stroke:#A80036;stroke-width:1.0;"/><polygon fill="#000000" points="1005.9575,254.5314,999.712,261.704,1005.1207,264.0051,1005.9575,254.5314" style="stroke:#000000;stroke-width:1.0;"/><text fill="#000000" font-family="sans-serif" font-size="13" lengthAdjust="spacing" textLength="23" x="1013" y="263.6328">has</text><text fill="#000000" font-family="sans-serif" font-size="13" lengthAdjust="spacing" textLength="8" x="938.3266" y="656.0186">1</text><text fill="#000000" font-family="sans-serif" font-size="13" lengthAdjust="spacing" textLength="23" x="1074.1449" y="253.2193">1..*</text><!--MD5=[5ea63eac58c27fa85012a05effbb153c]
link Client to Result--><path codeLine="259" d="M926.011,806.2529 C936.857,821.8539 945,833.5659 945,833.5659 C945,833.5659 1109.58,1327.2939 1150.08,1448.7973 " fill="none" id="Client-Result" style="stroke:#A80036;stroke-width:1.0;"/><polygon fill="#000000" points="981.6464,922.8535,981.4431,913.3451,975.893,915.2805,981.6464,922.8535" style="stroke:#000000;stroke-width:1.0;"/><text fill="#000000" font-family="sans-serif" font-size="13" lengthAdjust="spacing" textLength="71" x="989" y="922.6328">has access</text><text fill="#000000" font-family="sans-serif" font-size="13" lengthAdjust="spacing" textLength="8" x="922.873" y="826.434">1</text><text fill="#000000" font-family="sans-serif" font-size="13" lengthAdjust="spacing" textLength="23" x="1122.1266" y="1437.9775">1..*</text><!--MD5=[a1757db4d0ea5a43511b1008de7427d7]
link Client to Sample--><path codeLine="260" d="M930.506,683.3709 C986.014,640.4919 1061,582.5659 1061,582.5659 C1061,582.5659 1100,548.3389 1128.8,523.0659 " fill="none" id="Client-Sample" style="stroke:#A80036;stroke-width:1.0;"/><polygon fill="#000000" points="1007.8883,570.9889,999.0066,574.3899,1002.7019,578.9609,1007.8883,570.9889" style="stroke:#000000;stroke-width:1.0;"/><text fill="#000000" font-family="sans-serif" font-size="13" lengthAdjust="spacing" textLength="23" x="1013" y="578.6328">has</text><text fill="#000000" font-family="sans-serif" font-size="13" lengthAdjust="spacing" textLength="8" x="938.6427" y="690.6011">1</text><text fill="#000000" font-family="sans-serif" font-size="13" lengthAdjust="spacing" textLength="23" x="1095.9256" y="543.0333">1..*</text><!--MD5=[3d2d5cdd8aa6df365188843f8b3f5700]
link Client to Notification--><path codeLine="261" d="M930.771,728.5659 C982.43,728.5659 1056.91,728.5659 1106.58,728.5659 " fill="none" id="Client-Notification" style="stroke:#A80036;stroke-width:1.0;"/><polygon fill="#000000" points="993.5,720.1323,984.4549,717.1934,984.4549,723.0713,993.5,720.1323" style="stroke:#000000;stroke-width:1.0;"/><text fill="#000000" font-family="sans-serif" font-size="13" lengthAdjust="spacing" textLength="54" x="997.5" y="724.6328">receives</text><text fill="#000000" font-family="sans-serif" font-size="13" lengthAdjust="spacing" textLength="8" x="938.5431" y="741.5402">1</text><text fill="#000000" font-family="sans-serif" font-size="13" lengthAdjust="spacing" textLength="8" x="1090.8642" y="741.6627">1</text><!--MD5=[5f67dab0d973f01dfda7ca35f967c316]
link Doctor to LabOrder--><path codeLine="266" d="M907.768,200.5659 C953.449,200.5659 1033.45,200.5659 1090.92,200.5659 " fill="none" id="Doctor-LabOrder" style="stroke:#A80036;stroke-width:1.0;"/><polygon fill="#000000" points="987.5,192.1323,978.4549,189.1934,978.4549,195.0713,987.5,192.1323" style="stroke:#000000;stroke-width:1.0;"/><text fill="#000000" font-family="sans-serif" font-size="13" lengthAdjust="spacing" textLength="66" x="991.5" y="196.6328">prescribes</text><text fill="#000000" font-family="sans-serif" font-size="13" lengthAdjust="spacing" textLength="8" x="915.5394" y="214.0752">1</text><text fill="#000000" font-family="sans-serif" font-size="13" lengthAdjust="spacing" textLength="23" x="1059.9879" y="213.3969">1..*</text><!--MD5=[a92870a4747a4a48d48d5d5e5ecf3e20]
link Recepcionist to Client--><path codeLine="270" d="M639.702,718.9369 C689.364,721.0129 761.241,724.0189 811.445,726.1179 " fill="none" id="Recepcionist-Client" style="stroke:#A80036;stroke-width:1.0;"/><polygon fill="#000000" points="704.4956,712.3412,695.5812,709.027,695.3357,714.8997,704.4956,712.3412" style="stroke:#000000;stroke-width:1.0;"/><text fill="#000000" font-family="sans-serif" font-size="13" lengthAdjust="spacing" textLength="56" x="708.5" y="716.6328">registers</text><text fill="#000000" font-family="sans-serif" font-size="13" lengthAdjust="spacing" textLength="8" x="647.6076" y="732.2881">1</text><text fill="#000000" font-family="sans-serif" font-size="13" lengthAdjust="spacing" textLength="23" x="780.6734" y="738.7314">1..*</text><!--MD5=[88cf698b9e26ed04cfb8d51d0c9515ef]
link Recepcionist to TypeOfTest--><path codeLine="271" d="M639.861,668.2339 C652.891,657.1579 663,648.5659 663,648.5659 C663,648.5659 797,457.5659 797,457.5659 C797,457.5659 1492,364.5659 1492,364.5659 C1492,364.5659 1560.69,324.8459 1604.16,299.7059 " fill="none" id="Recepcionist-TypeOfTest" style="stroke:#A80036;stroke-width:1.0;"/><polygon fill="#000000" points="1134.1705,389.3474,1124.6723,389.8311,1126.7706,395.3217,1134.1705,389.3474" style="stroke:#000000;stroke-width:1.0;"/><text fill="#000000" font-family="sans-serif" font-size="13" lengthAdjust="spacing" textLength="56" x="1138.5" y="395.6328">registers</text><text fill="#000000" font-family="sans-serif" font-size="13" lengthAdjust="spacing" textLength="8" x="647.4003" y="675.343">1</text><text fill="#000000" font-family="sans-serif" font-size="13" lengthAdjust="spacing" textLength="23" x="1597.3144" y="319.5652">1..*</text><!--MD5=[49f9c994ab9013da19f25c37bbd596b3]
link SpecialistDoctor to Result--><path codeLine="274" d="M363.598,1259.5439 C424.199,1312.4799 501,1379.5659 501,1379.5659 C501,1379.5659 693,1526.5659 693,1526.5659 C693,1526.5659 767,1526.5659 767,1526.5659 C767,1526.5659 1031.41,1492.1656 1125.92,1479.8702 " fill="none" id="SpecialistDoctor-Result" style="stroke:#A80036;stroke-width:1.0;"/><polygon fill="#000000" points="706.3034,1519.5206,698.43,1514.1858,696.798,1519.8326,706.3034,1519.5206" style="stroke:#000000;stroke-width:1.0;"/><text fill="#000000" font-family="sans-serif" font-size="13" lengthAdjust="spacing" textLength="52" x="710.5" y="1522.6328">analysis</text><text fill="#000000" font-family="sans-serif" font-size="13" lengthAdjust="spacing" textLength="8" x="371.5487" y="1278.9046">1</text><text fill="#000000" font-family="sans-serif" font-size="13" lengthAdjust="spacing" textLength="23" x="1095.0859" y="1476.416">1..*</text><!--MD5=[35c5d5b78cc27fdb07caaeeaa436e174]
link SpecialistDoctor to Report--><path codeLine="275" d="M363.806,1163.0979 C421.921,1136.1989 501.025,1099.5839 545.975,1078.7779 " fill="none" id="SpecialistDoctor-Report" style="stroke:#A80036;stroke-width:1.0;"/><polygon fill="#000000" points="417.0375,1103.0321,407.5946,1104.1644,410.0636,1109.4985,417.0375,1103.0321" style="stroke:#000000;stroke-width:1.0;"/><text fill="#000000" font-family="sans-serif" font-size="13" lengthAdjust="spacing" textLength="39" x="421.5" y="1109.6328">writes</text><text fill="#000000" font-family="sans-serif" font-size="13" lengthAdjust="spacing" textLength="8" x="371.4158" y="1172.6332">1</text><text fill="#000000" font-family="sans-serif" font-size="13" lengthAdjust="spacing" textLength="23" x="515.1037" y="1094.7831">1..*</text><!--MD5=[b976dc212cb2239d28d9b5e4e2f89d16]
link ExternalModule to Report--><path codeLine="277" d="M352.525,1078.2849 C376.321,1078.9549 398,1079.5659 398,1079.5659 C398,1079.5659 471,1079.5659 471,1079.5659 C471,1079.5659 513.701,1072.9669 545.893,1067.9919 " fill="none" id="ExternalModule-Report" style="stroke:#A80036;stroke-width:1.0;"/><polygon fill="#000000" points="407.9929,1070.8665,398.8044,1068.4126,399.1169,1074.2821,407.9929,1070.8665" style="stroke:#000000;stroke-width:1.0;"/><text fill="#000000" font-family="sans-serif" font-size="13" lengthAdjust="spacing" textLength="58" x="412" y="1075.6328">validates</text><text fill="#000000" font-family="sans-serif" font-size="13" lengthAdjust="spacing" textLength="8" x="360.5718" y="1091.4835">1</text><text fill="#000000" font-family="sans-serif" font-size="13" lengthAdjust="spacing" textLength="23" x="515.0081" y="1064.7263">1..*</text><!--MD5=[1dbb730aa792675a530b390feeeb5270]
link Report to Client--><path codeLine="279" d="M600.307,1042.4249 C641.148,994.8949 745.065,873.9599 811.331,796.8429 " fill="none" id="Report-Client" style="stroke:#A80036;stroke-width:1.0;"/><polygon fill="#000000" points="701.2586,843.3401,693.1347,848.285,697.5928,852.1157,701.2586,843.3401" style="stroke:#000000;stroke-width:1.0;"/><text fill="#000000" font-family="sans-serif" font-size="13" lengthAdjust="spacing" textLength="59" x="707" y="851.6328">delivered</text><text fill="#000000" font-family="sans-serif" font-size="13" lengthAdjust="spacing" textLength="23" x="579.3066" y="1031.3918">1..*</text><text fill="#000000" font-family="sans-serif" font-size="13" lengthAdjust="spacing" textLength="8" x="795.5713" y="818.1385">1</text><!--MD5=[816217ef3f85df4b873a3bf15588a55e]
link LabCoordinator to Report--><path codeLine="283" d="M305.71,271.0759 C327.833,362.1759 368,527.5659 368,527.5659 C368,527.5659 398,695.5659 398,695.5659 C398,695.5659 501,945.5659 501,945.5659 C501,945.5659 544.374,1009.0009 567.248,1042.4529 " fill="none" id="LabCoordinator-Report" style="stroke:#A80036;stroke-width:1.0;"/><polygon fill="#000000" points="404.6055,691.8676,404.4844,682.3578,398.9178,684.2451,404.6055,691.8676" style="stroke:#000000;stroke-width:1.0;"/><text fill="#000000" font-family="sans-serif" font-size="13" lengthAdjust="spacing" textLength="58" x="412" y="691.6328">validates</text><text fill="#000000" font-family="sans-serif" font-size="13" lengthAdjust="spacing" textLength="8" x="299.0062" y="290.7928">1</text><text fill="#000000" font-family="sans-serif" font-size="13" lengthAdjust="spacing" textLength="23" x="536.5365" y="1031.428">1..*</text><!--MD5=[30d096b03d39b1b3ab33674d5724bd8b]
link LabCoordinator to ClinicalAnalysis--><path codeLine="284" d="M340.386,153.8059 C368.383,120.1659 398,84.5659 398,84.5659 C398,84.5659 581,23.5659 581,23.5659 C581,23.5659 581,23.5659 1161,23.5659 C1161,23.5659 1282.49,61.6859 1360.8,86.2659 " fill="none" id="LabCoordinator-ClinicalAnalysis" style="stroke:#A80036;stroke-width:1.0;"/><polygon fill="#000000" points="844.4891,14.8021,835.2696,12.467,835.6578,18.332,844.4891,14.8021" style="stroke:#000000;stroke-width:1.0;"/><text fill="#000000" font-family="sans-serif" font-size="13" lengthAdjust="spacing" textLength="58" x="848.5" y="19.6328">validates</text><text fill="#000000" font-family="sans-serif" font-size="13" lengthAdjust="spacing" textLength="8" x="337.9784" y="142.8159">1</text><text fill="#000000" font-family="sans-serif" font-size="13" lengthAdjust="spacing" textLength="23" x="1329.8388" y="97.0185">1..*</text><!--MD5=[c53e7453e6a717074da786ec487f080e]
link ClinicalChemistryTec to Sample--><path codeLine="288" d="M611.185,1244.8899 C643.776,1177.0409 693,1074.5659 693,1074.5659 C693,1074.5659 945,994.5659 945,994.5659 C945,994.5659 1061,840.5659 1061,840.5659 C1061,840.5659 1091,684.5659 1091,684.5659 C1091,684.5659 1130.66,574.9249 1149.4,523.1059 " fill="none" id="ClinicalChemistryTec-Sample" style="stroke:#A80036;stroke-width:1.0;"/><polygon fill="#000000" points="844.4889,982.124,836.7259,987.6183,841.438,991.1319,844.4889,982.124" style="stroke:#000000;stroke-width:1.0;"/><text fill="#000000" font-family="sans-serif" font-size="13" lengthAdjust="spacing" textLength="54" x="850.5" y="990.6328">receives</text><text fill="#000000" font-family="sans-serif" font-size="13" lengthAdjust="spacing" textLength="8" x="606.2544" y="1233.9102">1</text><text fill="#000000" font-family="sans-serif" font-size="13" lengthAdjust="spacing" textLength="23" x="1149.6081" y="543.0825">1..*</text><!--MD5=[544a7c80d8905dfe00e210485ffb5075]
link ClinicalChemistryTec to ChemicalAnalysis--><path codeLine="289" d="M659.534,1321.4329 C704.368,1331.8989 760.445,1344.9899 803.439,1355.0269 " fill="none" id="ClinicalChemistryTec-ChemicalAnalysis" style="stroke:#A80036;stroke-width:1.0;"/><polygon fill="#000000" points="710.8691,1323.269,702.7289,1318.3508,701.3927,1324.0747,710.8691,1323.269" style="stroke:#000000;stroke-width:1.0;"/><text fill="#000000" font-family="sans-serif" font-size="13" lengthAdjust="spacing" textLength="43" x="715" y="1326.6328">makes</text><text fill="#000000" font-family="sans-serif" font-size="13" lengthAdjust="spacing" textLength="8" x="667.56" y="1336.0119">1</text><text fill="#000000" font-family="sans-serif" font-size="13" lengthAdjust="spacing" textLength="23" x="772.2858" y="1366.2503">1..*</text><!--MD5=[a6c9fcecc4108b1f7eb6b7747e2dc5d9]
link ChemicalAnalysis to Result--><path codeLine="294" d="M909.477,1409.8619 C938.927,1440.7418 975,1478.5659 975,1478.5659 C975,1478.5659 1061,1478.5659 1061,1478.5659 C1061,1478.5659 1097.39,1477.4519 1125.82,1476.5816 " fill="none" id="ChemicalAnalysis-Result" style="stroke:#A80036;stroke-width:1.0;"/><polygon fill="#000000" points="987.7779,1471.6058,980.0007,1466.1318,978.2685,1471.7486,987.7779,1471.6058" style="stroke:#000000;stroke-width:1.0;"/><text fill="#000000" font-family="sans-serif" font-size="13" lengthAdjust="spacing" textLength="65" x="992" y="1474.6328">generates</text><text fill="#000000" font-family="sans-serif" font-size="13" lengthAdjust="spacing" textLength="8" x="907.4027" y="1429.9477">1</text><text fill="#000000" font-family="sans-serif" font-size="13" lengthAdjust="spacing" textLength="8" x="1109.9454" y="1490.4387">1</text><!--MD5=[0a29b4543c1af9e8341b856b8b8ec05c]
link MedicalLabTechnician to Sample--><path codeLine="298" d="M663.09,398.4159 C788.438,423.2259 1026.3,470.3059 1119.83,488.8159 " fill="none" id="MedicalLabTechnician-Sample" style="stroke:#A80036;stroke-width:1.0;"/><polygon fill="#000000" points="849.4049,418.1031,841.1025,413.4639,839.9613,419.2299,849.4049,418.1031" style="stroke:#000000;stroke-width:1.0;"/><text fill="#000000" font-family="sans-serif" font-size="13" lengthAdjust="spacing" textLength="48" x="853.5" y="421.6328">collects</text><text fill="#000000" font-family="sans-serif" font-size="13" lengthAdjust="spacing" textLength="8" x="670.9342" y="412.6494">1</text><text fill="#000000" font-family="sans-serif" font-size="13" lengthAdjust="spacing" textLength="23" x="1088.918" y="500.8697">1..*</text><!--MD5=[da53d94a9abbb7ccf4f38b9cba1696ee]
link MedicalLabTechnician to SampleRegistration--><path codeLine="299" d="M663.232,338.0759 C680.149,328.6959 693,321.5659 693,321.5659 C693,321.5659 748.229,307.2159 796.985,294.5459 " fill="none" id="MedicalLabTechnician-SampleRegistration" style="stroke:#A80036;stroke-width:1.0;"/><polygon fill="#000000" points="710.7545,292.585,701.244,292.5895,703.063,298.1788,710.7545,292.585" style="stroke:#000000;stroke-width:1.0;"/><text fill="#000000" font-family="sans-serif" font-size="13" lengthAdjust="spacing" textLength="43" x="715" y="298.6328">makes</text><text fill="#000000" font-family="sans-serif" font-size="13" lengthAdjust="spacing" textLength="8" x="671.0893" y="346.7468">1</text><text fill="#000000" font-family="sans-serif" font-size="13" lengthAdjust="spacing" textLength="23" x="766.1016" y="309.0601">1..*</text><!--MD5=[38b93e46f8905a763b7493345d02609e]
link SampleRegistration to Sample--><path codeLine="302" d="M903.382,295.7659 C923.168,308.5059 945,322.5659 945,322.5659 C945,322.5659 1061,414.5659 1061,414.5659 C1061,414.5659 1091,442.5659 1091,442.5659 C1091,442.5659 1108.27,456.2759 1125.4,469.8859 " fill="none" id="SampleRegistration-Sample" style="stroke:#A80036;stroke-width:1.0;"/><polygon fill="#000000" points="1007.9344,341.2179,1002.6307,333.3235,999.0034,337.9486,1007.9344,341.2179" style="stroke:#000000;stroke-width:1.0;"/><text fill="#000000" font-family="sans-serif" font-size="13" lengthAdjust="spacing" textLength="23" x="1013" y="342.6328">has</text><text fill="#000000" font-family="sans-serif" font-size="13" lengthAdjust="spacing" textLength="8" x="903.3644" y="315.6421">1</text><text fill="#000000" font-family="sans-serif" font-size="13" lengthAdjust="spacing" textLength="23" x="1091.7394" y="459.0866">1..*</text><!--MD5=[2c844afaaa78398d31b5f91fe298448e]
link LabOrder to ClinicalAnalysis--><path codeLine="305" d="M1229.17,181.7159 C1276.46,168.6459 1331,153.5659 1331,153.5659 C1331,153.5659 1344.29,146.9559 1360.9,138.6959 " fill="none" id="LabOrder-ClinicalAnalysis" style="stroke:#A80036;stroke-width:1.0;"/><polygon fill="#000000" points="1268.753,143.5801,1259.2424,143.5944,1261.0671,149.1818,1268.753,143.5801" style="stroke:#000000;stroke-width:1.0;"/><text fill="#000000" font-family="sans-serif" font-size="13" lengthAdjust="spacing" textLength="57" x="1273" y="149.6328">indicates</text><text fill="#000000" font-family="sans-serif" font-size="13" lengthAdjust="spacing" textLength="23" x="1237.111" y="192.6913">1..*</text><text fill="#000000" font-family="sans-serif" font-size="13" lengthAdjust="spacing" textLength="23" x="1329.9491" y="154.8553">1..*</text><!--MD5=[ad424cc9adc5c03326992550f76310e1]
@startuml
skinparam classAttributeIconSize 0
hide methods
left to right direction
skinparam linetype polyline


Class Organization{


}

 

class ClinicalAnalysisLab{
-int id
-String name
-String location
-int phoneNumber
-int TINnumber

}

 

class ClinicalAnalysis{
-int internalCode
-int NHScode
-String method
-Date validationDate
-Hour validationHour
}

 

Class ChemicalLab{
-String name
-int phoneNumber
-int teamNumber
-int numberPositivResults
}

 

Class ChemicalAnalysis{
-Date dateChemical
-Hour hourChemical
-Date hourDiagnostic
}

Class Notification{
-String message
}

 

Class BloodAnalysis{
-int numberRBC
-int numberWBC
-int numberPLT

}

 

Class CovidTest{

 

}

 

Class Sample{
-int barcode
}

 

Class Client{
-int cardNumber
-int nhs
-int birthDate
-String sex
-int TIF
-int  phoneNumber
-String email
-String name
-int password
}

 

Class LabOrder{
-String typeOfTest
-int parToBeMeasured
}

 

Class Doctor{

}


Class Recepcionist{
-int ID
-String role
-String nome
-int phoneNumber
-String email
-int SOC

}

Class Address{

}

 


Class SpecialistDoctor{
-int ID
-String role
-String nome
-int phoneNumber
-String email
-int SOC
-int doctorIndexNumber
 

}

 

Class Result{
-int result


}

 

Class ExternalModule{

 

}

 

Class Report{

 

}

 

Class ClinicalChemistryTec{
-int ID
-String role
-String nome
-int phoneNumber
-String email
-int SOC
}

 

Class MedicalLabTechnician{
-int ID
-String role
-String nome
-int phoneNumber
-String email
-int SOC
 

}

 

Class TypeOfTest{

 

}

 

Class Courier{
-int ID
-String role
-String nome
-int phoneNumber
-String email
-int SOC
 

}

 

Class Delivery{

 

}


Class LabCoordinator{
-int ID
-String role
-String nome
-int phoneNumber
-String email
-int SOC
 
}


class SampleRegistration{

}
 
Client"1" - - "1" Address : has >
Recepcionist"1" - - "1" Address : has >
SpecialistDoctor"1" - - "1" Address : has >
ClinicalAnalysisLab"1" - - "1" Address : has >
ChemicalLab"1" - - "1" Address : has >
ClinicalChemistryTec"1" - - "1" Address : has >
MedicalLabTechnician"1" - - "1" Address : has >
Courier "1" - - "1" Address : has >

Organization "1" - - "1..*" ClinicalAnalysisLab : has >
Organization "1" - - "1" ChemicalLab : has >

Courier "1" - - "1..*" Delivery : makes >
Delivery "1" - - "1..*" Sample : has >

ClinicalAnalysisLab "1" - - "1..*" ClinicalAnalysis : makes >
ClinicalAnalysisLab "1" - - "1..*" MedicalLabTechnician : has >
ClinicalAnalysisLab "1" - - "1..*" Recepcionist : has >
ClinicalAnalysisLab "1" - - "1..*" Client : has >

ClinicalAnalysis "1" - - "1" TypeOfTest : is a >
 
ChemicalLab "1" - - "1..*" ClinicalChemistryTec : has >



BloodAnalysis "1" - - "1" TypeOfTest : is a >
CovidTest "1" - - "1"  TypeOfTest : is a >

 

Client "1" - - "1..*" LabOrder : has >
Client "1" - - "1..*" Result : has access >
Client "1" - - "1..*" Sample : has >
Client"1" - - "1" Notification : receives >


 

Doctor "1" - - "1..*" LabOrder : prescribes >

 

Recepcionist "1" - - "1..*" Client : registers >
Recepcionist "1" - - "1..*" TypeOfTest : registers >


SpecialistDoctor "1" - - "1..*" Result : analysis >
SpecialistDoctor "1" - - "1..*" Report : writes >

ExternalModule "1" - - "1..*" Report : validates >

Report "1..*" - - "1" Client : delivered >

 

LabCoordinator "1" - -"1..*" Report : validates >
LabCoordinator "1" - -"1..*" ClinicalAnalysis : validates >

 

ClinicalChemistryTec "1" - - "1..*" Sample : receives >
ClinicalChemistryTec "1" - - "1..*" ChemicalAnalysis : makes >


 

ChemicalAnalysis "1" - - "1" Result : generates >

 

MedicalLabTechnician "1" - - "1..*" Sample : collects >
MedicalLabTechnician "1" - - "1..*" SampleRegistration : makes >


SampleRegistration "1" - - "1..*" Sample : has >


LabOrder "1..*" - - "1..*" ClinicalAnalysis : indicates >
@enduml

PlantUML version 1.2021.5beta3(Unknown compile time)
(GPL source distribution)
Java Runtime: Java(TM) SE Runtime Environment
JVM: Java HotSpot(TM) 64-Bit Server VM
Default Encoding: UTF-8
Language: en
Country: US
--></g></svg>