<?xml version="1.0" encoding="UTF-8" standalone="no"?><svg xmlns="http://www.w3.org/2000/svg" xmlns:xlink="http://www.w3.org/1999/xlink" contentScriptType="application/ecmascript" contentStyleType="text/css" height="2771px" preserveAspectRatio="none" style="width:838px;height:2771px;" version="1.1" viewBox="0 0 838 2771" width="838px" zoomAndPan="magnify"><defs><filter height="300%" id="f14xwucb1ki282" width="300%" x="-1" y="-1"><feGaussianBlur result="blurOut" stdDeviation="2.0"/><feColorMatrix in="blurOut" result="blurOut2" type="matrix" values="0 0 0 0 0 0 0 0 0 0 0 0 0 0 0 0 0 0 .4 0"/><feOffset dx="4.0" dy="4.0" in="blurOut2" result="blurOut3"/><feBlend in="SourceGraphic" in2="blurOut3" mode="normal"/></filter></defs><g><ellipse cx="559.212" cy="2638.8424" fill="#FEFECE" filter="url(#f14xwucb1ki282)" rx="139.712" ry="30.3424" style="stroke:#A80036;stroke-width:1.5;"/><text fill="#000000" font-family="sans-serif" font-size="14" lengthAdjust="spacing" textLength="249" x="434.712" y="2641.6891">UC1 - Perform_clinical_blood_tests</text><ellipse cx="558.9468" cy="2732.0894" fill="#FEFECE" filter="url(#f14xwucb1ki282)" rx="125.9468" ry="27.5894" style="stroke:#A80036;stroke-width:1.5;"/><text fill="#000000" font-family="sans-serif" font-size="14" lengthAdjust="spacing" textLength="220" x="448.9468" y="2734.936">UC2 - Performs_covid-19_tests</text><ellipse cx="559.0721" cy="2543.9144" fill="#FEFECE" filter="url(#f14xwucb1ki282)" rx="132.5721" ry="28.9144" style="stroke:#A80036;stroke-width:1.5;"/><text fill="#000000" font-family="sans-serif" font-size="14" lengthAdjust="spacing" textLength="234" x="442.0721" y="2546.7611">UC3 - Perform_chemical_analysis</text><ellipse cx="559.1608" cy="2287.8322" fill="#FEFECE" filter="url(#f14xwucb1ki282)" rx="267.1608" ry="55.8322" style="stroke:#A80036;stroke-width:1.5;"/><text fill="#000000" font-family="sans-serif" font-size="14" lengthAdjust="spacing" textLength="510" x="304.1608" y="2290.6788">UC4 - Registers_in_the_App_the_test_to_be_performed_to_that_client</text><ellipse cx="559.0966" cy="2412.2193" fill="#FEFECE" filter="url(#f14xwucb1ki282)" rx="154.0966" ry="33.2193" style="stroke:#A80036;stroke-width:1.5;"/><text fill="#000000" font-family="sans-serif" font-size="14" lengthAdjust="spacing" textLength="279" x="419.5966" y="2415.066">UC5 - Registers_the_client_in_the_App</text><ellipse cx="558.8042" cy="2166.9608" fill="#FEFECE" filter="url(#f14xwucb1ki282)" rx="137.8042" ry="29.9608" style="stroke:#A80036;stroke-width:1.5;"/><text fill="#000000" font-family="sans-serif" font-size="14" lengthAdjust="spacing" textLength="245" x="436.3042" y="2169.8075">UC6 - Prescribes_laboratory_order</text><ellipse cx="559.1339" cy="1845.0268" fill="#FEFECE" filter="url(#f14xwucb1ki282)" rx="153.1339" ry="33.0268" style="stroke:#A80036;stroke-width:1.5;"/><text fill="#000000" font-family="sans-serif" font-size="14" lengthAdjust="spacing" textLength="277" x="420.6339" y="1847.8735">UC7 - Records_samples_in_the_system</text><ellipse cx="559.2461" cy="1951.9492" fill="#FEFECE" filter="url(#f14xwucb1ki282)" rx="180.2461" ry="38.4492" style="stroke:#A80036;stroke-width:1.5;"/><text fill="#000000" font-family="sans-serif" font-size="14" lengthAdjust="spacing" textLength="333" x="392.7461" y="1954.7959">UC8 - Associates_the_samples_with_the_client</text><ellipse cx="558.8002" cy="2064.06" fill="#FEFECE" filter="url(#f14xwucb1ki282)" rx="178.3002" ry="38.06" style="stroke:#A80036;stroke-width:1.5;"/><text fill="#000000" font-family="sans-serif" font-size="14" lengthAdjust="spacing" textLength="329" x="394.3002" y="2066.9067">UC9 - Identifies_each_sample_with_a_barcode</text><ellipse cx="559.1894" cy="1629.9379" fill="#FEFECE" filter="url(#f14xwucb1ki282)" rx="140.1894" ry="30.4379" style="stroke:#A80036;stroke-width:1.5;"/><text fill="#000000" font-family="sans-serif" font-size="14" lengthAdjust="spacing" textLength="250" x="434.1894" y="1632.7846">UC10 - Performs_chemical_analysis</text><ellipse cx="558.9686" cy="1736.0937" fill="#FEFECE" filter="url(#f14xwucb1ki282)" rx="190.9686" ry="40.5937" style="stroke:#A80036;stroke-width:1.5;"/><text fill="#000000" font-family="sans-serif" font-size="14" lengthAdjust="spacing" textLength="355" x="381.4686" y="1738.9404">UC11 - Records_the_results_in_the_App_software</text><ellipse cx="559.0203" cy="1363.8041" fill="#FEFECE" filter="url(#f14xwucb1ki282)" rx="99.5203" ry="22.3041" style="stroke:#A80036;stroke-width:1.5;"/><text fill="#000000" font-family="sans-serif" font-size="14" lengthAdjust="spacing" textLength="159" x="477.5203" y="1366.6507">UC12 - Write_a_report</text><ellipse cx="558.9298" cy="1453.086" fill="#FEFECE" filter="url(#f14xwucb1ki282)" rx="145.9298" ry="31.586" style="stroke:#A80036;stroke-width:1.5;"/><text fill="#000000" font-family="sans-serif" font-size="14" lengthAdjust="spacing" textLength="262" x="427.9298" y="1455.9326">UC13 - Diagnoses_chemical-analyzes</text><ellipse cx="558.7652" cy="1281.153" fill="#FEFECE" filter="url(#f14xwucb1ki282)" rx="113.7652" ry="25.153" style="stroke:#A80036;stroke-width:1.5;"/><text fill="#000000" font-family="sans-serif" font-size="14" lengthAdjust="spacing" textLength="194" x="461.7652" y="1283.9997">UC14 - Transports_samples</text><ellipse cx="559.2292" cy="444.0458" fill="#FEFECE" filter="url(#f14xwucb1ki282)" rx="150.7292" ry="32.5458" style="stroke:#A80036;stroke-width:1.5;"/><text fill="#000000" font-family="sans-serif" font-size="14" lengthAdjust="spacing" textLength="272" x="423.2292" y="446.8925">UC15 - Validates_values_automatically</text><ellipse cx="558.8417" cy="255.7683" fill="#FEFECE" filter="url(#f14xwucb1ki282)" rx="176.8417" ry="37.7683" style="stroke:#A80036;stroke-width:1.5;"/><text fill="#000000" font-family="sans-serif" font-size="14" lengthAdjust="spacing" textLength="326" x="395.8417" y="258.615">UC16 - Validates_the_results_of_the_analyzes</text><ellipse cx="558.8679" cy="353.1736" fill="#FEFECE" filter="url(#f14xwucb1ki282)" rx="106.3679" ry="23.6736" style="stroke:#A80036;stroke-width:1.5;"/><text fill="#000000" font-family="sans-serif" font-size="14" lengthAdjust="spacing" textLength="178" x="469.8679" y="356.0203">UC17 - Validates_reports</text><ellipse cx="559.1502" cy="32.93" fill="#FEFECE" filter="url(#f14xwucb1ki282)" rx="122.6502" ry="26.93" style="stroke:#A80036;stroke-width:1.5;"/><text fill="#000000" font-family="sans-serif" font-size="14" lengthAdjust="spacing" textLength="213" x="452.6502" y="35.7767">UC18 - Receive_a_notification</text><ellipse cx="559.138" cy="139.0276" fill="#FEFECE" filter="url(#f14xwucb1ki282)" rx="205.638" ry="43.5276" style="stroke:#A80036;stroke-width:1.5;"/><text fill="#000000" font-family="sans-serif" font-size="14" lengthAdjust="spacing" textLength="385" x="366.638" y="141.8743">UC19 - Access_the_application_to_view_those_results</text><ellipse cx="559.2105" cy="538.2421" fill="#FEFECE" filter="url(#f14xwucb1ki282)" rx="121.7105" ry="26.7421" style="stroke:#A80036;stroke-width:1.5;"/><text fill="#000000" font-family="sans-serif" font-size="14" lengthAdjust="spacing" textLength="211" x="453.7105" y="541.0888">UC20 - Allow_ordering_clients</text><ellipse cx="559.0296" cy="636.0059" fill="#FEFECE" filter="url(#f14xwucb1ki282)" rx="170.5296" ry="36.5059" style="stroke:#A80036;stroke-width:1.5;"/><text fill="#000000" font-family="sans-serif" font-size="14" lengthAdjust="spacing" textLength="313" x="402.5296" y="638.8526">UC21 - Implement_a_brute-force_algorithm</text><ellipse cx="558.7916" cy="755.1583" fill="#FEFECE" filter="url(#f14xwucb1ki282)" rx="223.7916" ry="47.1583" style="stroke:#A80036;stroke-width:1.5;"/><text fill="#000000" font-family="sans-serif" font-size="14" lengthAdjust="spacing" textLength="422" x="347.7916" y="758.005">UC22 - Identify_the_number_of_Covid-19_tests_performed</text><ellipse cx="559.1177" cy="881.2235" fill="#FEFECE" filter="url(#f14xwucb1ki282)" rx="206.6177" ry="43.7235" style="stroke:#A80036;stroke-width:1.5;"/><text fill="#000000" font-family="sans-serif" font-size="14" lengthAdjust="spacing" textLength="387" x="365.6177" y="884.0702">UC23 - Identify_all_positive_results_to_Covid-19_tests</text><ellipse cx="559.232" cy="1002.1464" fill="#FEFECE" filter="url(#f14xwucb1ki282)" rx="201.232" ry="42.6464" style="stroke:#A80036;stroke-width:1.5;"/><text fill="#000000" font-family="sans-serif" font-size="14" lengthAdjust="spacing" textLength="376" x="371.232" y="1004.9931">UC24 - Report_the_total_number_of_Covid-19_cases</text><ellipse cx="558.8359" cy="1104.9672" fill="#FEFECE" filter="url(#f14xwucb1ki282)" rx="112.8359" ry="24.9672" style="stroke:#A80036;stroke-width:1.5;"/><text fill="#000000" font-family="sans-serif" font-size="14" lengthAdjust="spacing" textLength="192" x="462.8359" y="1107.8139">UC25 - Send_the_forecasts</text><ellipse cx="558.9752" cy="1192.995" fill="#FEFECE" filter="url(#f14xwucb1ki282)" rx="125.4752" ry="27.495" style="stroke:#A80036;stroke-width:1.5;"/><text fill="#000000" font-family="sans-serif" font-size="14" lengthAdjust="spacing" textLength="219" x="449.4752" y="1195.8417">UC26 - Generate_daily_reports</text><ellipse cx="559.0673" cy="1542.2135" fill="#FEFECE" filter="url(#f14xwucb1ki282)" rx="99.0673" ry="22.2135" style="stroke:#A80036;stroke-width:1.5;"/><text fill="#000000" font-family="sans-serif" font-size="14" lengthAdjust="spacing" textLength="162" x="478.0673" y="1545.0601">UC27 - Send_a_reports</text><!--MD5=[3d138a599284e5d32709e50138d6df59]
entity CAL--><ellipse cx="119" cy="2665" fill="#FEFECE" filter="url(#f14xwucb1ki282)" rx="8" ry="8" style="stroke:#A80036;stroke-width:1.5;"/><path d="M119,2673 L119,2700 M106,2681 L132,2681 M119,2700 L106,2715 M119,2700 L132,2715 " fill="none" filter="url(#f14xwucb1ki282)" style="stroke:#A80036;stroke-width:1.5;"/><text fill="#000000" font-family="sans-serif" font-size="14" lengthAdjust="spacing" textLength="207" x="15.5" y="2733.4951">Clinical Analysis Laboratories</text><!--MD5=[ff2d61647fb09ddd586bbb3af474de91]
entity CL--><ellipse cx="119" cy="2513" fill="#FEFECE" filter="url(#f14xwucb1ki282)" rx="8" ry="8" style="stroke:#A80036;stroke-width:1.5;"/><path d="M119,2521 L119,2548 M106,2529 L132,2529 M119,2548 L106,2563 M119,2548 L132,2563 " fill="none" filter="url(#f14xwucb1ki282)" style="stroke:#A80036;stroke-width:1.5;"/><text fill="#000000" font-family="sans-serif" font-size="14" lengthAdjust="spacing" textLength="149" x="44.5" y="2581.4951">Chemical Laboratory</text><!--MD5=[87a04b683345c3cce94ac9a6e159ab2f]
entity Receptionist--><ellipse cx="119" cy="2345" fill="#FEFECE" filter="url(#f14xwucb1ki282)" rx="8" ry="8" style="stroke:#A80036;stroke-width:1.5;"/><path d="M119,2353 L119,2380 M106,2361 L132,2361 M119,2380 L106,2395 M119,2380 L132,2395 " fill="none" filter="url(#f14xwucb1ki282)" style="stroke:#A80036;stroke-width:1.5;"/><text fill="#000000" font-family="sans-serif" font-size="14" lengthAdjust="spacing" textLength="93" x="72.5" y="2413.4951">Receptionist</text><!--MD5=[5a5d35bcfc46556bdff8e646cc6c81c2]
entity Doctor--><ellipse cx="119" cy="2136" fill="#FEFECE" filter="url(#f14xwucb1ki282)" rx="8" ry="8" style="stroke:#A80036;stroke-width:1.5;"/><path d="M119,2144 L119,2171 M106,2152 L132,2152 M119,2171 L106,2186 M119,2171 L132,2186 " fill="none" filter="url(#f14xwucb1ki282)" style="stroke:#A80036;stroke-width:1.5;"/><text fill="#000000" font-family="sans-serif" font-size="14" lengthAdjust="spacing" textLength="50" x="94" y="2204.4951">Doctor</text><!--MD5=[e7d38603a700bedb049d1f5e1789c8aa]
entity MLT--><ellipse cx="119" cy="1921" fill="#FEFECE" filter="url(#f14xwucb1ki282)" rx="8" ry="8" style="stroke:#A80036;stroke-width:1.5;"/><path d="M119,1929 L119,1956 M106,1937 L132,1937 M119,1956 L106,1971 M119,1956 L132,1971 " fill="none" filter="url(#f14xwucb1ki282)" style="stroke:#A80036;stroke-width:1.5;"/><text fill="#000000" font-family="sans-serif" font-size="14" lengthAdjust="spacing" textLength="165" x="36.5" y="1989.4951">Medical Lab Technician</text><!--MD5=[234b11d210a3d78b3bcac40f493e1b07]
entity CCT--><ellipse cx="119" cy="1652" fill="#FEFECE" filter="url(#f14xwucb1ki282)" rx="8" ry="8" style="stroke:#A80036;stroke-width:1.5;"/><path d="M119,1660 L119,1687 M106,1668 L132,1668 M119,1687 L106,1702 M119,1687 L132,1702 " fill="none" filter="url(#f14xwucb1ki282)" style="stroke:#A80036;stroke-width:1.5;"/><text fill="#000000" font-family="sans-serif" font-size="14" lengthAdjust="spacing" textLength="226" x="6" y="1720.4951">Clinical Chemistry Technologist</text><!--MD5=[f0e91d5aa74c2411969e7ef072c6f268]
entity SD--><ellipse cx="119" cy="1422" fill="#FEFECE" filter="url(#f14xwucb1ki282)" rx="8" ry="8" style="stroke:#A80036;stroke-width:1.5;"/><path d="M119,1430 L119,1457 M106,1438 L132,1438 M119,1457 L106,1472 M119,1457 L132,1472 " fill="none" filter="url(#f14xwucb1ki282)" style="stroke:#A80036;stroke-width:1.5;"/><text fill="#000000" font-family="sans-serif" font-size="14" lengthAdjust="spacing" textLength="124" x="57" y="1490.4951">Specialist Doctor</text><!--MD5=[bdb2ac92bfe1e6fbc6059865f0149400]
entity Courier--><ellipse cx="119" cy="1250" fill="#FEFECE" filter="url(#f14xwucb1ki282)" rx="8" ry="8" style="stroke:#A80036;stroke-width:1.5;"/><path d="M119,1258 L119,1285 M106,1266 L132,1266 M119,1285 L106,1300 M119,1285 L132,1300 " fill="none" filter="url(#f14xwucb1ki282)" style="stroke:#A80036;stroke-width:1.5;"/><text fill="#000000" font-family="sans-serif" font-size="14" lengthAdjust="spacing" textLength="52" x="93" y="1318.4951">Courier</text><!--MD5=[b0100dfa164aec77c855c16afe11d7ec]
entity LC--><ellipse cx="119" cy="274" fill="#FEFECE" filter="url(#f14xwucb1ki282)" rx="8" ry="8" style="stroke:#A80036;stroke-width:1.5;"/><path d="M119,282 L119,309 M106,290 L132,290 M119,309 L106,324 M119,309 L132,324 " fill="none" filter="url(#f14xwucb1ki282)" style="stroke:#A80036;stroke-width:1.5;"/><text fill="#000000" font-family="sans-serif" font-size="14" lengthAdjust="spacing" textLength="169" x="34.5" y="342.4951">Laboratory Coordinator</text><!--MD5=[0ba5ee7700168656dc1b457c6fe9fdac]
entity Client--><ellipse cx="119" cy="55" fill="#FEFECE" filter="url(#f14xwucb1ki282)" rx="8" ry="8" style="stroke:#A80036;stroke-width:1.5;"/><path d="M119,63 L119,90 M106,71 L132,71 M119,90 L106,105 M119,90 L132,105 " fill="none" filter="url(#f14xwucb1ki282)" style="stroke:#A80036;stroke-width:1.5;"/><text fill="#000000" font-family="sans-serif" font-size="14" lengthAdjust="spacing" textLength="43" x="97.5" y="123.4951">Client</text><!--MD5=[0c981058d8ccf143d62a7a0086f9dc69]
entity Organization--><ellipse cx="119" cy="787" fill="#FEFECE" filter="url(#f14xwucb1ki282)" rx="8" ry="8" style="stroke:#A80036;stroke-width:1.5;"/><path d="M119,795 L119,822 M106,803 L132,803 M119,822 L106,837 M119,822 L132,837 " fill="none" filter="url(#f14xwucb1ki282)" style="stroke:#A80036;stroke-width:1.5;"/><text fill="#000000" font-family="sans-serif" font-size="14" lengthAdjust="spacing" textLength="92" x="73" y="855.4951">Organization</text><!--MD5=[752c06e124136524c3042e46c784b416]
link CAL to UC1--><path d="M222.692,2682.636 C285.655,2674.4422 366.687,2663.8969 433.319,2655.226 " fill="none" id="CAL-to-UC1" style="stroke:#A80036;stroke-width:1.0;"/><polygon fill="#A80036" points="438.497,2654.552,429.0566,2651.745,433.5387,2655.1963,430.0874,2659.6783,438.497,2654.552" style="stroke:#A80036;stroke-width:1.0;"/><!--MD5=[4beb4e26fc364b61387ea927d3c002cc]
link CAL to UC2--><path d="M222.692,2704.4404 C286.394,2709.6762 368.592,2716.4322 435.66,2721.9446 " fill="none" id="CAL-to-UC2" style="stroke:#A80036;stroke-width:1.0;"/><polygon fill="#A80036" points="440.87,2722.3729,432.227,2717.6508,435.8867,2721.9643,431.5732,2725.6241,440.87,2722.3729" style="stroke:#A80036;stroke-width:1.0;"/><!--MD5=[62bfef0941f4384ad66f1e200954b88d]
link CL to UC3--><path d="M193.805,2544 C255.708,2544 345.78,2544 420.858,2544 " fill="none" id="CL-to-UC3" style="stroke:#A80036;stroke-width:1.0;"/><polygon fill="#A80036" points="426.238,2544,417.238,2540,421.238,2544,417.238,2548,426.238,2544" style="stroke:#A80036;stroke-width:1.0;"/><!--MD5=[580bd904bf5bb4915d508c6693e85430]
link Receptionist to UC4--><path d="M165.634,2366.831 C212.28,2357.46 287.972,2342.252 360.49,2327.682 " fill="none" id="Receptionist-to-UC4" style="stroke:#A80036;stroke-width:1.0;"/><polygon fill="#A80036" points="365.705,2326.635,356.093,2324.488,360.8031,2327.6208,357.6703,2332.3309,365.705,2326.635" style="stroke:#A80036;stroke-width:1.0;"/><!--MD5=[09ee2ede6e70e7ec3946ec17f5d7e818]
link Receptionist to UC5--><path d="M165.634,2379.751 C222.993,2384.465 324.272,2392.789 409.563,2399.8 " fill="none" id="Receptionist-to-UC5" style="stroke:#A80036;stroke-width:1.0;"/><polygon fill="#A80036" points="414.64,2400.217,405.9983,2395.4924,409.6568,2399.807,405.3423,2403.4655,414.64,2400.217" style="stroke:#A80036;stroke-width:1.0;"/><!--MD5=[9819999ae250df96bd59b30eb6fcde80]
link Doctor to UC6--><path d="M144.173,2167 C195.179,2167 317.213,2167 415.625,2167 " fill="none" id="Doctor-to-UC6" style="stroke:#A80036;stroke-width:1.0;"/><polygon fill="#A80036" points="420.884,2167,411.884,2163,415.884,2167,411.884,2171,420.884,2167" style="stroke:#A80036;stroke-width:1.0;"/><!--MD5=[87ab96c0ec11b51a44eef0503c3ecce8]
link MLT to UC7--><path d="M201.623,1923.109 C230.006,1913.682 262.197,1903.676 292,1896 C337.161,1884.368 387.254,1874.094 431.679,1865.872 " fill="none" id="MLT-to-UC7" style="stroke:#A80036;stroke-width:1.0;"/><polygon fill="#A80036" points="436.789,1864.93,427.2133,1862.6265,431.8717,1865.8357,428.6625,1870.4942,436.789,1864.93" style="stroke:#A80036;stroke-width:1.0;"/><!--MD5=[9972b51d31f74f62a9386d58b2f1ed9a]
link MLT to UC8--><path d="M201.614,1952 C250.122,1952 313.714,1952 373.735,1952 " fill="none" id="MLT-to-UC8" style="stroke:#A80036;stroke-width:1.0;"/><polygon fill="#A80036" points="378.788,1952,369.788,1948,373.788,1952,369.788,1956,378.788,1952" style="stroke:#A80036;stroke-width:1.0;"/><!--MD5=[596e484266f91563909e002ef00de175]
link MLT to UC9--><path d="M201.704,1980.584 C230.093,1989.986 262.267,2000.055 292,2008 C333.183,2019.005 378.421,2029.216 419.724,2037.823 " fill="none" id="MLT-to-UC9" style="stroke:#A80036;stroke-width:1.0;"/><polygon fill="#A80036" points="424.741,2038.865,416.7412,2033.1201,419.8453,2037.8493,415.1161,2040.9533,424.741,2038.865" style="stroke:#A80036;stroke-width:1.0;"/><!--MD5=[0529b40aff1984dfdf1a17ba5be3ca14]
link CCT to UC10--><path d="M232.227,1669.42 C292.874,1662.08 367.985,1652.99 430.796,1645.39 " fill="none" id="CCT-to-UC10" style="stroke:#A80036;stroke-width:1.0;"/><polygon fill="#A80036" points="436.063,1644.75,426.6467,1641.8631,431.0994,1645.3522,427.6103,1649.8049,436.063,1644.75" style="stroke:#A80036;stroke-width:1.0;"/><!--MD5=[3d3e38007deab5d42e744fcde949732b]
link CCT to UC11--><path d="M232.227,1696.58 C279.494,1702.3 335.547,1709.08 387.715,1715.39 " fill="none" id="CCT-to-UC11" style="stroke:#A80036;stroke-width:1.0;"/><polygon fill="#A80036" points="392.751,1716,384.2983,1710.9451,387.7874,1715.3978,383.3347,1718.8869,392.751,1716" style="stroke:#A80036;stroke-width:1.0;"/><!--MD5=[6ca0ef08659782dcef224c552a8dba3b]
link SD to UC12--><path d="M181.213,1433.49 C213.846,1423.62 254.827,1412.06 292,1404 C349.032,1391.64 413.764,1381.82 465.091,1375 " fill="none" id="SD-to-UC12" style="stroke:#A80036;stroke-width:1.0;"/><polygon fill="#A80036" points="470.331,1374.31,460.885,1371.5221,465.374,1374.9643,461.9318,1379.4533,470.331,1374.31" style="stroke:#A80036;stroke-width:1.0;"/><!--MD5=[c0fa65b284683212cbcc65c980a35f0c]
link SD to UC13--><path d="M181.363,1453 C239.764,1453 329.982,1453 407.478,1453 " fill="none" id="SD-to-UC13" style="stroke:#A80036;stroke-width:1.0;"/><polygon fill="#A80036" points="412.564,1453,403.564,1449,407.564,1453,403.564,1457,412.564,1453" style="stroke:#A80036;stroke-width:1.0;"/><!--MD5=[1ab4b781e43186752d9e0c93f334c1f6]
link Courier to UC14--><path d="M145.122,1281 C200.984,1281 338.532,1281 439.581,1281 " fill="none" id="Courier-to-UC14" style="stroke:#A80036;stroke-width:1.0;"/><polygon fill="#A80036" points="444.667,1281,435.667,1277,439.667,1281,435.667,1285,444.667,1281" style="stroke:#A80036;stroke-width:1.0;"/><!--MD5=[5e41e4a3cac91df071e1ffee3fd75d11]
link Organization to UC15--><path d="M129.327,777.42 C147.627,707.56 195.175,565.23 292,494 C324.42,470.15 364.924,456.66 404.472,449.27 " fill="none" id="Organization-to-UC15" style="stroke:#A80036;stroke-width:1.0;"/><polygon fill="#A80036" points="409.793,448.31,400.2256,445.9725,404.8725,449.1983,401.6468,453.8452,409.793,448.31" style="stroke:#A80036;stroke-width:1.0;"/><!--MD5=[7bbea3255460f5b30013dfb3dc6faaf3]
link LC to UC16--><path d="M203.674,295.64 C258.124,289.55 330.929,281.4 396.378,274.08 " fill="none" id="LC-to-UC16" style="stroke:#A80036;stroke-width:1.0;"/><polygon fill="#A80036" points="401.478,273.51,392.0893,270.5346,396.5089,274.0654,392.9781,278.485,401.478,273.51" style="stroke:#A80036;stroke-width:1.0;"/><!--MD5=[53b6dbc7a706edee6a986904a9cd6ff6]
link LC to UC17--><path d="M203.674,314.17 C276.2,322.12 381.292,333.63 458.189,342.06 " fill="none" id="LC-to-UC17" style="stroke:#A80036;stroke-width:1.0;"/><polygon fill="#A80036" points="463.213,342.61,454.7032,337.6519,458.2429,342.0644,453.8303,345.6041,463.213,342.61" style="stroke:#A80036;stroke-width:1.0;"/><!--MD5=[111191a29d5855db616e991f23647bbe]
link Client to UC18--><path d="M140.538,83.51 C194.177,77.02 341.54,59.19 445.937,46.56 " fill="none" id="Client-to-UC18" style="stroke:#A80036;stroke-width:1.0;"/><polygon fill="#A80036" points="451.187,45.92,441.7716,43.0304,446.2232,46.5208,442.7329,50.9725,451.187,45.92" style="stroke:#A80036;stroke-width:1.0;"/><!--MD5=[1ce092281fb4481ecb0c39bedebf5a1e]
link Client to UC19--><path d="M140.538,88.49 C182.783,93.6 283.164,105.74 374.903,116.84 " fill="none" id="Client-to-UC19" style="stroke:#A80036;stroke-width:1.0;"/><polygon fill="#A80036" points="380.097,117.47,371.6411,112.4204,375.133,116.8709,370.6826,120.3628,380.097,117.47" style="stroke:#A80036;stroke-width:1.0;"/><!--MD5=[d6736b0cb27d419e7ca4e061779b5a7e]
link Organization to UC20--><path d="M137.422,777.44 C162.931,723.35 215.828,628.96 292,582 C333.519,556.4 385.31,544.35 432.132,539.07 " fill="none" id="Organization-to-UC20" style="stroke:#A80036;stroke-width:1.0;"/><polygon fill="#A80036" points="437.23,538.51,427.8515,535.5026,432.2591,539.0485,428.7132,543.4561,437.23,538.51" style="stroke:#A80036;stroke-width:1.0;"/><!--MD5=[e9d84839152ef1e6a20a9e7221b0ae84]
link Organization to UC21--><path d="M163.663,777.36 C196.55,748.96 244.04,712.41 292,691 C327.749,675.04 368.288,663.64 406.749,655.53 " fill="none" id="Organization-to-UC21" style="stroke:#A80036;stroke-width:1.0;"/><polygon fill="#A80036" points="411.916,654.46,402.2914,652.37,407.0201,655.4749,403.9152,660.2035,411.916,654.46" style="stroke:#A80036;stroke-width:1.0;"/><!--MD5=[acf9d1673f7fdc9022841eaefd5c171a]
link Organization to UC22--><path d="M165.224,811.5 C213.517,804.55 293.274,793.08 368.346,782.28 " fill="none" id="Organization-to-UC22" style="stroke:#A80036;stroke-width:1.0;"/><polygon fill="#A80036" points="373.742,781.5,364.265,778.8191,368.7927,782.2103,365.4015,786.738,373.742,781.5" style="stroke:#A80036;stroke-width:1.0;"/><!--MD5=[ca5f9107af19f8c6f7881b910ac1c896]
link Organization to UC23--><path d="M165.224,824.5 C216.661,831.9 303.793,844.44 382.94,855.82 " fill="none" id="Organization-to-UC23" style="stroke:#A80036;stroke-width:1.0;"/><polygon fill="#A80036" points="388.141,856.57,379.8005,851.332,383.1917,855.8597,378.664,859.2509,388.141,856.57" style="stroke:#A80036;stroke-width:1.0;"/><!--MD5=[2b125a2d9457f9b00aa323f42e9ec2a1]
link Organization to UC24--><path d="M165.352,858.56 C198.311,885.98 245.178,920.91 292,942 C323.267,956.08 358.136,967 392.067,975.42 " fill="none" id="Organization-to-UC24" style="stroke:#A80036;stroke-width:1.0;"/><polygon fill="#A80036" points="397.066,976.64,389.2747,970.6154,392.2093,975.4515,387.3732,978.3861,397.066,976.64" style="stroke:#A80036;stroke-width:1.0;"/><!--MD5=[936dcc12ac97a5762e40732b0768a64c]
link Organization to UC25--><path d="M136.384,858.54 C161.171,914.24 213.765,1013.11 292,1062 C336.011,1089.5 391.832,1101.24 440.961,1105.72 " fill="none" id="Organization-to-UC25" style="stroke:#A80036;stroke-width:1.0;"/><polygon fill="#A80036" points="445.999,1106.15,437.376,1101.3914,441.0175,1105.7204,436.6886,1109.3619,445.999,1106.15" style="stroke:#A80036;stroke-width:1.0;"/><!--MD5=[6954ee3f9ccf30ed5b0b145d521f51fb]
link Organization to UC26--><path d="M128.748,858.65 C146.319,929.76 192.998,1075.97 292,1148 C331.101,1176.45 381.924,1189.27 428.657,1194.44 " fill="none" id="Organization-to-UC26" style="stroke:#A80036;stroke-width:1.0;"/><polygon fill="#A80036" points="433.748,1194.98,425.2157,1190.0606,428.7754,1194.457,424.379,1198.0167,433.748,1194.98" style="stroke:#A80036;stroke-width:1.0;"/><!--MD5=[fdf44ce82819cbdcda120f3fde99fb91]
link SD to UC27--><path d="M181.213,1472.51 C213.846,1482.38 254.827,1493.94 292,1502 C349.363,1514.43 414.516,1524.3 465.983,1531.12 " fill="none" id="SD-to-UC27" style="stroke:#A80036;stroke-width:1.0;"/><polygon fill="#A80036" points="471.237,1531.81,462.8363,1526.6691,466.2798,1531.1571,461.7918,1534.6006,471.237,1531.81" style="stroke:#A80036;stroke-width:1.0;"/><!--MD5=[e6378569e1ff364d7f6377cb4ca212ed]
@startuml
left to right direction
usecase "UC1 - Perform_clinical_blood_tests" as UC1
usecase "UC2 - Performs_covid-19_tests" as UC2
usecase "UC3 - Perform_chemical_analysis" as UC3
usecase "UC4 - Registers_in_the_App_the_test_to_be_performed_to_that_client" as UC4
usecase "UC5 - Registers_the_client_in_the_App" as UC5
usecase "UC6 - Prescribes_laboratory_order" as UC6
usecase "UC7 - Records_samples_in_the_system" as UC7
usecase "UC8 - Associates_the_samples_with_the_client" as UC8
usecase "UC9 - Identifies_each_sample_with_a_barcode" as UC9
usecase "UC10 - Performs_chemical_analysis" as UC10
usecase "UC11 - Records_the_results_in_the_App_software" as UC11
usecase "UC12 - Write_a_report " as UC12
usecase "UC13 - Diagnoses_chemical-analyzes" as UC13
usecase "UC14 - Transports_samples" as UC14
usecase "UC15 - Validates_values_automatically" as UC15
usecase "UC16 - Validates_the_results_of_the_analyzes" as UC16
usecase "UC17 - Validates_reports" as UC17
usecase "UC18 - Receive_a_notification" as UC18
usecase "UC19 - Access_the_application_to_view_those_results" as UC19
usecase "UC20 - Allow_ordering_clients" as UC20
usecase "UC21 - Implement_a_brute-force_algorithm" as UC21
usecase "UC22 - Identify_the_number_of_Covid-19_tests_performed" as UC22
usecase "UC23 - Identify_all_positive_results_to_Covid-19_tests" as UC23
usecase "UC24 - Report_the_total_number_of_Covid-19_cases" as UC24
usecase "UC25 - Send_the_forecasts" as UC25
usecase "UC26 - Generate_daily_reports" as UC26
usecase "UC27 - Send_a_reports" as UC27


 

actor CAL as "Clinical Analysis Laboratories"
actor CL as "Chemical Laboratory"
actor Receptionist as "Receptionist"
actor Doctor as "Doctor"
actor MLT as "Medical Lab Technician"
actor CCT as "Clinical Chemistry Technologist"
actor SD as "Specialist Doctor"
actor Courier as "Courier"
actor LC as "Laboratory Coordinator"
actor Client as "Client"
actor Organization as "Organization"


 

CAL - -> (UC1)
CAL - -> (UC2)
CL - -> (UC3)
Receptionist - -> (UC4)
Receptionist - -> (UC5)
Doctor - -> (UC6)
MLT - -> (UC7)
MLT - -> (UC8)
MLT - -> (UC9)
CCT - -> (UC10)
CCT - -> (UC11)
SD - -> (UC12)
SD - -> (UC13)
Courier - -> (UC14)
Organization - -> (UC15)
LC - -> (UC16)
LC - -> (UC17)
Client - -> (UC18)
Client - -> (UC19)
Organization - -> (UC20)
Organization - -> (UC21)
Organization - -> (UC22)
Organization - -> (UC23)
Organization - -> (UC24)
Organization - -> (UC25)
Organization - -> (UC26)
SD - -> (UC27)
@enduml

PlantUML version 1.2021.5beta3(Unknown compile time)
(GPL source distribution)
Java Runtime: Java(TM) SE Runtime Environment
JVM: Java HotSpot(TM) 64-Bit Server VM
Default Encoding: UTF-8
Language: en
Country: US
--></g></svg>