<?xml version="1.0" encoding="UTF-8" standalone="no"?><svg xmlns="http://www.w3.org/2000/svg" xmlns:xlink="http://www.w3.org/1999/xlink" contentScriptType="application/ecmascript" contentStyleType="text/css" height="368px" preserveAspectRatio="none" style="width:161px;height:368px;" version="1.1" viewBox="0 0 161 368" width="161px" zoomAndPan="magnify"><defs><filter height="300%" id="f1k63rpb6ywx9k" width="300%" x="-1" y="-1"><feGaussianBlur result="blurOut" stdDeviation="2.0"/><feColorMatrix in="blurOut" result="blurOut2" type="matrix" values="0 0 0 0 0 0 0 0 0 0 0 0 0 0 0 0 0 0 .4 0"/><feOffset dx="4.0" dy="4.0" in="blurOut2" result="blurOut3"/><feBlend in="SourceGraphic" in2="blurOut3" mode="normal"/></filter></defs><g><!--MD5=[6b74681d88d6a5df1af22857acd5be75]
class ValidationUI--><rect codeLine="3" fill="#FEFECE" filter="url(#f1k63rpb6ywx9k)" height="48" id="ValidationUI" style="stroke:#A80036;stroke-width:1.5;" width="98" x="28" y="7"/><ellipse cx="43" cy="23" fill="#ADD1B2" rx="11" ry="11" style="stroke:#A80036;stroke-width:1.0;"/><path d="M45,19.5 Q45.2031,19 45.4375,18.75 Q45.6719,18.5 45.9375,18.5 Q46.4063,18.5 46.7031,18.7813 Q47,19.0625 47,19.7188 L47,21.2813 Q47,21.9375 46.7188,22.2188 Q46.4375,22.5 46,22.5 Q45.6094,22.5 45.3594,22.3281 Q45.1094,22.1563 45,21.7031 Q44.9531,21.3906 44.7813,21.2188 Q44.4688,20.8906 43.9063,20.7031 Q43.3438,20.5 42.7813,20.5 Q42.0781,20.5 41.4844,20.7813 Q40.9063,21.0625 40.4531,21.6875 Q40,22.3125 40,23.1719 L40,24.0938 Q40,25.125 40.8438,25.8125 Q41.6875,26.5 43.1875,26.5 Q44.0781,26.5 44.7031,26.2969 Q45.0625,26.1875 45.4688,25.8281 Q45.7344,25.625 45.875,25.5625 Q46.0156,25.5 46.1875,25.5 Q46.5156,25.5 46.75,25.7656 Q47,26.0156 47,26.375 Q47,26.7188 46.6563,27.125 Q46.1563,27.7188 45.3594,28.0469 Q44.3125,28.5 43.0313,28.5 Q41.5313,28.5 40.3281,27.9063 Q39.3594,27.4375 38.6719,26.4219 Q38,25.4063 38,24.2031 L38,23.1094 Q38,21.8594 38.5938,20.7656 Q39.2031,19.6719 40.25,19.0938 Q41.3125,18.5 42.5,18.5 Q43.2188,18.5 43.8438,18.75 Q44.4688,19 45,19.5 Z " fill="#000000"/><text fill="#000000" font-family="sans-serif" font-size="12" lengthAdjust="spacing" textLength="66" x="57" y="27.9102">ValidationUI</text><line style="stroke:#A80036;stroke-width:1.5;" x1="29" x2="125" y1="39" y2="39"/><line style="stroke:#A80036;stroke-width:1.5;" x1="29" x2="125" y1="47" y2="47"/><!--MD5=[c83e865530b86129c533921fe8806bee]
class ValidationController--><rect codeLine="6" fill="#FEFECE" filter="url(#f1k63rpb6ywx9k)" height="89.5078" id="ValidationController" style="stroke:#A80036;stroke-width:1.5;" width="140" x="7" y="115"/><ellipse cx="22" cy="131" fill="#ADD1B2" rx="11" ry="11" style="stroke:#A80036;stroke-width:1.0;"/><path d="M24,127.5 Q24.2031,127 24.4375,126.75 Q24.6719,126.5 24.9375,126.5 Q25.4063,126.5 25.7031,126.7813 Q26,127.0625 26,127.7188 L26,129.2813 Q26,129.9375 25.7188,130.2188 Q25.4375,130.5 25,130.5 Q24.6094,130.5 24.3594,130.3281 Q24.1094,130.1563 24,129.7031 Q23.9531,129.3906 23.7813,129.2188 Q23.4688,128.8906 22.9063,128.7031 Q22.3438,128.5 21.7813,128.5 Q21.0781,128.5 20.4844,128.7813 Q19.9063,129.0625 19.4531,129.6875 Q19,130.3125 19,131.1719 L19,132.0938 Q19,133.125 19.8438,133.8125 Q20.6875,134.5 22.1875,134.5 Q23.0781,134.5 23.7031,134.2969 Q24.0625,134.1875 24.4688,133.8281 Q24.7344,133.625 24.875,133.5625 Q25.0156,133.5 25.1875,133.5 Q25.5156,133.5 25.75,133.7656 Q26,134.0156 26,134.375 Q26,134.7188 25.6563,135.125 Q25.1563,135.7188 24.3594,136.0469 Q23.3125,136.5 22.0313,136.5 Q20.5313,136.5 19.3281,135.9063 Q18.3594,135.4375 17.6719,134.4219 Q17,133.4063 17,132.2031 L17,131.1094 Q17,129.8594 17.5938,128.7656 Q18.2031,127.6719 19.25,127.0938 Q20.3125,126.5 21.5,126.5 Q22.2188,126.5 22.8438,126.75 Q23.4688,127 24,127.5 Z " fill="#000000"/><text fill="#000000" font-family="sans-serif" font-size="12" lengthAdjust="spacing" textLength="108" x="36" y="135.9102">ValidationController</text><line style="stroke:#A80036;stroke-width:1.5;" x1="8" x2="146" y1="147" y2="147"/><rect fill="none" height="6" style="stroke:#C82930;stroke-width:1.0;" width="6" x="15" y="155"/><text fill="#000000" font-family="sans-serif" font-size="11" lengthAdjust="spacing" textLength="24" x="27" y="162.4189">code</text><line style="stroke:#A80036;stroke-width:1.5;" x1="8" x2="146" y1="168.8359" y2="168.8359"/><ellipse cx="18" cy="179.8359" fill="#84BE84" rx="3" ry="3" style="stroke:#038048;stroke-width:1.0;"/><text fill="#000000" font-family="sans-serif" font-size="11" lengthAdjust="spacing" textLength="95" x="27" y="184.2549">getDiagnosedTest()</text><ellipse cx="18" cy="193.6719" fill="#84BE84" rx="3" ry="3" style="stroke:#038048;stroke-width:1.0;"/><text fill="#000000" font-family="sans-serif" font-size="11" lengthAdjust="spacing" textLength="69" x="27" y="198.0908">validate(code)</text><!--MD5=[0f6f7964b844a64b0496af0dda7914bd]
class TestStore--><rect codeLine="11" fill="#FEFECE" filter="url(#f1k63rpb6ywx9k)" height="89.5078" id="TestStore" style="stroke:#A80036;stroke-width:1.5;" width="121" x="16.5" y="265"/><ellipse cx="47.7" cy="281" fill="#ADD1B2" rx="11" ry="11" style="stroke:#A80036;stroke-width:1.0;"/><path d="M49.7,277.5 Q49.9031,277 50.1375,276.75 Q50.3719,276.5 50.6375,276.5 Q51.1063,276.5 51.4031,276.7813 Q51.7,277.0625 51.7,277.7188 L51.7,279.2813 Q51.7,279.9375 51.4188,280.2188 Q51.1375,280.5 50.7,280.5 Q50.3094,280.5 50.0594,280.3281 Q49.8094,280.1563 49.7,279.7031 Q49.6531,279.3906 49.4813,279.2188 Q49.1688,278.8906 48.6063,278.7031 Q48.0438,278.5 47.4813,278.5 Q46.7781,278.5 46.1844,278.7813 Q45.6063,279.0625 45.1531,279.6875 Q44.7,280.3125 44.7,281.1719 L44.7,282.0938 Q44.7,283.125 45.5438,283.8125 Q46.3875,284.5 47.8875,284.5 Q48.7781,284.5 49.4031,284.2969 Q49.7625,284.1875 50.1688,283.8281 Q50.4344,283.625 50.575,283.5625 Q50.7156,283.5 50.8875,283.5 Q51.2156,283.5 51.45,283.7656 Q51.7,284.0156 51.7,284.375 Q51.7,284.7188 51.3563,285.125 Q50.8563,285.7188 50.0594,286.0469 Q49.0125,286.5 47.7313,286.5 Q46.2313,286.5 45.0281,285.9063 Q44.0594,285.4375 43.3719,284.4219 Q42.7,283.4063 42.7,282.2031 L42.7,281.1094 Q42.7,279.8594 43.2938,278.7656 Q43.9031,277.6719 44.95,277.0938 Q46.0125,276.5 47.2,276.5 Q47.9188,276.5 48.5438,276.75 Q49.1688,277 49.7,277.5 Z " fill="#000000"/><text fill="#000000" font-family="sans-serif" font-size="12" lengthAdjust="spacing" textLength="53" x="65.3" y="285.9102">TestStore</text><line style="stroke:#A80036;stroke-width:1.5;" x1="17.5" x2="136.5" y1="297" y2="297"/><rect fill="none" height="6" style="stroke:#C82930;stroke-width:1.0;" width="6" x="24.5" y="305"/><text fill="#000000" font-family="sans-serif" font-size="11" lengthAdjust="spacing" textLength="24" x="36.5" y="312.4189">code</text><line style="stroke:#A80036;stroke-width:1.5;" x1="17.5" x2="136.5" y1="318.8359" y2="318.8359"/><ellipse cx="27.5" cy="329.8359" fill="#84BE84" rx="3" ry="3" style="stroke:#038048;stroke-width:1.0;"/><text fill="#000000" font-family="sans-serif" font-size="11" lengthAdjust="spacing" textLength="95" x="36.5" y="334.2549">getDiagnosedTest()</text><ellipse cx="27.5" cy="343.6719" fill="#84BE84" rx="3" ry="3" style="stroke:#038048;stroke-width:1.0;"/><text fill="#000000" font-family="sans-serif" font-size="11" lengthAdjust="spacing" textLength="71" x="36.5" y="348.0908">setValid(code)</text><!--MD5=[c51f54259aad5b7ff86ac8d3162c026c]
link ValidationUI to ValidationController--><path codeLine="17" d="M77,55.29 C77,70.48 77,90.88 77,109.56 " fill="none" id="ValidationUI-to-ValidationController" style="stroke:#A80036;stroke-width:1.0;stroke-dasharray:7.0,7.0;"/><polygon fill="#A80036" points="77,114.78,81,105.78,77,109.78,73,105.78,77,114.78" style="stroke:#A80036;stroke-width:1.0;"/><!--MD5=[fd7091a1f29d977fcff3077cba5615be]
link ValidationController to TestStore--><path codeLine="18" d="M77,205 C77,222.15 77,241.87 77,259.51 " fill="none" id="ValidationController-to-TestStore" style="stroke:#A80036;stroke-width:1.0;stroke-dasharray:7.0,7.0;"/><polygon fill="#A80036" points="77,264.91,81,255.91,77,259.91,73,255.91,77,264.91" style="stroke:#A80036;stroke-width:1.0;"/><!--MD5=[a4ea759448eba50eed43ffe25c9f772c]
@startuml
'https://plantuml.com/class-diagram

class ValidationUI{

}
class ValidationController{
-code
+ getDiagnosedTest()
+ validate(code)
}
class TestStore{
-code
+getDiagnosedTest()
+setValid(code)
}

ValidationUI ..> ValidationController
ValidationController ..> TestStore


@enduml

@startuml

class ValidationUI{

}
class ValidationController{
-code
+ getDiagnosedTest()
+ validate(code)
}
class TestStore{
-code
+getDiagnosedTest()
+setValid(code)
}

ValidationUI ..> ValidationController
ValidationController ..> TestStore


@enduml

PlantUML version 1.2021.4(Sun Apr 04 09:49:39 BST 2021)
(GPL source distribution)
Java Runtime: OpenJDK Runtime Environment
JVM: OpenJDK 64-Bit Server VM
Default Encoding: Cp1252
Language: pt
Country: PT
--></g></svg>