<?xml version="1.0" encoding="UTF-8" standalone="no"?><svg xmlns="http://www.w3.org/2000/svg" xmlns:xlink="http://www.w3.org/1999/xlink" contentScriptType="application/ecmascript" contentStyleType="text/css" height="3657px" preserveAspectRatio="none" style="width:878px;height:3657px;background:#FFFFFF;" version="1.1" viewBox="0 0 878 3657" width="878px" zoomAndPan="magnify"><defs><filter height="300%" id="fexwnfsx4mr9r" width="300%" x="-1" y="-1"><feGaussianBlur result="blurOut" stdDeviation="2.0"/><feColorMatrix in="blurOut" result="blurOut2" type="matrix" values="0 0 0 0 0 0 0 0 0 0 0 0 0 0 0 0 0 0 .4 0"/><feOffset dx="4.0" dy="4.0" in="blurOut2" result="blurOut3"/><feBlend in="SourceGraphic" in2="blurOut3" mode="normal"/></filter></defs><g><ellipse cx="564.9467" cy="3032.2893" fill="#FEFECE" filter="url(#fexwnfsx4mr9r)" rx="121.9467" ry="26.7893" style="stroke:#A80036;stroke-width:1.5;"/><text fill="#000000" font-family="sans-serif" font-size="14" lengthAdjust="spacing" textLength="209" x="460.4467" y="3036.0179">UC1 - Perform clinical blood tests</text><ellipse cx="565.2192" cy="3119.4438" fill="#FEFECE" filter="url(#fexwnfsx4mr9r)" rx="112.7192" ry="24.9438" style="stroke:#A80036;stroke-width:1.5;"/><text fill="#000000" font-family="sans-serif" font-size="14" lengthAdjust="spacing" textLength="189" x="470.7192" y="3123.1724">UC2 - Performs covid-19 tests</text><ellipse cx="565.1965" cy="2763.7393" fill="#FEFECE" filter="url(#fexwnfsx4mr9r)" rx="91.6965" ry="20.7393" style="stroke:#A80036;stroke-width:1.5;"/><text fill="#000000" font-family="sans-serif" font-size="14" lengthAdjust="spacing" textLength="142" x="494.1965" y="2767.4678">UC3 - Register a client</text><ellipse cx="564.9133" cy="2847.2827" fill="#FEFECE" filter="url(#fexwnfsx4mr9r)" rx="129.4133" ry="28.2827" style="stroke:#A80036;stroke-width:1.5;"/><text fill="#000000" font-family="sans-serif" font-size="14" lengthAdjust="spacing" textLength="225" x="452.4133" y="2851.0112">UC4 - Register type of test for client</text><ellipse cx="564.8927" cy="2369.4785" fill="#FEFECE" filter="url(#fexwnfsx4mr9r)" rx="170.3927" ry="36.4785" style="stroke:#A80036;stroke-width:1.5;"/><text fill="#000000" font-family="sans-serif" font-size="14" lengthAdjust="spacing" textLength="311" x="409.3927" y="2373.2071">UC5 - Record the sample collected in a given test</text><ellipse cx="564.8069" cy="2270.6614" fill="#FEFECE" filter="url(#fexwnfsx4mr9r)" rx="123.8069" ry="27.1614" style="stroke:#A80036;stroke-width:1.5;"/><text fill="#000000" font-family="sans-serif" font-size="14" lengthAdjust="spacing" textLength="213" x="458.3069" y="2274.3899">UC6 - Prescribes laboratory order</text><ellipse cx="565.2046" cy="1655.4409" fill="#FEFECE" filter="url(#fexwnfsx4mr9r)" rx="107.7046" ry="23.9409" style="stroke:#A80036;stroke-width:1.5;"/><text fill="#000000" font-family="sans-serif" font-size="14" lengthAdjust="spacing" textLength="178" x="476.2046" y="1659.1694">UC7 - Register an employee</text><ellipse cx="564.9967" cy="1746.3993" fill="#FEFECE" filter="url(#fexwnfsx4mr9r)" rx="144.9967" ry="31.3993" style="stroke:#A80036;stroke-width:1.5;"/><text fill="#000000" font-family="sans-serif" font-size="14" lengthAdjust="spacing" textLength="258" x="435.9967" y="1750.1279">UC8 - Register a new clinical analysis lab</text><ellipse cx="565.0335" cy="1855.5067" fill="#FEFECE" filter="url(#fexwnfsx4mr9r)" rx="198.0335" ry="42.0067" style="stroke:#A80036;stroke-width:1.5;"/><text fill="#000000" font-family="sans-serif" font-size="14" lengthAdjust="spacing" textLength="368" x="381.0335" y="1859.2352">UC9 - Specify a new type of test and its collecting methods</text><ellipse cx="564.8751" cy="1969.575" fill="#FEFECE" filter="url(#fexwnfsx4mr9r)" rx="170.8751" ry="36.575" style="stroke:#A80036;stroke-width:1.5;"/><text fill="#000000" font-family="sans-serif" font-size="14" lengthAdjust="spacing" textLength="312" x="408.8751" y="1973.3035">UC10 - Specify a new parameter and categorize it</text><ellipse cx="564.8756" cy="2073.3751" fill="#FEFECE" filter="url(#fexwnfsx4mr9r)" rx="147.3756" ry="31.8751" style="stroke:#A80036;stroke-width:1.5;"/><text fill="#000000" font-family="sans-serif" font-size="14" lengthAdjust="spacing" textLength="263" x="433.3756" y="2077.1036">UC11 - Specify a new parameter category</text><ellipse cx="564.9235" cy="1241.6847" fill="#FEFECE" filter="url(#fexwnfsx4mr9r)" rx="146.4235" ry="31.6847" style="stroke:#A80036;stroke-width:1.5;"/><text fill="#000000" font-family="sans-serif" font-size="14" lengthAdjust="spacing" textLength="257" x="434.4235" y="1245.4132">UC12 - Record the results of a given test</text><ellipse cx="565.0019" cy="1354.5004" fill="#FEFECE" filter="url(#fexwnfsx4mr9r)" rx="220.5019" ry="46.5004" style="stroke:#A80036;stroke-width:1.5;"/><text fill="#000000" font-family="sans-serif" font-size="14" lengthAdjust="spacing" textLength="414" x="358.0019" y="1358.2289">UC13 - Consult the historical tests performed by a particular client</text><ellipse cx="564.8881" cy="1140.4776" fill="#FEFECE" filter="url(#fexwnfsx4mr9r)" rx="157.8881" ry="33.9776" style="stroke:#A80036;stroke-width:1.5;"/><text fill="#000000" font-family="sans-serif" font-size="14" lengthAdjust="spacing" textLength="285" x="422.3881" y="1144.2061">UC14 - Make the diagnosis and write a report</text><ellipse cx="565.101" cy="699.5202" fill="#FEFECE" filter="url(#fexwnfsx4mr9r)" rx="153.101" ry="33.0202" style="stroke:#A80036;stroke-width:1.5;"/><text fill="#000000" font-family="sans-serif" font-size="14" lengthAdjust="spacing" textLength="275" x="427.601" y="703.2487">UC15 - Validates the results of the analyzes</text><ellipse cx="564.7613" cy="830.2523" fill="#FEFECE" filter="url(#fexwnfsx4mr9r)" rx="301.7613" ry="62.7523" style="stroke:#A80036;stroke-width:1.5;"/><text fill="#000000" font-family="sans-serif" font-size="14" lengthAdjust="spacing" textLength="579" x="275.2613" y="833.9808">UC16 - Overview of all tests performed and analyse the overall performance of the company</text><ellipse cx="564.8283" cy="960.5657" fill="#FEFECE" filter="url(#fexwnfsx4mr9r)" rx="148.3283" ry="32.0657" style="stroke:#A80036;stroke-width:1.5;"/><text fill="#000000" font-family="sans-serif" font-size="14" lengthAdjust="spacing" textLength="265" x="432.3283" y="964.2942">UC17 - Import clinical tests from a CSV file</text><ellipse cx="565.0142" cy="2174.4028" fill="#FEFECE" filter="url(#fexwnfsx4mr9r)" rx="155.0142" ry="33.4028" style="stroke:#A80036;stroke-width:1.5;"/><text fill="#000000" font-family="sans-serif" font-size="14" lengthAdjust="spacing" textLength="279" x="425.5142" y="2178.1314">UC18 - Send the Covid-19 report to the NHS</text><ellipse cx="564.8779" cy="591.5756" fill="#FEFECE" filter="url(#fexwnfsx4mr9r)" rx="185.8779" ry="39.5756" style="stroke:#A80036;stroke-width:1.5;"/><text fill="#000000" font-family="sans-serif" font-size="14" lengthAdjust="spacing" textLength="343" x="393.3779" y="595.3041">UC19 - Send to the NHS daily reports of Covid-19 data</text><ellipse cx="564.791" cy="3219.6582" fill="#FEFECE" filter="url(#fexwnfsx4mr9r)" rx="188.791" ry="40.1582" style="stroke:#A80036;stroke-width:1.5;"/><text fill="#000000" font-family="sans-serif" font-size="14" lengthAdjust="spacing" textLength="349" x="390.291" y="3223.3867">UC20 - Identify the number of Covid-19 tests performed</text><ellipse cx="565.2384" cy="3332.3477" fill="#FEFECE" filter="url(#fexwnfsx4mr9r)" rx="174.7384" ry="37.3477" style="stroke:#A80036;stroke-width:1.5;"/><text fill="#000000" font-family="sans-serif" font-size="14" lengthAdjust="spacing" textLength="320" x="405.2384" y="3336.0762">UC21 - Identify all positive results to Covid-19 tests</text><ellipse cx="564.806" cy="3442.4612" fill="#FEFECE" filter="url(#fexwnfsx4mr9r)" rx="172.806" ry="36.9612" style="stroke:#A80036;stroke-width:1.5;"/><text fill="#000000" font-family="sans-serif" font-size="14" lengthAdjust="spacing" textLength="316" x="406.806" y="3446.1897">UC22 - Report the total number of Covid-19 cases</text><ellipse cx="565.2412" cy="3537.4482" fill="#FEFECE" filter="url(#fexwnfsx4mr9r)" rx="102.7412" ry="22.9482" style="stroke:#A80036;stroke-width:1.5;"/><text fill="#000000" font-family="sans-serif" font-size="14" lengthAdjust="spacing" textLength="167" x="481.7412" y="3541.1768">UC23 - Send the forecasts</text><ellipse cx="565.1774" cy="3620.5355" fill="#FEFECE" filter="url(#fexwnfsx4mr9r)" rx="113.1774" ry="25.0355" style="stroke:#A80036;stroke-width:1.5;"/><text fill="#000000" font-family="sans-serif" font-size="14" lengthAdjust="spacing" textLength="190" x="470.1774" y="3624.264">UC24 - Generate daily reports</text><ellipse cx="564.8414" cy="473.5683" fill="#FEFECE" filter="url(#fexwnfsx4mr9r)" rx="123.3414" ry="27.0683" style="stroke:#A80036;stroke-width:1.5;"/><text fill="#000000" font-family="sans-serif" font-size="14" lengthAdjust="spacing" textLength="212" x="458.8414" y="477.2968">UC26 - Perform chemical analysis</text><ellipse cx="564.859" cy="2471.5718" fill="#FEFECE" filter="url(#fexwnfsx4mr9r)" rx="138.359" ry="30.0718" style="stroke:#A80036;stroke-width:1.5;"/><text fill="#000000" font-family="sans-serif" font-size="14" lengthAdjust="spacing" textLength="244" x="442.859" y="2475.3003">UC27 - Records samples in the system</text><ellipse cx="564.8881" cy="2570.4776" fill="#FEFECE" filter="url(#fexwnfsx4mr9r)" rx="157.8881" ry="33.9776" style="stroke:#A80036;stroke-width:1.5;"/><text fill="#000000" font-family="sans-serif" font-size="14" lengthAdjust="spacing" textLength="285" x="422.3881" y="2574.2061">UC28 - Associates the samples with the client</text><ellipse cx="564.9088" cy="2673.3818" fill="#FEFECE" filter="url(#fexwnfsx4mr9r)" rx="157.4088" ry="33.8818" style="stroke:#A80036;stroke-width:1.5;"/><text fill="#000000" font-family="sans-serif" font-size="14" lengthAdjust="spacing" textLength="284" x="422.9088" y="2677.1103">UC29 - Identifies each sample with a barcode</text><ellipse cx="565.1055" cy="1463.7211" fill="#FEFECE" filter="url(#fexwnfsx4mr9r)" rx="126.6055" ry="27.7211" style="stroke:#A80036;stroke-width:1.5;"/><text fill="#000000" font-family="sans-serif" font-size="14" lengthAdjust="spacing" textLength="219" x="455.6055" y="1467.4496">UC30 - Performs chemical analysis</text><ellipse cx="565.1689" cy="1561.5338" fill="#FEFECE" filter="url(#fexwnfsx4mr9r)" rx="163.1689" ry="35.0338" style="stroke:#A80036;stroke-width:1.5;"/><text fill="#000000" font-family="sans-serif" font-size="14" lengthAdjust="spacing" textLength="296" x="417.1689" y="1565.2623">UC31 - Records the results in the App software</text><ellipse cx="565.0542" cy="2940.4108" fill="#FEFECE" filter="url(#fexwnfsx4mr9r)" rx="135.0542" ry="29.4108" style="stroke:#A80036;stroke-width:1.5;"/><text fill="#000000" font-family="sans-serif" font-size="14" lengthAdjust="spacing" textLength="237" x="446.5542" y="2944.1394">UC32 - Registers the client in the App</text><ellipse cx="564.9418" cy="355.4884" fill="#FEFECE" filter="url(#fexwnfsx4mr9r)" rx="105.4418" ry="23.4884" style="stroke:#A80036;stroke-width:1.5;"/><text fill="#000000" font-family="sans-serif" font-size="14" lengthAdjust="spacing" textLength="173" x="478.4418" y="359.2169">UC33 - Transports samples</text><ellipse cx="565.0542" cy="237.4108" fill="#FEFECE" filter="url(#fexwnfsx4mr9r)" rx="135.0542" ry="29.4108" style="stroke:#A80036;stroke-width:1.5;"/><text fill="#000000" font-family="sans-serif" font-size="14" lengthAdjust="spacing" textLength="237" x="446.5542" y="241.1394">UC34 - Validates values automatically</text><ellipse cx="564.8945" cy="1049.3789" fill="#FEFECE" filter="url(#fexwnfsx4mr9r)" rx="97.3945" ry="21.8789" style="stroke:#A80036;stroke-width:1.5;"/><text fill="#000000" font-family="sans-serif" font-size="14" lengthAdjust="spacing" textLength="155" x="487.3945" y="1053.1074">UC35 - Validates reports</text><ellipse cx="564.9781" cy="30.3956" fill="#FEFECE" filter="url(#fexwnfsx4mr9r)" rx="109.9781" ry="24.3956" style="stroke:#A80036;stroke-width:1.5;"/><text fill="#000000" font-family="sans-serif" font-size="14" lengthAdjust="spacing" textLength="183" x="473.4781" y="34.1241">UC36 - Receive a notification</text><ellipse cx="565.2217" cy="127.4443" fill="#FEFECE" filter="url(#fexwnfsx4mr9r)" rx="175.2217" ry="37.4443" style="stroke:#A80036;stroke-width:1.5;"/><text fill="#000000" font-family="sans-serif" font-size="14" lengthAdjust="spacing" textLength="321" x="404.7217" y="131.1729">UC37 - Access the application to view those results</text><!--MD5=[3d138a599284e5d32709e50138d6df59]
entity CAL--><ellipse cx="104.5" cy="3300.5" fill="#FEFECE" filter="url(#fexwnfsx4mr9r)" rx="8" ry="8" style="stroke:#A80036;stroke-width:1.5;"/><path d="M104.5,3308.5 L104.5,3335.5 M91.5,3316.5 L117.5,3316.5 M104.5,3335.5 L91.5,3350.5 M104.5,3335.5 L117.5,3350.5 " fill="none" filter="url(#fexwnfsx4mr9r)" style="stroke:#A80036;stroke-width:1.5;"/><text fill="#000000" font-family="sans-serif" font-size="14" lengthAdjust="spacing" textLength="185" x="12" y="3370.5332">Clinical Analysis Laboratories</text><!--MD5=[ff2d61647fb09ddd586bbb3af474de91]
entity CL--><ellipse cx="104.5" cy="441.5" fill="#FEFECE" filter="url(#fexwnfsx4mr9r)" rx="8" ry="8" style="stroke:#A80036;stroke-width:1.5;"/><path d="M104.5,449.5 L104.5,476.5 M91.5,457.5 L117.5,457.5 M104.5,476.5 L91.5,491.5 M104.5,476.5 L117.5,491.5 " fill="none" filter="url(#fexwnfsx4mr9r)" style="stroke:#A80036;stroke-width:1.5;"/><text fill="#000000" font-family="sans-serif" font-size="14" lengthAdjust="spacing" textLength="131" x="39" y="511.5332">Chemical Laboratory</text><!--MD5=[87a04b683345c3cce94ac9a6e159ab2f]
entity Receptionist--><ellipse cx="104.5" cy="2815.5" fill="#FEFECE" filter="url(#fexwnfsx4mr9r)" rx="8" ry="8" style="stroke:#A80036;stroke-width:1.5;"/><path d="M104.5,2823.5 L104.5,2850.5 M91.5,2831.5 L117.5,2831.5 M104.5,2850.5 L91.5,2865.5 M104.5,2850.5 L117.5,2865.5 " fill="none" filter="url(#fexwnfsx4mr9r)" style="stroke:#A80036;stroke-width:1.5;"/><text fill="#000000" font-family="sans-serif" font-size="14" lengthAdjust="spacing" textLength="78" x="65.5" y="2885.5332">Receptionist</text><!--MD5=[5a5d35bcfc46556bdff8e646cc6c81c2]
entity Doctor--><ellipse cx="104.5" cy="2238.5" fill="#FEFECE" filter="url(#fexwnfsx4mr9r)" rx="8" ry="8" style="stroke:#A80036;stroke-width:1.5;"/><path d="M104.5,2246.5 L104.5,2273.5 M91.5,2254.5 L117.5,2254.5 M104.5,2273.5 L91.5,2288.5 M104.5,2273.5 L117.5,2288.5 " fill="none" filter="url(#fexwnfsx4mr9r)" style="stroke:#A80036;stroke-width:1.5;"/><text fill="#000000" font-family="sans-serif" font-size="14" lengthAdjust="spacing" textLength="42" x="83.5" y="2308.5332">Doctor</text><!--MD5=[e7d38603a700bedb049d1f5e1789c8aa]
entity MLT--><ellipse cx="104.5" cy="2489.5" fill="#FEFECE" filter="url(#fexwnfsx4mr9r)" rx="8" ry="8" style="stroke:#A80036;stroke-width:1.5;"/><path d="M104.5,2497.5 L104.5,2524.5 M91.5,2505.5 L117.5,2505.5 M104.5,2524.5 L91.5,2539.5 M104.5,2524.5 L117.5,2539.5 " fill="none" filter="url(#fexwnfsx4mr9r)" style="stroke:#A80036;stroke-width:1.5;"/><text fill="#000000" font-family="sans-serif" font-size="14" lengthAdjust="spacing" textLength="149" x="30" y="2559.5332">Medical Lab Technician</text><!--MD5=[234b11d210a3d78b3bcac40f493e1b07]
entity CCT--><ellipse cx="104.5" cy="1377.5" fill="#FEFECE" filter="url(#fexwnfsx4mr9r)" rx="8" ry="8" style="stroke:#A80036;stroke-width:1.5;"/><path d="M104.5,1385.5 L104.5,1412.5 M91.5,1393.5 L117.5,1393.5 M104.5,1412.5 L91.5,1427.5 M104.5,1412.5 L117.5,1427.5 " fill="none" filter="url(#fexwnfsx4mr9r)" style="stroke:#A80036;stroke-width:1.5;"/><text fill="#000000" font-family="sans-serif" font-size="14" lengthAdjust="spacing" textLength="197" x="6" y="1447.5332">Clinical Chemistry Technologist</text><!--MD5=[f0e91d5aa74c2411969e7ef072c6f268]
entity SD--><ellipse cx="104.5" cy="1108.5" fill="#FEFECE" filter="url(#fexwnfsx4mr9r)" rx="8" ry="8" style="stroke:#A80036;stroke-width:1.5;"/><path d="M104.5,1116.5 L104.5,1143.5 M91.5,1124.5 L117.5,1124.5 M104.5,1143.5 L91.5,1158.5 M104.5,1143.5 L117.5,1158.5 " fill="none" filter="url(#fexwnfsx4mr9r)" style="stroke:#A80036;stroke-width:1.5;"/><text fill="#000000" font-family="sans-serif" font-size="14" lengthAdjust="spacing" textLength="106" x="51.5" y="1178.5332">Specialist Doctor</text><!--MD5=[bdb2ac92bfe1e6fbc6059865f0149400]
entity Courier--><ellipse cx="104.5" cy="323.5" fill="#FEFECE" filter="url(#fexwnfsx4mr9r)" rx="8" ry="8" style="stroke:#A80036;stroke-width:1.5;"/><path d="M104.5,331.5 L104.5,358.5 M91.5,339.5 L117.5,339.5 M104.5,358.5 L91.5,373.5 M104.5,358.5 L117.5,373.5 " fill="none" filter="url(#fexwnfsx4mr9r)" style="stroke:#A80036;stroke-width:1.5;"/><text fill="#000000" font-family="sans-serif" font-size="14" lengthAdjust="spacing" textLength="47" x="81" y="393.5332">Courier</text><!--MD5=[b0100dfa164aec77c855c16afe11d7ec]
entity LC--><ellipse cx="104.5" cy="863.5" fill="#FEFECE" filter="url(#fexwnfsx4mr9r)" rx="8" ry="8" style="stroke:#A80036;stroke-width:1.5;"/><path d="M104.5,871.5 L104.5,898.5 M91.5,879.5 L117.5,879.5 M104.5,898.5 L91.5,913.5 M104.5,898.5 L117.5,913.5 " fill="none" filter="url(#fexwnfsx4mr9r)" style="stroke:#A80036;stroke-width:1.5;"/><text fill="#000000" font-family="sans-serif" font-size="14" lengthAdjust="spacing" textLength="148" x="30.5" y="933.5332">Laboratory Coordinator</text><!--MD5=[0ba5ee7700168656dc1b457c6fe9fdac]
entity Client--><ellipse cx="104.5" cy="87.5" fill="#FEFECE" filter="url(#fexwnfsx4mr9r)" rx="8" ry="8" style="stroke:#A80036;stroke-width:1.5;"/><path d="M104.5,95.5 L104.5,122.5 M91.5,103.5 L117.5,103.5 M104.5,122.5 L91.5,137.5 M104.5,122.5 L117.5,137.5 " fill="none" filter="url(#fexwnfsx4mr9r)" style="stroke:#A80036;stroke-width:1.5;"/><text fill="#000000" font-family="sans-serif" font-size="14" lengthAdjust="spacing" textLength="36" x="86.5" y="157.5332">Client</text><!--MD5=[97ab183161fd5d1db7fba7485cf76add]
entity Admin--><ellipse cx="104.5" cy="1880.5" fill="#FEFECE" filter="url(#fexwnfsx4mr9r)" rx="8" ry="8" style="stroke:#A80036;stroke-width:1.5;"/><path d="M104.5,1888.5 L104.5,1915.5 M91.5,1896.5 L117.5,1896.5 M104.5,1915.5 L91.5,1930.5 M104.5,1915.5 L117.5,1930.5 " fill="none" filter="url(#fexwnfsx4mr9r)" style="stroke:#A80036;stroke-width:1.5;"/><text fill="#000000" font-family="sans-serif" font-size="14" lengthAdjust="spacing" textLength="83" x="63" y="1950.5332">Administrator</text><!--MD5=[d9d97fb087edb23fa2cf69ae7cf5153c]
entity Company--><ellipse cx="104.5" cy="559.5" fill="#FEFECE" filter="url(#fexwnfsx4mr9r)" rx="8" ry="8" style="stroke:#A80036;stroke-width:1.5;"/><path d="M104.5,567.5 L104.5,594.5 M91.5,575.5 L117.5,575.5 M104.5,594.5 L91.5,609.5 M104.5,594.5 L117.5,609.5 " fill="none" filter="url(#fexwnfsx4mr9r)" style="stroke:#A80036;stroke-width:1.5;"/><text fill="#000000" font-family="sans-serif" font-size="14" lengthAdjust="spacing" textLength="60" x="74.5" y="629.5332">Company</text><!--MD5=[0c981058d8ccf143d62a7a0086f9dc69]
entity Organization--><ellipse cx="104.5" cy="205.5" fill="#FEFECE" filter="url(#fexwnfsx4mr9r)" rx="8" ry="8" style="stroke:#A80036;stroke-width:1.5;"/><path d="M104.5,213.5 L104.5,240.5 M91.5,221.5 L117.5,221.5 M104.5,240.5 L91.5,255.5 M104.5,240.5 L117.5,255.5 " fill="none" filter="url(#fexwnfsx4mr9r)" style="stroke:#A80036;stroke-width:1.5;"/><text fill="#000000" font-family="sans-serif" font-size="14" lengthAdjust="spacing" textLength="80" x="64.5" y="275.5332">Organization</text><!--MD5=[752c06e124136524c3042e46c784b416]
link CAL to UC1--><path d="M118.74,3290.6 C139.48,3232.43 185.46,3128.63 263,3077.5 C314.6,3043.48 381.88,3031.15 439.75,3027.8 " fill="none" id="CAL-to-UC1" style="stroke:#A80036;stroke-width:1.0;"/><polygon fill="#A80036" points="444.96,3027.52,435.7659,3023.9889,439.9666,3027.7775,436.178,3031.9783,444.96,3027.52" style="stroke:#A80036;stroke-width:1.0;"/><!--MD5=[4beb4e26fc364b61387ea927d3c002cc]
link CAL to UC2--><path d="M131.54,3290.94 C159.01,3250.95 206.16,3192.29 263,3162.5 C319.28,3133.01 389.18,3121.74 447.45,3118.08 " fill="none" id="CAL-to-UC2" style="stroke:#A80036;stroke-width:1.0;"/><polygon fill="#A80036" points="452.69,3117.77,443.4765,3114.29,447.6981,3118.0552,443.9329,3122.2769,452.69,3117.77" style="stroke:#A80036;stroke-width:1.0;"/><!--MD5=[2f1b394e2924067056fccacd5d16a564]
link Receptionist to UC3--><path d="M143.58,2834.53 C175.22,2824.21 221.58,2810.11 263,2801.5 C333.22,2786.91 413.91,2777.09 474.05,2771.09 " fill="none" id="Receptionist-to-UC3" style="stroke:#A80036;stroke-width:1.0;"/><polygon fill="#A80036" points="479.07,2770.6,469.7237,2767.4941,474.0937,2771.0862,470.5016,2775.4562,479.07,2770.6" style="stroke:#A80036;stroke-width:1.0;"/><!--MD5=[580bd904bf5bb4915d508c6693e85430]
link Receptionist to UC4--><path d="M143.8,2847.5 C206.07,2847.5 332.14,2847.5 430.03,2847.5 " fill="none" id="Receptionist-to-UC4" style="stroke:#A80036;stroke-width:1.0;"/><polygon fill="#A80036" points="435.25,2847.5,426.25,2843.5,430.25,2847.5,426.25,2851.5,435.25,2847.5" style="stroke:#A80036;stroke-width:1.0;"/><!--MD5=[20775d4236e3c0e5e5a74c98376e02b3]
link Receptionist to UC32--><path d="M143.65,2860.15 C175.33,2870.28 221.71,2884.29 263,2893.5 C321.63,2906.58 387.48,2917.31 442.6,2925.19 " fill="none" id="Receptionist-to-UC32" style="stroke:#A80036;stroke-width:1.0;"/><polygon fill="#A80036" points="447.56,2925.9,439.2098,2920.6775,442.6094,2925.1989,438.088,2928.5985,447.56,2925.9" style="stroke:#A80036;stroke-width:1.0;"/><!--MD5=[9819999ae250df96bd59b30eb6fcde80]
link Doctor to UC6--><path d="M125.79,2270.5 C179.11,2270.5 326.54,2270.5 435.75,2270.5 " fill="none" id="Doctor-to-UC6" style="stroke:#A80036;stroke-width:1.0;"/><polygon fill="#A80036" points="440.92,2270.5,431.92,2266.5,435.92,2270.5,431.92,2274.5,440.92,2270.5" style="stroke:#A80036;stroke-width:1.0;"/><!--MD5=[6555d02e07d66791191afe52409c94c7]
link Admin to UC7--><path d="M123.39,1870.99 C147.35,1820.86 194.88,1738.2 263,1697.5 C320.27,1663.28 394.4,1652.62 454.76,1650.59 " fill="none" id="Admin-to-UC7" style="stroke:#A80036;stroke-width:1.0;"/><polygon fill="#A80036" points="459.82,1650.44,450.7094,1646.6987,454.822,1650.5828,450.9379,1654.6954,459.82,1650.44" style="stroke:#A80036;stroke-width:1.0;"/><!--MD5=[8e21319948118d853d0cea7b7746d788]
link Admin to UC8--><path d="M146.23,1874.03 C176.21,1847.96 219.2,1815 263,1796.5 C312.3,1775.67 369.57,1763.5 420.84,1756.39 " fill="none" id="Admin-to-UC8" style="stroke:#A80036;stroke-width:1.0;"/><polygon fill="#A80036" points="426.1,1755.67,416.6446,1752.9142,421.1452,1756.3411,417.7183,1760.8418,426.1,1755.67" style="stroke:#A80036;stroke-width:1.0;"/><!--MD5=[d1d1ec6c7df7b14772038027612a1c8e]
link Admin to UC9--><path d="M146.19,1907.44 C200.55,1900.68 300.32,1888.28 388.72,1877.29 " fill="none" id="Admin-to-UC9" style="stroke:#A80036;stroke-width:1.0;"/><polygon fill="#A80036" points="393.72,1876.67,384.2964,1873.8072,388.758,1877.2849,385.2802,1881.7464,393.72,1876.67" style="stroke:#A80036;stroke-width:1.0;"/><!--MD5=[b415004d391d90f899bf2276a07af358]
link Admin to UC10--><path d="M146.19,1917.56 C205.35,1924.91 318.25,1938.95 411.79,1950.58 " fill="none" id="Admin-to-UC10" style="stroke:#A80036;stroke-width:1.0;"/><polygon fill="#A80036" points="416.79,1951.2,408.3502,1946.1236,411.828,1950.5851,407.3664,1954.0628,416.79,1951.2" style="stroke:#A80036;stroke-width:1.0;"/><!--MD5=[8f16c34dc1dc3f309d315c618429d717]
link Admin to UC11--><path d="M146.2,1949 C176.32,1973.97 219.52,2005.66 263,2023.5 C311.92,2043.57 368.46,2055.59 419.23,2062.78 " fill="none" id="Admin-to-UC11" style="stroke:#A80036;stroke-width:1.0;"/><polygon fill="#A80036" points="424.44,2063.51,416.075,2058.3112,419.4874,2062.8229,414.9757,2066.2353,424.44,2063.51" style="stroke:#A80036;stroke-width:1.0;"/><!--MD5=[86fb0d15d30618304f5c6583fdbe8b02]
link CCT to UC13--><path d="M203.02,1397.8 C251,1392.05 310.64,1384.89 367.53,1378.07 " fill="none" id="CCT-to-UC13" style="stroke:#A80036;stroke-width:1.0;"/><polygon fill="#A80036" points="372.67,1377.45,363.2628,1374.5337,367.7045,1378.0367,364.2015,1382.4784,372.67,1377.45" style="stroke:#A80036;stroke-width:1.0;"/><!--MD5=[6adde04479989730bcf5b70b183ed5be]
link SD to UC14--><path d="M157.65,1140.5 C216.79,1140.5 316.14,1140.5 401.8,1140.5 " fill="none" id="SD-to-UC14" style="stroke:#A80036;stroke-width:1.0;"/><polygon fill="#A80036" points="406.9,1140.5,397.9,1136.5,401.9,1140.5,397.9,1144.5,406.9,1140.5" style="stroke:#A80036;stroke-width:1.0;"/><!--MD5=[6855441626fdddb46d190f60bd872dab]
link LC to UC15--><path d="M138.69,853.8 C167.78,820.31 213.11,774.97 263,750.5 C308.55,728.16 362.11,715.4 411.33,708.17 " fill="none" id="LC-to-UC15" style="stroke:#A80036;stroke-width:1.0;"/><polygon fill="#A80036" points="416.39,707.45,406.918,704.7515,411.4394,708.1511,408.0398,712.6725,416.39,707.45" style="stroke:#A80036;stroke-width:1.0;"/><!--MD5=[7bbea3255460f5b30013dfb3dc6faaf3]
link LC to UC16--><path d="M178.66,885.13 C215.2,879.95 261.82,873.34 309.91,866.52 " fill="none" id="LC-to-UC16" style="stroke:#A80036;stroke-width:1.0;"/><polygon fill="#A80036" points="314.87,865.82,305.398,863.1215,309.9194,866.5211,306.5198,871.0425,314.87,865.82" style="stroke:#A80036;stroke-width:1.0;"/><!--MD5=[53b6dbc7a706edee6a986904a9cd6ff6]
link LC to UC17--><path d="M178.66,905.87 C247.56,915.64 352.28,930.49 435.17,942.24 " fill="none" id="LC-to-UC17" style="stroke:#A80036;stroke-width:1.0;"/><polygon fill="#A80036" points="440.6,943.01,432.2477,937.7909,435.6491,942.3109,431.1291,945.7123,440.6,943.01" style="stroke:#A80036;stroke-width:1.0;"/><!--MD5=[19934b80f046e2695184577534644ff8]
link Admin to UC18--><path d="M124.43,1954.21 C149,2003.22 196.7,2082.97 263,2123.5 C305.41,2149.43 357.14,2163.2 405.67,2170.25 " fill="none" id="Admin-to-UC18" style="stroke:#A80036;stroke-width:1.0;"/><polygon fill="#A80036" points="410.66,2170.95,402.3077,2165.7309,405.7091,2170.2509,401.1891,2173.6523,410.66,2170.95" style="stroke:#A80036;stroke-width:1.0;"/><!--MD5=[1ccb0ccbab298306ec32db2851186bb9]
link Company to UC19--><path d="M134.53,591.5 C182.59,591.5 282.46,591.5 373.81,591.5 " fill="none" id="Company-to-UC19" style="stroke:#A80036;stroke-width:1.0;"/><polygon fill="#A80036" points="378.98,591.5,369.98,587.5,373.98,591.5,369.98,595.5,378.98,591.5" style="stroke:#A80036;stroke-width:1.0;"/><!--MD5=[eb4421526d7028ee65ad075f92ce08e9]
link CAL to UC20--><path d="M197.24,3297.94 C218.64,3290.59 241.47,3283.3 263,3277.5 C310.1,3264.81 362.06,3253.77 409.36,3244.83 " fill="none" id="CAL-to-UC20" style="stroke:#A80036;stroke-width:1.0;"/><polygon fill="#A80036" points="414.51,3243.86,404.9302,3241.5737,409.5943,3244.7745,406.3935,3249.4387,414.51,3243.86" style="stroke:#A80036;stroke-width:1.0;"/><!--MD5=[671ec1715bea7eab43e236378a0f6c57]
link CAL to UC21--><path d="M197.18,3332.5 C251.05,3332.5 321,3332.5 385.35,3332.5 " fill="none" id="CAL-to-UC21" style="stroke:#A80036;stroke-width:1.0;"/><polygon fill="#A80036" points="390.37,3332.5,381.37,3328.5,385.37,3332.5,381.37,3336.5,390.37,3332.5" style="stroke:#A80036;stroke-width:1.0;"/><!--MD5=[fe6a581c6addb7f652ab3567c84671d5]
link CAL to UC22--><path d="M197.2,3367.21 C218.6,3374.56 241.44,3381.8 263,3387.5 C312.9,3400.69 368.28,3411.79 417.8,3420.48 " fill="none" id="CAL-to-UC22" style="stroke:#A80036;stroke-width:1.0;"/><polygon fill="#A80036" points="422.88,3421.37,414.7012,3415.8831,417.9544,3420.5109,413.3266,3423.7641,422.88,3421.37" style="stroke:#A80036;stroke-width:1.0;"/><!--MD5=[0a2188f7d9b0bbbe28cb5737476e74f4]
link CAL to UC23--><path d="M132.55,3374.06 C160.3,3412.94 207.23,3469.14 263,3497.5 C322.99,3528 398,3538.03 458.13,3540.42 " fill="none" id="CAL-to-UC23" style="stroke:#A80036;stroke-width:1.0;"/><polygon fill="#A80036" points="463.17,3540.6,454.3247,3536.2687,458.1734,3540.4144,454.0277,3544.2632,463.17,3540.6" style="stroke:#A80036;stroke-width:1.0;"/><!--MD5=[91dcf63adf30f64204b8f984ea1993a7]
link CAL to UC24--><path d="M119.47,3374.01 C140.81,3430.45 187.22,3529.93 263,3578.5 C318.09,3613.81 390.44,3624.76 450.4,3626.68 " fill="none" id="CAL-to-UC24" style="stroke:#A80036;stroke-width:1.0;"/><polygon fill="#A80036" points="455.43,3626.82,446.5479,3622.5646,450.432,3626.6772,446.3194,3630.5613,455.43,3626.82" style="stroke:#A80036;stroke-width:1.0;"/><!--MD5=[9b02935123d0adc46975ede3ffe8b3fd]
link CL to UC26--><path d="M170.22,473.5 C239.08,473.5 349.79,473.5 436.31,473.5 " fill="none" id="CL-to-UC26" style="stroke:#A80036;stroke-width:1.0;"/><polygon fill="#A80036" points="441.45,473.5,432.45,469.5,436.45,473.5,432.45,477.5,441.45,473.5" style="stroke:#A80036;stroke-width:1.0;"/><!--MD5=[2ed272b7ba05c8a563a77b8cf4dc3c7b]
link MLT to UC5--><path d="M161.52,2479.9 C190.47,2460.3 227.17,2438.25 263,2424.5 C308.46,2407.06 359.95,2395.05 407.33,2386.83 " fill="none" id="MLT-to-UC5" style="stroke:#A80036;stroke-width:1.0;"/><polygon fill="#A80036" points="412.5,2385.95,402.9545,2383.5243,407.5715,2386.7928,404.3031,2391.4099,412.5,2385.95" style="stroke:#A80036;stroke-width:1.0;"/><!--MD5=[b7034577719a4aba12a68ce329892fee]
link MLT to UC27--><path d="M179.17,2513.47 C248.15,2505.94 352.72,2494.54 435.46,2485.52 " fill="none" id="MLT-to-UC27" style="stroke:#A80036;stroke-width:1.0;"/><polygon fill="#A80036" points="440.87,2484.93,431.489,2481.9306,435.8995,2485.4728,432.3574,2489.8833,440.87,2484.93" style="stroke:#A80036;stroke-width:1.0;"/><!--MD5=[4ed3a336254d14231e8d1712c90d7156]
link MLT to UC28--><path d="M179.17,2529.37 C243.32,2536.23 338.25,2546.37 417.78,2554.87 " fill="none" id="MLT-to-UC28" style="stroke:#A80036;stroke-width:1.0;"/><polygon fill="#A80036" points="422.99,2555.43,414.4774,2550.4767,418.0195,2554.8872,413.609,2558.4294,422.99,2555.43" style="stroke:#A80036;stroke-width:1.0;"/><!--MD5=[4bbd09501365860b2ba2ccfdb0cb65cd]
link MLT to UC29--><path d="M158.33,2563.03 C187.61,2584.02 225.58,2608.03 263,2622.5 C310.31,2640.8 364.32,2652.54 413.41,2660.08 " fill="none" id="MLT-to-UC29" style="stroke:#A80036;stroke-width:1.0;"/><polygon fill="#A80036" points="418.45,2660.84,410.1594,2655.5234,413.5076,2660.0829,408.9481,2663.4312,418.45,2660.84" style="stroke:#A80036;stroke-width:1.0;"/><!--MD5=[d8070a939a74d4316a943d11a8704e8c]
link CCT to UC12--><path d="M148.3,1367.94 C178.07,1341.51 219.99,1308.9 263,1290.5 C311.47,1269.76 367.78,1257.75 418.49,1250.8 " fill="none" id="CCT-to-UC12" style="stroke:#A80036;stroke-width:1.0;"/><polygon fill="#A80036" points="423.7,1250.1,414.2524,1247.3174,418.7434,1250.7571,415.3037,1255.248,423.7,1250.1" style="stroke:#A80036;stroke-width:1.0;"/><!--MD5=[f3098257135eac58d35e666a3c15de53]
link CCT to UC30--><path d="M203.02,1420.99 C274.66,1429.42 372.27,1440.92 447.93,1449.83 " fill="none" id="CCT-to-UC30" style="stroke:#A80036;stroke-width:1.0;"/><polygon fill="#A80036" points="453.34,1450.47,444.8698,1445.4444,448.3743,1449.885,443.9338,1453.3895,453.34,1450.47" style="stroke:#A80036;stroke-width:1.0;"/><!--MD5=[b659680f567e604fd8b5a55be5d149fd]
link CCT to UC31--><path d="M159.92,1451.09 C189.05,1471.38 226.38,1494.39 263,1508.5 C309.67,1526.48 362.78,1538.41 411.27,1546.3 " fill="none" id="CCT-to-UC31" style="stroke:#A80036;stroke-width:1.0;"/><polygon fill="#A80036" points="416.24,1547.1,407.982,1541.733,411.3024,1546.3128,406.7225,1549.6332,416.24,1547.1" style="stroke:#A80036;stroke-width:1.0;"/><!--MD5=[df6353b9f5043840c29af2a8fa0c5224]
link Courier to UC33--><path d="M128.24,355.5 C186.67,355.5 345.11,355.5 453.93,355.5 " fill="none" id="Courier-to-UC33" style="stroke:#A80036;stroke-width:1.0;"/><polygon fill="#A80036" points="459.07,355.5,450.07,351.5,454.07,355.5,450.07,359.5,459.07,355.5" style="stroke:#A80036;stroke-width:1.0;"/><!--MD5=[73fcfc71b6fcdf478ff93139f627f138]
link Organization to UC34--><path d="M144.59,237.5 C206.02,237.5 328.13,237.5 424.82,237.5 " fill="none" id="Organization-to-UC34" style="stroke:#A80036;stroke-width:1.0;"/><polygon fill="#A80036" points="429.98,237.5,420.98,233.5,424.98,237.5,420.98,241.5,429.98,237.5" style="stroke:#A80036;stroke-width:1.0;"/><!--MD5=[56c5621427e6167dff6165cf567ecb95]
link LC to UC35--><path d="M149.68,937.22 C179.38,962.73 220.71,993.62 263,1010.5 C326.31,1035.77 402.5,1045.46 462.38,1048.86 " fill="none" id="LC-to-UC35" style="stroke:#A80036;stroke-width:1.0;"/><polygon fill="#A80036" points="467.39,1049.13,458.6208,1044.6467,462.3974,1048.8582,458.1859,1052.6348,467.39,1049.13" style="stroke:#A80036;stroke-width:1.0;"/><!--MD5=[bdc917df5c2d7b89776a107d80a5b90e]
link Client to UC36--><path d="M122.76,113.41 C151.5,103.48 211.14,83.79 263,72.5 C327.56,58.45 400.98,48.09 459.14,41.18 " fill="none" id="Client-to-UC36" style="stroke:#A80036;stroke-width:1.0;"/><polygon fill="#A80036" points="464.37,40.57,454.9638,37.6505,459.4043,41.155,455.8998,45.5956,464.37,40.57" style="stroke:#A80036;stroke-width:1.0;"/><!--MD5=[58593f6f5b64a5e36de7d8ac44e33133]
link Client to UC37--><path d="M122.64,119.8 C165.76,120.55 282.68,122.59 385.35,124.38 " fill="none" id="Client-to-UC37" style="stroke:#A80036;stroke-width:1.0;"/><polygon fill="#A80036" points="390.53,124.47,381.5999,120.3163,385.5307,124.3843,381.4628,128.3151,390.53,124.47" style="stroke:#A80036;stroke-width:1.0;"/><!--MD5=[e319a38dc66dfb4c15f226c9010260d3]
@startuml

left to right direction
usecase "UC1 - Perform clinical blood tests" as UC1
usecase "UC2 - Performs covid-19 tests" as UC2
usecase "UC3 - Register a client" as UC3
usecase "UC4 - Register type of test for client" as UC4
usecase "UC5 - Record the sample collected in a given test" as UC5
usecase "UC6 - Prescribes laboratory order" as UC6
usecase "UC7 - Register an employee" as UC7
usecase "UC8 - Register a new clinical analysis lab" as UC8
usecase "UC9 - Specify a new type of test and its collecting methods" as UC9
usecase "UC10 - Specify a new parameter and categorize it" as UC10
usecase "UC11 - Specify a new parameter category" as UC11
usecase "UC12 - Record the results of a given test " as UC12
usecase "UC13 - Consult the historical tests performed by a particular client" as UC13
usecase "UC14 - Make the diagnosis and write a report" as UC14
usecase "UC15 - Validates the results of the analyzes" as UC15
usecase "UC16 - Overview of all tests performed and analyse the overall performance of the company" as UC16
usecase "UC17 - Import clinical tests from a CSV file" as UC17
usecase "UC18 - Send the Covid-19 report to the NHS" as UC18
usecase "UC19 - Send to the NHS daily reports of Covid-19 data" as UC19
usecase "UC20 - Identify the number of Covid-19 tests performed" as UC20
usecase "UC21 - Identify all positive results to Covid-19 tests" as UC21
usecase "UC22 - Report the total number of Covid-19 cases" as UC22
usecase "UC23 - Send the forecasts" as UC23
usecase "UC24 - Generate daily reports" as UC24
usecase "UC26 - Perform chemical analysis" as UC26
usecase "UC27 - Records samples in the system" as UC27
usecase "UC28 - Associates the samples with the client" as UC28
usecase "UC29 - Identifies each sample with a barcode" as UC29
usecase "UC30 - Performs chemical analysis" as UC30
usecase "UC31 - Records the results in the App software" as UC31
usecase "UC32 - Registers in the App the test to be performed to that client" as UC32
usecase "UC32 - Registers the client in the App" as UC32
usecase "UC33 - Transports samples" as UC33
usecase "UC34 - Validates values automatically" as UC34
usecase "UC35 - Validates reports" as UC35
usecase "UC36 - Receive a notification" as UC36
usecase "UC37 - Access the application to view those results" as UC37




actor CAL as "Clinical Analysis Laboratories"
actor CL as "Chemical Laboratory"
actor Receptionist as "Receptionist"
actor Doctor as "Doctor"
actor MLT as "Medical Lab Technician"
actor CCT as "Clinical Chemistry Technologist"
actor SD as "Specialist Doctor"
actor Courier as "Courier"
actor LC as "Laboratory Coordinator"
actor Client as "Client"
actor Admin as "Administrator"
actor Company as "Company"

 

CAL - -> (UC1)
CAL - -> (UC2)
Receptionist - -> (UC3)
Receptionist - -> (UC4)
Receptionist - -> (UC32)
Doctor - -> (UC6)
Admin - -> (UC7)
Admin - -> (UC8)
Admin - -> (UC9)
Admin - -> (UC10)
Admin - -> (UC11)
CCT - -> (UC13)
SD - -> (UC14)
LC - -> (UC15)
LC - -> (UC16)
LC - -> (UC17)
Admin - -> (UC18)
Company - -> (UC19)
CAL - -> (UC20)
CAL - -> (UC21)
CAL - -> (UC22)
CAL - -> (UC23)
CAL - -> (UC24)
CL - -> (UC26)
MLT - -> (UC5)
MLT - -> (UC27)
MLT - -> (UC28)
MLT - -> (UC29)
CCT - -> (UC12)
CCT - -> (UC30)
CCT - -> (UC31)
Courier - -> (UC33)
Organization - -> (UC34)
LC - -> (UC35)
Client - -> (UC36)
Client - -> (UC37)

@enduml

PlantUML version 1.2021.7(Sun May 23 13:40:07 BST 2021)
(GPL source distribution)
Java Runtime: OpenJDK Runtime Environment
JVM: Dynamic Code Evolution 64-Bit Server VM
Default Encoding: Cp1252
Language: pt
Country: PT
--></g></svg>