<?xml version="1.0" encoding="UTF-8" standalone="no"?><svg xmlns="http://www.w3.org/2000/svg" xmlns:xlink="http://www.w3.org/1999/xlink" contentScriptType="application/ecmascript" contentStyleType="text/css" height="186.25px" preserveAspectRatio="none" style="width:926px;height:186px;" version="1.1" viewBox="0 0 926 186" width="926.25px" zoomAndPan="magnify"><defs><filter height="300%" id="f1eidd4syj559f" width="300%" x="-1" y="-1"><feGaussianBlur result="blurOut" stdDeviation="2.5"/><feColorMatrix in="blurOut" result="blurOut2" type="matrix" values="0 0 0 0 0 0 0 0 0 0 0 0 0 0 0 0 0 0 .4 0"/><feOffset dx="5.0" dy="5.0" in="blurOut2" result="blurOut3"/><feBlend in="SourceGraphic" in2="blurOut3" mode="normal"/></filter></defs><g><!--MD5=[02e4b9b7573f1156f41e60aa5b4e25a4]
class Company--><rect codeLine="7" fill="#FEFECE" filter="url(#f1eidd4syj559f)" height="67.2949" id="Company" style="stroke:#A80036;stroke-width:1.875;" width="106.25" x="8.75" y="66.25"/><ellipse cx="27.5" cy="86.25" fill="#ADD1B2" rx="13.75" ry="13.75" style="stroke:#A80036;stroke-width:1.25;"/><path d="M30,81.875 Q30.2539,81.25 30.5469,80.9375 Q30.8398,80.625 31.1719,80.625 Q31.7578,80.625 32.1289,80.9766 Q32.5,81.3281 32.5,82.1484 L32.5,84.1016 Q32.5,84.9219 32.1484,85.2734 Q31.7969,85.625 31.25,85.625 Q30.7617,85.625 30.4492,85.4102 Q30.1367,85.1953 30,84.6289 Q29.9414,84.2383 29.7266,84.0234 Q29.3359,83.6133 28.6328,83.3789 Q27.9297,83.125 27.2266,83.125 Q26.3477,83.125 25.6055,83.4766 Q24.8828,83.8281 24.3164,84.6094 Q23.75,85.3906 23.75,86.4648 L23.75,87.6172 Q23.75,88.9063 24.8047,89.7656 Q25.8594,90.625 27.7344,90.625 Q28.8477,90.625 29.6289,90.3711 Q30.0781,90.2344 30.5859,89.7852 Q30.918,89.5313 31.0938,89.4531 Q31.2695,89.375 31.4844,89.375 Q31.8945,89.375 32.1875,89.707 Q32.5,90.0195 32.5,90.4688 Q32.5,90.8984 32.0703,91.4063 Q31.4453,92.1484 30.4492,92.5586 Q29.1406,93.125 27.5391,93.125 Q25.6641,93.125 24.1602,92.3828 Q22.9492,91.7969 22.0898,90.5273 Q21.25,89.2578 21.25,87.7539 L21.25,86.3867 Q21.25,84.8242 21.9922,83.457 Q22.7539,82.0898 24.0625,81.3672 Q25.3906,80.625 26.875,80.625 Q27.7734,80.625 28.5547,80.9375 Q29.3359,81.25 30,81.875 Z " fill="#000000"/><text fill="#000000" font-family="sans-serif" font-size="15" lengthAdjust="spacing" textLength="66.25" x="45" y="92.3877">Company</text><line style="stroke:#A80036;stroke-width:1.875;" x1="10" x2="113.75" y1="106.25" y2="106.25"/><text fill="#000000" font-family="sans-serif" font-size="13.75" lengthAdjust="spacing" textLength="73.75" x="16.25" y="125.5237">-designation</text><!--MD5=[01931d41e78f8996acd44f6f0fd8de28]
class MedicalLabTechnician--><rect codeLine="11" fill="#FEFECE" filter="url(#f1eidd4syj559f)" height="50" id="MedicalLabTechnician" style="stroke:#A80036;stroke-width:1.875;" width="193.75" x="255" y="8.75"/><ellipse cx="273.75" cy="28.75" fill="#ADD1B2" rx="13.75" ry="13.75" style="stroke:#A80036;stroke-width:1.25;"/><path d="M276.25,24.375 Q276.5039,23.75 276.7969,23.4375 Q277.0898,23.125 277.4219,23.125 Q278.0078,23.125 278.3789,23.4766 Q278.75,23.8281 278.75,24.6484 L278.75,26.6016 Q278.75,27.4219 278.3984,27.7734 Q278.0469,28.125 277.5,28.125 Q277.0117,28.125 276.6992,27.9102 Q276.3867,27.6953 276.25,27.1289 Q276.1914,26.7383 275.9766,26.5234 Q275.5859,26.1133 274.8828,25.8789 Q274.1797,25.625 273.4766,25.625 Q272.5977,25.625 271.8555,25.9766 Q271.1328,26.3281 270.5664,27.1094 Q270,27.8906 270,28.9648 L270,30.1172 Q270,31.4063 271.0547,32.2656 Q272.1094,33.125 273.9844,33.125 Q275.0977,33.125 275.8789,32.8711 Q276.3281,32.7344 276.8359,32.2852 Q277.168,32.0313 277.3438,31.9531 Q277.5195,31.875 277.7344,31.875 Q278.1445,31.875 278.4375,32.207 Q278.75,32.5195 278.75,32.9688 Q278.75,33.3984 278.3203,33.9063 Q277.6953,34.6484 276.6992,35.0586 Q275.3906,35.625 273.7891,35.625 Q271.9141,35.625 270.4102,34.8828 Q269.1992,34.2969 268.3398,33.0273 Q267.5,31.7578 267.5,30.2539 L267.5,28.8867 Q267.5,27.3242 268.2422,25.957 Q269.0039,24.5898 270.3125,23.8672 Q271.6406,23.125 273.125,23.125 Q274.0234,23.125 274.8047,23.4375 Q275.5859,23.75 276.25,24.375 Z " fill="#000000"/><text fill="#000000" font-family="sans-serif" font-size="15" lengthAdjust="spacing" textLength="153.75" x="291.25" y="34.8877">MedicalLabTechnician</text><line style="stroke:#A80036;stroke-width:1.875;" x1="256.25" x2="447.5" y1="48.75" y2="48.75"/><!--MD5=[9681492165142af2a4a3a169d90ee8d4]
class Sample--><rect codeLine="14" fill="#FEFECE" filter="url(#f1eidd4syj559f)" height="67.2949" id="Sample" style="stroke:#A80036;stroke-width:1.875;" width="93.75" x="815" y="16.25"/><ellipse cx="833.75" cy="36.25" fill="#ADD1B2" rx="13.75" ry="13.75" style="stroke:#A80036;stroke-width:1.25;"/><path d="M836.25,31.875 Q836.5039,31.25 836.7969,30.9375 Q837.0898,30.625 837.4219,30.625 Q838.0078,30.625 838.3789,30.9766 Q838.75,31.3281 838.75,32.1484 L838.75,34.1016 Q838.75,34.9219 838.3984,35.2734 Q838.0469,35.625 837.5,35.625 Q837.0117,35.625 836.6992,35.4102 Q836.3867,35.1953 836.25,34.6289 Q836.1914,34.2383 835.9766,34.0234 Q835.5859,33.6133 834.8828,33.3789 Q834.1797,33.125 833.4766,33.125 Q832.5977,33.125 831.8555,33.4766 Q831.1328,33.8281 830.5664,34.6094 Q830,35.3906 830,36.4648 L830,37.6172 Q830,38.9063 831.0547,39.7656 Q832.1094,40.625 833.9844,40.625 Q835.0977,40.625 835.8789,40.3711 Q836.3281,40.2344 836.8359,39.7852 Q837.168,39.5313 837.3438,39.4531 Q837.5195,39.375 837.7344,39.375 Q838.1445,39.375 838.4375,39.707 Q838.75,40.0195 838.75,40.4688 Q838.75,40.8984 838.3203,41.4063 Q837.6953,42.1484 836.6992,42.5586 Q835.3906,43.125 833.7891,43.125 Q831.9141,43.125 830.4102,42.3828 Q829.1992,41.7969 828.3398,40.5273 Q827.5,39.2578 827.5,37.7539 L827.5,36.3867 Q827.5,34.8242 828.2422,33.457 Q829.0039,32.0898 830.3125,31.3672 Q831.6406,30.625 833.125,30.625 Q834.0234,30.625 834.8047,30.9375 Q835.5859,31.25 836.25,31.875 Z " fill="#000000"/><text fill="#000000" font-family="sans-serif" font-size="15" lengthAdjust="spacing" textLength="53.75" x="851.25" y="42.3877">Sample</text><line style="stroke:#A80036;stroke-width:1.875;" x1="816.25" x2="907.5" y1="56.25" y2="56.25"/><text fill="#000000" font-family="sans-serif" font-size="13.75" lengthAdjust="spacing" textLength="55" x="822.5" y="75.5237">-barcode</text><!--MD5=[e671f3231fffda95da92cdb61ed3f059]
class BarcodeAPI--><rect codeLine="18" fill="#FEFECE" filter="url(#f1eidd4syj559f)" height="67.2949" id="BarcodeAPI" style="stroke:#A80036;stroke-width:1.875;" width="120" x="291.875" y="102.5"/><ellipse cx="310.625" cy="122.5" fill="#ADD1B2" rx="13.75" ry="13.75" style="stroke:#A80036;stroke-width:1.25;"/><path d="M313.125,118.125 Q313.3789,117.5 313.6719,117.1875 Q313.9648,116.875 314.2969,116.875 Q314.8828,116.875 315.2539,117.2266 Q315.625,117.5781 315.625,118.3984 L315.625,120.3516 Q315.625,121.1719 315.2734,121.5234 Q314.9219,121.875 314.375,121.875 Q313.8867,121.875 313.5742,121.6602 Q313.2617,121.4453 313.125,120.8789 Q313.0664,120.4883 312.8516,120.2734 Q312.4609,119.8633 311.7578,119.6289 Q311.0547,119.375 310.3516,119.375 Q309.4727,119.375 308.7305,119.7266 Q308.0078,120.0781 307.4414,120.8594 Q306.875,121.6406 306.875,122.7148 L306.875,123.8672 Q306.875,125.1563 307.9297,126.0156 Q308.9844,126.875 310.8594,126.875 Q311.9727,126.875 312.7539,126.6211 Q313.2031,126.4844 313.7109,126.0352 Q314.043,125.7813 314.2188,125.7031 Q314.3945,125.625 314.6094,125.625 Q315.0195,125.625 315.3125,125.957 Q315.625,126.2695 315.625,126.7188 Q315.625,127.1484 315.1953,127.6563 Q314.5703,128.3984 313.5742,128.8086 Q312.2656,129.375 310.6641,129.375 Q308.7891,129.375 307.2852,128.6328 Q306.0742,128.0469 305.2148,126.7773 Q304.375,125.5078 304.375,124.0039 L304.375,122.6367 Q304.375,121.0742 305.1172,119.707 Q305.8789,118.3398 307.1875,117.6172 Q308.5156,116.875 310,116.875 Q310.8984,116.875 311.6797,117.1875 Q312.4609,117.5 313.125,118.125 Z " fill="#000000"/><text fill="#000000" font-family="sans-serif" font-size="15" lengthAdjust="spacing" textLength="80" x="328.125" y="128.6377">BarcodeAPI</text><line style="stroke:#A80036;stroke-width:1.875;" x1="293.125" x2="410.625" y1="142.5" y2="142.5"/><text fill="#000000" font-family="sans-serif" font-size="13.75" lengthAdjust="spacing" textLength="38.75" x="299.375" y="161.7737">-string</text><!--MD5=[df38be88ccee13e832d6fafd6288a4ca]
class Test--><rect fill="#FEFECE" filter="url(#f1eidd4syj559f)" height="50" id="Test" style="stroke:#A80036;stroke-width:1.875;" width="70" x="589.375" y="81.25"/><ellipse cx="608.125" cy="101.25" fill="#ADD1B2" rx="13.75" ry="13.75" style="stroke:#A80036;stroke-width:1.25;"/><path d="M610.625,96.875 Q610.8789,96.25 611.1719,95.9375 Q611.4648,95.625 611.7969,95.625 Q612.3828,95.625 612.7539,95.9766 Q613.125,96.3281 613.125,97.1484 L613.125,99.1016 Q613.125,99.9219 612.7734,100.2734 Q612.4219,100.625 611.875,100.625 Q611.3867,100.625 611.0742,100.4102 Q610.7617,100.1953 610.625,99.6289 Q610.5664,99.2383 610.3516,99.0234 Q609.9609,98.6133 609.2578,98.3789 Q608.5547,98.125 607.8516,98.125 Q606.9727,98.125 606.2305,98.4766 Q605.5078,98.8281 604.9414,99.6094 Q604.375,100.3906 604.375,101.4648 L604.375,102.6172 Q604.375,103.9063 605.4297,104.7656 Q606.4844,105.625 608.3594,105.625 Q609.4727,105.625 610.2539,105.3711 Q610.7031,105.2344 611.2109,104.7852 Q611.543,104.5313 611.7188,104.4531 Q611.8945,104.375 612.1094,104.375 Q612.5195,104.375 612.8125,104.707 Q613.125,105.0195 613.125,105.4688 Q613.125,105.8984 612.6953,106.4063 Q612.0703,107.1484 611.0742,107.5586 Q609.7656,108.125 608.1641,108.125 Q606.2891,108.125 604.7852,107.3828 Q603.5742,106.7969 602.7148,105.5273 Q601.875,104.2578 601.875,102.7539 L601.875,101.3867 Q601.875,99.8242 602.6172,98.457 Q603.3789,97.0898 604.6875,96.3672 Q606.0156,95.625 607.5,95.625 Q608.3984,95.625 609.1797,95.9375 Q609.9609,96.25 610.625,96.875 Z " fill="#000000"/><text fill="#000000" font-family="sans-serif" font-size="15" lengthAdjust="spacing" textLength="30" x="625.625" y="107.3877">Test</text><line style="stroke:#A80036;stroke-width:1.875;" x1="590.625" x2="658.125" y1="121.25" y2="121.25"/><!--MD5=[b3ce5a6630a4618a8b0d497d766f4e5a]
link Company to MedicalLabTechnician--><path codeLine="23" d="M115.1875,88 C154.025,79.05 208.1875,66.575 254.7625,55.8375 " fill="none" id="Company-MedicalLabTechnician" style="stroke:#A80036;stroke-width:1.25;"/><polygon fill="#000000" points="164.8404,52.5663,152.9979,51.5253,154.6477,58.685,164.8404,52.5663" style="stroke:#000000;stroke-width:1.25;"/><text fill="#000000" font-family="sans-serif" font-size="16.25" lengthAdjust="spacing" textLength="46.25" x="170" y="60.6189">knows</text><text fill="#000000" font-family="sans-serif" font-size="16.25" lengthAdjust="spacing" textLength="8.75" x="125.1025" y="104.5805">1</text><text fill="#000000" font-family="sans-serif" font-size="16.25" lengthAdjust="spacing" textLength="6.25" x="238.6454" y="75.8866">*</text><!--MD5=[0a29b4543c1af9e8341b856b8b8ec05c]
link MedicalLabTechnician to Sample--><path codeLine="24" d="M448.8875,35.1625 C574.0625,37 777.5,40 777.5,40 C777.5,40 795.4625,42.1625 814.6875,44.475 " fill="none" id="MedicalLabTechnician-Sample" style="stroke:#A80036;stroke-width:1.25;"/><polygon fill="#000000" points="601.248,26.6288,590.0388,22.6686,589.8518,30.0135,601.248,26.6288" style="stroke:#000000;stroke-width:1.25;"/><text fill="#000000" font-family="sans-serif" font-size="16.25" lengthAdjust="spacing" textLength="52.5" x="606.25" y="33.1189">colects</text><text fill="#000000" font-family="sans-serif" font-size="16.25" lengthAdjust="spacing" textLength="25" x="458.641" y="53.0674">1..*</text><text fill="#000000" font-family="sans-serif" font-size="16.25" lengthAdjust="spacing" textLength="25" x="780.1748" y="62.1085">1..*</text><!--MD5=[4d919ce9634ce3b6a19089589632ad48]
link MedicalLabTechnician to Test--><path codeLine="25" d="M446.425,58.8 C495.8125,72.0625 553.45,87.5375 589.125,97.125 " fill="none" id="MedicalLabTechnician-Test" style="stroke:#A80036;stroke-width:1.25;"/><polygon fill="#000000" points="498.5361,60.5908,488.5696,54.1103,486.6638,61.2061,498.5361,60.5908" style="stroke:#000000;stroke-width:1.25;"/><text fill="#000000" font-family="sans-serif" font-size="16.25" lengthAdjust="spacing" textLength="46.25" x="503.75" y="65.6189">knows</text><text fill="#000000" font-family="sans-serif" font-size="16.25" lengthAdjust="spacing" textLength="25" x="444.5016" y="85.5885">1..*</text><text fill="#000000" font-family="sans-serif" font-size="16.25" lengthAdjust="spacing" textLength="25" x="554.2766" y="114.2197">1..*</text><!--MD5=[b72ac8ab7fb5921fceb5036a3902baea]
link Test to Sample--><path codeLine="26" d="M659.8,98.075 C700.6625,88.2875 769.225,71.875 814.6875,61 " fill="none" id="Test-Sample" style="stroke:#A80036;stroke-width:1.25;"/><polygon fill="#000000" points="709.8283,60.0148,697.9774,59.0741,699.6878,66.2195,709.8283,60.0148" style="stroke:#000000;stroke-width:1.25;"/><text fill="#000000" font-family="sans-serif" font-size="16.25" lengthAdjust="spacing" textLength="61.25" x="715" y="68.1189">contains</text><text fill="#000000" font-family="sans-serif" font-size="16.25" lengthAdjust="spacing" textLength="8.75" x="669.5013" y="115.4423">1</text><text fill="#000000" font-family="sans-serif" font-size="16.25" lengthAdjust="spacing" textLength="25" x="780.1748" y="81.2671">1..*</text><!--MD5=[a72b52b843e46c08bd7e0ea6cffb35b1]
link Company to BarcodeAPI--><path codeLine="27" d="M115.1125,114.5375 C134.775,120.0375 152.5,125 152.5,125 C152.5,125 233.3125,129.5875 291.7125,132.9 " fill="none" id="Company-BarcodeAPI" style="stroke:#A80036;stroke-width:1.25;"/><polygon fill="#000000" points="174.9665,114.6161,164.1007,109.7928,163.3408,117.1008,174.9665,114.6161" style="stroke:#000000;stroke-width:1.25;"/><text fill="#000000" font-family="sans-serif" font-size="16.25" lengthAdjust="spacing" textLength="26.25" x="180" y="120.6189">has</text><text fill="#000000" font-family="sans-serif" font-size="16.25" lengthAdjust="spacing" textLength="8.75" x="125.0146" y="135.6792">1</text><text fill="#000000" font-family="sans-serif" font-size="16.25" lengthAdjust="spacing" textLength="25" x="256.9485" y="150.7058">1..*</text><!--MD5=[18c164ba128797663744ba568842880a]
@startuml
skinparam classAttributeIconSize 0
hide methods
left to right direction
skinparam linetype polyline


Class Company{
-designation
}

Class MedicalLabTechnician{
}

Class Sample{
-barcode
}

Class BarcodeAPI{
-string
}


Company "1" - - "*" MedicalLabTechnician : knows >
MedicalLabTechnician "1..*" - - "1..*" Sample : colects >
MedicalLabTechnician "1..*" - - "1..*" Test : knows >
Test "1" - - "1..*" Sample : contains >
Company "1" - - "1..*" BarcodeAPI : has >


@enduml

PlantUML version 1.2021.5(Sun Apr 25 12:20:28 BST 2021)
(GPL source distribution)
Java Runtime: OpenJDK Runtime Environment
JVM: Dynamic Code Evolution 64-Bit Server VM
Default Encoding: Cp1252
Language: pt
Country: PT
--></g></svg>