<?xml version="1.0" encoding="UTF-8" standalone="no"?><svg xmlns="http://www.w3.org/2000/svg" xmlns:xlink="http://www.w3.org/1999/xlink" contentScriptType="application/ecmascript" contentStyleType="text/css" height="260px" preserveAspectRatio="none" style="width:1931px;height:260px;background:#FFFFFF;" version="1.1" viewBox="0 0 1931 260" width="1931.25px" zoomAndPan="magnify"><defs><filter height="300%" id="f5pqim7yj1yxw" width="300%" x="-1" y="-1"><feGaussianBlur result="blurOut" stdDeviation="2.5"/><feColorMatrix in="blurOut" result="blurOut2" type="matrix" values="0 0 0 0 0 0 0 0 0 0 0 0 0 0 0 0 0 0 .4 0"/><feOffset dx="5.0" dy="5.0" in="blurOut2" result="blurOut3"/><feBlend in="SourceGraphic" in2="blurOut3" mode="normal"/></filter></defs><g><!--MD5=[0949b9021b356facb766c06dd509b5c7]
class CreateSampleTestUI--><rect codeLine="4" fill="#FEFECE" filter="url(#f5pqim7yj1yxw)" height="60" id="CreateSampleTestUI" style="stroke:#A80036;stroke-width:1.875;" width="185" x="8.75" y="140.0375"/><ellipse cx="27.5" cy="160.0375" fill="#ADD1B2" rx="13.75" ry="13.75" style="stroke:#A80036;stroke-width:1.25;"/><path d="M30,155.6625 Q30.2539,155.0375 30.5469,154.725 Q30.8398,154.4125 31.1719,154.4125 Q31.7578,154.4125 32.1289,154.7641 Q32.5,155.1156 32.5,155.9359 L32.5,157.8891 Q32.5,158.7094 32.1484,159.0609 Q31.7969,159.4125 31.25,159.4125 Q30.7617,159.4125 30.4492,159.1977 Q30.1367,158.9828 30,158.4164 Q29.9414,158.0258 29.7266,157.8109 Q29.3359,157.4008 28.6328,157.1664 Q27.9297,156.9125 27.2266,156.9125 Q26.3477,156.9125 25.6055,157.2641 Q24.8828,157.6156 24.3164,158.3969 Q23.75,159.1781 23.75,160.2523 L23.75,161.4047 Q23.75,162.6938 24.8047,163.5531 Q25.8594,164.4125 27.7344,164.4125 Q28.8477,164.4125 29.6289,164.1586 Q30.0781,164.0219 30.5859,163.5727 Q30.918,163.3188 31.0938,163.2406 Q31.2695,163.1625 31.4844,163.1625 Q31.8945,163.1625 32.1875,163.4945 Q32.5,163.807 32.5,164.2563 Q32.5,164.6859 32.0703,165.1938 Q31.4453,165.9359 30.4492,166.3461 Q29.1406,166.9125 27.5391,166.9125 Q25.6641,166.9125 24.1602,166.1703 Q22.9492,165.5844 22.0898,164.3148 Q21.25,163.0453 21.25,161.5414 L21.25,160.1742 Q21.25,158.6117 21.9922,157.2445 Q22.7539,155.8773 24.0625,155.1547 Q25.3906,154.4125 26.875,154.4125 Q27.7734,154.4125 28.5547,154.725 Q29.3359,155.0375 30,155.6625 Z " fill="#000000"/><text fill="#000000" font-family="sans-serif" font-size="15" lengthAdjust="spacing" textLength="145" x="45" y="166.1752">CreateSampleTestUI</text><line style="stroke:#A80036;stroke-width:1.875;" x1="10" x2="192.5" y1="180.0375" y2="180.0375"/><line style="stroke:#A80036;stroke-width:1.875;" x1="10" x2="192.5" y1="190.0375" y2="190.0375"/><!--MD5=[7e5a10a625fc301f2d3842cb6da64b5c]
class CreateSampleTestController--><rect codeLine="8" fill="#FEFECE" filter="url(#f5pqim7yj1yxw)" height="146.4746" id="CreateSampleTestController" style="stroke:#A80036;stroke-width:1.875;" width="237.5" x="237.5" y="96.9125"/><ellipse cx="256.25" cy="116.9125" fill="#ADD1B2" rx="13.75" ry="13.75" style="stroke:#A80036;stroke-width:1.25;"/><path d="M258.75,112.5375 Q259.0039,111.9125 259.2969,111.6 Q259.5898,111.2875 259.9219,111.2875 Q260.5078,111.2875 260.8789,111.6391 Q261.25,111.9906 261.25,112.8109 L261.25,114.7641 Q261.25,115.5844 260.8984,115.9359 Q260.5469,116.2875 260,116.2875 Q259.5117,116.2875 259.1992,116.0727 Q258.8867,115.8578 258.75,115.2914 Q258.6914,114.9008 258.4766,114.6859 Q258.0859,114.2758 257.3828,114.0414 Q256.6797,113.7875 255.9766,113.7875 Q255.0977,113.7875 254.3555,114.1391 Q253.6328,114.4906 253.0664,115.2719 Q252.5,116.0531 252.5,117.1273 L252.5,118.2797 Q252.5,119.5688 253.5547,120.4281 Q254.6094,121.2875 256.4844,121.2875 Q257.5977,121.2875 258.3789,121.0336 Q258.8281,120.8969 259.3359,120.4477 Q259.668,120.1938 259.8438,120.1156 Q260.0195,120.0375 260.2344,120.0375 Q260.6445,120.0375 260.9375,120.3695 Q261.25,120.682 261.25,121.1313 Q261.25,121.5609 260.8203,122.0688 Q260.1953,122.8109 259.1992,123.2211 Q257.8906,123.7875 256.2891,123.7875 Q254.4141,123.7875 252.9102,123.0453 Q251.6992,122.4594 250.8398,121.1898 Q250,119.9203 250,118.4164 L250,117.0492 Q250,115.4867 250.7422,114.1195 Q251.5039,112.7523 252.8125,112.0297 Q254.1406,111.2875 255.625,111.2875 Q256.5234,111.2875 257.3047,111.6 Q258.0859,111.9125 258.75,112.5375 Z " fill="#000000"/><text fill="#000000" font-family="sans-serif" font-size="15" lengthAdjust="spacing" textLength="197.5" x="273.75" y="123.0502">CreateSampleTestController</text><line style="stroke:#A80036;stroke-width:1.875;" x1="238.75" x2="473.75" y1="136.9125" y2="136.9125"/><line style="stroke:#A80036;stroke-width:1.875;" x1="238.75" x2="473.75" y1="146.9125" y2="146.9125"/><ellipse cx="251.25" cy="160.6625" fill="#84BE84" rx="3.75" ry="3.75" style="stroke:#038048;stroke-width:1.25;"/><text fill="#000000" font-family="sans-serif" font-size="13.75" lengthAdjust="spacing" textLength="123.75" x="262.5" y="166.1862">getCreatedTestList()</text><ellipse cx="251.25" cy="177.9574" fill="#84BE84" rx="3.75" ry="3.75" style="stroke:#038048;stroke-width:1.25;"/><text fill="#000000" font-family="sans-serif" font-size="13.75" lengthAdjust="spacing" textLength="168.75" x="262.5" y="183.4811">createBarcode(String code)</text><ellipse cx="251.25" cy="195.2523" fill="#84BE84" rx="3.75" ry="3.75" style="stroke:#038048;stroke-width:1.25;"/><text fill="#000000" font-family="sans-serif" font-size="13.75" lengthAdjust="spacing" textLength="156.25" x="262.5" y="200.776">printBarcode(String code)</text><ellipse cx="251.25" cy="212.5473" fill="#84BE84" rx="3.75" ry="3.75" style="stroke:#038048;stroke-width:1.25;"/><text fill="#000000" font-family="sans-serif" font-size="13.75" lengthAdjust="spacing" textLength="130" x="262.5" y="218.0709">getTestById(String id)</text><ellipse cx="251.25" cy="229.8422" fill="#84BE84" rx="3.75" ry="3.75" style="stroke:#038048;stroke-width:1.25;"/><text fill="#000000" font-family="sans-serif" font-size="13.75" lengthAdjust="spacing" textLength="125" x="262.5" y="235.3659">addSample(String id)</text><!--MD5=[02e4b9b7573f1156f41e60aa5b4e25a4]
class Company--><rect codeLine="17" fill="#FEFECE" filter="url(#f5pqim7yj1yxw)" height="60" id="Company" style="stroke:#A80036;stroke-width:1.875;" width="106.25" x="519.375" y="140.0375"/><ellipse cx="538.125" cy="160.0375" fill="#ADD1B2" rx="13.75" ry="13.75" style="stroke:#A80036;stroke-width:1.25;"/><path d="M540.625,155.6625 Q540.8789,155.0375 541.1719,154.725 Q541.4648,154.4125 541.7969,154.4125 Q542.3828,154.4125 542.7539,154.7641 Q543.125,155.1156 543.125,155.9359 L543.125,157.8891 Q543.125,158.7094 542.7734,159.0609 Q542.4219,159.4125 541.875,159.4125 Q541.3867,159.4125 541.0742,159.1977 Q540.7617,158.9828 540.625,158.4164 Q540.5664,158.0258 540.3516,157.8109 Q539.9609,157.4008 539.2578,157.1664 Q538.5547,156.9125 537.8516,156.9125 Q536.9727,156.9125 536.2305,157.2641 Q535.5078,157.6156 534.9414,158.3969 Q534.375,159.1781 534.375,160.2523 L534.375,161.4047 Q534.375,162.6938 535.4297,163.5531 Q536.4844,164.4125 538.3594,164.4125 Q539.4727,164.4125 540.2539,164.1586 Q540.7031,164.0219 541.2109,163.5727 Q541.543,163.3188 541.7188,163.2406 Q541.8945,163.1625 542.1094,163.1625 Q542.5195,163.1625 542.8125,163.4945 Q543.125,163.807 543.125,164.2563 Q543.125,164.6859 542.6953,165.1938 Q542.0703,165.9359 541.0742,166.3461 Q539.7656,166.9125 538.1641,166.9125 Q536.2891,166.9125 534.7852,166.1703 Q533.5742,165.5844 532.7148,164.3148 Q531.875,163.0453 531.875,161.5414 L531.875,160.1742 Q531.875,158.6117 532.6172,157.2445 Q533.3789,155.8773 534.6875,155.1547 Q536.0156,154.4125 537.5,154.4125 Q538.3984,154.4125 539.1797,154.725 Q539.9609,155.0375 540.625,155.6625 Z " fill="#000000"/><text fill="#000000" font-family="sans-serif" font-size="15" lengthAdjust="spacing" textLength="66.25" x="555.625" y="166.1752">Company</text><line style="stroke:#A80036;stroke-width:1.875;" x1="520.625" x2="624.375" y1="180.0375" y2="180.0375"/><line style="stroke:#A80036;stroke-width:1.875;" x1="520.625" x2="624.375" y1="190.0375" y2="190.0375"/><!--MD5=[9681492165142af2a4a3a169d90ee8d4]
class Sample--><rect codeLine="22" fill="#FEFECE" filter="url(#f5pqim7yj1yxw)" height="129.1797" id="Sample" style="stroke:#A80036;stroke-width:1.875;" width="191.25" x="876.875" y="105.6625"/><ellipse cx="940.3125" cy="125.6625" fill="#ADD1B2" rx="13.75" ry="13.75" style="stroke:#A80036;stroke-width:1.25;"/><path d="M942.8125,121.2875 Q943.0664,120.6625 943.3594,120.35 Q943.6523,120.0375 943.9844,120.0375 Q944.5703,120.0375 944.9414,120.3891 Q945.3125,120.7406 945.3125,121.5609 L945.3125,123.5141 Q945.3125,124.3344 944.9609,124.6859 Q944.6094,125.0375 944.0625,125.0375 Q943.5742,125.0375 943.2617,124.8227 Q942.9492,124.6078 942.8125,124.0414 Q942.7539,123.6508 942.5391,123.4359 Q942.1484,123.0258 941.4453,122.7914 Q940.7422,122.5375 940.0391,122.5375 Q939.1602,122.5375 938.418,122.8891 Q937.6953,123.2406 937.1289,124.0219 Q936.5625,124.8031 936.5625,125.8773 L936.5625,127.0297 Q936.5625,128.3188 937.6172,129.1781 Q938.6719,130.0375 940.5469,130.0375 Q941.6602,130.0375 942.4414,129.7836 Q942.8906,129.6469 943.3984,129.1977 Q943.7305,128.9438 943.9063,128.8656 Q944.082,128.7875 944.2969,128.7875 Q944.707,128.7875 945,129.1195 Q945.3125,129.432 945.3125,129.8813 Q945.3125,130.3109 944.8828,130.8188 Q944.2578,131.5609 943.2617,131.9711 Q941.9531,132.5375 940.3516,132.5375 Q938.4766,132.5375 936.9727,131.7953 Q935.7617,131.2094 934.9023,129.9398 Q934.0625,128.6703 934.0625,127.1664 L934.0625,125.7992 Q934.0625,124.2367 934.8047,122.8695 Q935.5664,121.5023 936.875,120.7797 Q938.2031,120.0375 939.6875,120.0375 Q940.5859,120.0375 941.3672,120.35 Q942.1484,120.6625 942.8125,121.2875 Z " fill="#000000"/><text fill="#000000" font-family="sans-serif" font-size="15" lengthAdjust="spacing" textLength="53.75" x="965.9375" y="131.8002">Sample</text><line style="stroke:#A80036;stroke-width:1.875;" x1="878.125" x2="1066.875" y1="145.6625" y2="145.6625"/><rect fill="none" height="7.5" style="stroke:#C82930;stroke-width:1.25;" width="7.5" x="886.875" y="155.6625"/><text fill="#000000" font-family="sans-serif" font-size="13.75" lengthAdjust="spacing" textLength="105" x="901.875" y="164.9362">Barcode barcode</text><rect fill="none" height="7.5" style="stroke:#C82930;stroke-width:1.25;" width="7.5" x="886.875" y="172.9574"/><text fill="#000000" font-family="sans-serif" font-size="13.75" lengthAdjust="spacing" textLength="65" x="901.875" y="182.2311">String date</text><line style="stroke:#A80036;stroke-width:1.875;" x1="878.125" x2="1066.875" y1="190.2523" y2="190.2523"/><ellipse cx="890.625" cy="204.0023" fill="#84BE84" rx="3.75" ry="3.75" style="stroke:#038048;stroke-width:1.25;"/><text fill="#000000" font-family="sans-serif" font-size="13.75" lengthAdjust="spacing" textLength="158.75" x="901.875" y="209.526">Sample(Barcode barcode)</text><ellipse cx="890.625" cy="221.2973" fill="#84BE84" rx="3.75" ry="3.75" style="stroke:#038048;stroke-width:1.25;"/><text fill="#000000" font-family="sans-serif" font-size="13.75" lengthAdjust="spacing" textLength="95" x="901.875" y="226.8209">String toString()</text><!--MD5=[e671f3231fffda95da92cdb61ed3f059]
class BarcodeAPI--><rect codeLine="31" fill="#FEFECE" filter="url(#f5pqim7yj1yxw)" height="94.5898" id="BarcodeAPI" style="stroke:#A80036;stroke-width:1.875;" width="201.25" x="1530.625" y="122.5375"/><ellipse cx="1585.9375" cy="142.5375" fill="#ADD1B2" rx="13.75" ry="13.75" style="stroke:#A80036;stroke-width:1.25;"/><path d="M1588.4375,138.1625 Q1588.6914,137.5375 1588.9844,137.225 Q1589.2773,136.9125 1589.6094,136.9125 Q1590.1953,136.9125 1590.5664,137.2641 Q1590.9375,137.6156 1590.9375,138.4359 L1590.9375,140.3891 Q1590.9375,141.2094 1590.5859,141.5609 Q1590.2344,141.9125 1589.6875,141.9125 Q1589.1992,141.9125 1588.8867,141.6977 Q1588.5742,141.4828 1588.4375,140.9164 Q1588.3789,140.5258 1588.1641,140.3109 Q1587.7734,139.9008 1587.0703,139.6664 Q1586.3672,139.4125 1585.6641,139.4125 Q1584.7852,139.4125 1584.043,139.7641 Q1583.3203,140.1156 1582.7539,140.8969 Q1582.1875,141.6781 1582.1875,142.7523 L1582.1875,143.9047 Q1582.1875,145.1938 1583.2422,146.0531 Q1584.2969,146.9125 1586.1719,146.9125 Q1587.2852,146.9125 1588.0664,146.6586 Q1588.5156,146.5219 1589.0234,146.0727 Q1589.3555,145.8188 1589.5313,145.7406 Q1589.707,145.6625 1589.9219,145.6625 Q1590.332,145.6625 1590.625,145.9945 Q1590.9375,146.307 1590.9375,146.7563 Q1590.9375,147.1859 1590.5078,147.6938 Q1589.8828,148.4359 1588.8867,148.8461 Q1587.5781,149.4125 1585.9766,149.4125 Q1584.1016,149.4125 1582.5977,148.6703 Q1581.3867,148.0844 1580.5273,146.8148 Q1579.6875,145.5453 1579.6875,144.0414 L1579.6875,142.6742 Q1579.6875,141.1117 1580.4297,139.7445 Q1581.1914,138.3773 1582.5,137.6547 Q1583.8281,136.9125 1585.3125,136.9125 Q1586.2109,136.9125 1586.9922,137.225 Q1587.7734,137.5375 1588.4375,138.1625 Z " fill="#000000"/><text fill="#000000" font-family="sans-serif" font-size="15" lengthAdjust="spacing" textLength="80" x="1611.5625" y="148.6752">BarcodeAPI</text><line style="stroke:#A80036;stroke-width:1.875;" x1="1531.875" x2="1730.625" y1="162.5375" y2="162.5375"/><line style="stroke:#A80036;stroke-width:1.875;" x1="1531.875" x2="1730.625" y1="172.5375" y2="172.5375"/><ellipse cx="1544.375" cy="186.2875" fill="#84BE84" rx="3.75" ry="3.75" style="stroke:#038048;stroke-width:1.25;"/><text fill="#000000" font-family="sans-serif" font-size="13.75" lengthAdjust="spacing" textLength="168.75" x="1555.625" y="191.8112">createBarcode(String code)</text><ellipse cx="1544.375" cy="203.5824" fill="#84BE84" rx="3.75" ry="3.75" style="stroke:#038048;stroke-width:1.25;"/><text fill="#000000" font-family="sans-serif" font-size="13.75" lengthAdjust="spacing" textLength="156.25" x="1555.625" y="209.1061">printBarcode(String code)</text><!--MD5=[0f6f7964b844a64b0496af0dda7914bd]
class TestStore--><rect codeLine="37" fill="#FEFECE" filter="url(#f5pqim7yj1yxw)" height="77.2949" id="TestStore" style="stroke:#A80036;stroke-width:1.875;" width="162.5" x="670" y="131.2875"/><ellipse cx="714.0625" cy="151.2875" fill="#ADD1B2" rx="13.75" ry="13.75" style="stroke:#A80036;stroke-width:1.25;"/><path d="M716.5625,146.9125 Q716.8164,146.2875 717.1094,145.975 Q717.4023,145.6625 717.7344,145.6625 Q718.3203,145.6625 718.6914,146.0141 Q719.0625,146.3656 719.0625,147.1859 L719.0625,149.1391 Q719.0625,149.9594 718.7109,150.3109 Q718.3594,150.6625 717.8125,150.6625 Q717.3242,150.6625 717.0117,150.4477 Q716.6992,150.2328 716.5625,149.6664 Q716.5039,149.2758 716.2891,149.0609 Q715.8984,148.6508 715.1953,148.4164 Q714.4922,148.1625 713.7891,148.1625 Q712.9102,148.1625 712.168,148.5141 Q711.4453,148.8656 710.8789,149.6469 Q710.3125,150.4281 710.3125,151.5023 L710.3125,152.6547 Q710.3125,153.9438 711.3672,154.8031 Q712.4219,155.6625 714.2969,155.6625 Q715.4102,155.6625 716.1914,155.4086 Q716.6406,155.2719 717.1484,154.8227 Q717.4805,154.5688 717.6563,154.4906 Q717.832,154.4125 718.0469,154.4125 Q718.457,154.4125 718.75,154.7445 Q719.0625,155.057 719.0625,155.5063 Q719.0625,155.9359 718.6328,156.4438 Q718.0078,157.1859 717.0117,157.5961 Q715.7031,158.1625 714.1016,158.1625 Q712.2266,158.1625 710.7227,157.4203 Q709.5117,156.8344 708.6523,155.5648 Q707.8125,154.2953 707.8125,152.7914 L707.8125,151.4242 Q707.8125,149.8617 708.5547,148.4945 Q709.3164,147.1273 710.625,146.4047 Q711.9531,145.6625 713.4375,145.6625 Q714.3359,145.6625 715.1172,145.975 Q715.8984,146.2875 716.5625,146.9125 Z " fill="#000000"/><text fill="#000000" font-family="sans-serif" font-size="15" lengthAdjust="spacing" textLength="66.25" x="737.1875" y="157.4252">TestStore</text><line style="stroke:#A80036;stroke-width:1.875;" x1="671.25" x2="831.25" y1="171.2875" y2="171.2875"/><line style="stroke:#A80036;stroke-width:1.875;" x1="671.25" x2="831.25" y1="181.2875" y2="181.2875"/><ellipse cx="683.75" cy="195.0375" fill="#84BE84" rx="3.75" ry="3.75" style="stroke:#038048;stroke-width:1.25;"/><text fill="#000000" font-family="sans-serif" font-size="13.75" lengthAdjust="spacing" textLength="130" x="695" y="200.5612">String getNewTests()</text><!--MD5=[a7a2afbc3d20d3223648d67cf2956811]
class DemoFile--><rect codeLine="42" fill="#FEFECE" filter="url(#f5pqim7yj1yxw)" height="77.2949" id="DemoFile" style="stroke:#A80036;stroke-width:1.875;" width="172.5" x="1313.75" y="131.2875"/><ellipse cx="1361.75" cy="151.2875" fill="#ADD1B2" rx="13.75" ry="13.75" style="stroke:#A80036;stroke-width:1.25;"/><path d="M1364.25,146.9125 Q1364.5039,146.2875 1364.7969,145.975 Q1365.0898,145.6625 1365.4219,145.6625 Q1366.0078,145.6625 1366.3789,146.0141 Q1366.75,146.3656 1366.75,147.1859 L1366.75,149.1391 Q1366.75,149.9594 1366.3984,150.3109 Q1366.0469,150.6625 1365.5,150.6625 Q1365.0117,150.6625 1364.6992,150.4477 Q1364.3867,150.2328 1364.25,149.6664 Q1364.1914,149.2758 1363.9766,149.0609 Q1363.5859,148.6508 1362.8828,148.4164 Q1362.1797,148.1625 1361.4766,148.1625 Q1360.5977,148.1625 1359.8555,148.5141 Q1359.1328,148.8656 1358.5664,149.6469 Q1358,150.4281 1358,151.5023 L1358,152.6547 Q1358,153.9438 1359.0547,154.8031 Q1360.1094,155.6625 1361.9844,155.6625 Q1363.0977,155.6625 1363.8789,155.4086 Q1364.3281,155.2719 1364.8359,154.8227 Q1365.168,154.5688 1365.3438,154.4906 Q1365.5195,154.4125 1365.7344,154.4125 Q1366.1445,154.4125 1366.4375,154.7445 Q1366.75,155.057 1366.75,155.5063 Q1366.75,155.9359 1366.3203,156.4438 Q1365.6953,157.1859 1364.6992,157.5961 Q1363.3906,158.1625 1361.7891,158.1625 Q1359.9141,158.1625 1358.4102,157.4203 Q1357.1992,156.8344 1356.3398,155.5648 Q1355.5,154.2953 1355.5,152.7914 L1355.5,151.4242 Q1355.5,149.8617 1356.2422,148.4945 Q1357.0039,147.1273 1358.3125,146.4047 Q1359.6406,145.6625 1361.125,145.6625 Q1362.0234,145.6625 1362.8047,145.975 Q1363.5859,146.2875 1364.25,146.9125 Z " fill="#000000"/><text fill="#000000" font-family="sans-serif" font-size="15" lengthAdjust="spacing" textLength="67.5" x="1385.75" y="157.4252">DemoFile</text><line style="stroke:#A80036;stroke-width:1.875;" x1="1315" x2="1485" y1="171.2875" y2="171.2875"/><line style="stroke:#A80036;stroke-width:1.875;" x1="1315" x2="1485" y1="181.2875" y2="181.2875"/><ellipse cx="1327.5" cy="195.0375" fill="#84BE84" rx="3.75" ry="3.75" style="stroke:#038048;stroke-width:1.25;"/><text fill="#000000" font-family="sans-serif" font-size="13.75" lengthAdjust="spacing" textLength="140" x="1338.75" y="200.5612">String codeGenarator()</text><!--MD5=[32cb5990b641f7ee9aec035e54ddb5c3]
class SaveDate--><rect codeLine="46" fill="#FEFECE" filter="url(#f5pqim7yj1yxw)" height="77.2949" id="SaveDate" style="stroke:#A80036;stroke-width:1.875;" width="157.5" x="1112.5" y="131.2875"/><ellipse cx="1154.3125" cy="151.2875" fill="#ADD1B2" rx="13.75" ry="13.75" style="stroke:#A80036;stroke-width:1.25;"/><path d="M1156.8125,146.9125 Q1157.0664,146.2875 1157.3594,145.975 Q1157.6523,145.6625 1157.9844,145.6625 Q1158.5703,145.6625 1158.9414,146.0141 Q1159.3125,146.3656 1159.3125,147.1859 L1159.3125,149.1391 Q1159.3125,149.9594 1158.9609,150.3109 Q1158.6094,150.6625 1158.0625,150.6625 Q1157.5742,150.6625 1157.2617,150.4477 Q1156.9492,150.2328 1156.8125,149.6664 Q1156.7539,149.2758 1156.5391,149.0609 Q1156.1484,148.6508 1155.4453,148.4164 Q1154.7422,148.1625 1154.0391,148.1625 Q1153.1602,148.1625 1152.418,148.5141 Q1151.6953,148.8656 1151.1289,149.6469 Q1150.5625,150.4281 1150.5625,151.5023 L1150.5625,152.6547 Q1150.5625,153.9438 1151.6172,154.8031 Q1152.6719,155.6625 1154.5469,155.6625 Q1155.6602,155.6625 1156.4414,155.4086 Q1156.8906,155.2719 1157.3984,154.8227 Q1157.7305,154.5688 1157.9063,154.4906 Q1158.082,154.4125 1158.2969,154.4125 Q1158.707,154.4125 1159,154.7445 Q1159.3125,155.057 1159.3125,155.5063 Q1159.3125,155.9359 1158.8828,156.4438 Q1158.2578,157.1859 1157.2617,157.5961 Q1155.9531,158.1625 1154.3516,158.1625 Q1152.4766,158.1625 1150.9727,157.4203 Q1149.7617,156.8344 1148.9023,155.5648 Q1148.0625,154.2953 1148.0625,152.7914 L1148.0625,151.4242 Q1148.0625,149.8617 1148.8047,148.4945 Q1149.5664,147.1273 1150.875,146.4047 Q1152.2031,145.6625 1153.6875,145.6625 Q1154.5859,145.6625 1155.3672,145.975 Q1156.1484,146.2875 1156.8125,146.9125 Z " fill="#000000"/><text fill="#000000" font-family="sans-serif" font-size="15" lengthAdjust="spacing" textLength="66.25" x="1176.9375" y="157.4252">SaveDate</text><line style="stroke:#A80036;stroke-width:1.875;" x1="1113.75" x2="1268.75" y1="171.2875" y2="171.2875"/><line style="stroke:#A80036;stroke-width:1.875;" x1="1113.75" x2="1268.75" y1="181.2875" y2="181.2875"/><ellipse cx="1126.25" cy="195.0375" fill="#84BE84" rx="3.75" ry="3.75" style="stroke:#038048;stroke-width:1.25;"/><text fill="#000000" font-family="sans-serif" font-size="13.75" lengthAdjust="spacing" textLength="125" x="1137.5" y="200.5612">String dataCreation()</text><!--MD5=[df38be88ccee13e832d6fafd6288a4ca]
class Test--><rect codeLine="50" fill="#FEFECE" filter="url(#f5pqim7yj1yxw)" height="77.2949" id="Test" style="stroke:#A80036;stroke-width:1.875;" width="138.75" x="1775.625" y="131.2875"/><ellipse cx="1825.3125" cy="151.2875" fill="#ADD1B2" rx="13.75" ry="13.75" style="stroke:#A80036;stroke-width:1.25;"/><path d="M1827.8125,146.9125 Q1828.0664,146.2875 1828.3594,145.975 Q1828.6523,145.6625 1828.9844,145.6625 Q1829.5703,145.6625 1829.9414,146.0141 Q1830.3125,146.3656 1830.3125,147.1859 L1830.3125,149.1391 Q1830.3125,149.9594 1829.9609,150.3109 Q1829.6094,150.6625 1829.0625,150.6625 Q1828.5742,150.6625 1828.2617,150.4477 Q1827.9492,150.2328 1827.8125,149.6664 Q1827.7539,149.2758 1827.5391,149.0609 Q1827.1484,148.6508 1826.4453,148.4164 Q1825.7422,148.1625 1825.0391,148.1625 Q1824.1602,148.1625 1823.418,148.5141 Q1822.6953,148.8656 1822.1289,149.6469 Q1821.5625,150.4281 1821.5625,151.5023 L1821.5625,152.6547 Q1821.5625,153.9438 1822.6172,154.8031 Q1823.6719,155.6625 1825.5469,155.6625 Q1826.6602,155.6625 1827.4414,155.4086 Q1827.8906,155.2719 1828.3984,154.8227 Q1828.7305,154.5688 1828.9063,154.4906 Q1829.082,154.4125 1829.2969,154.4125 Q1829.707,154.4125 1830,154.7445 Q1830.3125,155.057 1830.3125,155.5063 Q1830.3125,155.9359 1829.8828,156.4438 Q1829.2578,157.1859 1828.2617,157.5961 Q1826.9531,158.1625 1825.3516,158.1625 Q1823.4766,158.1625 1821.9727,157.4203 Q1820.7617,156.8344 1819.9023,155.5648 Q1819.0625,154.2953 1819.0625,152.7914 L1819.0625,151.4242 Q1819.0625,149.8617 1819.8047,148.4945 Q1820.5664,147.1273 1821.875,146.4047 Q1823.2031,145.6625 1824.6875,145.6625 Q1825.5859,145.6625 1826.3672,145.975 Q1827.1484,146.2875 1827.8125,146.9125 Z " fill="#000000"/><text fill="#000000" font-family="sans-serif" font-size="15" lengthAdjust="spacing" textLength="30" x="1849.6875" y="157.4252">Test</text><line style="stroke:#A80036;stroke-width:1.875;" x1="1776.875" x2="1913.125" y1="171.2875" y2="171.2875"/><line style="stroke:#A80036;stroke-width:1.875;" x1="1776.875" x2="1913.125" y1="181.2875" y2="181.2875"/><ellipse cx="1789.375" cy="195.0375" fill="#84BE84" rx="3.75" ry="3.75" style="stroke:#038048;stroke-width:1.25;"/><text fill="#000000" font-family="sans-serif" font-size="13.75" lengthAdjust="spacing" textLength="106.25" x="1800.625" y="200.5612">String testString()</text><!--MD5=[967b535c783bbbe52cd34a1de832eb9f]
link CreateSampleTestUI to CreateSampleTestController--><path codeLine="55" d="M193.8875,170.0375 C206.2125,170.0375 218.55,170.0375 230.8875,170.0375 " fill="none" id="CreateSampleTestUI-to-CreateSampleTestController" style="stroke:#A80036;stroke-width:1.25;"/><polygon fill="#A80036" points="237.3375,170.0375,226.0875,165.0375,231.0875,170.0375,226.0875,175.0375,237.3375,170.0375" style="stroke:#A80036;stroke-width:1.25;"/><!--MD5=[1888cc44e0bbf0de7350d20cb9a15e30]
link CreateSampleTestController to Company--><path codeLine="56" d="M475.3625,170.0375 C487.85,170.0375 500.35,170.0375 512.8375,170.0375 " fill="none" id="CreateSampleTestController-to-Company" style="stroke:#A80036;stroke-width:1.25;"/><polygon fill="#A80036" points="519.375,170.0375,508.125,165.0375,513.125,170.0375,508.125,175.0375,519.375,170.0375" style="stroke:#A80036;stroke-width:1.25;"/><!--MD5=[08c0c6a4311687e0a571503148e86d37]
link Company to Sample--><path codeLine="57" d="M589.325,139.5875 C606.0125,112.85 634.3375,75.7375 670.625,59.4125 C736.4875,29.7875 764.925,35.6375 833.125,59.4125 C858.8125,68.3625 883.3125,84.25 904.4,101.225 " fill="none" id="Company-to-Sample" style="stroke:#A80036;stroke-width:1.25;"/><polygon fill="#A80036" points="909.6875,105.5625,904.1732,94.5554,904.8598,101.5931,897.8222,102.2797,909.6875,105.5625" style="stroke:#A80036;stroke-width:1.25;"/><!--MD5=[7e4bc624457760b649895ff2ead938fa]
link Company to Test--><path codeLine="58" d="M589.325,139.5875 C606.0125,112.85 634.3375,75.7375 670.625,59.4125 C778.1625,11.05 1622.6875,14.9 1731.875,59.4125 C1765.025,72.925 1793.7375,101.35 1813.9375,126 " fill="none" id="Company-to-Test" style="stroke:#A80036;stroke-width:1.25;"/><polygon fill="#A80036" points="1817.8625,130.875,1814.6966,118.978,1813.9408,126.0085,1806.9102,125.2527,1817.8625,130.875" style="stroke:#A80036;stroke-width:1.25;"/><!--MD5=[7f6cf7f175eae0af66201860de5de971]
link Company to TestStore--><path codeLine="59" d="M625.9125,170.0375 C638.425,170.0375 650.925,170.0375 663.4375,170.0375 " fill="none" id="Company-to-TestStore" style="stroke:#A80036;stroke-width:1.25;"/><polygon fill="#A80036" points="669.975,170.0375,658.725,165.0375,663.725,170.0375,658.725,175.0375,669.975,170.0375" style="stroke:#A80036;stroke-width:1.25;"/><!--MD5=[a72b52b843e46c08bd7e0ea6cffb35b1]
link Company to BarcodeAPI--><path codeLine="60" d="M589.325,139.5875 C606.0125,112.85 634.3375,75.7375 670.625,59.4125 C753.3375,22.2125 1400.9875,30.2875 1486.875,59.4125 C1521.925,71.3 1555.1375,95.4875 1580.8625,118.225 " fill="none" id="Company-to-BarcodeAPI" style="stroke:#A80036;stroke-width:1.25;"/><polygon fill="#A80036" points="1585.575,122.45,1580.5124,111.228,1580.9126,118.2878,1573.8528,118.6879,1585.575,122.45" style="stroke:#A80036;stroke-width:1.25;"/><!--MD5=[87cc690bcfb2ee69b8391a74bc94bcb6]
link CreateSampleTestController to BarcodeAPI--><path codeLine="61" d="M444,96.75 C467.1375,81.4375 493.0375,67.5 519.375,59.4125 C622.1375,27.85 1385.0625,24.8875 1486.875,59.4125 C1521.925,71.3 1555.1375,95.4875 1580.8625,118.225 " fill="none" id="CreateSampleTestController-to-BarcodeAPI" style="stroke:#A80036;stroke-width:1.25;"/><polygon fill="#A80036" points="1585.575,122.45,1580.5124,111.228,1580.9126,118.2878,1573.8528,118.6879,1585.575,122.45" style="stroke:#A80036;stroke-width:1.25;"/><!--MD5=[4e2056f785c5fcfb9fe954e76cc54911]
link Sample to DemoFile--><path codeLine="62" d="M1035.9625,105.55 C1058.4,86.975 1085.0875,69.1125 1113.125,59.4125 C1179.275,36.5125 1204.9625,35.1625 1270.625,59.4125 C1306.75,72.75 1339.625,101.175 1363.1875,125.875 " fill="none" id="Sample-to-DemoFile" style="stroke:#A80036;stroke-width:1.25;"/><polygon fill="#A80036" points="1367.775,130.75,1363.7056,119.1309,1363.4915,126.1988,1356.4236,125.9846,1367.775,130.75" style="stroke:#A80036;stroke-width:1.25;"/><!--MD5=[fd1d99a76f5d807ca668c79607b1f3b3]
link Sample to SaveDate--><path codeLine="63" d="M1068.2,170.0375 C1080.75,170.0375 1093.3125,170.0375 1105.8625,170.0375 " fill="none" id="Sample-to-SaveDate" style="stroke:#A80036;stroke-width:1.25;"/><polygon fill="#A80036" points="1112.425,170.0375,1101.175,165.0375,1106.175,170.0375,1101.175,175.0375,1112.425,170.0375" style="stroke:#A80036;stroke-width:1.25;"/><!--MD5=[1ae83efc6d1967ce5bc17dfe294d00c2]
link Sample to Test--><path codeLine="64" d="M1035.9625,105.55 C1058.4,86.975 1085.0875,69.1125 1113.125,59.4125 C1243.0625,14.425 1604.55,7.5 1731.875,59.4125 C1765.025,72.925 1793.7375,101.35 1813.9375,126 " fill="none" id="Sample-to-Test" style="stroke:#A80036;stroke-width:1.25;"/><polygon fill="#A80036" points="1817.8625,130.875,1814.6966,118.978,1813.9408,126.0085,1806.9102,125.2527,1817.8625,130.875" style="stroke:#A80036;stroke-width:1.25;"/><!--MD5=[9e18cdcaa9fc98b54e28689ca42ef92a]
link Sample to BarcodeAPI--><path codeLine="65" d="M1035.9625,105.55 C1058.4,86.975 1085.0875,69.1125 1113.125,59.4125 C1191.6125,32.2375 1408.2125,32.7375 1486.875,59.4125 C1521.925,71.3 1555.1375,95.4875 1580.8625,118.225 " fill="none" id="Sample-to-BarcodeAPI" style="stroke:#A80036;stroke-width:1.25;"/><polygon fill="#A80036" points="1585.575,122.45,1580.5124,111.228,1580.9126,118.2878,1573.8528,118.6879,1585.575,122.45" style="stroke:#A80036;stroke-width:1.25;"/><!--MD5=[b0f4f6db8206580012ef9cd998ed01c5]
link TestStore to Test--><path codeLine="66" d="M782.3,130.775 C805.3,105.0625 839.0875,73.675 876.875,59.4125 C965.75,25.8625 1643.9,23.55 1731.875,59.4125 C1765.025,72.925 1793.7375,101.35 1813.9375,126 " fill="none" id="TestStore-to-Test" style="stroke:#A80036;stroke-width:1.25;"/><polygon fill="#A80036" points="1817.8625,130.875,1814.6966,118.978,1813.9408,126.0085,1806.9102,125.2527,1817.8625,130.875" style="stroke:#A80036;stroke-width:1.25;"/><!--MD5=[dedfcd355c398c174489b8aca562d93a]
@startuml



class CreateSampleTestUI
{
}

class CreateSampleTestController
{
+ getCreatedTestList()
+ createBarcode(String code)
+ printBarcode(String code)
+ getTestById(String id)
+ addSample(String id)
}

class Company
{

}

class Sample
{
- Barcode barcode
- String date

+ Sample(Barcode barcode)
+ String toString()
}

class BarcodeAPI
{
+ createBarcode(String code)
+ printBarcode(String code)
}

class TestStore
{
+ String getNewTests()
}

class DemoFile{
+ String codeGenarator()
}

class SaveDate{
+ String dataCreation()
}

class Test{
+ String testString()
}


CreateSampleTestUI -> CreateSampleTestController
CreateSampleTestController -> Company
Company -> Sample
Company -> Test
Company -> TestStore
Company -> BarcodeAPI
CreateSampleTestController -> BarcodeAPI
Sample -> DemoFile
Sample -> SaveDate
Sample -> Test
Sample -> BarcodeAPI
TestStore -> Test

@enduml

PlantUML version 1.2021.7(Sun May 23 13:40:07 BST 2021)
(GPL source distribution)
Java Runtime: OpenJDK Runtime Environment
JVM: Dynamic Code Evolution 64-Bit Server VM
Default Encoding: Cp1252
Language: pt
Country: PT
--></g></svg>