<?xml version="1.0" encoding="UTF-8" standalone="no"?><svg xmlns="http://www.w3.org/2000/svg" xmlns:xlink="http://www.w3.org/1999/xlink" contentScriptType="application/ecmascript" contentStyleType="text/css" height="438px" preserveAspectRatio="none" style="width:442px;height:438px;" version="1.1" viewBox="0 0 442 438" width="442px" zoomAndPan="magnify"><defs><filter height="300%" id="ff6jco8enp6m6" width="300%" x="-1" y="-1"><feGaussianBlur result="blurOut" stdDeviation="2.0"/><feColorMatrix in="blurOut" result="blurOut2" type="matrix" values="0 0 0 0 0 0 0 0 0 0 0 0 0 0 0 0 0 0 .4 0"/><feOffset dx="4.0" dy="4.0" in="blurOut2" result="blurOut3"/><feBlend in="SourceGraphic" in2="blurOut3" mode="normal"/></filter></defs><g><rect fill="#FFFFFF" filter="url(#ff6jco8enp6m6)" height="30.3516" style="stroke:#A80036;stroke-width:1.0;" width="10" x="393" y="121.9609"/><rect fill="#FFFFFF" filter="url(#ff6jco8enp6m6)" height="30.3516" style="stroke:#A80036;stroke-width:1.0;" width="10" x="393" y="182.6641"/><rect fill="#FFFFFF" filter="url(#ff6jco8enp6m6)" height="30.3516" style="stroke:#A80036;stroke-width:1.0;" width="10" x="393" y="243.3672"/><rect fill="#FFFFFF" filter="url(#ff6jco8enp6m6)" height="30.3516" style="stroke:#A80036;stroke-width:1.0;" width="10" x="393" y="304.0703"/><line style="stroke:#A80036;stroke-width:1.0;stroke-dasharray:5.0,5.0;" x1="59" x2="59" y1="89.6094" y2="352.4219"/><line style="stroke:#A80036;stroke-width:1.0;stroke-dasharray:5.0,5.0;" x1="398" x2="398" y1="89.6094" y2="352.4219"/><text fill="#000000" font-family="sans-serif" font-size="14" lengthAdjust="spacing" textLength="102" x="5" y="86.5332">SpecialistDoctor</text><ellipse cx="59" cy="15" fill="#FEFECE" filter="url(#ff6jco8enp6m6)" rx="8" ry="8" style="stroke:#A80036;stroke-width:2.0;"/><path d="M59,23 L59,50 M46,31 L72,31 M59,50 L46,65 M59,50 L72,65 " fill="none" filter="url(#ff6jco8enp6m6)" style="stroke:#A80036;stroke-width:2.0;"/><text fill="#000000" font-family="sans-serif" font-size="14" lengthAdjust="spacing" textLength="102" x="5" y="365.9551">SpecialistDoctor</text><ellipse cx="59" cy="379.0313" fill="#FEFECE" filter="url(#ff6jco8enp6m6)" rx="8" ry="8" style="stroke:#A80036;stroke-width:2.0;"/><path d="M59,387.0313 L59,414.0313 M46,395.0313 L72,395.0313 M59,414.0313 L46,429.0313 M59,414.0313 L72,429.0313 " fill="none" filter="url(#ff6jco8enp6m6)" style="stroke:#A80036;stroke-width:2.0;"/><rect fill="#FEFECE" filter="url(#ff6jco8enp6m6)" height="31.6094" style="stroke:#A80036;stroke-width:1.5;" width="64" x="364" y="53"/><text fill="#000000" font-family="sans-serif" font-size="14" lengthAdjust="spacing" textLength="50" x="371" y="74.5332">:System</text><rect fill="#FEFECE" filter="url(#ff6jco8enp6m6)" height="31.6094" style="stroke:#A80036;stroke-width:1.5;" width="64" x="364" y="351.4219"/><text fill="#000000" font-family="sans-serif" font-size="14" lengthAdjust="spacing" textLength="50" x="371" y="372.9551">:System</text><rect fill="#FFFFFF" filter="url(#ff6jco8enp6m6)" height="30.3516" style="stroke:#A80036;stroke-width:1.0;" width="10" x="393" y="121.9609"/><rect fill="#FFFFFF" filter="url(#ff6jco8enp6m6)" height="30.3516" style="stroke:#A80036;stroke-width:1.0;" width="10" x="393" y="182.6641"/><rect fill="#FFFFFF" filter="url(#ff6jco8enp6m6)" height="30.3516" style="stroke:#A80036;stroke-width:1.0;" width="10" x="393" y="243.3672"/><rect fill="#FFFFFF" filter="url(#ff6jco8enp6m6)" height="30.3516" style="stroke:#A80036;stroke-width:1.0;" width="10" x="393" y="304.0703"/><polygon fill="#A80036" points="381,117.9609,391,121.9609,381,125.9609,385,121.9609" style="stroke:#A80036;stroke-width:1.0;"/><line style="stroke:#A80036;stroke-width:1.0;" x1="59" x2="387" y1="121.9609" y2="121.9609"/><text fill="#000000" font-family="sans-serif" font-size="13" font-weight="bold" lengthAdjust="spacing" textLength="7" x="66" y="117.1045">1</text><text fill="#000000" font-family="sans-serif" font-size="13" lengthAdjust="spacing" textLength="255" x="77" y="117.1045">asks to show all tests able to get diagnosed</text><polygon fill="#A80036" points="70,148.3125,60,152.3125,70,156.3125,66,152.3125" style="stroke:#A80036;stroke-width:1.0;"/><line style="stroke:#A80036;stroke-width:1.0;stroke-dasharray:2.0,2.0;" x1="64" x2="397" y1="152.3125" y2="152.3125"/><text fill="#000000" font-family="sans-serif" font-size="13" font-weight="bold" lengthAdjust="spacing" textLength="7" x="76" y="147.4561">2</text><text fill="#000000" font-family="sans-serif" font-size="13" lengthAdjust="spacing" textLength="258" x="87" y="147.4561">presents all the tests ready to get diagnosed</text><polygon fill="#A80036" points="381,178.6641,391,182.6641,381,186.6641,385,182.6641" style="stroke:#A80036;stroke-width:1.0;"/><line style="stroke:#A80036;stroke-width:1.0;" x1="59" x2="387" y1="182.6641" y2="182.6641"/><text fill="#000000" font-family="sans-serif" font-size="13" font-weight="bold" lengthAdjust="spacing" textLength="7" x="66" y="177.8076">3</text><text fill="#000000" font-family="sans-serif" font-size="13" lengthAdjust="spacing" textLength="207" x="77" y="177.8076">selects one of the tests to diagnose</text><polygon fill="#A80036" points="70,209.0156,60,213.0156,70,217.0156,66,213.0156" style="stroke:#A80036;stroke-width:1.0;"/><line style="stroke:#A80036;stroke-width:1.0;stroke-dasharray:2.0,2.0;" x1="64" x2="397" y1="213.0156" y2="213.0156"/><text fill="#000000" font-family="sans-serif" font-size="13" font-weight="bold" lengthAdjust="spacing" textLength="7" x="76" y="208.1592">4</text><text fill="#000000" font-family="sans-serif" font-size="13" lengthAdjust="spacing" textLength="240" x="87" y="208.1592">presents all the information about the test</text><polygon fill="#A80036" points="381,239.3672,391,243.3672,381,247.3672,385,243.3672" style="stroke:#A80036;stroke-width:1.0;"/><line style="stroke:#A80036;stroke-width:1.0;" x1="59" x2="387" y1="243.3672" y2="243.3672"/><text fill="#000000" font-family="sans-serif" font-size="13" font-weight="bold" lengthAdjust="spacing" textLength="7" x="66" y="238.5107">5</text><text fill="#000000" font-family="sans-serif" font-size="13" lengthAdjust="spacing" textLength="152" x="77" y="238.5107">writes a report for that test</text><polygon fill="#A80036" points="70,269.7188,60,273.7188,70,277.7188,66,273.7188" style="stroke:#A80036;stroke-width:1.0;"/><line style="stroke:#A80036;stroke-width:1.0;stroke-dasharray:2.0,2.0;" x1="64" x2="397" y1="273.7188" y2="273.7188"/><text fill="#000000" font-family="sans-serif" font-size="13" font-weight="bold" lengthAdjust="spacing" textLength="7" x="76" y="268.8623">6</text><text fill="#000000" font-family="sans-serif" font-size="13" lengthAdjust="spacing" textLength="287" x="87" y="268.8623">confirms the information and asks for confirmation</text><polygon fill="#A80036" points="381,300.0703,391,304.0703,381,308.0703,385,304.0703" style="stroke:#A80036;stroke-width:1.0;"/><line style="stroke:#A80036;stroke-width:1.0;" x1="59" x2="387" y1="304.0703" y2="304.0703"/><text fill="#000000" font-family="sans-serif" font-size="13" font-weight="bold" lengthAdjust="spacing" textLength="7" x="66" y="299.2139">7</text><text fill="#000000" font-family="sans-serif" font-size="13" lengthAdjust="spacing" textLength="138" x="77" y="299.2139">confirms the information</text><polygon fill="#A80036" points="70,330.4219,60,334.4219,70,338.4219,66,334.4219" style="stroke:#A80036;stroke-width:1.0;"/><line style="stroke:#A80036;stroke-width:1.0;stroke-dasharray:2.0,2.0;" x1="64" x2="397" y1="334.4219" y2="334.4219"/><text fill="#000000" font-family="sans-serif" font-size="13" font-weight="bold" lengthAdjust="spacing" textLength="7" x="76" y="329.5654">8</text><text fill="#000000" font-family="sans-serif" font-size="13" lengthAdjust="spacing" textLength="299" x="87" y="329.5654">saves the report and sends a successful notification</text><!--MD5=[570ebfbf2919db8744cfc1bfd2bfad5e]
@startuml

autonumber
actor "SpecialistDoctor" as doc

participant ":System" as sys

doc -> sys : asks to show all tests able to get diagnosed

activate sys

sys - -> doc : presents all the tests ready to get diagnosed

deactivate sys

doc -> sys : selects one of the tests to diagnose

activate sys

sys - -> doc : presents all the information about the test

deactivate sys

doc -> sys : writes a report for that test

activate sys

sys - -> doc : confirms the information and asks for confirmation

deactivate sys

doc -> sys : confirms the information

activate sys

sys - -> doc : saves the report and sends a successful notification

deactivate sys

@enduml

PlantUML version 1.2021.5(Sun Apr 25 12:20:28 BST 2021)
(GPL source distribution)
Java Runtime: OpenJDK Runtime Environment
JVM: Dynamic Code Evolution 64-Bit Server VM
Default Encoding: Cp1252
Language: pt
Country: PT
--></g></svg>