<?xml version="1.0" encoding="UTF-8" standalone="no"?><svg xmlns="http://www.w3.org/2000/svg" xmlns:xlink="http://www.w3.org/1999/xlink" contentScriptType="application/ecmascript" contentStyleType="text/css" height="1266px" preserveAspectRatio="none" style="width:1843px;height:1266px;" version="1.1" viewBox="0 0 1843 1266" width="1843px" zoomAndPan="magnify"><defs><filter height="300%" id="fjosxd4x2ng67" width="300%" x="-1" y="-1"><feGaussianBlur result="blurOut" stdDeviation="2.0"/><feColorMatrix in="blurOut" result="blurOut2" type="matrix" values="0 0 0 0 0 0 0 0 0 0 0 0 0 0 0 0 0 0 .4 0"/><feOffset dx="4.0" dy="4.0" in="blurOut2" result="blurOut3"/><feBlend in="SourceGraphic" in2="blurOut3" mode="normal"/></filter></defs><g><rect fill="#FFFFFF" filter="url(#fjosxd4x2ng67)" height="1063.0469" style="stroke:#A80036;stroke-width:1.0;" width="10" x="54" y="99.6094"/><rect fill="#FFFFFF" filter="url(#fjosxd4x2ng67)" height="241.7578" style="stroke:#A80036;stroke-width:1.0;" width="10" x="410" y="121.9609"/><rect fill="#FFFFFF" filter="url(#fjosxd4x2ng67)" height="211.7578" style="stroke:#A80036;stroke-width:1.0;" width="10" x="410" y="394.0703"/><rect fill="#FFFFFF" filter="url(#fjosxd4x2ng67)" height="258.3672" style="stroke:#A80036;stroke-width:1.0;" width="10" x="410" y="636.1797"/><rect fill="#FFFFFF" filter="url(#fjosxd4x2ng67)" height="237.7578" style="stroke:#A80036;stroke-width:1.0;" width="10" x="410" y="924.8984"/><rect fill="#FFFFFF" filter="url(#fjosxd4x2ng67)" height="181.0547" style="stroke:#A80036;stroke-width:1.0;" width="10" x="627" y="152.3125"/><rect fill="#FFFFFF" filter="url(#fjosxd4x2ng67)" height="60.3516" style="stroke:#A80036;stroke-width:1.0;" width="10" x="627" y="424.4219"/><rect fill="#FFFFFF" filter="url(#fjosxd4x2ng67)" height="60.3516" style="stroke:#A80036;stroke-width:1.0;" width="10" x="627" y="515.125"/><rect fill="#FFFFFF" filter="url(#fjosxd4x2ng67)" height="197.6641" style="stroke:#A80036;stroke-width:1.0;" width="10" x="627" y="666.5313"/><rect fill="#FFFFFF" filter="url(#fjosxd4x2ng67)" height="30.3516" style="stroke:#A80036;stroke-width:1.0;" width="10" x="627" y="955.25"/><rect fill="#FFFFFF" filter="url(#fjosxd4x2ng67)" height="30" style="stroke:#A80036;stroke-width:1.0;" width="10" x="803" y="182.6641"/><rect fill="#FFFFFF" filter="url(#fjosxd4x2ng67)" height="30" style="stroke:#A80036;stroke-width:1.0;" width="10" x="803" y="696.8828"/><rect fill="#FFFFFF" filter="url(#fjosxd4x2ng67)" height="30" style="stroke:#A80036;stroke-width:1.0;" width="10" x="926.5" y="243.0156"/><rect fill="#FFFFFF" filter="url(#fjosxd4x2ng67)" height="30" style="stroke:#A80036;stroke-width:1.0;" width="10" x="926.5" y="454.7734"/><rect fill="#FFFFFF" filter="url(#fjosxd4x2ng67)" height="30" style="stroke:#A80036;stroke-width:1.0;" width="10" x="926.5" y="545.4766"/><rect fill="#FFFFFF" filter="url(#fjosxd4x2ng67)" height="30.3516" style="stroke:#A80036;stroke-width:1.0;" width="10" x="926.5" y="757.2344"/><rect fill="#FFFFFF" filter="url(#fjosxd4x2ng67)" height="30" style="stroke:#A80036;stroke-width:1.0;" width="10" x="926.5" y="834.1953"/><rect fill="#FFFFFF" filter="url(#fjosxd4x2ng67)" height="139.7031" style="stroke:#A80036;stroke-width:1.0;" width="10" x="926.5" y="985.6016"/><rect fill="#FFFFFF" filter="url(#fjosxd4x2ng67)" height="28" style="stroke:#A80036;stroke-width:1.0;" width="10" x="931.5" y="1023.9531"/><rect fill="#FFFFFF" filter="url(#fjosxd4x2ng67)" height="28" style="stroke:#A80036;stroke-width:1.0;" width="10" x="931.5" y="1097.3047"/><rect fill="#FFFFFF" filter="url(#fjosxd4x2ng67)" height="30" style="stroke:#A80036;stroke-width:1.0;" width="10" x="1329" y="303.3672"/><line style="stroke:#A80036;stroke-width:1.0;stroke-dasharray:5.0,5.0;" x1="59" x2="59" y1="89.6094" y2="1180.6563"/><line style="stroke:#A80036;stroke-width:1.0;stroke-dasharray:5.0,5.0;" x1="415" x2="415" y1="89.6094" y2="1180.6563"/><line style="stroke:#A80036;stroke-width:1.0;stroke-dasharray:5.0,5.0;" x1="632" x2="632" y1="89.6094" y2="1180.6563"/><line style="stroke:#A80036;stroke-width:1.0;stroke-dasharray:5.0,5.0;" x1="808" x2="808" y1="89.6094" y2="1180.6563"/><line style="stroke:#A80036;stroke-width:1.0;stroke-dasharray:5.0,5.0;" x1="931" x2="931" y1="89.6094" y2="1180.6563"/><line style="stroke:#A80036;stroke-width:1.0;stroke-dasharray:5.0,5.0;" x1="1161.5" x2="1161.5" y1="798.5391" y2="1180.6563"/><line style="stroke:#A80036;stroke-width:1.0;stroke-dasharray:5.0,5.0;" x1="1333.5" x2="1333.5" y1="89.6094" y2="1180.6563"/><line style="stroke:#A80036;stroke-width:1.0;stroke-dasharray:5.0,5.0;" x1="1462.5" x2="1462.5" y1="89.6094" y2="1180.6563"/><line style="stroke:#A80036;stroke-width:1.0;stroke-dasharray:5.0,5.0;" x1="1573.5" x2="1573.5" y1="89.6094" y2="1180.6563"/><line style="stroke:#A80036;stroke-width:1.0;stroke-dasharray:5.0,5.0;" x1="1742.5" x2="1742.5" y1="89.6094" y2="1180.6563"/><text fill="#000000" font-family="sans-serif" font-size="14" lengthAdjust="spacing" textLength="102" x="5" y="86.5332">SpecialistDoctor</text><ellipse cx="59" cy="15" fill="#FEFECE" filter="url(#fjosxd4x2ng67)" rx="8" ry="8" style="stroke:#A80036;stroke-width:2.0;"/><path d="M59,23 L59,50 M46,31 L72,31 M59,50 L46,65 M59,50 L72,65 " fill="none" filter="url(#fjosxd4x2ng67)" style="stroke:#A80036;stroke-width:2.0;"/><text fill="#000000" font-family="sans-serif" font-size="14" lengthAdjust="spacing" textLength="102" x="5" y="1194.1895">SpecialistDoctor</text><ellipse cx="59" cy="1207.2656" fill="#FEFECE" filter="url(#fjosxd4x2ng67)" rx="8" ry="8" style="stroke:#A80036;stroke-width:2.0;"/><path d="M59,1215.2656 L59,1242.2656 M46,1223.2656 L72,1223.2656 M59,1242.2656 L46,1257.2656 M59,1242.2656 L72,1257.2656 " fill="none" filter="url(#fjosxd4x2ng67)" style="stroke:#A80036;stroke-width:2.0;"/><rect fill="#FEFECE" filter="url(#fjosxd4x2ng67)" height="31.6094" style="stroke:#A80036;stroke-width:1.5;" width="178" x="324" y="53"/><text fill="#000000" font-family="sans-serif" font-size="14" lengthAdjust="spacing" textLength="164" x="331" y="74.5332">:CreateDiagnosisReportUI</text><rect fill="#FEFECE" filter="url(#fjosxd4x2ng67)" height="31.6094" style="stroke:#A80036;stroke-width:1.5;" width="178" x="324" y="1179.6563"/><text fill="#000000" font-family="sans-serif" font-size="14" lengthAdjust="spacing" textLength="164" x="331" y="1201.1895">:CreateDiagnosisReportUI</text><rect fill="#FEFECE" filter="url(#fjosxd4x2ng67)" height="31.6094" style="stroke:#A80036;stroke-width:1.5;" width="228" x="516" y="53"/><text fill="#000000" font-family="sans-serif" font-size="14" lengthAdjust="spacing" textLength="214" x="523" y="74.5332">:CreateDiagnosisReportController</text><rect fill="#FEFECE" filter="url(#fjosxd4x2ng67)" height="31.6094" style="stroke:#A80036;stroke-width:1.5;" width="228" x="516" y="1179.6563"/><text fill="#000000" font-family="sans-serif" font-size="14" lengthAdjust="spacing" textLength="214" x="523" y="1201.1895">:CreateDiagnosisReportController</text><rect fill="#FEFECE" filter="url(#fjosxd4x2ng67)" height="31.6094" style="stroke:#A80036;stroke-width:1.5;" width="78" x="767" y="53"/><text fill="#000000" font-family="sans-serif" font-size="14" lengthAdjust="spacing" textLength="64" x="774" y="74.5332">:Company</text><rect fill="#FEFECE" filter="url(#fjosxd4x2ng67)" height="31.6094" style="stroke:#A80036;stroke-width:1.5;" width="78" x="767" y="1179.6563"/><text fill="#000000" font-family="sans-serif" font-size="14" lengthAdjust="spacing" textLength="64" x="774" y="1201.1895">:Company</text><rect fill="#FEFECE" filter="url(#fjosxd4x2ng67)" height="31.6094" style="stroke:#A80036;stroke-width:1.5;" width="141" x="859" y="53"/><text fill="#000000" font-family="sans-serif" font-size="14" lengthAdjust="spacing" textLength="127" x="866" y="74.5332">testStore: TestStore</text><rect fill="#FEFECE" filter="url(#fjosxd4x2ng67)" height="31.6094" style="stroke:#A80036;stroke-width:1.5;" width="141" x="859" y="1179.6563"/><text fill="#000000" font-family="sans-serif" font-size="14" lengthAdjust="spacing" textLength="127" x="866" y="1201.1895">testStore: TestStore</text><rect fill="#FEFECE" filter="url(#fjosxd4x2ng67)" height="31.6094" style="stroke:#A80036;stroke-width:1.5;" width="148" x="1085.5" y="1179.6563"/><text fill="#000000" font-family="sans-serif" font-size="14" lengthAdjust="spacing" textLength="134" x="1092.5" y="1201.1895">rep: DiagnosisReport</text><rect fill="#FEFECE" filter="url(#fjosxd4x2ng67)" height="31.6094" style="stroke:#A80036;stroke-width:1.5;" width="169" x="1247.5" y="53"/><text fill="#000000" font-family="sans-serif" font-size="14" lengthAdjust="spacing" textLength="155" x="1254.5" y="74.5332">testMapper: TestMapper</text><rect fill="#FEFECE" filter="url(#fjosxd4x2ng67)" height="31.6094" style="stroke:#A80036;stroke-width:1.5;" width="169" x="1247.5" y="1179.6563"/><text fill="#000000" font-family="sans-serif" font-size="14" lengthAdjust="spacing" textLength="155" x="1254.5" y="1201.1895">testMapper: TestMapper</text><rect fill="#FEFECE" filter="url(#fjosxd4x2ng67)" height="31.6094" style="stroke:#A80036;stroke-width:1.5;" width="61" x="1430.5" y="53"/><text fill="#000000" font-family="sans-serif" font-size="14" lengthAdjust="spacing" textLength="47" x="1437.5" y="74.5332">t: Tests</text><rect fill="#FEFECE" filter="url(#fjosxd4x2ng67)" height="31.6094" style="stroke:#A80036;stroke-width:1.5;" width="61" x="1430.5" y="1179.6563"/><text fill="#000000" font-family="sans-serif" font-size="14" lengthAdjust="spacing" textLength="47" x="1437.5" y="1201.1895">t: Tests</text><rect fill="#FEFECE" filter="url(#fjosxd4x2ng67)" height="31.6094" style="stroke:#A80036;stroke-width:1.5;" width="133" x="1505.5" y="53"/><text fill="#000000" font-family="sans-serif" font-size="14" lengthAdjust="spacing" textLength="119" x="1512.5" y="74.5332">lTests: List&lt;Tests&gt;</text><rect fill="#FEFECE" filter="url(#fjosxd4x2ng67)" height="31.6094" style="stroke:#A80036;stroke-width:1.5;" width="133" x="1505.5" y="1179.6563"/><text fill="#000000" font-family="sans-serif" font-size="14" lengthAdjust="spacing" textLength="119" x="1512.5" y="1201.1895">lTests: List&lt;Tests&gt;</text><rect fill="#FEFECE" filter="url(#fjosxd4x2ng67)" height="31.6094" style="stroke:#A80036;stroke-width:1.5;" width="177" x="1652.5" y="53"/><text fill="#000000" font-family="sans-serif" font-size="14" lengthAdjust="spacing" textLength="163" x="1659.5" y="74.5332">lTestsDto: List&lt;TestsDto&gt;</text><rect fill="#FEFECE" filter="url(#fjosxd4x2ng67)" height="31.6094" style="stroke:#A80036;stroke-width:1.5;" width="177" x="1652.5" y="1179.6563"/><text fill="#000000" font-family="sans-serif" font-size="14" lengthAdjust="spacing" textLength="163" x="1659.5" y="1201.1895">lTestsDto: List&lt;TestsDto&gt;</text><rect fill="#FFFFFF" filter="url(#fjosxd4x2ng67)" height="1063.0469" style="stroke:#A80036;stroke-width:1.0;" width="10" x="54" y="99.6094"/><rect fill="#FFFFFF" filter="url(#fjosxd4x2ng67)" height="241.7578" style="stroke:#A80036;stroke-width:1.0;" width="10" x="410" y="121.9609"/><rect fill="#FFFFFF" filter="url(#fjosxd4x2ng67)" height="211.7578" style="stroke:#A80036;stroke-width:1.0;" width="10" x="410" y="394.0703"/><rect fill="#FFFFFF" filter="url(#fjosxd4x2ng67)" height="258.3672" style="stroke:#A80036;stroke-width:1.0;" width="10" x="410" y="636.1797"/><rect fill="#FFFFFF" filter="url(#fjosxd4x2ng67)" height="237.7578" style="stroke:#A80036;stroke-width:1.0;" width="10" x="410" y="924.8984"/><rect fill="#FFFFFF" filter="url(#fjosxd4x2ng67)" height="181.0547" style="stroke:#A80036;stroke-width:1.0;" width="10" x="627" y="152.3125"/><rect fill="#FFFFFF" filter="url(#fjosxd4x2ng67)" height="60.3516" style="stroke:#A80036;stroke-width:1.0;" width="10" x="627" y="424.4219"/><rect fill="#FFFFFF" filter="url(#fjosxd4x2ng67)" height="60.3516" style="stroke:#A80036;stroke-width:1.0;" width="10" x="627" y="515.125"/><rect fill="#FFFFFF" filter="url(#fjosxd4x2ng67)" height="197.6641" style="stroke:#A80036;stroke-width:1.0;" width="10" x="627" y="666.5313"/><rect fill="#FFFFFF" filter="url(#fjosxd4x2ng67)" height="30.3516" style="stroke:#A80036;stroke-width:1.0;" width="10" x="627" y="955.25"/><rect fill="#FFFFFF" filter="url(#fjosxd4x2ng67)" height="30" style="stroke:#A80036;stroke-width:1.0;" width="10" x="803" y="182.6641"/><rect fill="#FFFFFF" filter="url(#fjosxd4x2ng67)" height="30" style="stroke:#A80036;stroke-width:1.0;" width="10" x="803" y="696.8828"/><rect fill="#FFFFFF" filter="url(#fjosxd4x2ng67)" height="30" style="stroke:#A80036;stroke-width:1.0;" width="10" x="926.5" y="243.0156"/><rect fill="#FFFFFF" filter="url(#fjosxd4x2ng67)" height="30" style="stroke:#A80036;stroke-width:1.0;" width="10" x="926.5" y="454.7734"/><rect fill="#FFFFFF" filter="url(#fjosxd4x2ng67)" height="30" style="stroke:#A80036;stroke-width:1.0;" width="10" x="926.5" y="545.4766"/><rect fill="#FFFFFF" filter="url(#fjosxd4x2ng67)" height="30.3516" style="stroke:#A80036;stroke-width:1.0;" width="10" x="926.5" y="757.2344"/><rect fill="#FFFFFF" filter="url(#fjosxd4x2ng67)" height="30" style="stroke:#A80036;stroke-width:1.0;" width="10" x="926.5" y="834.1953"/><rect fill="#FFFFFF" filter="url(#fjosxd4x2ng67)" height="139.7031" style="stroke:#A80036;stroke-width:1.0;" width="10" x="926.5" y="985.6016"/><rect fill="#FFFFFF" filter="url(#fjosxd4x2ng67)" height="28" style="stroke:#A80036;stroke-width:1.0;" width="10" x="931.5" y="1023.9531"/><rect fill="#FFFFFF" filter="url(#fjosxd4x2ng67)" height="28" style="stroke:#A80036;stroke-width:1.0;" width="10" x="931.5" y="1097.3047"/><rect fill="#FFFFFF" filter="url(#fjosxd4x2ng67)" height="30" style="stroke:#A80036;stroke-width:1.0;" width="10" x="1329" y="303.3672"/><polygon fill="#A80036" points="398,117.9609,408,121.9609,398,125.9609,402,121.9609" style="stroke:#A80036;stroke-width:1.0;"/><line style="stroke:#A80036;stroke-width:1.0;" x1="64" x2="404" y1="121.9609" y2="121.9609"/><text fill="#000000" font-family="sans-serif" font-size="13" font-weight="bold" lengthAdjust="spacing" textLength="7" x="71" y="117.1045">1</text><text fill="#000000" font-family="sans-serif" font-size="13" lengthAdjust="spacing" textLength="255" x="82" y="117.1045">asks to show all tests able to get diagnosed</text><polygon fill="#A80036" points="615,148.3125,625,152.3125,615,156.3125,619,152.3125" style="stroke:#A80036;stroke-width:1.0;"/><line style="stroke:#A80036;stroke-width:1.0;" x1="420" x2="621" y1="152.3125" y2="152.3125"/><text fill="#000000" font-family="sans-serif" font-size="13" font-weight="bold" lengthAdjust="spacing" textLength="7" x="427" y="147.4561">2</text><text fill="#000000" font-family="sans-serif" font-size="13" lengthAdjust="spacing" textLength="159" x="438" y="147.4561">lTestDto = getReadyTests()</text><polygon fill="#A80036" points="791,178.6641,801,182.6641,791,186.6641,795,182.6641" style="stroke:#A80036;stroke-width:1.0;"/><line style="stroke:#A80036;stroke-width:1.0;" x1="637" x2="797" y1="182.6641" y2="182.6641"/><text fill="#000000" font-family="sans-serif" font-size="13" font-weight="bold" lengthAdjust="spacing" textLength="7" x="644" y="177.8076">3</text><text fill="#000000" font-family="sans-serif" font-size="13" lengthAdjust="spacing" textLength="133" x="655" y="177.8076">tStore = getTestStore()</text><polygon fill="#A80036" points="914.5,239.0156,924.5,243.0156,914.5,247.0156,918.5,243.0156" style="stroke:#A80036;stroke-width:1.0;"/><line style="stroke:#A80036;stroke-width:1.0;" x1="637" x2="920.5" y1="243.0156" y2="243.0156"/><text fill="#000000" font-family="sans-serif" font-size="13" font-weight="bold" lengthAdjust="spacing" textLength="7" x="644" y="238.1592">4</text><text fill="#000000" font-family="sans-serif" font-size="13" lengthAdjust="spacing" textLength="175" x="655" y="238.1592">lTests = getReadyTests(state)</text><polygon fill="#A80036" points="1317,299.3672,1327,303.3672,1317,307.3672,1321,303.3672" style="stroke:#A80036;stroke-width:1.0;"/><line style="stroke:#A80036;stroke-width:1.0;" x1="637" x2="1323" y1="303.3672" y2="303.3672"/><text fill="#000000" font-family="sans-serif" font-size="13" font-weight="bold" lengthAdjust="spacing" textLength="7" x="644" y="298.5107">5</text><text fill="#000000" font-family="sans-serif" font-size="13" lengthAdjust="spacing" textLength="138" x="655" y="298.5107">lTestDto = toDto(lTests)</text><polygon fill="#A80036" points="75,359.7188,65,363.7188,75,367.7188,71,363.7188" style="stroke:#A80036;stroke-width:1.0;"/><line style="stroke:#A80036;stroke-width:1.0;stroke-dasharray:2.0,2.0;" x1="69" x2="414" y1="363.7188" y2="363.7188"/><text fill="#000000" font-family="sans-serif" font-size="13" font-weight="bold" lengthAdjust="spacing" textLength="7" x="81" y="358.8623">6</text><text fill="#000000" font-family="sans-serif" font-size="13" lengthAdjust="spacing" textLength="252" x="92" y="358.8623">shows all the tests ready to receive a report</text><polygon fill="#A80036" points="398,390.0703,408,394.0703,398,398.0703,402,394.0703" style="stroke:#A80036;stroke-width:1.0;"/><line style="stroke:#A80036;stroke-width:1.0;" x1="64" x2="404" y1="394.0703" y2="394.0703"/><text fill="#000000" font-family="sans-serif" font-size="13" font-weight="bold" lengthAdjust="spacing" textLength="7" x="71" y="389.2139">7</text><text fill="#000000" font-family="sans-serif" font-size="13" lengthAdjust="spacing" textLength="207" x="82" y="389.2139">selects one of the tests to diagnose</text><polygon fill="#A80036" points="615,420.4219,625,424.4219,615,428.4219,619,424.4219" style="stroke:#A80036;stroke-width:1.0;"/><line style="stroke:#A80036;stroke-width:1.0;" x1="420" x2="621" y1="424.4219" y2="424.4219"/><text fill="#000000" font-family="sans-serif" font-size="13" font-weight="bold" lengthAdjust="spacing" textLength="7" x="427" y="419.5654">8</text><text fill="#000000" font-family="sans-serif" font-size="13" lengthAdjust="spacing" textLength="71" x="438" y="419.5654">getInfoTest()</text><polygon fill="#A80036" points="914.5,450.7734,924.5,454.7734,914.5,458.7734,918.5,454.7734" style="stroke:#A80036;stroke-width:1.0;"/><line style="stroke:#A80036;stroke-width:1.0;" x1="637" x2="920.5" y1="454.7734" y2="454.7734"/><text fill="#000000" font-family="sans-serif" font-size="13" font-weight="bold" lengthAdjust="spacing" textLength="7" x="644" y="449.917">9</text><text fill="#000000" font-family="sans-serif" font-size="13" lengthAdjust="spacing" textLength="81" x="655" y="449.917">getInfoTest(id)</text><polygon fill="#A80036" points="615,511.125,625,515.125,615,519.125,619,515.125" style="stroke:#A80036;stroke-width:1.0;"/><line style="stroke:#A80036;stroke-width:1.0;" x1="420" x2="621" y1="515.125" y2="515.125"/><text fill="#000000" font-family="sans-serif" font-size="13" font-weight="bold" lengthAdjust="spacing" textLength="14" x="427" y="510.2686">10</text><text fill="#000000" font-family="sans-serif" font-size="13" lengthAdjust="spacing" textLength="93" x="445" y="510.2686">getParameters()</text><polygon fill="#A80036" points="914.5,541.4766,924.5,545.4766,914.5,549.4766,918.5,545.4766" style="stroke:#A80036;stroke-width:1.0;"/><line style="stroke:#A80036;stroke-width:1.0;" x1="637" x2="920.5" y1="545.4766" y2="545.4766"/><text fill="#000000" font-family="sans-serif" font-size="13" font-weight="bold" lengthAdjust="spacing" textLength="14" x="644" y="540.6201">11</text><text fill="#000000" font-family="sans-serif" font-size="13" lengthAdjust="spacing" textLength="93" x="662" y="540.6201">getParameters()</text><polygon fill="#A80036" points="75,601.8281,65,605.8281,75,609.8281,71,605.8281" style="stroke:#A80036;stroke-width:1.0;"/><line style="stroke:#A80036;stroke-width:1.0;stroke-dasharray:2.0,2.0;" x1="69" x2="414" y1="605.8281" y2="605.8281"/><text fill="#000000" font-family="sans-serif" font-size="13" font-weight="bold" lengthAdjust="spacing" textLength="14" x="81" y="600.9717">12</text><text fill="#000000" font-family="sans-serif" font-size="13" lengthAdjust="spacing" textLength="304" x="99" y="600.9717">shows information about the test and the parameters</text><polygon fill="#A80036" points="398,632.1797,408,636.1797,398,640.1797,402,636.1797" style="stroke:#A80036;stroke-width:1.0;"/><line style="stroke:#A80036;stroke-width:1.0;" x1="64" x2="404" y1="636.1797" y2="636.1797"/><text fill="#000000" font-family="sans-serif" font-size="13" font-weight="bold" lengthAdjust="spacing" textLength="14" x="71" y="631.3232">13</text><text fill="#000000" font-family="sans-serif" font-size="13" lengthAdjust="spacing" textLength="218" x="89" y="631.3232">writes the diagnosis report for the test</text><polygon fill="#A80036" points="615,662.5313,625,666.5313,615,670.5313,619,666.5313" style="stroke:#A80036;stroke-width:1.0;"/><line style="stroke:#A80036;stroke-width:1.0;" x1="420" x2="621" y1="666.5313" y2="666.5313"/><text fill="#000000" font-family="sans-serif" font-size="13" font-weight="bold" lengthAdjust="spacing" textLength="14" x="427" y="661.6748">14</text><text fill="#000000" font-family="sans-serif" font-size="13" lengthAdjust="spacing" textLength="82" x="445" y="661.6748">createReport()</text><polygon fill="#A80036" points="791,692.8828,801,696.8828,791,700.8828,795,696.8828" style="stroke:#A80036;stroke-width:1.0;"/><line style="stroke:#A80036;stroke-width:1.0;" x1="637" x2="797" y1="696.8828" y2="696.8828"/><text fill="#000000" font-family="sans-serif" font-size="13" font-weight="bold" lengthAdjust="spacing" textLength="14" x="644" y="692.0264">15</text><text fill="#000000" font-family="sans-serif" font-size="13" lengthAdjust="spacing" textLength="129" x="662" y="692.0264">tStore : getTestStore()</text><polygon fill="#A80036" points="914.5,753.2344,924.5,757.2344,914.5,761.2344,918.5,757.2344" style="stroke:#A80036;stroke-width:1.0;"/><line style="stroke:#A80036;stroke-width:1.0;" x1="637" x2="920.5" y1="757.2344" y2="757.2344"/><text fill="#000000" font-family="sans-serif" font-size="13" font-weight="bold" lengthAdjust="spacing" textLength="14" x="644" y="752.3779">16</text><text fill="#000000" font-family="sans-serif" font-size="13" lengthAdjust="spacing" textLength="149" x="662" y="752.3779">rep = createReport(report)</text><polygon fill="#A80036" points="1073.5,783.5859,1083.5,787.5859,1073.5,791.5859,1077.5,787.5859" style="stroke:#A80036;stroke-width:1.0;"/><line style="stroke:#A80036;stroke-width:1.0;" x1="931.5" x2="1079.5" y1="787.5859" y2="787.5859"/><text fill="#000000" font-family="sans-serif" font-size="13" font-weight="bold" lengthAdjust="spacing" textLength="14" x="938.5" y="782.7295">17</text><text fill="#000000" font-family="sans-serif" font-size="13" lengthAdjust="spacing" textLength="107" x="956.5" y="782.7295">rep : create(report)</text><rect fill="#FEFECE" filter="url(#fjosxd4x2ng67)" height="31.6094" style="stroke:#A80036;stroke-width:1.5;" width="148" x="1085.5" y="765.2344"/><text fill="#000000" font-family="sans-serif" font-size="14" lengthAdjust="spacing" textLength="134" x="1092.5" y="786.7676">rep: DiagnosisReport</text><polygon fill="#A80036" points="914.5,830.1953,924.5,834.1953,914.5,838.1953,918.5,834.1953" style="stroke:#A80036;stroke-width:1.0;"/><line style="stroke:#A80036;stroke-width:1.0;" x1="637" x2="920.5" y1="834.1953" y2="834.1953"/><text fill="#000000" font-family="sans-serif" font-size="13" font-weight="bold" lengthAdjust="spacing" textLength="14" x="644" y="829.3389">18</text><text fill="#000000" font-family="sans-serif" font-size="13" lengthAdjust="spacing" textLength="107" x="662" y="829.3389">validateReport(rep)</text><polygon fill="#A80036" points="75,890.5469,65,894.5469,75,898.5469,71,894.5469" style="stroke:#A80036;stroke-width:1.0;"/><line style="stroke:#A80036;stroke-width:1.0;stroke-dasharray:2.0,2.0;" x1="69" x2="414" y1="894.5469" y2="894.5469"/><text fill="#000000" font-family="sans-serif" font-size="13" font-weight="bold" lengthAdjust="spacing" textLength="14" x="81" y="889.6904">19</text><text fill="#000000" font-family="sans-serif" font-size="13" lengthAdjust="spacing" textLength="275" x="99" y="889.6904">shows the information and asks for confirmation</text><polygon fill="#A80036" points="398,920.8984,408,924.8984,398,928.8984,402,924.8984" style="stroke:#A80036;stroke-width:1.0;"/><line style="stroke:#A80036;stroke-width:1.0;" x1="64" x2="404" y1="924.8984" y2="924.8984"/><text fill="#000000" font-family="sans-serif" font-size="13" font-weight="bold" lengthAdjust="spacing" textLength="14" x="71" y="920.042">20</text><text fill="#000000" font-family="sans-serif" font-size="13" lengthAdjust="spacing" textLength="49" x="89" y="920.042">confirms</text><polygon fill="#A80036" points="615,951.25,625,955.25,615,959.25,619,955.25" style="stroke:#A80036;stroke-width:1.0;"/><line style="stroke:#A80036;stroke-width:1.0;" x1="420" x2="621" y1="955.25" y2="955.25"/><text fill="#000000" font-family="sans-serif" font-size="13" font-weight="bold" lengthAdjust="spacing" textLength="14" x="427" y="950.3936">21</text><text fill="#000000" font-family="sans-serif" font-size="13" lengthAdjust="spacing" textLength="72" x="445" y="950.3936">saveReport()</text><polygon fill="#A80036" points="914.5,981.6016,924.5,985.6016,914.5,989.6016,918.5,985.6016" style="stroke:#A80036;stroke-width:1.0;"/><line style="stroke:#A80036;stroke-width:1.0;" x1="632" x2="920.5" y1="985.6016" y2="985.6016"/><text fill="#000000" font-family="sans-serif" font-size="13" font-weight="bold" lengthAdjust="spacing" textLength="14" x="639" y="980.7451">22</text><text fill="#000000" font-family="sans-serif" font-size="13" lengthAdjust="spacing" textLength="90" x="657" y="980.7451">saveReport(rep)</text><line style="stroke:#A80036;stroke-width:1.0;" x1="941.5" x2="983.5" y1="1015.9531" y2="1015.9531"/><line style="stroke:#A80036;stroke-width:1.0;" x1="983.5" x2="983.5" y1="1015.9531" y2="1028.9531"/><line style="stroke:#A80036;stroke-width:1.0;" x1="942.5" x2="983.5" y1="1028.9531" y2="1028.9531"/><polygon fill="#A80036" points="952.5,1024.9531,942.5,1028.9531,952.5,1032.9531,948.5,1028.9531" style="stroke:#A80036;stroke-width:1.0;"/><text fill="#000000" font-family="sans-serif" font-size="13" font-weight="bold" lengthAdjust="spacing" textLength="14" x="948.5" y="1011.0967">23</text><text fill="#000000" font-family="sans-serif" font-size="13" lengthAdjust="spacing" textLength="107" x="966.5" y="1011.0967">validateReport(rep)</text><line style="stroke:#A80036;stroke-width:1.0;" x1="941.5" x2="983.5" y1="1089.3047" y2="1089.3047"/><line style="stroke:#A80036;stroke-width:1.0;" x1="983.5" x2="983.5" y1="1089.3047" y2="1102.3047"/><line style="stroke:#A80036;stroke-width:1.0;" x1="942.5" x2="983.5" y1="1102.3047" y2="1102.3047"/><polygon fill="#A80036" points="952.5,1098.3047,942.5,1102.3047,952.5,1106.3047,948.5,1102.3047" style="stroke:#A80036;stroke-width:1.0;"/><text fill="#000000" font-family="sans-serif" font-size="13" font-weight="bold" lengthAdjust="spacing" textLength="14" x="948.5" y="1084.4482">24</text><text fill="#000000" font-family="sans-serif" font-size="13" lengthAdjust="spacing" textLength="85" x="966.5" y="1084.4482">addReport(rep)</text><polygon fill="#A80036" points="70,1158.6563,60,1162.6563,70,1166.6563,66,1162.6563" style="stroke:#A80036;stroke-width:1.0;"/><line style="stroke:#A80036;stroke-width:1.0;stroke-dasharray:2.0,2.0;" x1="64" x2="414" y1="1162.6563" y2="1162.6563"/><text fill="#000000" font-family="sans-serif" font-size="13" font-weight="bold" lengthAdjust="spacing" textLength="14" x="76" y="1157.7998">25</text><text fill="#000000" font-family="sans-serif" font-size="13" lengthAdjust="spacing" textLength="167" x="94" y="1157.7998">sends successful notification</text><!--MD5=[44a34c134d1a8e25118669ccc1fdaa35]
@startuml

autonumber
actor "SpecialistDoctor" as doc

participant ":CreateDiagnosisReportUI" as ui
participant ":CreateDiagnosisReportController" as ctrl
participant ":Company" as cmp
participant "testStore: TestStore" as testStore
participant "rep: DiagnosisReport" as report
participant "testMapper: TestMapper" as mapper
participant "t: Tests"
participant "lTests: List<Tests>"
participant "lTestsDto: List<TestsDto>"

    activate doc

doc -> ui : asks to show all tests able to get diagnosed

    activate ui

ui -> ctrl : lTestDto = getReadyTests()

    activate ctrl

ctrl -> cmp : tStore = getTestStore()

    activate cmp

    deactivate cmp

ctrl -> testStore : lTests = getReadyTests(state)

    activate testStore

    deactivate testStore

ctrl -> mapper : lTestDto = toDto(lTests)

activate mapper

    deactivate mapper

    deactivate ctrl

ui - -> doc : shows all the tests ready to receive a report

    deactivate ui

doc -> ui : selects one of the tests to diagnose

    activate ui

ui -> ctrl : getInfoTest()

    activate ctrl



ctrl -> testStore : getInfoTest(id)

    activate testStore

    deactivate ctrl

    deactivate testStore


ui -> ctrl : getParameters()

    activate ctrl

ctrl -> testStore : getParameters()

    activate testStore

    deactivate ctrl

    deactivate testStore

ui - -> doc : shows information about the test and the parameters

    deactivate ui

doc -> ui : writes the diagnosis report for the test

    activate ui

ui -> ctrl : createReport()

    activate ctrl

ctrl -> cmp :  tStore : getTestStore()

    activate cmp

    deactivate cmp

ctrl -> testStore : rep = createReport(report)

    activate testStore

testStore -> report** : rep : create(report)

    deactivate testStore

ctrl -> testStore : validateReport(rep)

    activate testStore

    deactivate testStore

    deactivate ctrl

ui - -> doc : shows the information and asks for confirmation

    deactivate ui

doc -> ui : confirms

    activate ui

ui -> ctrl : saveReport()

    activate ctrl

ctrl -> testStore : saveReport(rep)

    deactivate ctrl

    activate testStore

testStore -> testStore : validateReport(rep)

    activate testStore

    deactivate testStore

testStore -> testStore : addReport(rep)

    activate testStore

    deactivate testStore

    deactivate testStore

ui - -> doc : sends successful notification



    deactivate ui

    deactivate doc

@enduml

PlantUML version 1.2021.5(Sun Apr 25 12:20:28 BST 2021)
(GPL source distribution)
Java Runtime: OpenJDK Runtime Environment
JVM: Dynamic Code Evolution 64-Bit Server VM
Default Encoding: Cp1252
Language: pt
Country: PT
--></g></svg>