<?xml version="1.0" encoding="UTF-8" standalone="no"?><svg xmlns="http://www.w3.org/2000/svg" xmlns:xlink="http://www.w3.org/1999/xlink" contentScriptType="application/ecmascript" contentStyleType="text/css" height="414px" preserveAspectRatio="none" style="width:645px;height:414px;" version="1.1" viewBox="0 0 645 414" width="645px" zoomAndPan="magnify"><defs><filter height="300%" id="f1luejauv867y0" width="300%" x="-1" y="-1"><feGaussianBlur result="blurOut" stdDeviation="2.0"/><feColorMatrix in="blurOut" result="blurOut2" type="matrix" values="0 0 0 0 0 0 0 0 0 0 0 0 0 0 0 0 0 0 .4 0"/><feOffset dx="4.0" dy="4.0" in="blurOut2" result="blurOut3"/><feBlend in="SourceGraphic" in2="blurOut3" mode="normal"/></filter></defs><g><!--MD5=[e882cb611580809ef32ba1e6cc008df6]
class CreateDiagnosisReportUI--><rect codeLine="4" fill="#FEFECE" filter="url(#f1luejauv867y0)" height="48" id="CreateDiagnosisReportUI" style="stroke:#A80036;stroke-width:1.5;" width="175" x="350.5" y="7"/><ellipse cx="365.5" cy="23" fill="#ADD1B2" rx="11" ry="11" style="stroke:#A80036;stroke-width:1.0;"/><path d="M367.5,19.5 Q367.7031,19 367.9375,18.75 Q368.1719,18.5 368.4375,18.5 Q368.9063,18.5 369.2031,18.7813 Q369.5,19.0625 369.5,19.7188 L369.5,21.2813 Q369.5,21.9375 369.2188,22.2188 Q368.9375,22.5 368.5,22.5 Q368.1094,22.5 367.8594,22.3281 Q367.6094,22.1563 367.5,21.7031 Q367.4531,21.3906 367.2813,21.2188 Q366.9688,20.8906 366.4063,20.7031 Q365.8438,20.5 365.2813,20.5 Q364.5781,20.5 363.9844,20.7813 Q363.4063,21.0625 362.9531,21.6875 Q362.5,22.3125 362.5,23.1719 L362.5,24.0938 Q362.5,25.125 363.3438,25.8125 Q364.1875,26.5 365.6875,26.5 Q366.5781,26.5 367.2031,26.2969 Q367.5625,26.1875 367.9688,25.8281 Q368.2344,25.625 368.375,25.5625 Q368.5156,25.5 368.6875,25.5 Q369.0156,25.5 369.25,25.7656 Q369.5,26.0156 369.5,26.375 Q369.5,26.7188 369.1563,27.125 Q368.6563,27.7188 367.8594,28.0469 Q366.8125,28.5 365.5313,28.5 Q364.0313,28.5 362.8281,27.9063 Q361.8594,27.4375 361.1719,26.4219 Q360.5,25.4063 360.5,24.2031 L360.5,23.1094 Q360.5,21.8594 361.0938,20.7656 Q361.7031,19.6719 362.75,19.0938 Q363.8125,18.5 365,18.5 Q365.7188,18.5 366.3438,18.75 Q366.9688,19 367.5,19.5 Z " fill="#000000"/><text fill="#000000" font-family="sans-serif" font-size="12" lengthAdjust="spacing" textLength="143" x="379.5" y="27.9102">CreateDiagnosisReportUI</text><line style="stroke:#A80036;stroke-width:1.5;" x1="351.5" x2="524.5" y1="39" y2="39"/><line style="stroke:#A80036;stroke-width:1.5;" x1="351.5" x2="524.5" y1="47" y2="47"/><!--MD5=[320755de64289057e2380949d87b97e9]
class CreateDiagnosisReportController--><rect codeLine="7" fill="#FEFECE" filter="url(#f1luejauv867y0)" height="103.3438" id="CreateDiagnosisReportController" style="stroke:#A80036;stroke-width:1.5;" width="217" x="329.5" y="116"/><ellipse cx="344.5" cy="132" fill="#ADD1B2" rx="11" ry="11" style="stroke:#A80036;stroke-width:1.0;"/><path d="M346.5,128.5 Q346.7031,128 346.9375,127.75 Q347.1719,127.5 347.4375,127.5 Q347.9063,127.5 348.2031,127.7813 Q348.5,128.0625 348.5,128.7188 L348.5,130.2813 Q348.5,130.9375 348.2188,131.2188 Q347.9375,131.5 347.5,131.5 Q347.1094,131.5 346.8594,131.3281 Q346.6094,131.1563 346.5,130.7031 Q346.4531,130.3906 346.2813,130.2188 Q345.9688,129.8906 345.4063,129.7031 Q344.8438,129.5 344.2813,129.5 Q343.5781,129.5 342.9844,129.7813 Q342.4063,130.0625 341.9531,130.6875 Q341.5,131.3125 341.5,132.1719 L341.5,133.0938 Q341.5,134.125 342.3438,134.8125 Q343.1875,135.5 344.6875,135.5 Q345.5781,135.5 346.2031,135.2969 Q346.5625,135.1875 346.9688,134.8281 Q347.2344,134.625 347.375,134.5625 Q347.5156,134.5 347.6875,134.5 Q348.0156,134.5 348.25,134.7656 Q348.5,135.0156 348.5,135.375 Q348.5,135.7188 348.1563,136.125 Q347.6563,136.7188 346.8594,137.0469 Q345.8125,137.5 344.5313,137.5 Q343.0313,137.5 341.8281,136.9063 Q340.8594,136.4375 340.1719,135.4219 Q339.5,134.4063 339.5,133.2031 L339.5,132.1094 Q339.5,130.8594 340.0938,129.7656 Q340.7031,128.6719 341.75,128.0938 Q342.8125,127.5 344,127.5 Q344.7188,127.5 345.3438,127.75 Q345.9688,128 346.5,128.5 Z " fill="#000000"/><text fill="#000000" font-family="sans-serif" font-size="12" lengthAdjust="spacing" textLength="185" x="358.5" y="136.9102">CreateDiagnosisReportController</text><line style="stroke:#A80036;stroke-width:1.5;" x1="330.5" x2="545.5" y1="148" y2="148"/><line style="stroke:#A80036;stroke-width:1.5;" x1="330.5" x2="545.5" y1="156" y2="156"/><text fill="#000000" font-family="sans-serif" font-size="11" lengthAdjust="spacing" textLength="87" x="335.5" y="171.4189">+getReadyTests()</text><text fill="#000000" font-family="sans-serif" font-size="11" lengthAdjust="spacing" textLength="68" x="335.5" y="185.2549">+getInfoTest()</text><text fill="#000000" font-family="sans-serif" font-size="11" lengthAdjust="spacing" textLength="77" x="335.5" y="199.0908">+createReport()</text><text fill="#000000" font-family="sans-serif" font-size="11" lengthAdjust="spacing" textLength="70" x="335.5" y="212.9268">+saveReport()</text><!--MD5=[02e4b9b7573f1156f41e60aa5b4e25a4]
class Company--><rect codeLine="14" fill="#FEFECE" filter="url(#f1luejauv867y0)" height="103.3438" id="Company" style="stroke:#A80036;stroke-width:1.5;" width="88" x="213" y="297"/><ellipse cx="229.35" cy="313" fill="#ADD1B2" rx="11" ry="11" style="stroke:#A80036;stroke-width:1.0;"/><path d="M231.35,309.5 Q231.5531,309 231.7875,308.75 Q232.0219,308.5 232.2875,308.5 Q232.7563,308.5 233.0531,308.7813 Q233.35,309.0625 233.35,309.7188 L233.35,311.2813 Q233.35,311.9375 233.0688,312.2188 Q232.7875,312.5 232.35,312.5 Q231.9594,312.5 231.7094,312.3281 Q231.4594,312.1563 231.35,311.7031 Q231.3031,311.3906 231.1313,311.2188 Q230.8188,310.8906 230.2563,310.7031 Q229.6938,310.5 229.1313,310.5 Q228.4281,310.5 227.8344,310.7813 Q227.2563,311.0625 226.8031,311.6875 Q226.35,312.3125 226.35,313.1719 L226.35,314.0938 Q226.35,315.125 227.1938,315.8125 Q228.0375,316.5 229.5375,316.5 Q230.4281,316.5 231.0531,316.2969 Q231.4125,316.1875 231.8188,315.8281 Q232.0844,315.625 232.225,315.5625 Q232.3656,315.5 232.5375,315.5 Q232.8656,315.5 233.1,315.7656 Q233.35,316.0156 233.35,316.375 Q233.35,316.7188 233.0063,317.125 Q232.5063,317.7188 231.7094,318.0469 Q230.6625,318.5 229.3813,318.5 Q227.8813,318.5 226.6781,317.9063 Q225.7094,317.4375 225.0219,316.4219 Q224.35,315.4063 224.35,314.2031 L224.35,313.1094 Q224.35,311.8594 224.9438,310.7656 Q225.5531,309.6719 226.6,309.0938 Q227.6625,308.5 228.85,308.5 Q229.5688,308.5 230.1938,308.75 Q230.8188,309 231.35,309.5 Z " fill="#000000"/><text fill="#000000" font-family="sans-serif" font-size="12" lengthAdjust="spacing" textLength="53" x="243.65" y="317.9102">Company</text><line style="stroke:#A80036;stroke-width:1.5;" x1="214" x2="300" y1="329" y2="329"/><text fill="#000000" font-family="sans-serif" font-size="11" lengthAdjust="spacing" textLength="59" x="219" y="344.4189">-designation</text><line style="stroke:#A80036;stroke-width:1.5;" x1="214" x2="300" y1="350.8359" y2="350.8359"/><text fill="#000000" font-family="sans-serif" font-size="11" lengthAdjust="spacing" textLength="76" x="219" y="366.2549">+getTestStore()</text><text fill="#000000" font-family="sans-serif" font-size="11" lengthAdjust="spacing" textLength="76" x="219" y="380.0908">+getInfoTest(id)</text><text fill="#000000" font-family="sans-serif" font-size="11" lengthAdjust="spacing" textLength="76" x="219" y="393.9268">+getTestStore()</text><!--MD5=[f61f25a4c924aea49782a3614f4b4835]
class DiagnosisReport--><rect codeLine="22" fill="#FEFECE" filter="url(#f1luejauv867y0)" height="75.6719" id="DiagnosisReport" style="stroke:#A80036;stroke-width:1.5;" width="126" x="7" y="310.5"/><ellipse cx="22" cy="326.5" fill="#ADD1B2" rx="11" ry="11" style="stroke:#A80036;stroke-width:1.0;"/><path d="M24,323 Q24.2031,322.5 24.4375,322.25 Q24.6719,322 24.9375,322 Q25.4063,322 25.7031,322.2813 Q26,322.5625 26,323.2188 L26,324.7813 Q26,325.4375 25.7188,325.7188 Q25.4375,326 25,326 Q24.6094,326 24.3594,325.8281 Q24.1094,325.6563 24,325.2031 Q23.9531,324.8906 23.7813,324.7188 Q23.4688,324.3906 22.9063,324.2031 Q22.3438,324 21.7813,324 Q21.0781,324 20.4844,324.2813 Q19.9063,324.5625 19.4531,325.1875 Q19,325.8125 19,326.6719 L19,327.5938 Q19,328.625 19.8438,329.3125 Q20.6875,330 22.1875,330 Q23.0781,330 23.7031,329.7969 Q24.0625,329.6875 24.4688,329.3281 Q24.7344,329.125 24.875,329.0625 Q25.0156,329 25.1875,329 Q25.5156,329 25.75,329.2656 Q26,329.5156 26,329.875 Q26,330.2188 25.6563,330.625 Q25.1563,331.2188 24.3594,331.5469 Q23.3125,332 22.0313,332 Q20.5313,332 19.3281,331.4063 Q18.3594,330.9375 17.6719,329.9219 Q17,328.9063 17,327.7031 L17,326.6094 Q17,325.3594 17.5938,324.2656 Q18.2031,323.1719 19.25,322.5938 Q20.3125,322 21.5,322 Q22.2188,322 22.8438,322.25 Q23.4688,322.5 24,323 Z " fill="#000000"/><text fill="#000000" font-family="sans-serif" font-size="12" lengthAdjust="spacing" textLength="94" x="36" y="331.4102">DiagnosisReport</text><line style="stroke:#A80036;stroke-width:1.5;" x1="8" x2="132" y1="342.5" y2="342.5"/><text fill="#000000" font-family="sans-serif" font-size="11" lengthAdjust="spacing" textLength="33" x="13" y="357.9189">-report</text><line style="stroke:#A80036;stroke-width:1.5;" x1="8" x2="132" y1="364.3359" y2="364.3359"/><text fill="#000000" font-family="sans-serif" font-size="11" lengthAdjust="spacing" textLength="74" x="13" y="379.7549">+create(report)</text><!--MD5=[0f6f7964b844a64b0496af0dda7914bd]
class TestStore--><rect codeLine="28" fill="#FEFECE" filter="url(#f1luejauv867y0)" height="75.6719" id="TestStore" style="stroke:#A80036;stroke-width:1.5;" width="123" x="376.5" y="310.5"/><ellipse cx="408.6" cy="326.5" fill="#ADD1B2" rx="11" ry="11" style="stroke:#A80036;stroke-width:1.0;"/><path d="M410.6,323 Q410.8031,322.5 411.0375,322.25 Q411.2719,322 411.5375,322 Q412.0063,322 412.3031,322.2813 Q412.6,322.5625 412.6,323.2188 L412.6,324.7813 Q412.6,325.4375 412.3188,325.7188 Q412.0375,326 411.6,326 Q411.2094,326 410.9594,325.8281 Q410.7094,325.6563 410.6,325.2031 Q410.5531,324.8906 410.3813,324.7188 Q410.0688,324.3906 409.5063,324.2031 Q408.9438,324 408.3813,324 Q407.6781,324 407.0844,324.2813 Q406.5063,324.5625 406.0531,325.1875 Q405.6,325.8125 405.6,326.6719 L405.6,327.5938 Q405.6,328.625 406.4438,329.3125 Q407.2875,330 408.7875,330 Q409.6781,330 410.3031,329.7969 Q410.6625,329.6875 411.0688,329.3281 Q411.3344,329.125 411.475,329.0625 Q411.6156,329 411.7875,329 Q412.1156,329 412.35,329.2656 Q412.6,329.5156 412.6,329.875 Q412.6,330.2188 412.2563,330.625 Q411.7563,331.2188 410.9594,331.5469 Q409.9125,332 408.6313,332 Q407.1313,332 405.9281,331.4063 Q404.9594,330.9375 404.2719,329.9219 Q403.6,328.9063 403.6,327.7031 L403.6,326.6094 Q403.6,325.3594 404.1938,324.2656 Q404.8031,323.1719 405.85,322.5938 Q406.9125,322 408.1,322 Q408.8188,322 409.4438,322.25 Q410.0688,322.5 410.6,323 Z " fill="#000000"/><text fill="#000000" font-family="sans-serif" font-size="12" lengthAdjust="spacing" textLength="53" x="426.4" y="331.4102">TestStore</text><line style="stroke:#A80036;stroke-width:1.5;" x1="377.5" x2="498.5" y1="342.5" y2="342.5"/><line style="stroke:#A80036;stroke-width:1.5;" x1="377.5" x2="498.5" y1="350.5" y2="350.5"/><text fill="#000000" font-family="sans-serif" font-size="11" lengthAdjust="spacing" textLength="111" x="382.5" y="365.9189">+getReadyTests(state)</text><text fill="#000000" font-family="sans-serif" font-size="11" lengthAdjust="spacing" textLength="61" x="382.5" y="379.7549">+getTest(tId)</text><!--MD5=[144698ec4d0188f6929a3b58a3eeb1f6]
class TestMapper--><rect codeLine="33" fill="#FEFECE" filter="url(#f1luejauv867y0)" height="61.8359" id="TestMapper" style="stroke:#A80036;stroke-width:1.5;" width="97" x="534.5" y="317.5"/><ellipse cx="549.5" cy="333.5" fill="#ADD1B2" rx="11" ry="11" style="stroke:#A80036;stroke-width:1.0;"/><path d="M551.5,330 Q551.7031,329.5 551.9375,329.25 Q552.1719,329 552.4375,329 Q552.9063,329 553.2031,329.2813 Q553.5,329.5625 553.5,330.2188 L553.5,331.7813 Q553.5,332.4375 553.2188,332.7188 Q552.9375,333 552.5,333 Q552.1094,333 551.8594,332.8281 Q551.6094,332.6563 551.5,332.2031 Q551.4531,331.8906 551.2813,331.7188 Q550.9688,331.3906 550.4063,331.2031 Q549.8438,331 549.2813,331 Q548.5781,331 547.9844,331.2813 Q547.4063,331.5625 546.9531,332.1875 Q546.5,332.8125 546.5,333.6719 L546.5,334.5938 Q546.5,335.625 547.3438,336.3125 Q548.1875,337 549.6875,337 Q550.5781,337 551.2031,336.7969 Q551.5625,336.6875 551.9688,336.3281 Q552.2344,336.125 552.375,336.0625 Q552.5156,336 552.6875,336 Q553.0156,336 553.25,336.2656 Q553.5,336.5156 553.5,336.875 Q553.5,337.2188 553.1563,337.625 Q552.6563,338.2188 551.8594,338.5469 Q550.8125,339 549.5313,339 Q548.0313,339 546.8281,338.4063 Q545.8594,337.9375 545.1719,336.9219 Q544.5,335.9063 544.5,334.7031 L544.5,333.6094 Q544.5,332.3594 545.0938,331.2656 Q545.7031,330.1719 546.75,329.5938 Q547.8125,329 549,329 Q549.7188,329 550.3438,329.25 Q550.9688,329.5 551.5,330 Z " fill="#000000"/><text fill="#000000" font-family="sans-serif" font-size="12" lengthAdjust="spacing" textLength="65" x="563.5" y="338.4102">TestMapper</text><line style="stroke:#A80036;stroke-width:1.5;" x1="535.5" x2="630.5" y1="349.5" y2="349.5"/><line style="stroke:#A80036;stroke-width:1.5;" x1="535.5" x2="630.5" y1="357.5" y2="357.5"/><text fill="#000000" font-family="sans-serif" font-size="11" lengthAdjust="spacing" textLength="68" x="540.5" y="372.9189">+toDto(lTests)</text><!--MD5=[b56f326909055f5b0ac9fc79452f780b]
link CreateDiagnosisReportUI to CreateDiagnosisReportController--><path codeLine="37" d="M438,55.12 C438,70.36 438,91.02 438,110.4 " fill="none" id="CreateDiagnosisReportUI-to-CreateDiagnosisReportController" style="stroke:#A80036;stroke-width:1.0;stroke-dasharray:7.0,7.0;"/><polygon fill="#A80036" points="438,115.83,442,106.83,438,110.83,434,106.83,438,115.83" style="stroke:#A80036;stroke-width:1.0;"/><!--MD5=[97123af0c521a78dc7249c3851f1c92b]
link CreateDiagnosisReportController to Company--><path codeLine="38" d="M386.62,219.32 C360.92,244.73 330,275.3 304.81,300.21 " fill="none" id="CreateDiagnosisReportController-to-Company" style="stroke:#A80036;stroke-width:1.0;stroke-dasharray:7.0,7.0;"/><polygon fill="#A80036" points="301.14,303.85,310.3466,300.3516,304.6898,300.3288,304.7126,294.6719,301.14,303.85" style="stroke:#A80036;stroke-width:1.0;"/><!--MD5=[dc2561bdef5af98436c9b82cf5a20274]
link CreateDiagnosisReportController to TestStore--><path codeLine="39" d="M438,219.32 C438,246.45 438,279.45 438,305.18 " fill="none" id="CreateDiagnosisReportController-to-TestStore" style="stroke:#A80036;stroke-width:1.0;stroke-dasharray:7.0,7.0;"/><polygon fill="#A80036" points="438,310.22,442,301.22,438,305.22,434,301.22,438,310.22" style="stroke:#A80036;stroke-width:1.0;"/><!--MD5=[047af598193180734a6a8dd45346a662]
link CreateDiagnosisReportController to TestMapper--><path codeLine="40" d="M479.16,219.32 C503.48,249.34 533.63,286.55 555.16,313.13 " fill="none" id="CreateDiagnosisReportController-to-TestMapper" style="stroke:#A80036;stroke-width:1.0;stroke-dasharray:7.0,7.0;"/><polygon fill="#A80036" points="558.54,317.31,555.9902,307.7969,555.3957,313.4224,549.7701,312.8279,558.54,317.31" style="stroke:#A80036;stroke-width:1.0;"/><!--MD5=[7f6cf7f175eae0af66201860de5de971]
link Company to TestStore--><path codeLine="41" d="M301.28,348.5 C322.29,348.5 347.86,348.5 371.17,348.5 " fill="none" id="Company-to-TestStore" style="stroke:#A80036;stroke-width:1.0;"/><polygon fill="#A80036" points="376.41,348.5,367.41,344.5,371.41,348.5,367.41,352.5,376.41,348.5" style="stroke:#A80036;stroke-width:1.0;"/><text fill="#000000" font-family="sans-serif" font-size="13" lengthAdjust="spacing" textLength="39" x="319.25" y="341.9951">adopts</text><text fill="#000000" font-family="sans-serif" font-size="13" lengthAdjust="spacing" textLength="7" x="308.8949" y="344.7207">1</text><text fill="#000000" font-family="sans-serif" font-size="13" lengthAdjust="spacing" textLength="7" x="361.4772" y="345.0615">1</text><!--MD5=[73d961de9b9d6654a2c455a694dd735c]
link TestStore to DiagnosisReport--><path codeLine="42" d="M385,310.4 C333.63,278.32 253.5,241.05 184,264 C157.57,272.73 132.27,290.21 112.25,307.01 " fill="none" id="TestStore-to-DiagnosisReport" style="stroke:#A80036;stroke-width:1.0;"/><polygon fill="#A80036" points="108.31,310.36,117.7526,307.5604,112.1133,307.1143,112.5594,301.4751,108.31,310.36" style="stroke:#A80036;stroke-width:1.0;"/><text fill="#000000" font-family="sans-serif" font-size="13" lengthAdjust="spacing" textLength="36" x="185" y="263.4951">stores</text><text fill="#000000" font-family="sans-serif" font-size="13" lengthAdjust="spacing" textLength="7" x="367.9359" y="299.7441">1</text><text fill="#000000" font-family="sans-serif" font-size="13" lengthAdjust="spacing" textLength="5" x="109.6887" y="299.697">*</text><!--MD5=[3df2a5e1176823ef1937635277c6812c]
reverse link DiagnosisReport to Company--><path codeLine="43" d="M138.31,348.5 C163.17,348.5 190.59,348.5 212.81,348.5 " fill="none" id="DiagnosisReport-backto-Company" style="stroke:#A80036;stroke-width:1.0;"/><polygon fill="#A80036" points="133.05,348.5,142.05,352.5,138.05,348.5,142.05,344.5,133.05,348.5" style="stroke:#A80036;stroke-width:1.0;"/><text fill="#000000" font-family="sans-serif" font-size="13" lengthAdjust="spacing" textLength="43" x="151.5" y="341.9951">creates</text><text fill="#000000" font-family="sans-serif" font-size="13" lengthAdjust="spacing" textLength="5" x="141.0389" y="345.0615">*</text><text fill="#000000" font-family="sans-serif" font-size="13" lengthAdjust="spacing" textLength="7" x="197.9113" y="344.6708">1</text><!--MD5=[17845944d040881761e3866581f7462f]
@startuml

skinparam classAttributeIconSize 0

class CreateDiagnosisReportUI{
}

class CreateDiagnosisReportController{
+getReadyTests()
+getInfoTest()
+createReport()
+saveReport()
}

class Company{
-designation

+getTestStore()
+getInfoTest(id)
+getTestStore()
}

class DiagnosisReport{
-report

+create(report)
}

class TestStore{
+getReadyTests(state)
+getTest(tId)
}

class TestMapper{
+toDto(lTests)
}

CreateDiagnosisReportUI ..> CreateDiagnosisReportController
CreateDiagnosisReportController ..> Company
CreateDiagnosisReportController ..> TestStore
CreateDiagnosisReportController ..> TestMapper
Company "1"->"1" TestStore : adopts
TestStore "1"->"*" DiagnosisReport : stores
Company "1"-left>"*" DiagnosisReport : creates

@enduml

PlantUML version 1.2021.5(Sun Apr 25 12:20:28 BST 2021)
(GPL source distribution)
Java Runtime: OpenJDK Runtime Environment
JVM: Dynamic Code Evolution 64-Bit Server VM
Default Encoding: Cp1252
Language: pt
Country: PT
--></g></svg>