<?xml version="1.0" encoding="UTF-8" standalone="no"?><svg xmlns="http://www.w3.org/2000/svg" xmlns:xlink="http://www.w3.org/1999/xlink" contentScriptType="application/ecmascript" contentStyleType="text/css" height="407px" preserveAspectRatio="none" style="width:353px;height:407px;" version="1.1" viewBox="0 0 353 407" width="353px" zoomAndPan="magnify"><defs><filter height="300%" id="fkhjhxq8pbam" width="300%" x="-1" y="-1"><feGaussianBlur result="blurOut" stdDeviation="2.0"/><feColorMatrix in="blurOut" result="blurOut2" type="matrix" values="0 0 0 0 0 0 0 0 0 0 0 0 0 0 0 0 0 0 .4 0"/><feOffset dx="4.0" dy="4.0" in="blurOut2" result="blurOut3"/><feBlend in="SourceGraphic" in2="blurOut3" mode="normal"/></filter></defs><g><!--MD5=[02e4b9b7573f1156f41e60aa5b4e25a4]
class Company--><rect codeLine="6" fill="#FEFECE" filter="url(#fkhjhxq8pbam)" height="53.8359" id="Company" style="stroke:#A80036;stroke-width:1.5;" width="85" x="7" y="41.5"/><ellipse cx="22" cy="57.5" fill="#ADD1B2" rx="11" ry="11" style="stroke:#A80036;stroke-width:1.0;"/><path d="M24,54 Q24.2031,53.5 24.4375,53.25 Q24.6719,53 24.9375,53 Q25.4063,53 25.7031,53.2813 Q26,53.5625 26,54.2188 L26,55.7813 Q26,56.4375 25.7188,56.7188 Q25.4375,57 25,57 Q24.6094,57 24.3594,56.8281 Q24.1094,56.6563 24,56.2031 Q23.9531,55.8906 23.7813,55.7188 Q23.4688,55.3906 22.9063,55.2031 Q22.3438,55 21.7813,55 Q21.0781,55 20.4844,55.2813 Q19.9063,55.5625 19.4531,56.1875 Q19,56.8125 19,57.6719 L19,58.5938 Q19,59.625 19.8438,60.3125 Q20.6875,61 22.1875,61 Q23.0781,61 23.7031,60.7969 Q24.0625,60.6875 24.4688,60.3281 Q24.7344,60.125 24.875,60.0625 Q25.0156,60 25.1875,60 Q25.5156,60 25.75,60.2656 Q26,60.5156 26,60.875 Q26,61.2188 25.6563,61.625 Q25.1563,62.2188 24.3594,62.5469 Q23.3125,63 22.0313,63 Q20.5313,63 19.3281,62.4063 Q18.3594,61.9375 17.6719,60.9219 Q17,59.9063 17,58.7031 L17,57.6094 Q17,56.3594 17.5938,55.2656 Q18.2031,54.1719 19.25,53.5938 Q20.3125,53 21.5,53 Q22.2188,53 22.8438,53.25 Q23.4688,53.5 24,54 Z " fill="#000000"/><text fill="#000000" font-family="sans-serif" font-size="12" lengthAdjust="spacing" textLength="53" x="36" y="62.4102">Company</text><line style="stroke:#A80036;stroke-width:1.5;" x1="8" x2="91" y1="73.5" y2="73.5"/><text fill="#000000" font-family="sans-serif" font-size="11" lengthAdjust="spacing" textLength="59" x="13" y="88.9189">-designation</text><!--MD5=[7421f545a0d8420c5bec41e74b387d9c]
class Employee--><rect codeLine="10" fill="#FEFECE" filter="url(#fkhjhxq8pbam)" height="123.0156" id="Employee" style="stroke:#A80036;stroke-width:1.5;" width="87" x="184" y="7"/><ellipse cx="199" cy="23" fill="#ADD1B2" rx="11" ry="11" style="stroke:#A80036;stroke-width:1.0;"/><path d="M201,19.5 Q201.2031,19 201.4375,18.75 Q201.6719,18.5 201.9375,18.5 Q202.4063,18.5 202.7031,18.7813 Q203,19.0625 203,19.7188 L203,21.2813 Q203,21.9375 202.7188,22.2188 Q202.4375,22.5 202,22.5 Q201.6094,22.5 201.3594,22.3281 Q201.1094,22.1563 201,21.7031 Q200.9531,21.3906 200.7813,21.2188 Q200.4688,20.8906 199.9063,20.7031 Q199.3438,20.5 198.7813,20.5 Q198.0781,20.5 197.4844,20.7813 Q196.9063,21.0625 196.4531,21.6875 Q196,22.3125 196,23.1719 L196,24.0938 Q196,25.125 196.8438,25.8125 Q197.6875,26.5 199.1875,26.5 Q200.0781,26.5 200.7031,26.2969 Q201.0625,26.1875 201.4688,25.8281 Q201.7344,25.625 201.875,25.5625 Q202.0156,25.5 202.1875,25.5 Q202.5156,25.5 202.75,25.7656 Q203,26.0156 203,26.375 Q203,26.7188 202.6563,27.125 Q202.1563,27.7188 201.3594,28.0469 Q200.3125,28.5 199.0313,28.5 Q197.5313,28.5 196.3281,27.9063 Q195.3594,27.4375 194.6719,26.4219 Q194,25.4063 194,24.2031 L194,23.1094 Q194,21.8594 194.5938,20.7656 Q195.2031,19.6719 196.25,19.0938 Q197.3125,18.5 198.5,18.5 Q199.2188,18.5 199.8438,18.75 Q200.4688,19 201,19.5 Z " fill="#000000"/><text fill="#000000" font-family="sans-serif" font-size="12" lengthAdjust="spacing" textLength="55" x="213" y="27.9102">Employee</text><line style="stroke:#A80036;stroke-width:1.5;" x1="185" x2="270" y1="39" y2="39"/><text fill="#000000" font-family="sans-serif" font-size="11" lengthAdjust="spacing" textLength="12" x="190" y="54.4189">-id</text><text fill="#000000" font-family="sans-serif" font-size="11" lengthAdjust="spacing" textLength="30" x="190" y="68.2549">-name</text><text fill="#000000" font-family="sans-serif" font-size="11" lengthAdjust="spacing" textLength="44" x="190" y="82.0908">-address</text><text fill="#000000" font-family="sans-serif" font-size="11" lengthAdjust="spacing" textLength="71" x="190" y="95.9268">-phoneNumber</text><text fill="#000000" font-family="sans-serif" font-size="11" lengthAdjust="spacing" textLength="28" x="190" y="109.7627">-email</text><text fill="#000000" font-family="sans-serif" font-size="11" lengthAdjust="spacing" textLength="47" x="190" y="123.5986">-socCode</text><!--MD5=[12e90e92236ca84f203192a07d84ec5e]
class OrganizationRole--><rect codeLine="19" fill="#FEFECE" filter="url(#fkhjhxq8pbam)" height="53.8359" id="OrganizationRole" style="stroke:#A80036;stroke-width:1.5;" width="127" x="20" y="208"/><ellipse cx="35" cy="224" fill="#ADD1B2" rx="11" ry="11" style="stroke:#A80036;stroke-width:1.0;"/><path d="M37,220.5 Q37.2031,220 37.4375,219.75 Q37.6719,219.5 37.9375,219.5 Q38.4063,219.5 38.7031,219.7813 Q39,220.0625 39,220.7188 L39,222.2813 Q39,222.9375 38.7188,223.2188 Q38.4375,223.5 38,223.5 Q37.6094,223.5 37.3594,223.3281 Q37.1094,223.1563 37,222.7031 Q36.9531,222.3906 36.7813,222.2188 Q36.4688,221.8906 35.9063,221.7031 Q35.3438,221.5 34.7813,221.5 Q34.0781,221.5 33.4844,221.7813 Q32.9063,222.0625 32.4531,222.6875 Q32,223.3125 32,224.1719 L32,225.0938 Q32,226.125 32.8438,226.8125 Q33.6875,227.5 35.1875,227.5 Q36.0781,227.5 36.7031,227.2969 Q37.0625,227.1875 37.4688,226.8281 Q37.7344,226.625 37.875,226.5625 Q38.0156,226.5 38.1875,226.5 Q38.5156,226.5 38.75,226.7656 Q39,227.0156 39,227.375 Q39,227.7188 38.6563,228.125 Q38.1563,228.7188 37.3594,229.0469 Q36.3125,229.5 35.0313,229.5 Q33.5313,229.5 32.3281,228.9063 Q31.3594,228.4375 30.6719,227.4219 Q30,226.4063 30,225.2031 L30,224.1094 Q30,222.8594 30.5938,221.7656 Q31.2031,220.6719 32.25,220.0938 Q33.3125,219.5 34.5,219.5 Q35.2188,219.5 35.8438,219.75 Q36.4688,220 37,220.5 Z " fill="#000000"/><text fill="#000000" font-family="sans-serif" font-size="12" lengthAdjust="spacing" textLength="95" x="49" y="228.9102">OrganizationRole</text><line style="stroke:#A80036;stroke-width:1.5;" x1="21" x2="146" y1="240" y2="240"/><text fill="#000000" font-family="sans-serif" font-size="11" lengthAdjust="spacing" textLength="22" x="26" y="255.4189">-role</text><!--MD5=[7d96fd15f3014691d2fcaf89c5791e2a]
class SpecialistDoctor--><rect codeLine="23" fill="#FEFECE" filter="url(#fkhjhxq8pbam)" height="53.8359" id="SpecialistDoctor" style="stroke:#A80036;stroke-width:1.5;" width="122" x="215.5" y="208"/><ellipse cx="230.5" cy="224" fill="#ADD1B2" rx="11" ry="11" style="stroke:#A80036;stroke-width:1.0;"/><path d="M232.5,220.5 Q232.7031,220 232.9375,219.75 Q233.1719,219.5 233.4375,219.5 Q233.9063,219.5 234.2031,219.7813 Q234.5,220.0625 234.5,220.7188 L234.5,222.2813 Q234.5,222.9375 234.2188,223.2188 Q233.9375,223.5 233.5,223.5 Q233.1094,223.5 232.8594,223.3281 Q232.6094,223.1563 232.5,222.7031 Q232.4531,222.3906 232.2813,222.2188 Q231.9688,221.8906 231.4063,221.7031 Q230.8438,221.5 230.2813,221.5 Q229.5781,221.5 228.9844,221.7813 Q228.4063,222.0625 227.9531,222.6875 Q227.5,223.3125 227.5,224.1719 L227.5,225.0938 Q227.5,226.125 228.3438,226.8125 Q229.1875,227.5 230.6875,227.5 Q231.5781,227.5 232.2031,227.2969 Q232.5625,227.1875 232.9688,226.8281 Q233.2344,226.625 233.375,226.5625 Q233.5156,226.5 233.6875,226.5 Q234.0156,226.5 234.25,226.7656 Q234.5,227.0156 234.5,227.375 Q234.5,227.7188 234.1563,228.125 Q233.6563,228.7188 232.8594,229.0469 Q231.8125,229.5 230.5313,229.5 Q229.0313,229.5 227.8281,228.9063 Q226.8594,228.4375 226.1719,227.4219 Q225.5,226.4063 225.5,225.2031 L225.5,224.1094 Q225.5,222.8594 226.0938,221.7656 Q226.7031,220.6719 227.75,220.0938 Q228.8125,219.5 230,219.5 Q230.7188,219.5 231.3438,219.75 Q231.9688,220 232.5,220.5 Z " fill="#000000"/><text fill="#000000" font-family="sans-serif" font-size="12" lengthAdjust="spacing" textLength="90" x="244.5" y="228.9102">SpecialistDoctor</text><line style="stroke:#A80036;stroke-width:1.5;" x1="216.5" x2="336.5" y1="240" y2="240"/><text fill="#000000" font-family="sans-serif" font-size="11" lengthAdjust="spacing" textLength="98" x="221.5" y="255.4189">-doctorIndexNumber</text><!--MD5=[f61f25a4c924aea49782a3614f4b4835]
class DiagnosisReport--><rect codeLine="27" fill="#FEFECE" filter="url(#fkhjhxq8pbam)" height="53.8359" id="DiagnosisReport" style="stroke:#A80036;stroke-width:1.5;" width="126" x="213.5" y="340"/><ellipse cx="228.5" cy="356" fill="#ADD1B2" rx="11" ry="11" style="stroke:#A80036;stroke-width:1.0;"/><path d="M230.5,352.5 Q230.7031,352 230.9375,351.75 Q231.1719,351.5 231.4375,351.5 Q231.9063,351.5 232.2031,351.7813 Q232.5,352.0625 232.5,352.7188 L232.5,354.2813 Q232.5,354.9375 232.2188,355.2188 Q231.9375,355.5 231.5,355.5 Q231.1094,355.5 230.8594,355.3281 Q230.6094,355.1563 230.5,354.7031 Q230.4531,354.3906 230.2813,354.2188 Q229.9688,353.8906 229.4063,353.7031 Q228.8438,353.5 228.2813,353.5 Q227.5781,353.5 226.9844,353.7813 Q226.4063,354.0625 225.9531,354.6875 Q225.5,355.3125 225.5,356.1719 L225.5,357.0938 Q225.5,358.125 226.3438,358.8125 Q227.1875,359.5 228.6875,359.5 Q229.5781,359.5 230.2031,359.2969 Q230.5625,359.1875 230.9688,358.8281 Q231.2344,358.625 231.375,358.5625 Q231.5156,358.5 231.6875,358.5 Q232.0156,358.5 232.25,358.7656 Q232.5,359.0156 232.5,359.375 Q232.5,359.7188 232.1563,360.125 Q231.6563,360.7188 230.8594,361.0469 Q229.8125,361.5 228.5313,361.5 Q227.0313,361.5 225.8281,360.9063 Q224.8594,360.4375 224.1719,359.4219 Q223.5,358.4063 223.5,357.2031 L223.5,356.1094 Q223.5,354.8594 224.0938,353.7656 Q224.7031,352.6719 225.75,352.0938 Q226.8125,351.5 228,351.5 Q228.7188,351.5 229.3438,351.75 Q229.9688,352 230.5,352.5 Z " fill="#000000"/><text fill="#000000" font-family="sans-serif" font-size="12" lengthAdjust="spacing" textLength="94" x="242.5" y="360.9102">DiagnosisReport</text><line style="stroke:#A80036;stroke-width:1.5;" x1="214.5" x2="338.5" y1="372" y2="372"/><text fill="#000000" font-family="sans-serif" font-size="11" lengthAdjust="spacing" textLength="33" x="219.5" y="387.4189">-report</text><!--MD5=[09366576ee87d48d594df10cacc83f45]
link Company to Employee--><path codeLine="31" d="M92.14,68.5 C119.91,68.5 156.03,68.5 183.98,68.5 " fill="none" id="Company-Employee" style="stroke:#A80036;stroke-width:1.0;"/><polygon fill="#000000" points="119.5,56.6758,110.4549,53.7369,110.4549,59.6147,119.5,56.6758" style="stroke:#000000;stroke-width:1.0;"/><text fill="#000000" font-family="sans-serif" font-size="13" lengthAdjust="spacing" textLength="42" x="123.5" y="61.9951">employ</text><text fill="#000000" font-family="sans-serif" font-size="13" lengthAdjust="spacing" textLength="7" x="100.0703" y="64.6644">1</text><text fill="#000000" font-family="sans-serif" font-size="13" lengthAdjust="spacing" textLength="5" x="171.0703" y="64.649">*</text><!--MD5=[9abf40ff36e4aa94ac761b2803c1dce8]
link Company to OrganizationRole--><path codeLine="32" d="M44.27,95.53 C40.83,117.9 38.31,150.75 46.5,178 C49.69,188.6 55.6,199.05 61.78,207.99 " fill="none" id="Company-OrganizationRole" style="stroke:#A80036;stroke-width:1.0;"/><polygon fill="#000000" points="52.2692,174.1163,53.7816,164.7267,47.9737,165.631,52.2692,174.1163" style="stroke:#000000;stroke-width:1.0;"/><text fill="#000000" font-family="sans-serif" font-size="13" lengthAdjust="spacing" textLength="78" x="60.5" y="174.4951">comprehends</text><text fill="#000000" font-family="sans-serif" font-size="13" lengthAdjust="spacing" textLength="7" x="35.3603" y="116.7443">1</text><text fill="#000000" font-family="sans-serif" font-size="13" lengthAdjust="spacing" textLength="5" x="50.8764" y="197.0143">*</text><!--MD5=[372bd27a178b4208a6d241b4516ac7e6]
reverse link Employee to SpecialistDoctor--><path codeLine="33" d="M251.5,149.95 C252.52,153.34 253.52,156.7 254.5,160 C259.24,175.93 264.55,193.79 268.77,207.97 " fill="none" id="Employee-backto-SpecialistDoctor" style="stroke:#A80036;stroke-width:1.0;"/><polygon fill="none" points="244.67,151.51,245.66,130.35,258.08,147.51,244.67,151.51" style="stroke:#A80036;stroke-width:1.0;"/><!--MD5=[241b49406f7a05442b1e788ffaf3787c]
link Employee to OrganizationRole--><path codeLine="34" d="M183.83,129.47 C171.31,145.65 157.3,162.86 143.5,178 C134.19,188.21 123.32,198.73 113.41,207.85 " fill="none" id="Employee-OrganizationRole" style="stroke:#A80036;stroke-width:1.0;"/><polygon fill="#000000" points="160.1584,172.8951,168.3896,168.1309,164.0173,164.2026,160.1584,172.8951" style="stroke:#000000;stroke-width:1.0;"/><text fill="#000000" font-family="sans-serif" font-size="13" lengthAdjust="spacing" textLength="56" x="172.5" y="174.4951">has/plays</text><text fill="#000000" font-family="sans-serif" font-size="13" lengthAdjust="spacing" textLength="5" x="170.8945" y="136.0982">*</text><text fill="#000000" font-family="sans-serif" font-size="13" lengthAdjust="spacing" textLength="7" x="112.5173" y="197.2763">1</text><!--MD5=[901cb31b8fb218f069ad8080056c43f5]
link SpecialistDoctor to DiagnosisReport--><path codeLine="35" d="M276.5,262.31 C276.5,284.86 276.5,317.19 276.5,339.73 " fill="none" id="SpecialistDoctor-DiagnosisReport" style="stroke:#A80036;stroke-width:1.0;"/><polygon fill="#000000" points="281.5,306.1758,284.4389,297.1307,278.5611,297.1307,281.5,306.1758" style="stroke:#000000;stroke-width:1.0;"/><text fill="#000000" font-family="sans-serif" font-size="13" lengthAdjust="spacing" textLength="28" x="290.5" y="306.4951">does</text><text fill="#000000" font-family="sans-serif" font-size="13" lengthAdjust="spacing" textLength="7" x="268.7781" y="283.141">1</text><text fill="#000000" font-family="sans-serif" font-size="13" lengthAdjust="spacing" textLength="24" x="249.725" y="329.1285">1...*</text><!--MD5=[b8aa975b1551f955557ef22df61a6d00]
@startuml

skinparam classAttributeIconSize 0
hide methods


class Company{
-designation
}

class Employee{
-id
-name
-address
-phoneNumber
-email
-socCode
}

class OrganizationRole{
-role
}

class SpecialistDoctor{
-doctorIndexNumber
}

class DiagnosisReport{
-report
}

Company "1"-right-"*" Employee: > employ
Company "1"- -"*" OrganizationRole: > comprehends
Employee <|- - SpecialistDoctor
Employee "*"- -"1" OrganizationRole: > has/plays
SpecialistDoctor "1"- -"1...*" DiagnosisReport: > does



@enduml

PlantUML version 1.2021.5(Sun Apr 25 12:20:28 BST 2021)
(GPL source distribution)
Java Runtime: OpenJDK Runtime Environment
JVM: Dynamic Code Evolution 64-Bit Server VM
Default Encoding: Cp1252
Language: pt
Country: PT
--></g></svg>