<?xml version="1.0" encoding="UTF-8" standalone="no"?><svg xmlns="http://www.w3.org/2000/svg" xmlns:xlink="http://www.w3.org/1999/xlink" contentScriptType="application/ecmascript" contentStyleType="text/css" height="803.75px" preserveAspectRatio="none" style="width:451px;height:803px;" version="1.1" viewBox="0 0 451 803" width="451.25px" zoomAndPan="magnify"><defs><filter height="300%" id="f7anw75q0yic7" width="300%" x="-1" y="-1"><feGaussianBlur result="blurOut" stdDeviation="2.5"/><feColorMatrix in="blurOut" result="blurOut2" type="matrix" values="0 0 0 0 0 0 0 0 0 0 0 0 0 0 0 0 0 0 .4 0"/><feOffset dx="5.0" dy="5.0" in="blurOut2" result="blurOut3"/><feBlend in="SourceGraphic" in2="blurOut3" mode="normal"/></filter></defs><g><!--MD5=[02e4b9b7573f1156f41e60aa5b4e25a4]
class Company--><rect codeLine="6" fill="#FEFECE" filter="url(#f7anw75q0yic7)" height="67.2949" id="Company" style="stroke:#A80036;stroke-width:1.875;" width="127.5" x="199.375" y="8.75"/><ellipse cx="227.6875" cy="28.75" fill="#ADD1B2" rx="13.75" ry="13.75" style="stroke:#A80036;stroke-width:1.25;"/><path d="M230.1875,24.375 Q230.4414,23.75 230.7344,23.4375 Q231.0273,23.125 231.3594,23.125 Q231.9453,23.125 232.3164,23.4766 Q232.6875,23.8281 232.6875,24.6484 L232.6875,26.6016 Q232.6875,27.4219 232.3359,27.7734 Q231.9844,28.125 231.4375,28.125 Q230.9492,28.125 230.6367,27.9102 Q230.3242,27.6953 230.1875,27.1289 Q230.1289,26.7383 229.9141,26.5234 Q229.5234,26.1133 228.8203,25.8789 Q228.1172,25.625 227.4141,25.625 Q226.5352,25.625 225.793,25.9766 Q225.0703,26.3281 224.5039,27.1094 Q223.9375,27.8906 223.9375,28.9648 L223.9375,30.1172 Q223.9375,31.4063 224.9922,32.2656 Q226.0469,33.125 227.9219,33.125 Q229.0352,33.125 229.8164,32.8711 Q230.2656,32.7344 230.7734,32.2852 Q231.1055,32.0313 231.2813,31.9531 Q231.457,31.875 231.6719,31.875 Q232.082,31.875 232.375,32.207 Q232.6875,32.5195 232.6875,32.9688 Q232.6875,33.3984 232.2578,33.9063 Q231.6328,34.6484 230.6367,35.0586 Q229.3281,35.625 227.7266,35.625 Q225.8516,35.625 224.3477,34.8828 Q223.1367,34.2969 222.2773,33.0273 Q221.4375,31.7578 221.4375,30.2539 L221.4375,28.8867 Q221.4375,27.3242 222.1797,25.957 Q222.9414,24.5898 224.25,23.8672 Q225.5781,23.125 227.0625,23.125 Q227.9609,23.125 228.7422,23.4375 Q229.5234,23.75 230.1875,24.375 Z " fill="#000000"/><text fill="#000000" font-family="sans-serif" font-size="15" lengthAdjust="spacing" textLength="66.25" x="247.3125" y="34.8877">Company</text><line style="stroke:#A80036;stroke-width:1.875;" x1="200.625" x2="325.625" y1="48.75" y2="48.75"/><text fill="#000000" font-family="sans-serif" font-size="13.75" lengthAdjust="spacing" textLength="112.5" x="206.875" y="68.0237">-String designation</text><!--MD5=[db6d18d8099558415abc41d00477ab92]
class Admin--><rect codeLine="10" fill="#FEFECE" filter="url(#f7anw75q0yic7)" height="50" id="Admin" style="stroke:#A80036;stroke-width:1.875;" width="83.75" x="221.25" y="173.75"/><ellipse cx="240" cy="193.75" fill="#ADD1B2" rx="13.75" ry="13.75" style="stroke:#A80036;stroke-width:1.25;"/><path d="M242.5,189.375 Q242.7539,188.75 243.0469,188.4375 Q243.3398,188.125 243.6719,188.125 Q244.2578,188.125 244.6289,188.4766 Q245,188.8281 245,189.6484 L245,191.6016 Q245,192.4219 244.6484,192.7734 Q244.2969,193.125 243.75,193.125 Q243.2617,193.125 242.9492,192.9102 Q242.6367,192.6953 242.5,192.1289 Q242.4414,191.7383 242.2266,191.5234 Q241.8359,191.1133 241.1328,190.8789 Q240.4297,190.625 239.7266,190.625 Q238.8477,190.625 238.1055,190.9766 Q237.3828,191.3281 236.8164,192.1094 Q236.25,192.8906 236.25,193.9648 L236.25,195.1172 Q236.25,196.4063 237.3047,197.2656 Q238.3594,198.125 240.2344,198.125 Q241.3477,198.125 242.1289,197.8711 Q242.5781,197.7344 243.0859,197.2852 Q243.418,197.0313 243.5938,196.9531 Q243.7695,196.875 243.9844,196.875 Q244.3945,196.875 244.6875,197.207 Q245,197.5195 245,197.9688 Q245,198.3984 244.5703,198.9063 Q243.9453,199.6484 242.9492,200.0586 Q241.6406,200.625 240.0391,200.625 Q238.1641,200.625 236.6602,199.8828 Q235.4492,199.2969 234.5898,198.0273 Q233.75,196.7578 233.75,195.2539 L233.75,193.8867 Q233.75,192.3242 234.4922,190.957 Q235.2539,189.5898 236.5625,188.8672 Q237.8906,188.125 239.375,188.125 Q240.2734,188.125 241.0547,188.4375 Q241.8359,188.75 242.5,189.375 Z " fill="#000000"/><text fill="#000000" font-family="sans-serif" font-size="15" lengthAdjust="spacing" textLength="43.75" x="257.5" y="199.8877">Admin</text><line style="stroke:#A80036;stroke-width:1.875;" x1="222.5" x2="303.75" y1="213.75" y2="213.75"/><!--MD5=[f69a48f7b38bde3533dca6607cc4e94a]
class TypeOfTest--><rect codeLine="13" fill="#FEFECE" filter="url(#f7anw75q0yic7)" height="119.1797" id="TypeOfTest" style="stroke:#A80036;stroke-width:1.875;" width="166.25" x="8.75" y="321.25"/><ellipse cx="49.4375" cy="341.25" fill="#ADD1B2" rx="13.75" ry="13.75" style="stroke:#A80036;stroke-width:1.25;"/><path d="M51.9375,336.875 Q52.1914,336.25 52.4844,335.9375 Q52.7773,335.625 53.1094,335.625 Q53.6953,335.625 54.0664,335.9766 Q54.4375,336.3281 54.4375,337.1484 L54.4375,339.1016 Q54.4375,339.9219 54.0859,340.2734 Q53.7344,340.625 53.1875,340.625 Q52.6992,340.625 52.3867,340.4102 Q52.0742,340.1953 51.9375,339.6289 Q51.8789,339.2383 51.6641,339.0234 Q51.2734,338.6133 50.5703,338.3789 Q49.8672,338.125 49.1641,338.125 Q48.2852,338.125 47.543,338.4766 Q46.8203,338.8281 46.2539,339.6094 Q45.6875,340.3906 45.6875,341.4648 L45.6875,342.6172 Q45.6875,343.9063 46.7422,344.7656 Q47.7969,345.625 49.6719,345.625 Q50.7852,345.625 51.5664,345.3711 Q52.0156,345.2344 52.5234,344.7852 Q52.8555,344.5313 53.0313,344.4531 Q53.207,344.375 53.4219,344.375 Q53.832,344.375 54.125,344.707 Q54.4375,345.0195 54.4375,345.4688 Q54.4375,345.8984 54.0078,346.4063 Q53.3828,347.1484 52.3867,347.5586 Q51.0781,348.125 49.4766,348.125 Q47.6016,348.125 46.0977,347.3828 Q44.8867,346.7969 44.0273,345.5273 Q43.1875,344.2578 43.1875,342.7539 L43.1875,341.3867 Q43.1875,339.8242 43.9297,338.457 Q44.6914,337.0898 46,336.3672 Q47.3281,335.625 48.8125,335.625 Q49.7109,335.625 50.4922,335.9375 Q51.2734,336.25 51.9375,336.875 Z " fill="#000000"/><text fill="#000000" font-family="sans-serif" font-size="15" lengthAdjust="spacing" textLength="77.5" x="71.8125" y="347.3877">TypeOfTest</text><line style="stroke:#A80036;stroke-width:1.875;" x1="10" x2="173.75" y1="361.25" y2="361.25"/><text fill="#000000" font-family="sans-serif" font-size="13.75" lengthAdjust="spacing" textLength="73.75" x="16.25" y="380.5237">-String code</text><text fill="#000000" font-family="sans-serif" font-size="13.75" lengthAdjust="spacing" textLength="110" x="16.25" y="397.8186">-String description</text><text fill="#000000" font-family="sans-serif" font-size="13.75" lengthAdjust="spacing" textLength="151.25" x="16.25" y="415.1135">-String collectingMethods</text><text fill="#000000" font-family="sans-serif" font-size="13.75" lengthAdjust="spacing" textLength="125" x="16.25" y="432.4084">-String parameterCat</text><!--MD5=[a96594a83e2ecdc78cbf17c2ddf01934]
class Category--><rect codeLine="20" fill="#FEFECE" filter="url(#f7anw75q0yic7)" height="84.5898" id="Category" style="stroke:#A80036;stroke-width:1.875;" width="101.25" x="212.5" y="537.5"/><ellipse cx="231.25" cy="557.5" fill="#ADD1B2" rx="13.75" ry="13.75" style="stroke:#A80036;stroke-width:1.25;"/><path d="M233.75,553.125 Q234.0039,552.5 234.2969,552.1875 Q234.5898,551.875 234.9219,551.875 Q235.5078,551.875 235.8789,552.2266 Q236.25,552.5781 236.25,553.3984 L236.25,555.3516 Q236.25,556.1719 235.8984,556.5234 Q235.5469,556.875 235,556.875 Q234.5117,556.875 234.1992,556.6602 Q233.8867,556.4453 233.75,555.8789 Q233.6914,555.4883 233.4766,555.2734 Q233.0859,554.8633 232.3828,554.6289 Q231.6797,554.375 230.9766,554.375 Q230.0977,554.375 229.3555,554.7266 Q228.6328,555.0781 228.0664,555.8594 Q227.5,556.6406 227.5,557.7148 L227.5,558.8672 Q227.5,560.1563 228.5547,561.0156 Q229.6094,561.875 231.4844,561.875 Q232.5977,561.875 233.3789,561.6211 Q233.8281,561.4844 234.3359,561.0352 Q234.668,560.7813 234.8438,560.7031 Q235.0195,560.625 235.2344,560.625 Q235.6445,560.625 235.9375,560.957 Q236.25,561.2695 236.25,561.7188 Q236.25,562.1484 235.8203,562.6563 Q235.1953,563.3984 234.1992,563.8086 Q232.8906,564.375 231.2891,564.375 Q229.4141,564.375 227.9102,563.6328 Q226.6992,563.0469 225.8398,561.7773 Q225,560.5078 225,559.0039 L225,557.6367 Q225,556.0742 225.7422,554.707 Q226.5039,553.3398 227.8125,552.6172 Q229.1406,551.875 230.625,551.875 Q231.5234,551.875 232.3047,552.1875 Q233.0859,552.5 233.75,553.125 Z " fill="#000000"/><text fill="#000000" font-family="sans-serif" font-size="15" lengthAdjust="spacing" textLength="61.25" x="248.75" y="563.6377">Category</text><line style="stroke:#A80036;stroke-width:1.875;" x1="213.75" x2="312.5" y1="577.5" y2="577.5"/><text fill="#000000" font-family="sans-serif" font-size="13.75" lengthAdjust="spacing" textLength="75" x="220" y="596.7737">-string name</text><text fill="#000000" font-family="sans-serif" font-size="13.75" lengthAdjust="spacing" textLength="52.5" x="220" y="614.0686">-int code</text><!--MD5=[1f6362a5c8f21d8d6a0fce68f3a92a4e]
class Parameter--><rect codeLine="25" fill="#FEFECE" filter="url(#f7anw75q0yic7)" height="67.2949" id="Parameter" style="stroke:#A80036;stroke-width:1.875;" width="123.75" x="266.25" y="720"/><ellipse cx="290.0625" cy="740" fill="#ADD1B2" rx="13.75" ry="13.75" style="stroke:#A80036;stroke-width:1.25;"/><path d="M292.5625,735.625 Q292.8164,735 293.1094,734.6875 Q293.4023,734.375 293.7344,734.375 Q294.3203,734.375 294.6914,734.7266 Q295.0625,735.0781 295.0625,735.8984 L295.0625,737.8516 Q295.0625,738.6719 294.7109,739.0234 Q294.3594,739.375 293.8125,739.375 Q293.3242,739.375 293.0117,739.1602 Q292.6992,738.9453 292.5625,738.3789 Q292.5039,737.9883 292.2891,737.7734 Q291.8984,737.3633 291.1953,737.1289 Q290.4922,736.875 289.7891,736.875 Q288.9102,736.875 288.168,737.2266 Q287.4453,737.5781 286.8789,738.3594 Q286.3125,739.1406 286.3125,740.2148 L286.3125,741.3672 Q286.3125,742.6563 287.3672,743.5156 Q288.4219,744.375 290.2969,744.375 Q291.4102,744.375 292.1914,744.1211 Q292.6406,743.9844 293.1484,743.5352 Q293.4805,743.2813 293.6563,743.2031 Q293.832,743.125 294.0469,743.125 Q294.457,743.125 294.75,743.457 Q295.0625,743.7695 295.0625,744.2188 Q295.0625,744.6484 294.6328,745.1563 Q294.0078,745.8984 293.0117,746.3086 Q291.7031,746.875 290.1016,746.875 Q288.2266,746.875 286.7227,746.1328 Q285.5117,745.5469 284.6523,744.2773 Q283.8125,743.0078 283.8125,741.5039 L283.8125,740.1367 Q283.8125,738.5742 284.5547,737.207 Q285.3164,735.8398 286.625,735.1172 Q287.9531,734.375 289.4375,734.375 Q290.3359,734.375 291.1172,734.6875 Q291.8984,735 292.5625,735.625 Z " fill="#000000"/><text fill="#000000" font-family="sans-serif" font-size="15" lengthAdjust="spacing" textLength="72.5" x="308.6875" y="746.1377">Parameter</text><line style="stroke:#A80036;stroke-width:1.875;" x1="267.5" x2="388.75" y1="760" y2="760"/><text fill="#000000" font-family="sans-serif" font-size="13.75" lengthAdjust="spacing" textLength="108.75" x="273.75" y="779.2737">-string description</text><!--MD5=[f1c2b2c569abc5f56c317b9d8f3fddee]
link Company to Admin--><path codeLine="29" d="M263.125,76.3625 C263.125,105.45 263.125,147.3625 263.125,173.4875 " fill="none" id="Company-Admin" style="stroke:#A80036;stroke-width:1.25;"/><polygon fill="#000000" points="269.375,131.4697,273.0487,120.1634,265.7013,120.1634,269.375,131.4697" style="stroke:#000000;stroke-width:1.25;"/><text fill="#000000" font-family="sans-serif" font-size="16.25" lengthAdjust="spacing" textLength="26.25" x="280.625" y="131.8689">has</text><text fill="#000000" font-family="sans-serif" font-size="16.25" lengthAdjust="spacing" textLength="8.75" x="253.418" y="102.8968">1</text><text fill="#000000" font-family="sans-serif" font-size="16.25" lengthAdjust="spacing" textLength="6.25" x="255.957" y="160.0626">*</text><!--MD5=[00132b83b0561ffb36085aadf1cf93dd]
link Admin to TypeOfTest--><path codeLine="30" d="M220.7375,218.2 C200.0625,228.6 175.875,243.1875 158.125,261.25 C141.3125,278.35 127.375,300.575 116.7,321.125 " fill="none" id="Admin-TypeOfTest" style="stroke:#A80036;stroke-width:1.25;"/><polygon fill="#000000" points="159.9319,277.1153,170.5532,271.7752,165.3859,266.552,159.9319,277.1153" style="stroke:#000000;stroke-width:1.25;"/><text fill="#000000" font-family="sans-serif" font-size="16.25" lengthAdjust="spacing" textLength="53.75" x="175.625" y="279.3689">creates</text><text fill="#000000" font-family="sans-serif" font-size="16.25" lengthAdjust="spacing" textLength="25" x="186.3037" y="216.7309">1..*</text><text fill="#000000" font-family="sans-serif" font-size="16.25" lengthAdjust="spacing" textLength="8.75" x="110.9536" y="307.7868">1</text><!--MD5=[9e2b536d5f14dafa66c4d5113ebdcad2]
link Category to Parameter--><path codeLine="31" d="M278.8625,622.7 C290.2125,652.6 305.3125,692.3875 315.7875,719.9875 " fill="none" id="Category-Parameter" style="stroke:#A80036;stroke-width:1.25;"/><polygon fill="#000000" points="309.0928,677.313,308.5154,665.4388,301.6462,668.046,309.0928,677.313" style="stroke:#000000;stroke-width:1.25;"/><text fill="#000000" font-family="sans-serif" font-size="16.25" lengthAdjust="spacing" textLength="26.25" x="318.125" y="678.1189">has</text><text fill="#000000" font-family="sans-serif" font-size="16.25" lengthAdjust="spacing" textLength="8.75" x="272.1364" y="649.0318">1</text><text fill="#000000" font-family="sans-serif" font-size="16.25" lengthAdjust="spacing" textLength="6.25" x="305.7685" y="706.2678">*</text><!--MD5=[9615660958ebc589219e60eb32c528b7]
link TypeOfTest to Category--><path codeLine="32" d="M136.45,440.5625 C151.625,459.85 168.975,481.175 185.625,500 C196.675,512.5 209.175,525.6 220.85,537.45 " fill="none" id="TypeOfTest-Category" style="stroke:#A80036;stroke-width:1.25;"/><polygon fill="#000000" points="195.9803,493.6824,191.3238,482.7441,185.7837,487.5701,195.9803,493.6824" style="stroke:#000000;stroke-width:1.25;"/><text fill="#000000" font-family="sans-serif" font-size="16.25" lengthAdjust="spacing" textLength="26.25" x="203.125" y="495.6189">has</text><text fill="#000000" font-family="sans-serif" font-size="16.25" lengthAdjust="spacing" textLength="6.25" x="136.0289" y="467.267">*</text><text fill="#000000" font-family="sans-serif" font-size="16.25" lengthAdjust="spacing" textLength="6.25" x="205.6619" y="524.0567">*</text><!--MD5=[e1afea9e4efa714420cae843e9ccbf3c]
link Admin to Parameter--><path codeLine="33" d="M282.5375,223.8 C300.275,247.075 325.4125,284.3 336.875,321.25 C381.5625,465.2625 351.4625,509.275 355.625,660 C355.9,670 357.4875,672.675 355.625,682.5 C353.25,695.075 348.65,708.275 343.9,719.7875 " fill="none" id="Admin-Parameter" style="stroke:#A80036;stroke-width:1.25;"/><polygon fill="#000000" points="367.6424,495.1724,369.9,483.5006,362.6083,484.4027,367.6424,495.1724" style="stroke:#000000;stroke-width:1.25;"/><text fill="#000000" font-family="sans-serif" font-size="16.25" lengthAdjust="spacing" textLength="63.75" x="378.125" y="495.6189">specifies</text><text fill="#000000" font-family="sans-serif" font-size="16.25" lengthAdjust="spacing" textLength="8.75" x="278.0168" y="250.5885">1</text><text fill="#000000" font-family="sans-serif" font-size="16.25" lengthAdjust="spacing" textLength="6.25" x="340.5753" y="706.5646">*</text><!--MD5=[e1157d990c71223888f6eba0861fc13e]
link Admin to Category--><path codeLine="34" d="M263.125,224.2625 C263.125,287.45 263.125,457.65 263.125,536.975 " fill="none" id="Admin-Category" style="stroke:#A80036;stroke-width:1.25;"/><polygon fill="#000000" points="269.375,387.0947,273.0487,375.7884,265.7013,375.7884,269.375,387.0947" style="stroke:#000000;stroke-width:1.25;"/><text fill="#000000" font-family="sans-serif" font-size="16.25" lengthAdjust="spacing" textLength="45" x="280.625" y="387.4939">create</text><text fill="#000000" font-family="sans-serif" font-size="16.25" lengthAdjust="spacing" textLength="8.75" x="253.1992" y="250.7344">1</text><text fill="#000000" font-family="sans-serif" font-size="16.25" lengthAdjust="spacing" textLength="6.25" x="256.2793" y="523.817">*</text><!--MD5=[79fefe9ed4503b4c9ccb67778c37b511]
@startuml

skinparam classAttributeIconSize 0
hide methods


class Company{
-String designation
}

Class Admin{
}

class TypeOfTest{
-String code
-String description
-String collectingMethods
-String parameterCat
}

class Category{
- string name
- int code
}

class Parameter{
- string description
}

Company "1" - - "*" Admin : has >
Admin "1..*" - - "1" TypeOfTest : creates >
Category "1" - - "*" Parameter : has >
TypeOfTest "*" - - "*" Category : has >
Admin "1" - - "*" Parameter : specifies >
Admin "1" - - "*" Category : create >

@enduml

PlantUML version 1.2021.5(Sun Apr 25 12:20:28 BST 2021)
(GPL source distribution)
Java Runtime: OpenJDK Runtime Environment
JVM: OpenJDK 64-Bit Server VM
Default Encoding: Cp1252
Language: pt
Country: PT
--></g></svg>