<?xml version="1.0" encoding="UTF-8" standalone="no"?><svg xmlns="http://www.w3.org/2000/svg" xmlns:xlink="http://www.w3.org/1999/xlink" contentScriptType="application/ecmascript" contentStyleType="text/css" height="982.24px" preserveAspectRatio="none" style="width:1008px;height:982px;background:#FFFFFF;" version="1.1" viewBox="0 0 1008 982" width="1008px" zoomAndPan="magnify"><defs><filter height="300%" id="fibcs2rycuvp7" width="300%" x="-1" y="-1"><feGaussianBlur result="blurOut" stdDeviation="2.24"/><feColorMatrix in="blurOut" result="blurOut2" type="matrix" values="0 0 0 0 0 0 0 0 0 0 0 0 0 0 0 0 0 0 .4 0"/><feOffset dx="4.48" dy="4.48" in="blurOut2" result="blurOut3"/><feBlend in="SourceGraphic" in2="blurOut3" mode="normal"/></filter></defs><g><!--MD5=[54a2985738830ffb7f2648786acba9db]
class ReportNHSUI--><rect codeLine="4" fill="#FEFECE" filter="url(#fibcs2rycuvp7)" height="53.76" id="ReportNHSUI" style="stroke:#A80036;stroke-width:1.6800000000000002;" width="119.84" x="307.44" y="7.84"/><ellipse cx="324.24" cy="25.76" fill="#ADD1B2" rx="12.32" ry="12.32" style="stroke:#A80036;stroke-width:1.12;"/><path d="M326.48,21.84 Q326.7075,21.28 326.97,21 Q327.2325,20.72 327.53,20.72 Q328.055,20.72 328.3875,21.035 Q328.72,21.35 328.72,22.085 L328.72,23.835 Q328.72,24.57 328.405,24.885 Q328.09,25.2 327.6,25.2 Q327.1625,25.2 326.8825,25.0075 Q326.6025,24.815 326.48,24.3075 Q326.4275,23.9575 326.235,23.765 Q325.885,23.3975 325.255,23.1875 Q324.625,22.96 323.995,22.96 Q323.2075,22.96 322.5425,23.275 Q321.895,23.59 321.3875,24.29 Q320.88,24.99 320.88,25.9525 L320.88,26.985 Q320.88,28.14 321.825,28.91 Q322.77,29.68 324.45,29.68 Q325.4475,29.68 326.1475,29.4525 Q326.55,29.33 327.005,28.9275 Q327.3025,28.7 327.46,28.63 Q327.6175,28.56 327.81,28.56 Q328.1775,28.56 328.44,28.8575 Q328.72,29.1375 328.72,29.54 Q328.72,29.925 328.335,30.38 Q327.775,31.045 326.8825,31.4125 Q325.71,31.92 324.275,31.92 Q322.595,31.92 321.2475,31.255 Q320.1625,30.73 319.3925,29.5925 Q318.64,28.455 318.64,27.1075 L318.64,25.8825 Q318.64,24.4825 319.305,23.2575 Q319.9875,22.0325 321.16,21.385 Q322.35,20.72 323.68,20.72 Q324.485,20.72 325.185,21 Q325.885,21.28 326.48,21.84 Z " fill="#000000"/><text fill="#000000" font-family="sans-serif" font-size="13.44" lengthAdjust="spacing" textLength="84" x="339.92" y="31.2594">ReportNHSUI</text><line style="stroke:#A80036;stroke-width:1.6800000000000002;" x1="308.56" x2="426.16" y1="43.68" y2="43.68"/><line style="stroke:#A80036;stroke-width:1.6800000000000002;" x1="308.56" x2="426.16" y1="52.64" y2="52.64"/><!--MD5=[3d232e465b7621eaf7a48cbf94d248ab]
class ReportNHSController--><rect codeLine="7" fill="#FEFECE" filter="url(#fibcs2rycuvp7)" height="146.7375" id="ReportNHSController" style="stroke:#A80036;stroke-width:1.6800000000000002;" width="397.6" x="168.56" y="128.8"/><ellipse cx="297.08" cy="146.72" fill="#ADD1B2" rx="12.32" ry="12.32" style="stroke:#A80036;stroke-width:1.12;"/><path d="M299.32,142.8 Q299.5475,142.24 299.81,141.96 Q300.0725,141.68 300.37,141.68 Q300.895,141.68 301.2275,141.995 Q301.56,142.31 301.56,143.045 L301.56,144.795 Q301.56,145.53 301.245,145.845 Q300.93,146.16 300.44,146.16 Q300.0025,146.16 299.7225,145.9675 Q299.4425,145.775 299.32,145.2675 Q299.2675,144.9175 299.075,144.725 Q298.725,144.3575 298.095,144.1475 Q297.465,143.92 296.835,143.92 Q296.0475,143.92 295.3825,144.235 Q294.735,144.55 294.2275,145.25 Q293.72,145.95 293.72,146.9125 L293.72,147.945 Q293.72,149.1 294.665,149.87 Q295.61,150.64 297.29,150.64 Q298.2875,150.64 298.9875,150.4125 Q299.39,150.29 299.845,149.8875 Q300.1425,149.66 300.3,149.59 Q300.4575,149.52 300.65,149.52 Q301.0175,149.52 301.28,149.8175 Q301.56,150.0975 301.56,150.5 Q301.56,150.885 301.175,151.34 Q300.615,152.005 299.7225,152.3725 Q298.55,152.88 297.115,152.88 Q295.435,152.88 294.0875,152.215 Q293.0025,151.69 292.2325,150.5525 Q291.48,149.415 291.48,148.0675 L291.48,146.8425 Q291.48,145.4425 292.145,144.2175 Q292.8275,142.9925 294,142.345 Q295.19,141.68 296.52,141.68 Q297.325,141.68 298.025,141.96 Q298.725,142.24 299.32,142.8 Z " fill="#000000"/><text fill="#000000" font-family="sans-serif" font-size="13.44" lengthAdjust="spacing" textLength="131.04" x="320.04" y="152.2194">ReportNHSController</text><line style="stroke:#A80036;stroke-width:1.6800000000000002;" x1="169.68" x2="565.04" y1="164.64" y2="164.64"/><line style="stroke:#A80036;stroke-width:1.6800000000000002;" x1="169.68" x2="565.04" y1="173.6" y2="173.6"/><text fill="#000000" font-family="sans-serif" font-size="12.32" lengthAdjust="spacing" textLength="85.12" x="175.28" y="190.8692">+getTestStore()</text><text fill="#000000" font-family="sans-serif" font-size="12.32" lengthAdjust="spacing" textLength="90.72" x="175.28" y="206.3655">+getClientStore()</text><text fill="#000000" font-family="sans-serif" font-size="12.32" lengthAdjust="spacing" textLength="358.4" x="175.28" y="221.8617">+linearRegression(int historicalPoints,String dataIni, String dataFim)</text><text fill="#000000" font-family="sans-serif" font-size="12.32" lengthAdjust="spacing" textLength="384.16" x="175.28" y="237.358">+MultLinearRegression(int historicalPoints,String dataIni, String dataFim)</text><text fill="#000000" font-family="sans-serif" font-size="12.32" lengthAdjust="spacing" textLength="97.44" x="175.28" y="252.8542">+getPositiveTest()</text><text fill="#000000" font-family="sans-serif" font-size="12.32" lengthAdjust="spacing" textLength="72.8" x="175.28" y="268.3505">+getTestDia()</text><!--MD5=[ef340af6512c03d5eeac92509be9c66b]
class LinearRegression--><rect codeLine="16" fill="#FEFECE" filter="url(#fibcs2rycuvp7)" height="472.1588" id="LinearRegression" style="stroke:#A80036;stroke-width:1.6800000000000002;" width="188.16" x="7.84" y="342.72"/><ellipse cx="42.784" cy="360.64" fill="#ADD1B2" rx="12.32" ry="12.32" style="stroke:#A80036;stroke-width:1.12;"/><path d="M45.024,356.72 Q45.2515,356.16 45.514,355.88 Q45.7765,355.6 46.074,355.6 Q46.599,355.6 46.9315,355.915 Q47.264,356.23 47.264,356.965 L47.264,358.715 Q47.264,359.45 46.949,359.765 Q46.634,360.08 46.144,360.08 Q45.7065,360.08 45.4265,359.8875 Q45.1465,359.695 45.024,359.1875 Q44.9715,358.8375 44.779,358.645 Q44.429,358.2775 43.799,358.0675 Q43.169,357.84 42.539,357.84 Q41.7515,357.84 41.0865,358.155 Q40.439,358.47 39.9315,359.17 Q39.424,359.87 39.424,360.8325 L39.424,361.865 Q39.424,363.02 40.369,363.79 Q41.314,364.56 42.994,364.56 Q43.9915,364.56 44.6915,364.3325 Q45.094,364.21 45.549,363.8075 Q45.8465,363.58 46.004,363.51 Q46.1615,363.44 46.354,363.44 Q46.7215,363.44 46.984,363.7375 Q47.264,364.0175 47.264,364.42 Q47.264,364.805 46.879,365.26 Q46.319,365.925 45.4265,366.2925 Q44.254,366.8 42.819,366.8 Q41.139,366.8 39.7915,366.135 Q38.7065,365.61 37.9365,364.4725 Q37.184,363.335 37.184,361.9875 L37.184,360.7625 Q37.184,359.3625 37.849,358.1375 Q38.5315,356.9125 39.704,356.265 Q40.894,355.6 42.224,355.6 Q43.029,355.6 43.729,355.88 Q44.429,356.16 45.024,356.72 Z " fill="#000000"/><text fill="#000000" font-family="sans-serif" font-size="13.44" lengthAdjust="spacing" textLength="112" x="62.496" y="366.1394">LinearRegression</text><line style="stroke:#A80036;stroke-width:1.6800000000000002;" x1="8.96" x2="194.88" y1="378.56" y2="378.56"/><line style="stroke:#A80036;stroke-width:1.6800000000000002;" x1="8.96" x2="194.88" y1="387.52" y2="387.52"/><text fill="#000000" font-family="sans-serif" font-size="12.32" lengthAdjust="spacing" textLength="62.72" x="14.56" y="404.7892">+intercept()</text><text fill="#000000" font-family="sans-serif" font-size="12.32" lengthAdjust="spacing" textLength="44.8" x="14.56" y="420.2855">+slope()</text><text fill="#000000" font-family="sans-serif" font-size="12.32" lengthAdjust="spacing" textLength="30.24" x="14.56" y="435.7817">+R2()</text><text fill="#000000" font-family="sans-serif" font-size="12.32" lengthAdjust="spacing" textLength="96.32" x="14.56" y="451.278">+interceptStdErr()</text><text fill="#000000" font-family="sans-serif" font-size="12.32" lengthAdjust="spacing" textLength="78.4" x="14.56" y="466.7742">+slopeStdErr()</text><text fill="#000000" font-family="sans-serif" font-size="12.32" lengthAdjust="spacing" textLength="98.56" x="14.56" y="482.2705">+predict(double x)</text><text fill="#000000" font-family="sans-serif" font-size="12.32" lengthAdjust="spacing" textLength="57.12" x="14.56" y="497.7667">+toString()</text><text fill="#000000" font-family="sans-serif" font-size="12.32" lengthAdjust="spacing" textLength="40.32" x="14.56" y="513.263">+getX()</text><text fill="#000000" font-family="sans-serif" font-size="12.32" lengthAdjust="spacing" textLength="41.44" x="14.56" y="528.7592">+getY()</text><text fill="#000000" font-family="sans-serif" font-size="12.32" lengthAdjust="spacing" textLength="53.76" x="14.56" y="544.2555">+getSxy()</text><text fill="#000000" font-family="sans-serif" font-size="12.32" lengthAdjust="spacing" textLength="53.76" x="14.56" y="559.7517">+getSxx()</text><text fill="#000000" font-family="sans-serif" font-size="12.32" lengthAdjust="spacing" textLength="53.76" x="14.56" y="575.248">+getSyy()</text><text fill="#000000" font-family="sans-serif" font-size="12.32" lengthAdjust="spacing" textLength="64.96" x="14.56" y="590.7442">+getSvar1()</text><text fill="#000000" font-family="sans-serif" font-size="12.32" lengthAdjust="spacing" textLength="64.96" x="14.56" y="606.2405">+getSvar0()</text><text fill="#000000" font-family="sans-serif" font-size="12.32" lengthAdjust="spacing" textLength="94.08" x="14.56" y="621.7367">+getMqResidual()</text><text fill="#000000" font-family="sans-serif" font-size="12.32" lengthAdjust="spacing" textLength="101.92" x="14.56" y="637.233">+getSqRegresion()</text><text fill="#000000" font-family="sans-serif" font-size="12.32" lengthAdjust="spacing" textLength="92.96" x="14.56" y="652.7292">+getSqResidual()</text><text fill="#000000" font-family="sans-serif" font-size="12.32" lengthAdjust="spacing" textLength="72.8" x="14.56" y="668.2255">+getSqTotal()</text><text fill="#000000" font-family="sans-serif" font-size="12.32" lengthAdjust="spacing" textLength="52.64" x="14.56" y="683.7217">+getMsr()</text><text fill="#000000" font-family="sans-serif" font-size="12.32" lengthAdjust="spacing" textLength="54.88" x="14.56" y="699.218">+getMse()</text><text fill="#000000" font-family="sans-serif" font-size="12.32" lengthAdjust="spacing" textLength="82.88" x="14.56" y="714.7142">+getEstatTest()</text><text fill="#000000" font-family="sans-serif" font-size="12.32" lengthAdjust="spacing" textLength="40.32" x="14.56" y="730.2105">+getR()</text><text fill="#000000" font-family="sans-serif" font-size="12.32" lengthAdjust="spacing" textLength="174.72" x="14.56" y="745.7067">+getTTabela(int gl, double alpha)</text><text fill="#000000" font-family="sans-serif" font-size="12.32" lengthAdjust="spacing" textLength="117.6" x="14.56" y="761.203">+getTCalculatedOfA()</text><text fill="#000000" font-family="sans-serif" font-size="12.32" lengthAdjust="spacing" textLength="116.48" x="14.56" y="776.6992">+getTCalculatedOfB()</text><text fill="#000000" font-family="sans-serif" font-size="12.32" lengthAdjust="spacing" textLength="71.68" x="14.56" y="792.1955">+calculateS()</text><text fill="#000000" font-family="sans-serif" font-size="12.32" lengthAdjust="spacing" textLength="112" x="14.56" y="807.6917">+intervaloComf(int x)</text><!--MD5=[0f6f7964b844a64b0496af0dda7914bd]
class TestStore--><rect codeLine="46" fill="#FEFECE" filter="url(#fibcs2rycuvp7)" height="69.2563" id="TestStore" style="stroke:#A80036;stroke-width:1.6800000000000002;" width="258.72" x="182" y="890.4"/><ellipse cx="276.92" cy="908.32" fill="#ADD1B2" rx="12.32" ry="12.32" style="stroke:#A80036;stroke-width:1.12;"/><path d="M279.16,904.4 Q279.3875,903.84 279.65,903.56 Q279.9125,903.28 280.21,903.28 Q280.735,903.28 281.0675,903.595 Q281.4,903.91 281.4,904.645 L281.4,906.395 Q281.4,907.13 281.085,907.445 Q280.77,907.76 280.28,907.76 Q279.8425,907.76 279.5625,907.5675 Q279.2825,907.375 279.16,906.8675 Q279.1075,906.5175 278.915,906.325 Q278.565,905.9575 277.935,905.7475 Q277.305,905.52 276.675,905.52 Q275.8875,905.52 275.2225,905.835 Q274.575,906.15 274.0675,906.85 Q273.56,907.55 273.56,908.5125 L273.56,909.545 Q273.56,910.7 274.505,911.47 Q275.45,912.24 277.13,912.24 Q278.1275,912.24 278.8275,912.0125 Q279.23,911.89 279.685,911.4875 Q279.9825,911.26 280.14,911.19 Q280.2975,911.12 280.49,911.12 Q280.8575,911.12 281.12,911.4175 Q281.4,911.6975 281.4,912.1 Q281.4,912.485 281.015,912.94 Q280.455,913.605 279.5625,913.9725 Q278.39,914.48 276.955,914.48 Q275.275,914.48 273.9275,913.815 Q272.8425,913.29 272.0725,912.1525 Q271.32,911.015 271.32,909.6675 L271.32,908.4425 Q271.32,907.0425 271.985,905.8175 Q272.6675,904.5925 273.84,903.945 Q275.03,903.28 276.36,903.28 Q277.165,903.28 277.865,903.56 Q278.565,903.84 279.16,904.4 Z " fill="#000000"/><text fill="#000000" font-family="sans-serif" font-size="13.44" lengthAdjust="spacing" textLength="59.36" x="299.88" y="913.8194">TestStore</text><line style="stroke:#A80036;stroke-width:1.6800000000000002;" x1="183.12" x2="439.6" y1="926.24" y2="926.24"/><line style="stroke:#A80036;stroke-width:1.6800000000000002;" x1="183.12" x2="439.6" y1="935.2" y2="935.2"/><text fill="#000000" font-family="sans-serif" font-size="12.32" lengthAdjust="spacing" textLength="245.28" x="188.72" y="952.4692">+getTestbyInterval(String data1, String data2)</text><!--MD5=[55cb992be19579b505cea3c5691093cb]
class ClientStore--><rect codeLine="50" fill="#FEFECE" filter="url(#fibcs2rycuvp7)" height="84.7525" id="ClientStore" style="stroke:#A80036;stroke-width:1.6800000000000002;" width="185.92" x="649.6" y="882.56"/><ellipse cx="703.64" cy="900.48" fill="#ADD1B2" rx="12.32" ry="12.32" style="stroke:#A80036;stroke-width:1.12;"/><path d="M705.88,896.56 Q706.1075,896 706.37,895.72 Q706.6325,895.44 706.93,895.44 Q707.455,895.44 707.7875,895.755 Q708.12,896.07 708.12,896.805 L708.12,898.555 Q708.12,899.29 707.805,899.605 Q707.49,899.92 707,899.92 Q706.5625,899.92 706.2825,899.7275 Q706.0025,899.535 705.88,899.0275 Q705.8275,898.6775 705.635,898.485 Q705.285,898.1175 704.655,897.9075 Q704.025,897.68 703.395,897.68 Q702.6075,897.68 701.9425,897.995 Q701.295,898.31 700.7875,899.01 Q700.28,899.71 700.28,900.6725 L700.28,901.705 Q700.28,902.86 701.225,903.63 Q702.17,904.4 703.85,904.4 Q704.8475,904.4 705.5475,904.1725 Q705.95,904.05 706.405,903.6475 Q706.7025,903.42 706.86,903.35 Q707.0175,903.28 707.21,903.28 Q707.5775,903.28 707.84,903.5775 Q708.12,903.8575 708.12,904.26 Q708.12,904.645 707.735,905.1 Q707.175,905.765 706.2825,906.1325 Q705.11,906.64 703.675,906.64 Q701.995,906.64 700.6475,905.975 Q699.5625,905.45 698.7925,904.3125 Q698.04,903.175 698.04,901.8275 L698.04,900.6025 Q698.04,899.2025 698.705,897.9775 Q699.3875,896.7525 700.56,896.105 Q701.75,895.44 703.08,895.44 Q703.885,895.44 704.585,895.72 Q705.285,896 705.88,896.56 Z " fill="#000000"/><text fill="#000000" font-family="sans-serif" font-size="13.44" lengthAdjust="spacing" textLength="68.32" x="726.6" y="905.9794">ClientStore</text><line style="stroke:#A80036;stroke-width:1.6800000000000002;" x1="650.72" x2="834.4" y1="918.4" y2="918.4"/><line style="stroke:#A80036;stroke-width:1.6800000000000002;" x1="650.72" x2="834.4" y1="927.36" y2="927.36"/><text fill="#000000" font-family="sans-serif" font-size="12.32" lengthAdjust="spacing" textLength="119.84" x="656.32" y="944.6292">+getIdade(String data)</text><text fill="#000000" font-family="sans-serif" font-size="12.32" lengthAdjust="spacing" textLength="172.48" x="656.32" y="960.1255">+getMediaIdades(String[] tinList)</text><!--MD5=[842aeb7b0194ed35319589902e598c6c]
class MultilinearRegression--><rect codeLine="55" fill="#FEFECE" filter="url(#fibcs2rycuvp7)" height="394.6775" id="MultilinearRegression" style="stroke:#A80036;stroke-width:1.6800000000000002;" width="394.24" x="459.2" y="381.92"/><ellipse cx="583.8" cy="399.84" fill="#ADD1B2" rx="12.32" ry="12.32" style="stroke:#A80036;stroke-width:1.12;"/><path d="M586.04,395.92 Q586.2675,395.36 586.53,395.08 Q586.7925,394.8 587.09,394.8 Q587.615,394.8 587.9475,395.115 Q588.28,395.43 588.28,396.165 L588.28,397.915 Q588.28,398.65 587.965,398.965 Q587.65,399.28 587.16,399.28 Q586.7225,399.28 586.4425,399.0875 Q586.1625,398.895 586.04,398.3875 Q585.9875,398.0375 585.795,397.845 Q585.445,397.4775 584.815,397.2675 Q584.185,397.04 583.555,397.04 Q582.7675,397.04 582.1025,397.355 Q581.455,397.67 580.9475,398.37 Q580.44,399.07 580.44,400.0325 L580.44,401.065 Q580.44,402.22 581.385,402.99 Q582.33,403.76 584.01,403.76 Q585.0075,403.76 585.7075,403.5325 Q586.11,403.41 586.565,403.0075 Q586.8625,402.78 587.02,402.71 Q587.1775,402.64 587.37,402.64 Q587.7375,402.64 588,402.9375 Q588.28,403.2175 588.28,403.62 Q588.28,404.005 587.895,404.46 Q587.335,405.125 586.4425,405.4925 Q585.27,406 583.835,406 Q582.155,406 580.8075,405.335 Q579.7225,404.81 578.9525,403.6725 Q578.2,402.535 578.2,401.1875 L578.2,399.9625 Q578.2,398.5625 578.865,397.3375 Q579.5475,396.1125 580.72,395.465 Q581.91,394.8 583.24,394.8 Q584.045,394.8 584.745,395.08 Q585.445,395.36 586.04,395.92 Z " fill="#000000"/><text fill="#000000" font-family="sans-serif" font-size="13.44" lengthAdjust="spacing" textLength="135.52" x="606.76" y="405.3394">MultilinearRegression</text><line style="stroke:#A80036;stroke-width:1.6800000000000002;" x1="460.32" x2="852.32" y1="417.76" y2="417.76"/><line style="stroke:#A80036;stroke-width:1.6800000000000002;" x1="460.32" x2="852.32" y1="426.72" y2="426.72"/><text fill="#000000" font-family="sans-serif" font-size="12.32" lengthAdjust="spacing" textLength="173.6" x="465.92" y="443.9892">+OLSMultipleLinearRegression()</text><text fill="#000000" font-family="sans-serif" font-size="12.32" lengthAdjust="spacing" textLength="222.88" x="465.92" y="459.4855">+newSampleData(double[] y, double[][] x)</text><text fill="#000000" font-family="sans-serif" font-size="12.32" lengthAdjust="spacing" textLength="81.76" x="465.92" y="474.9817">+calculateHat()</text><text fill="#000000" font-family="sans-serif" font-size="12.32" lengthAdjust="spacing" textLength="172.48" x="465.92" y="490.478">+calculateTotalSumOfSquares()</text><text fill="#000000" font-family="sans-serif" font-size="12.32" lengthAdjust="spacing" textLength="192.64" x="465.92" y="505.9742">+calculateResidualSumOfSquares()</text><text fill="#000000" font-family="sans-serif" font-size="12.32" lengthAdjust="spacing" textLength="117.6" x="465.92" y="521.4705">+calculateRSquared()</text><text fill="#000000" font-family="sans-serif" font-size="12.32" lengthAdjust="spacing" textLength="165.76" x="465.92" y="536.9667">+calculateAdjustedRSquared()</text><text fill="#000000" font-family="sans-serif" font-size="12.32" lengthAdjust="spacing" textLength="171.36" x="465.92" y="552.463">+newXSampleData(double[][] x)</text><text fill="#000000" font-family="sans-serif" font-size="12.32" lengthAdjust="spacing" textLength="88.48" x="465.92" y="567.9592">+calculateBeta()</text><text fill="#000000" font-family="sans-serif" font-size="12.32" lengthAdjust="spacing" textLength="137.76" x="465.92" y="583.4555">+calculateBetaVariance()</text><text fill="#000000" font-family="sans-serif" font-size="12.32" lengthAdjust="spacing" textLength="208.32" x="465.92" y="598.9517">+calculateRegressionSumOfSquares()</text><text fill="#000000" font-family="sans-serif" font-size="12.32" lengthAdjust="spacing" textLength="101.92" x="465.92" y="614.448">+calculateDfTotal()</text><text fill="#000000" font-family="sans-serif" font-size="12.32" lengthAdjust="spacing" textLength="137.76" x="465.92" y="629.9442">+calculateDfRegression()</text><text fill="#000000" font-family="sans-serif" font-size="12.32" lengthAdjust="spacing" textLength="122.08" x="465.92" y="645.4405">+calculateDfResidual()</text><text fill="#000000" font-family="sans-serif" font-size="12.32" lengthAdjust="spacing" textLength="141.12" x="465.92" y="660.9367">+calculateMsRegression()</text><text fill="#000000" font-family="sans-serif" font-size="12.32" lengthAdjust="spacing" textLength="125.44" x="465.92" y="676.433">+calculateMsResidual()</text><text fill="#000000" font-family="sans-serif" font-size="12.32" lengthAdjust="spacing" textLength="77.28" x="465.92" y="691.9292">+calculateFo()</text><text fill="#000000" font-family="sans-serif" font-size="12.32" lengthAdjust="spacing" textLength="189.28" x="465.92" y="707.4255">+getTTabela(int gl, double alphaTD)</text><text fill="#000000" font-family="sans-serif" font-size="12.32" lengthAdjust="spacing" textLength="380.8" x="465.92" y="722.9217">+multiply3Matrix(double[] horizontal, double[] vertical, double[][] central)</text><text fill="#000000" font-family="sans-serif" font-size="12.32" lengthAdjust="spacing" textLength="284.48" x="465.92" y="738.418">+multiply2Matrix(double[] horizontal, double[] vertical)</text><text fill="#000000" font-family="sans-serif" font-size="12.32" lengthAdjust="spacing" textLength="40.32" x="465.92" y="753.9142">+getS()</text><text fill="#000000" font-family="sans-serif" font-size="12.32" lengthAdjust="spacing" textLength="247.52" x="465.92" y="769.4105">+calculateIntervalo(double delta, double valor)</text><!--MD5=[02e4b9b7573f1156f41e60aa5b4e25a4]
class Company--><rect codeLine="80" fill="#FEFECE" filter="url(#fibcs2rycuvp7)" height="100.2488" id="Company" style="stroke:#A80036;stroke-width:1.6800000000000002;" width="104.16" x="315.28" y="528.64"/><ellipse cx="336.112" cy="546.56" fill="#ADD1B2" rx="12.32" ry="12.32" style="stroke:#A80036;stroke-width:1.12;"/><path d="M338.352,542.64 Q338.5795,542.08 338.842,541.8 Q339.1045,541.52 339.402,541.52 Q339.927,541.52 340.2595,541.835 Q340.592,542.15 340.592,542.885 L340.592,544.635 Q340.592,545.37 340.277,545.685 Q339.962,546 339.472,546 Q339.0345,546 338.7545,545.8075 Q338.4745,545.615 338.352,545.1075 Q338.2995,544.7575 338.107,544.565 Q337.757,544.1975 337.127,543.9875 Q336.497,543.76 335.867,543.76 Q335.0795,543.76 334.4145,544.075 Q333.767,544.39 333.2595,545.09 Q332.752,545.79 332.752,546.7525 L332.752,547.785 Q332.752,548.94 333.697,549.71 Q334.642,550.48 336.322,550.48 Q337.3195,550.48 338.0195,550.2525 Q338.422,550.13 338.877,549.7275 Q339.1745,549.5 339.332,549.43 Q339.4895,549.36 339.682,549.36 Q340.0495,549.36 340.312,549.6575 Q340.592,549.9375 340.592,550.34 Q340.592,550.725 340.207,551.18 Q339.647,551.845 338.7545,552.2125 Q337.582,552.72 336.147,552.72 Q334.467,552.72 333.1195,552.055 Q332.0345,551.53 331.2645,550.3925 Q330.512,549.255 330.512,547.9075 L330.512,546.6825 Q330.512,545.2825 331.177,544.0575 Q331.8595,542.8325 333.032,542.185 Q334.222,541.52 335.552,541.52 Q336.357,541.52 337.057,541.8 Q337.757,542.08 338.352,542.64 Z " fill="#000000"/><text fill="#000000" font-family="sans-serif" font-size="13.44" lengthAdjust="spacing" textLength="59.36" x="352.688" y="552.0594">Company</text><line style="stroke:#A80036;stroke-width:1.6800000000000002;" x1="316.4" x2="418.32" y1="564.48" y2="564.48"/><text fill="#000000" font-family="sans-serif" font-size="12.32" lengthAdjust="spacing" textLength="66.08" x="322" y="581.7492">-desingation</text><line style="stroke:#A80036;stroke-width:1.6800000000000002;" x1="316.4" x2="418.32" y1="588.9363" y2="588.9363"/><text fill="#000000" font-family="sans-serif" font-size="12.32" lengthAdjust="spacing" textLength="85.12" x="322" y="606.2055">+getTestStore()</text><text fill="#000000" font-family="sans-serif" font-size="12.32" lengthAdjust="spacing" textLength="90.72" x="322" y="621.7017">+getClientStore()</text><!--MD5=[ae5948c83976fe1779f1d73b9a19f61d]
link ReportNHSUI to ReportNHSController--><path codeLine="86" d="M367.36,61.656 C367.36,78.2992 367.36,100.912 367.36,123.0768 " fill="none" id="ReportNHSUI-to-ReportNHSController" style="stroke:#A80036;stroke-width:1.12;stroke-dasharray:7.0,7.0;"/><polygon fill="#A80036" points="367.36,128.6992,371.84,118.6192,367.36,123.0992,362.88,118.6192,367.36,128.6992" style="stroke:#A80036;stroke-width:1.12;"/><!--MD5=[329c137d4cd31260e1b781c391a58ea4]
link ReportNHSController to Company--><path codeLine="87" d="M367.36,275.9568 C367.36,348.0512 367.36,456.9376 367.36,522.368 " fill="none" id="ReportNHSController-to-Company" style="stroke:#A80036;stroke-width:1.12;stroke-dasharray:7.0,7.0;"/><polygon fill="#A80036" points="367.36,528.1696,371.84,518.0896,367.36,522.5696,362.88,518.0896,367.36,528.1696" style="stroke:#A80036;stroke-width:1.12;"/><!--MD5=[7f6cf7f175eae0af66201860de5de971]
link Company to TestStore--><path codeLine="88" d="M359.2736,629.7872 C348.0736,698.5664 328.0592,821.4976 317.8,884.4528 " fill="none" id="Company-to-TestStore" style="stroke:#A80036;stroke-width:1.12;"/><polygon fill="#A80036" points="316.904,889.9856,322.9369,880.7509,317.7987,884.4575,314.092,879.3193,316.904,889.9856" style="stroke:#A80036;stroke-width:1.12;"/><!--MD5=[a11230341c8e65219708844feaa40162]
link Company to ClientStore--><path codeLine="89" d="M369.768,629.8208 C374.9088,682.416 390.7344,764.6912 439.04,815.36 C494.1664,873.1856 582.1872,900.312 649.2752,912.9792 " fill="none" id="Company-ClientStore" style="stroke:#A80036;stroke-width:1.12;"/><!--MD5=[81f04ad7cd8d5389684dffc93fb312e6]
link ReportNHSController to TestStore--><path codeLine="90" d="M321.9888,275.6208 C311.192,296.4976 301.2128,319.8384 295.68,342.72 C247.5984,541.4304 285.3984,789.4992 303.296,884.4976 " fill="none" id="ReportNHSController-to-TestStore" style="stroke:#A80036;stroke-width:1.12;stroke-dasharray:7.0,7.0;"/><polygon fill="#A80036" points="304.3936,890.2656,306.9242,879.5291,303.3539,884.763,298.12,881.1927,304.3936,890.2656" style="stroke:#A80036;stroke-width:1.12;"/><!--MD5=[8a4e3a2734b4b36b85ab82657b611bfa]
link ReportNHSController to ClientStore--><path codeLine="91" d="M566.2384,232.8928 C691.096,256.0096 835.4528,292.6336 873.6,342.72 C1000.8992,509.824 962.9424,625.24 873.6,815.36 C861.7952,840.4704 841.0304,861.784 819.448,878.696 " fill="none" id="ReportNHSController-to-ClientStore" style="stroke:#A80036;stroke-width:1.12;stroke-dasharray:7.0,7.0;"/><polygon fill="#A80036" points="814.5424,882.4592,825.264,879.8661,818.9817,879.0456,819.8022,872.7633,814.5424,882.4592" style="stroke:#A80036;stroke-width:1.12;"/><!--MD5=[148c2506b8ec56773b32591b80172286]
link ReportNHSController to LinearRegression--><path codeLine="92" d="M285.5776,275.7104 C264.8688,296.2176 243.5888,319.3568 226.24,342.72 C216.9216,355.264 207.8944,368.6144 199.2368,382.312 " fill="none" id="ReportNHSController-to-LinearRegression" style="stroke:#A80036;stroke-width:1.12;stroke-dasharray:7.0,7.0;"/><polygon fill="#A80036" points="196.0672,387.3856,205.2142,381.2205,199.0395,382.6395,197.6205,376.4648,196.0672,387.3856" style="stroke:#A80036;stroke-width:1.12;"/><!--MD5=[51e9ccb5cd9680bf769e04742d4b26f3]
link ReportNHSController to MultilinearRegression--><path codeLine="93" d="M423.416,275.9568 C446.04,305.2784 473.3568,340.704 501.2,376.8016 " fill="none" id="ReportNHSController-to-MultilinearRegression" style="stroke:#A80036;stroke-width:1.12;stroke-dasharray:7.0,7.0;"/><polygon fill="#A80036" points="504.952,381.6736,502.3589,370.952,501.5384,377.2343,495.2561,376.4138,504.952,381.6736" style="stroke:#A80036;stroke-width:1.12;"/><!--MD5=[1f51131289d9ac9ba4d524605b7b26ed]
@startuml

skinparam classAttributeIconSize 0

class ReportNHSUI{
}

class ReportNHSController{
+getTestStore()
+getClientStore()
+linearRegression(int historicalPoints,String dataIni, String dataFim)
+MultLinearRegression(int historicalPoints,String dataIni, String dataFim)
+getPositiveTest()
+getTestDia()
}

class LinearRegression{
+intercept()
+slope()
+R2()
+interceptStdErr()
+slopeStdErr()
+predict(double x)
+toString()
+getX()
+getY()
+getSxy()
+getSxx()
+getSyy()
+getSvar1()
+getSvar0()
+getMqResidual()
+getSqRegresion()
+getSqResidual()
+getSqTotal()
+getMsr()
+getMse()
+getEstatTest()
+getR()
+getTTabela(int gl, double alpha)
+getTCalculatedOfA()
+getTCalculatedOfB()
+calculateS()
+intervaloComf(int x)
}

class TestStore{
+getTestbyInterval(String data1, String data2)
}

class ClientStore{
+getIdade(String data)
+getMediaIdades(String[] tinList)
}

class MultilinearRegression{
+OLSMultipleLinearRegression()
+newSampleData(double[] y, double[][] x)
+calculateHat()
+calculateTotalSumOfSquares()
+calculateResidualSumOfSquares()
+calculateRSquared()
+calculateAdjustedRSquared()
+newXSampleData(double[][] x)
+calculateBeta()
+calculateBetaVariance()
+calculateRegressionSumOfSquares()
+calculateDfTotal()
+calculateDfRegression()
+calculateDfResidual()
+calculateMsRegression()
+calculateMsResidual()
+calculateFo()
+getTTabela(int gl, double alphaTD)
+multiply3Matrix(double[] horizontal, double[] vertical, double[][] central)
+multiply2Matrix(double[] horizontal, double[] vertical)
+getS()
+calculateIntervalo(double delta, double valor)
}

class Company {
-desingation
+getTestStore()
+getClientStore()
}

ReportNHSUI ..> ReportNHSController
ReportNHSController ..> Company
Company - -> TestStore
Company - - ClientStore
ReportNHSController ..> TestStore
ReportNHSController ..> ClientStore
ReportNHSController ..> LinearRegression
ReportNHSController ..> MultilinearRegression





@enduml

PlantUML version 1.2021.7(Sun May 23 13:40:07 BST 2021)
(GPL source distribution)
Java Runtime: OpenJDK Runtime Environment
JVM: Dynamic Code Evolution 64-Bit Server VM
Default Encoding: Cp1252
Language: pt
Country: PT
--></g></svg>