<?xml version="1.0" encoding="UTF-8" standalone="no"?><svg xmlns="http://www.w3.org/2000/svg" xmlns:xlink="http://www.w3.org/1999/xlink" contentScriptType="application/ecmascript" contentStyleType="text/css" height="456px" preserveAspectRatio="none" style="width:361px;height:456px;background:#FFFFFF;" version="1.1" viewBox="0 0 361 456" width="361px" zoomAndPan="magnify"><defs><filter height="300%" id="f1pzkau77rxxvt" width="300%" x="-1" y="-1"><feGaussianBlur result="blurOut" stdDeviation="2.0"/><feColorMatrix in="blurOut" result="blurOut2" type="matrix" values="0 0 0 0 0 0 0 0 0 0 0 0 0 0 0 0 0 0 .4 0"/><feOffset dx="4.0" dy="4.0" in="blurOut2" result="blurOut3"/><feBlend in="SourceGraphic" in2="blurOut3" mode="normal"/></filter></defs><g><!--MD5=[02e4b9b7573f1156f41e60aa5b4e25a4]
class Company--><rect codeLine="6" fill="#FEFECE" filter="url(#f1pzkau77rxxvt)" height="53.8359" id="Company" style="stroke:#A80036;stroke-width:1.5;" width="85" x="7" y="62.5"/><ellipse cx="22" cy="78.5" fill="#ADD1B2" rx="11" ry="11" style="stroke:#A80036;stroke-width:1.0;"/><path d="M24,75 Q24.2031,74.5 24.4375,74.25 Q24.6719,74 24.9375,74 Q25.4063,74 25.7031,74.2813 Q26,74.5625 26,75.2188 L26,76.7813 Q26,77.4375 25.7188,77.7188 Q25.4375,78 25,78 Q24.6094,78 24.3594,77.8281 Q24.1094,77.6563 24,77.2031 Q23.9531,76.8906 23.7813,76.7188 Q23.4688,76.3906 22.9063,76.2031 Q22.3438,76 21.7813,76 Q21.0781,76 20.4844,76.2813 Q19.9063,76.5625 19.4531,77.1875 Q19,77.8125 19,78.6719 L19,79.5938 Q19,80.625 19.8438,81.3125 Q20.6875,82 22.1875,82 Q23.0781,82 23.7031,81.7969 Q24.0625,81.6875 24.4688,81.3281 Q24.7344,81.125 24.875,81.0625 Q25.0156,81 25.1875,81 Q25.5156,81 25.75,81.2656 Q26,81.5156 26,81.875 Q26,82.2188 25.6563,82.625 Q25.1563,83.2188 24.3594,83.5469 Q23.3125,84 22.0313,84 Q20.5313,84 19.3281,83.4063 Q18.3594,82.9375 17.6719,81.9219 Q17,80.9063 17,79.7031 L17,78.6094 Q17,77.3594 17.5938,76.2656 Q18.2031,75.1719 19.25,74.5938 Q20.3125,74 21.5,74 Q22.2188,74 22.8438,74.25 Q23.4688,74.5 24,75 Z " fill="#000000"/><text fill="#000000" font-family="sans-serif" font-size="12" lengthAdjust="spacing" textLength="53" x="36" y="83.4102">Company</text><line style="stroke:#A80036;stroke-width:1.5;" x1="8" x2="91" y1="94.5" y2="94.5"/><text fill="#000000" font-family="sans-serif" font-size="11" lengthAdjust="spacing" textLength="59" x="13" y="109.9189">-designation</text><!--MD5=[ed6624c6556d5e7b1bd23032162d20b7]
class Client--><rect codeLine="10" fill="#FEFECE" filter="url(#f1pzkau77rxxvt)" height="164.5234" id="Client" style="stroke:#A80036;stroke-width:1.5;" width="107" x="240" y="7"/><ellipse cx="274.35" cy="23" fill="#ADD1B2" rx="11" ry="11" style="stroke:#A80036;stroke-width:1.0;"/><path d="M276.35,19.5 Q276.5531,19 276.7875,18.75 Q277.0219,18.5 277.2875,18.5 Q277.7563,18.5 278.0531,18.7813 Q278.35,19.0625 278.35,19.7188 L278.35,21.2813 Q278.35,21.9375 278.0688,22.2188 Q277.7875,22.5 277.35,22.5 Q276.9594,22.5 276.7094,22.3281 Q276.4594,22.1563 276.35,21.7031 Q276.3031,21.3906 276.1313,21.2188 Q275.8188,20.8906 275.2563,20.7031 Q274.6938,20.5 274.1313,20.5 Q273.4281,20.5 272.8344,20.7813 Q272.2563,21.0625 271.8031,21.6875 Q271.35,22.3125 271.35,23.1719 L271.35,24.0938 Q271.35,25.125 272.1938,25.8125 Q273.0375,26.5 274.5375,26.5 Q275.4281,26.5 276.0531,26.2969 Q276.4125,26.1875 276.8188,25.8281 Q277.0844,25.625 277.225,25.5625 Q277.3656,25.5 277.5375,25.5 Q277.8656,25.5 278.1,25.7656 Q278.35,26.0156 278.35,26.375 Q278.35,26.7188 278.0063,27.125 Q277.5063,27.7188 276.7094,28.0469 Q275.6625,28.5 274.3813,28.5 Q272.8813,28.5 271.6781,27.9063 Q270.7094,27.4375 270.0219,26.4219 Q269.35,25.4063 269.35,24.2031 L269.35,23.1094 Q269.35,21.8594 269.9438,20.7656 Q270.5531,19.6719 271.6,19.0938 Q272.6625,18.5 273.85,18.5 Q274.5688,18.5 275.1938,18.75 Q275.8188,19 276.35,19.5 Z " fill="#000000"/><text fill="#000000" font-family="sans-serif" font-size="12" lengthAdjust="spacing" textLength="32" x="292.65" y="27.9102">Client</text><line style="stroke:#A80036;stroke-width:1.5;" x1="241" x2="346" y1="39" y2="39"/><text fill="#000000" font-family="sans-serif" font-size="11" lengthAdjust="spacing" textLength="30" x="246" y="54.4189">-name</text><text fill="#000000" font-family="sans-serif" font-size="11" lengthAdjust="spacing" textLength="95" x="246" y="68.2549">-citizenCardNumber</text><text fill="#000000" font-family="sans-serif" font-size="11" lengthAdjust="spacing" textLength="59" x="246" y="82.0908">-nhsNumber</text><text fill="#000000" font-family="sans-serif" font-size="11" lengthAdjust="spacing" textLength="52" x="246" y="95.9268">-tinNumber</text><text fill="#000000" font-family="sans-serif" font-size="11" lengthAdjust="spacing" textLength="47" x="246" y="109.7627">-birthDate</text><text fill="#000000" font-family="sans-serif" font-size="11" lengthAdjust="spacing" textLength="22" x="246" y="123.5986">-sex</text><text fill="#000000" font-family="sans-serif" font-size="11" lengthAdjust="spacing" textLength="71" x="246" y="137.4346">-phoneNumber</text><text fill="#000000" font-family="sans-serif" font-size="11" lengthAdjust="spacing" textLength="28" x="246" y="151.2705">-email</text><text fill="#000000" font-family="sans-serif" font-size="11" lengthAdjust="spacing" textLength="26" x="246" y="165.1064">-user</text><!--MD5=[df38be88ccee13e832d6fafd6288a4ca]
class Test--><rect codeLine="22" fill="#FEFECE" filter="url(#f1pzkau77rxxvt)" height="192.1953" id="Test" style="stroke:#A80036;stroke-width:1.5;" width="113" x="115" y="250"/><ellipse cx="155.65" cy="266" fill="#ADD1B2" rx="11" ry="11" style="stroke:#A80036;stroke-width:1.0;"/><path d="M157.65,262.5 Q157.8531,262 158.0875,261.75 Q158.3219,261.5 158.5875,261.5 Q159.0563,261.5 159.3531,261.7813 Q159.65,262.0625 159.65,262.7188 L159.65,264.2813 Q159.65,264.9375 159.3688,265.2188 Q159.0875,265.5 158.65,265.5 Q158.2594,265.5 158.0094,265.3281 Q157.7594,265.1563 157.65,264.7031 Q157.6031,264.3906 157.4313,264.2188 Q157.1188,263.8906 156.5563,263.7031 Q155.9938,263.5 155.4313,263.5 Q154.7281,263.5 154.1344,263.7813 Q153.5563,264.0625 153.1031,264.6875 Q152.65,265.3125 152.65,266.1719 L152.65,267.0938 Q152.65,268.125 153.4938,268.8125 Q154.3375,269.5 155.8375,269.5 Q156.7281,269.5 157.3531,269.2969 Q157.7125,269.1875 158.1188,268.8281 Q158.3844,268.625 158.525,268.5625 Q158.6656,268.5 158.8375,268.5 Q159.1656,268.5 159.4,268.7656 Q159.65,269.0156 159.65,269.375 Q159.65,269.7188 159.3063,270.125 Q158.8063,270.7188 158.0094,271.0469 Q156.9625,271.5 155.6813,271.5 Q154.1813,271.5 152.9781,270.9063 Q152.0094,270.4375 151.3219,269.4219 Q150.65,268.4063 150.65,267.2031 L150.65,266.1094 Q150.65,264.8594 151.2438,263.7656 Q151.8531,262.6719 152.9,262.0938 Q153.9625,261.5 155.15,261.5 Q155.8688,261.5 156.4938,261.75 Q157.1188,262 157.65,262.5 Z " fill="#000000"/><text fill="#000000" font-family="sans-serif" font-size="12" lengthAdjust="spacing" textLength="24" x="175.35" y="270.9102">Test</text><line style="stroke:#A80036;stroke-width:1.5;" x1="116" x2="227" y1="282" y2="282"/><text fill="#000000" font-family="sans-serif" font-size="11" lengthAdjust="spacing" textLength="28" x="121" y="297.4189">-code</text><text fill="#000000" font-family="sans-serif" font-size="11" lengthAdjust="spacing" textLength="47" x="121" y="311.2549">-nhsCode</text><text fill="#000000" font-family="sans-serif" font-size="11" lengthAdjust="spacing" textLength="52" x="121" y="325.0908">-createdAt</text><text fill="#000000" font-family="sans-serif" font-size="11" lengthAdjust="spacing" textLength="28" x="121" y="338.9268">-state</text><text fill="#000000" font-family="sans-serif" font-size="11" lengthAdjust="spacing" textLength="33" x="121" y="352.7627">-report</text><text fill="#000000" font-family="sans-serif" font-size="11" lengthAdjust="spacing" textLength="71" x="121" y="366.5986">-testParameter</text><text fill="#000000" font-family="sans-serif" font-size="11" lengthAdjust="spacing" textLength="96" x="121" y="380.4346">-clinicalAnalysisLab</text><text fill="#000000" font-family="sans-serif" font-size="11" lengthAdjust="spacing" textLength="58" x="121" y="394.2705">-typeOfTest</text><text fill="#000000" font-family="sans-serif" font-size="11" lengthAdjust="spacing" textLength="101" x="121" y="408.1064">-testParameterResult</text><text fill="#000000" font-family="sans-serif" font-size="11" lengthAdjust="spacing" textLength="64" x="121" y="421.9424">-clientTinNum</text><text fill="#000000" font-family="sans-serif" font-size="11" lengthAdjust="spacing" textLength="55" x="121" y="435.7783">-sampleList</text><!--MD5=[6eee883fdf517d3604e8bd0f2058e9aa]
link Company to Client--><path codeLine="36" d="M92,89.5 C133.1,89.5 195.52,89.5 239.98,89.5 " fill="none" id="Company-Client" style="stroke:#A80036;stroke-width:1.0;"/><polygon fill="#000000" points="119.5,77.6758,110.4549,74.7369,110.4549,80.6147,119.5,77.6758" style="stroke:#000000;stroke-width:1.0;"/><text fill="#000000" font-family="sans-serif" font-size="13" lengthAdjust="spacing" textLength="98" x="123.5" y="82.9951">provides services</text><text fill="#000000" font-family="sans-serif" font-size="13" lengthAdjust="spacing" textLength="7" x="99.9063" y="85.6644">1</text><text fill="#000000" font-family="sans-serif" font-size="13" lengthAdjust="spacing" textLength="5" x="227.1022" y="85.9283">*</text><!--MD5=[7e4bc624457760b649895ff2ead938fa]
link Company to Test--><path codeLine="37" d="M62.1,116.78 C77.1,148.08 103.02,202.14 125.86,249.79 " fill="none" id="Company-Test" style="stroke:#A80036;stroke-width:1.0;"/><polygon fill="#000000" points="117.6613,215.6845,116.4016,206.2577,111.1013,208.7985,117.6613,215.6845" style="stroke:#000000;stroke-width:1.0;"/><text fill="#000000" font-family="sans-serif" font-size="13" lengthAdjust="spacing" textLength="53" x="124.5" y="216.4951">has/does</text><text fill="#000000" font-family="sans-serif" font-size="13" lengthAdjust="spacing" textLength="7" x="57.0906" y="138.049">1</text><text fill="#000000" font-family="sans-serif" font-size="13" lengthAdjust="spacing" textLength="24" x="97.2668" y="238.9871">1...*</text><!--MD5=[502b51bc079239060389dab43b7d3470]
link Client to Test--><path codeLine="38" d="M254.4,172.08 C242.55,196.79 229.43,224.16 217.19,249.69 " fill="none" id="Client-Test" style="stroke:#A80036;stroke-width:1.0;"/><polygon fill="#000000" points="242.3384,215.6844,248.8989,208.7988,243.5987,206.2577,242.3384,215.6844" style="stroke:#000000;stroke-width:1.0;"/><text fill="#000000" font-family="sans-serif" font-size="13" lengthAdjust="spacing" textLength="49" x="253.5" y="216.4951">consults</text><text fill="#000000" font-family="sans-serif" font-size="13" lengthAdjust="spacing" textLength="7" x="243.8722" y="193.1106">1</text><text fill="#000000" font-family="sans-serif" font-size="13" lengthAdjust="spacing" textLength="24" x="195.7694" y="239.2049">1...*</text><!--MD5=[6b839e74bf11ab75a651a6517513d232]
@startuml

skinparam classAttributeIconSize 0
hide methods


class Company{
-designation
}

class Client{
-name
-citizenCardNumber
-nhsNumber
-tinNumber
-birthDate
-sex
-phoneNumber
-email
-user
}

class Test{
-code
-nhsCode
-createdAt
-state
-report
-testParameter
-clinicalAnalysisLab
-typeOfTest
-testParameterResult
-clientTinNum
-sampleList
}

Company "1"-right-"*" Client: > provides services
Company "1" - - "1...*" Test: > has/does
Client "1" - - "1...*" Test: > consults

@enduml

PlantUML version 1.2021.7(Sun May 23 13:40:07 BST 2021)
(GPL source distribution)
Java Runtime: OpenJDK Runtime Environment
JVM: Dynamic Code Evolution 64-Bit Server VM
Default Encoding: Cp1252
Language: pt
Country: PT
--></g></svg>