<?xml version="1.0" encoding="UTF-8" standalone="no"?><svg xmlns="http://www.w3.org/2000/svg" xmlns:xlink="http://www.w3.org/1999/xlink" contentScriptType="application/ecmascript" contentStyleType="text/css" height="409px" preserveAspectRatio="none" style="width:749px;height:409px;background:#FFFFFF;" version="1.1" viewBox="0 0 749 409" width="749px" zoomAndPan="magnify"><defs><filter height="300%" id="fju3q868z7g4w" width="300%" x="-1" y="-1"><feGaussianBlur result="blurOut" stdDeviation="2.0"/><feColorMatrix in="blurOut" result="blurOut2" type="matrix" values="0 0 0 0 0 0 0 0 0 0 0 0 0 0 0 0 0 0 .4 0"/><feOffset dx="4.0" dy="4.0" in="blurOut2" result="blurOut3"/><feBlend in="SourceGraphic" in2="blurOut3" mode="normal"/></filter></defs><g><rect fill="#FFFFFF" filter="url(#fju3q868z7g4w)" height="206.4609" style="stroke:#A80036;stroke-width:1.0;" width="10" x="36" y="99.6094"/><rect fill="#FFFFFF" filter="url(#fju3q868z7g4w)" height="55.7031" style="stroke:#A80036;stroke-width:1.0;" width="10" x="684" y="121.9609"/><rect fill="#FFFFFF" filter="url(#fju3q868z7g4w)" height="30.3516" style="stroke:#A80036;stroke-width:1.0;" width="10" x="684" y="208.0156"/><rect fill="#FFFFFF" filter="url(#fju3q868z7g4w)" height="37.3516" style="stroke:#A80036;stroke-width:1.0;" width="10" x="684" y="268.7188"/><rect fill="#FFFFFF" filter="url(#fju3q868z7g4w)" height="139.7578" style="stroke:#000000;stroke-width:2.0;" width="725" x="10" y="136.9609"/><line style="stroke:#A80036;stroke-width:1.0;stroke-dasharray:5.0,5.0;" x1="41" x2="41" y1="89.6094" y2="324.0703"/><line style="stroke:#A80036;stroke-width:1.0;stroke-dasharray:5.0,5.0;" x1="689" x2="689" y1="89.6094" y2="324.0703"/><text fill="#000000" font-family="sans-serif" font-size="14" lengthAdjust="spacing" textLength="36" x="20" y="86.5332">Client</text><ellipse cx="41" cy="15" fill="#FEFECE" filter="url(#fju3q868z7g4w)" rx="8" ry="8" style="stroke:#A80036;stroke-width:2.0;"/><path d="M41,23 L41,50 M28,31 L54,31 M41,50 L28,65 M41,50 L54,65 " fill="none" filter="url(#fju3q868z7g4w)" style="stroke:#A80036;stroke-width:2.0;"/><text fill="#000000" font-family="sans-serif" font-size="14" lengthAdjust="spacing" textLength="36" x="20" y="337.6035">Client</text><ellipse cx="41" cy="350.6797" fill="#FEFECE" filter="url(#fju3q868z7g4w)" rx="8" ry="8" style="stroke:#A80036;stroke-width:2.0;"/><path d="M41,358.6797 L41,385.6797 M28,366.6797 L54,366.6797 M41,385.6797 L28,400.6797 M41,385.6797 L54,400.6797 " fill="none" filter="url(#fju3q868z7g4w)" style="stroke:#A80036;stroke-width:2.0;"/><rect fill="#FEFECE" filter="url(#fju3q868z7g4w)" height="31.6094" style="stroke:#A80036;stroke-width:1.5;" width="68" x="653" y="53"/><text fill="#000000" font-family="sans-serif" font-size="14" lengthAdjust="spacing" textLength="54" x="660" y="74.5332">: System</text><rect fill="#FEFECE" filter="url(#fju3q868z7g4w)" height="31.6094" style="stroke:#A80036;stroke-width:1.5;" width="68" x="653" y="323.0703"/><text fill="#000000" font-family="sans-serif" font-size="14" lengthAdjust="spacing" textLength="54" x="660" y="344.6035">: System</text><rect fill="#FFFFFF" filter="url(#fju3q868z7g4w)" height="206.4609" style="stroke:#A80036;stroke-width:1.0;" width="10" x="36" y="99.6094"/><rect fill="#FFFFFF" filter="url(#fju3q868z7g4w)" height="55.7031" style="stroke:#A80036;stroke-width:1.0;" width="10" x="684" y="121.9609"/><rect fill="#FFFFFF" filter="url(#fju3q868z7g4w)" height="30.3516" style="stroke:#A80036;stroke-width:1.0;" width="10" x="684" y="208.0156"/><rect fill="#FFFFFF" filter="url(#fju3q868z7g4w)" height="37.3516" style="stroke:#A80036;stroke-width:1.0;" width="10" x="684" y="268.7188"/><polygon fill="#A80036" points="672,117.9609,682,121.9609,672,125.9609,676,121.9609" style="stroke:#A80036;stroke-width:1.0;"/><line style="stroke:#A80036;stroke-width:1.0;" x1="46" x2="678" y1="121.9609" y2="121.9609"/><text fill="#000000" font-family="sans-serif" font-size="13" font-weight="bold" lengthAdjust="spacing" textLength="7" x="53" y="117.1045">1</text><text fill="#000000" font-family="sans-serif" font-size="13" lengthAdjust="spacing" textLength="370" x="64" y="117.1045">requests to view the results of the tests the client has performed</text><path d="M10,136.9609 L83,136.9609 L83,144.9609 L73,154.9609 L10,154.9609 L10,136.9609 " fill="#EEEEEE" style="stroke:#000000;stroke-width:1.0;"/><rect fill="none" height="139.7578" style="stroke:#000000;stroke-width:2.0;" width="725" x="10" y="136.9609"/><text fill="#000000" font-family="sans-serif" font-size="13" font-weight="bold" lengthAdjust="spacing" textLength="28" x="25" y="151.4561">loop</text><text fill="#000000" font-family="sans-serif" font-size="11" font-weight="bold" lengthAdjust="spacing" textLength="249" x="98" y="150.3799">[if the client chooses to consult another test]</text><polygon fill="#A80036" points="57,173.6641,47,177.6641,57,181.6641,53,177.6641" style="stroke:#A80036;stroke-width:1.0;"/><line style="stroke:#A80036;stroke-width:1.0;stroke-dasharray:2.0,2.0;" x1="51" x2="688" y1="177.6641" y2="177.6641"/><text fill="#000000" font-family="sans-serif" font-size="13" font-weight="bold" lengthAdjust="spacing" textLength="7" x="63" y="172.8076">2</text><text fill="#000000" font-family="sans-serif" font-size="13" lengthAdjust="spacing" textLength="468" x="74" y="172.8076">show tests performed by the client and asks to choose one to consult the results</text><polygon fill="#A80036" points="672,204.0156,682,208.0156,672,212.0156,676,208.0156" style="stroke:#A80036;stroke-width:1.0;"/><line style="stroke:#A80036;stroke-width:1.0;" x1="46" x2="678" y1="208.0156" y2="208.0156"/><text fill="#000000" font-family="sans-serif" font-size="13" font-weight="bold" lengthAdjust="spacing" textLength="7" x="53" y="203.1592">3</text><text fill="#000000" font-family="sans-serif" font-size="13" lengthAdjust="spacing" textLength="79" x="64" y="203.1592">selects a test</text><polygon fill="#A80036" points="57,234.3672,47,238.3672,57,242.3672,53,238.3672" style="stroke:#A80036;stroke-width:1.0;"/><line style="stroke:#A80036;stroke-width:1.0;stroke-dasharray:2.0,2.0;" x1="51" x2="688" y1="238.3672" y2="238.3672"/><text fill="#000000" font-family="sans-serif" font-size="13" font-weight="bold" lengthAdjust="spacing" textLength="7" x="63" y="233.5107">4</text><text fill="#000000" font-family="sans-serif" font-size="13" lengthAdjust="spacing" textLength="603" x="74" y="233.5107">shows the results of the test and the diagnosis report and asks if the client wants to consult another test</text><polygon fill="#A80036" points="672,264.7188,682,268.7188,672,272.7188,676,268.7188" style="stroke:#A80036;stroke-width:1.0;"/><line style="stroke:#A80036;stroke-width:1.0;" x1="46" x2="678" y1="268.7188" y2="268.7188"/><text fill="#000000" font-family="sans-serif" font-size="13" font-weight="bold" lengthAdjust="spacing" textLength="7" x="53" y="263.8623">5</text><text fill="#000000" font-family="sans-serif" font-size="13" lengthAdjust="spacing" textLength="198" x="64" y="263.8623">inserts if he/she wants to continue</text><polygon fill="#A80036" points="52,302.0703,42,306.0703,52,310.0703,48,306.0703" style="stroke:#A80036;stroke-width:1.0;"/><line style="stroke:#A80036;stroke-width:1.0;stroke-dasharray:2.0,2.0;" x1="46" x2="688" y1="306.0703" y2="306.0703"/><text fill="#000000" font-family="sans-serif" font-size="13" font-weight="bold" lengthAdjust="spacing" textLength="7" x="58" y="301.2139">6</text><text fill="#000000" font-family="sans-serif" font-size="13" lengthAdjust="spacing" textLength="133" x="69" y="301.2139">informs successful exit</text><!--MD5=[e78e5befdaeb33123b18d239c59b9129]
@startuml

autonumber
actor "Client" as cli
participant ": System" as sys

activate cli

cli -> sys : requests to view the results of the tests the client has performed

activate sys

loop if the client chooses to consult another test

sys - -> cli : show tests performed by the client and asks to choose one to consult the results

deactivate sys

cli -> sys : selects a test

activate sys

sys - -> cli : shows the results of the test and the diagnosis report and asks if the client wants to consult another test

deactivate sys

cli -> sys : inserts if he/she wants to continue

activate sys

end

sys - -> cli : informs successful exit

deactivate sys

deactivate cli



@enduml

PlantUML version 1.2021.7(Sun May 23 13:40:07 BST 2021)
(GPL source distribution)
Java Runtime: OpenJDK Runtime Environment
JVM: Dynamic Code Evolution 64-Bit Server VM
Default Encoding: Cp1252
Language: pt
Country: PT
--></g></svg>