<?xml version="1.0" encoding="UTF-8" standalone="no"?><svg xmlns="http://www.w3.org/2000/svg" xmlns:xlink="http://www.w3.org/1999/xlink" contentScriptType="application/ecmascript" contentStyleType="text/css" height="342px" preserveAspectRatio="none" style="width:545px;height:342px;background:#FFFFFF;" version="1.1" viewBox="0 0 545 342" width="545px" zoomAndPan="magnify"><defs><filter height="300%" id="f1onovtev2woa2" width="300%" x="-1" y="-1"><feGaussianBlur result="blurOut" stdDeviation="2.0"/><feColorMatrix in="blurOut" result="blurOut2" type="matrix" values="0 0 0 0 0 0 0 0 0 0 0 0 0 0 0 0 0 0 .4 0"/><feOffset dx="4.0" dy="4.0" in="blurOut2" result="blurOut3"/><feBlend in="SourceGraphic" in2="blurOut3" mode="normal"/></filter></defs><g><!--MD5=[e0c4d1bda9d08fbd83a6c13ec55acd1c]
class ShowResultsUI--><rect codeLine="4" fill="#FEFECE" filter="url(#f1onovtev2woa2)" height="48" id="ShowResultsUI" style="stroke:#A80036;stroke-width:1.5;" width="118" x="199" y="7"/><ellipse cx="214" cy="23" fill="#ADD1B2" rx="11" ry="11" style="stroke:#A80036;stroke-width:1.0;"/><path d="M216,19.5 Q216.2031,19 216.4375,18.75 Q216.6719,18.5 216.9375,18.5 Q217.4063,18.5 217.7031,18.7813 Q218,19.0625 218,19.7188 L218,21.2813 Q218,21.9375 217.7188,22.2188 Q217.4375,22.5 217,22.5 Q216.6094,22.5 216.3594,22.3281 Q216.1094,22.1563 216,21.7031 Q215.9531,21.3906 215.7813,21.2188 Q215.4688,20.8906 214.9063,20.7031 Q214.3438,20.5 213.7813,20.5 Q213.0781,20.5 212.4844,20.7813 Q211.9063,21.0625 211.4531,21.6875 Q211,22.3125 211,23.1719 L211,24.0938 Q211,25.125 211.8438,25.8125 Q212.6875,26.5 214.1875,26.5 Q215.0781,26.5 215.7031,26.2969 Q216.0625,26.1875 216.4688,25.8281 Q216.7344,25.625 216.875,25.5625 Q217.0156,25.5 217.1875,25.5 Q217.5156,25.5 217.75,25.7656 Q218,26.0156 218,26.375 Q218,26.7188 217.6563,27.125 Q217.1563,27.7188 216.3594,28.0469 Q215.3125,28.5 214.0313,28.5 Q212.5313,28.5 211.3281,27.9063 Q210.3594,27.4375 209.6719,26.4219 Q209,25.4063 209,24.2031 L209,23.1094 Q209,21.8594 209.5938,20.7656 Q210.2031,19.6719 211.25,19.0938 Q212.3125,18.5 213.5,18.5 Q214.2188,18.5 214.8438,18.75 Q215.4688,19 216,19.5 Z " fill="#000000"/><text fill="#000000" font-family="sans-serif" font-size="12" lengthAdjust="spacing" textLength="86" x="228" y="27.9102">ShowResultsUI</text><line style="stroke:#A80036;stroke-width:1.5;" x1="200" x2="316" y1="39" y2="39"/><line style="stroke:#A80036;stroke-width:1.5;" x1="200" x2="316" y1="47" y2="47"/><!--MD5=[18da2eb51254a626e466617bcbdfcca6]
class ShowResultsController--><rect codeLine="7" fill="#FEFECE" filter="url(#f1onovtev2woa2)" height="75.6719" id="ShowResultsController" style="stroke:#A80036;stroke-width:1.5;" width="174" x="171" y="116"/><ellipse cx="192.3" cy="132" fill="#ADD1B2" rx="11" ry="11" style="stroke:#A80036;stroke-width:1.0;"/><path d="M194.3,128.5 Q194.5031,128 194.7375,127.75 Q194.9719,127.5 195.2375,127.5 Q195.7063,127.5 196.0031,127.7813 Q196.3,128.0625 196.3,128.7188 L196.3,130.2813 Q196.3,130.9375 196.0188,131.2188 Q195.7375,131.5 195.3,131.5 Q194.9094,131.5 194.6594,131.3281 Q194.4094,131.1563 194.3,130.7031 Q194.2531,130.3906 194.0813,130.2188 Q193.7688,129.8906 193.2063,129.7031 Q192.6438,129.5 192.0813,129.5 Q191.3781,129.5 190.7844,129.7813 Q190.2063,130.0625 189.7531,130.6875 Q189.3,131.3125 189.3,132.1719 L189.3,133.0938 Q189.3,134.125 190.1438,134.8125 Q190.9875,135.5 192.4875,135.5 Q193.3781,135.5 194.0031,135.2969 Q194.3625,135.1875 194.7688,134.8281 Q195.0344,134.625 195.175,134.5625 Q195.3156,134.5 195.4875,134.5 Q195.8156,134.5 196.05,134.7656 Q196.3,135.0156 196.3,135.375 Q196.3,135.7188 195.9563,136.125 Q195.4563,136.7188 194.6594,137.0469 Q193.6125,137.5 192.3313,137.5 Q190.8313,137.5 189.6281,136.9063 Q188.6594,136.4375 187.9719,135.4219 Q187.3,134.4063 187.3,133.2031 L187.3,132.1094 Q187.3,130.8594 187.8938,129.7656 Q188.5031,128.6719 189.55,128.0938 Q190.6125,127.5 191.8,127.5 Q192.5188,127.5 193.1438,127.75 Q193.7688,128 194.3,128.5 Z " fill="#000000"/><text fill="#000000" font-family="sans-serif" font-size="12" lengthAdjust="spacing" textLength="128" x="207.7" y="136.9102">ShowResultsController</text><line style="stroke:#A80036;stroke-width:1.5;" x1="172" x2="344" y1="148" y2="148"/><line style="stroke:#A80036;stroke-width:1.5;" x1="172" x2="344" y1="156" y2="156"/><text fill="#000000" font-family="sans-serif" font-size="11" lengthAdjust="spacing" textLength="155" x="177" y="171.4189">+getTestsByClient(clientTinNum)</text><text fill="#000000" font-family="sans-serif" font-size="11" lengthAdjust="spacing" textLength="162" x="177" y="185.2549">+getTestResultsAndReport(code)</text><!--MD5=[02e4b9b7573f1156f41e60aa5b4e25a4]
class Company--><rect codeLine="12" fill="#FEFECE" filter="url(#f1onovtev2woa2)" height="75.6719" id="Company" style="stroke:#A80036;stroke-width:1.5;" width="88" x="7" y="253"/><ellipse cx="23.35" cy="269" fill="#ADD1B2" rx="11" ry="11" style="stroke:#A80036;stroke-width:1.0;"/><path d="M25.35,265.5 Q25.5531,265 25.7875,264.75 Q26.0219,264.5 26.2875,264.5 Q26.7563,264.5 27.0531,264.7813 Q27.35,265.0625 27.35,265.7188 L27.35,267.2813 Q27.35,267.9375 27.0688,268.2188 Q26.7875,268.5 26.35,268.5 Q25.9594,268.5 25.7094,268.3281 Q25.4594,268.1563 25.35,267.7031 Q25.3031,267.3906 25.1313,267.2188 Q24.8188,266.8906 24.2563,266.7031 Q23.6938,266.5 23.1313,266.5 Q22.4281,266.5 21.8344,266.7813 Q21.2563,267.0625 20.8031,267.6875 Q20.35,268.3125 20.35,269.1719 L20.35,270.0938 Q20.35,271.125 21.1938,271.8125 Q22.0375,272.5 23.5375,272.5 Q24.4281,272.5 25.0531,272.2969 Q25.4125,272.1875 25.8188,271.8281 Q26.0844,271.625 26.225,271.5625 Q26.3656,271.5 26.5375,271.5 Q26.8656,271.5 27.1,271.7656 Q27.35,272.0156 27.35,272.375 Q27.35,272.7188 27.0063,273.125 Q26.5063,273.7188 25.7094,274.0469 Q24.6625,274.5 23.3813,274.5 Q21.8813,274.5 20.6781,273.9063 Q19.7094,273.4375 19.0219,272.4219 Q18.35,271.4063 18.35,270.2031 L18.35,269.1094 Q18.35,267.8594 18.9438,266.7656 Q19.5531,265.6719 20.6,265.0938 Q21.6625,264.5 22.85,264.5 Q23.5688,264.5 24.1938,264.75 Q24.8188,265 25.35,265.5 Z " fill="#000000"/><text fill="#000000" font-family="sans-serif" font-size="12" lengthAdjust="spacing" textLength="53" x="37.65" y="273.9102">Company</text><line style="stroke:#A80036;stroke-width:1.5;" x1="8" x2="94" y1="285" y2="285"/><text fill="#000000" font-family="sans-serif" font-size="11" lengthAdjust="spacing" textLength="59" x="13" y="300.4189">-designation</text><line style="stroke:#A80036;stroke-width:1.5;" x1="8" x2="94" y1="306.8359" y2="306.8359"/><text fill="#000000" font-family="sans-serif" font-size="11" lengthAdjust="spacing" textLength="76" x="13" y="322.2549">+getTestStore()</text><!--MD5=[0f6f7964b844a64b0496af0dda7914bd]
class TestStore--><rect codeLine="19" fill="#FEFECE" filter="url(#f1onovtev2woa2)" height="75.6719" id="TestStore" style="stroke:#A80036;stroke-width:1.5;" width="174" x="171" y="253"/><ellipse cx="227.25" cy="269" fill="#ADD1B2" rx="11" ry="11" style="stroke:#A80036;stroke-width:1.0;"/><path d="M229.25,265.5 Q229.4531,265 229.6875,264.75 Q229.9219,264.5 230.1875,264.5 Q230.6563,264.5 230.9531,264.7813 Q231.25,265.0625 231.25,265.7188 L231.25,267.2813 Q231.25,267.9375 230.9688,268.2188 Q230.6875,268.5 230.25,268.5 Q229.8594,268.5 229.6094,268.3281 Q229.3594,268.1563 229.25,267.7031 Q229.2031,267.3906 229.0313,267.2188 Q228.7188,266.8906 228.1563,266.7031 Q227.5938,266.5 227.0313,266.5 Q226.3281,266.5 225.7344,266.7813 Q225.1563,267.0625 224.7031,267.6875 Q224.25,268.3125 224.25,269.1719 L224.25,270.0938 Q224.25,271.125 225.0938,271.8125 Q225.9375,272.5 227.4375,272.5 Q228.3281,272.5 228.9531,272.2969 Q229.3125,272.1875 229.7188,271.8281 Q229.9844,271.625 230.125,271.5625 Q230.2656,271.5 230.4375,271.5 Q230.7656,271.5 231,271.7656 Q231.25,272.0156 231.25,272.375 Q231.25,272.7188 230.9063,273.125 Q230.4063,273.7188 229.6094,274.0469 Q228.5625,274.5 227.2813,274.5 Q225.7813,274.5 224.5781,273.9063 Q223.6094,273.4375 222.9219,272.4219 Q222.25,271.4063 222.25,270.2031 L222.25,269.1094 Q222.25,267.8594 222.8438,266.7656 Q223.4531,265.6719 224.5,265.0938 Q225.5625,264.5 226.75,264.5 Q227.4688,264.5 228.0938,264.75 Q228.7188,265 229.25,265.5 Z " fill="#000000"/><text fill="#000000" font-family="sans-serif" font-size="12" lengthAdjust="spacing" textLength="53" x="247.75" y="273.9102">TestStore</text><line style="stroke:#A80036;stroke-width:1.5;" x1="172" x2="344" y1="285" y2="285"/><line style="stroke:#A80036;stroke-width:1.5;" x1="172" x2="344" y1="293" y2="293"/><text fill="#000000" font-family="sans-serif" font-size="11" lengthAdjust="spacing" textLength="155" x="177" y="308.4189">+getTestsByClient(clientTinNum)</text><text fill="#000000" font-family="sans-serif" font-size="11" lengthAdjust="spacing" textLength="162" x="177" y="322.2549">+getTestResultsAndReport(code)</text><!--MD5=[144698ec4d0188f6929a3b58a3eeb1f6]
class TestMapper--><rect codeLine="24" fill="#FEFECE" filter="url(#f1onovtev2woa2)" height="75.6719" id="TestMapper" style="stroke:#A80036;stroke-width:1.5;" width="151" x="380.5" y="253"/><ellipse cx="419.8" cy="269" fill="#ADD1B2" rx="11" ry="11" style="stroke:#A80036;stroke-width:1.0;"/><path d="M421.8,265.5 Q422.0031,265 422.2375,264.75 Q422.4719,264.5 422.7375,264.5 Q423.2063,264.5 423.5031,264.7813 Q423.8,265.0625 423.8,265.7188 L423.8,267.2813 Q423.8,267.9375 423.5188,268.2188 Q423.2375,268.5 422.8,268.5 Q422.4094,268.5 422.1594,268.3281 Q421.9094,268.1563 421.8,267.7031 Q421.7531,267.3906 421.5813,267.2188 Q421.2688,266.8906 420.7063,266.7031 Q420.1438,266.5 419.5813,266.5 Q418.8781,266.5 418.2844,266.7813 Q417.7063,267.0625 417.2531,267.6875 Q416.8,268.3125 416.8,269.1719 L416.8,270.0938 Q416.8,271.125 417.6438,271.8125 Q418.4875,272.5 419.9875,272.5 Q420.8781,272.5 421.5031,272.2969 Q421.8625,272.1875 422.2688,271.8281 Q422.5344,271.625 422.675,271.5625 Q422.8156,271.5 422.9875,271.5 Q423.3156,271.5 423.55,271.7656 Q423.8,272.0156 423.8,272.375 Q423.8,272.7188 423.4563,273.125 Q422.9563,273.7188 422.1594,274.0469 Q421.1125,274.5 419.8313,274.5 Q418.3313,274.5 417.1281,273.9063 Q416.1594,273.4375 415.4719,272.4219 Q414.8,271.4063 414.8,270.2031 L414.8,269.1094 Q414.8,267.8594 415.3938,266.7656 Q416.0031,265.6719 417.05,265.0938 Q418.1125,264.5 419.3,264.5 Q420.0188,264.5 420.6438,264.75 Q421.2688,265 421.8,265.5 Z " fill="#000000"/><text fill="#000000" font-family="sans-serif" font-size="12" lengthAdjust="spacing" textLength="65" x="439.2" y="273.9102">TestMapper</text><line style="stroke:#A80036;stroke-width:1.5;" x1="381.5" x2="530.5" y1="285" y2="285"/><line style="stroke:#A80036;stroke-width:1.5;" x1="381.5" x2="530.5" y1="293" y2="293"/><text fill="#000000" font-family="sans-serif" font-size="11" lengthAdjust="spacing" textLength="68" x="386.5" y="308.4189">+toDto(lTests)</text><text fill="#000000" font-family="sans-serif" font-size="11" lengthAdjust="spacing" textLength="139" x="386.5" y="322.2549">+toResultAndReportDto(test)</text><!--MD5=[b2c8943afcbfd26a506c8c5e3d2d41a4]
link ShowResultsUI to ShowResultsController--><path codeLine="29" d="M258,55.04 C258,70.71 258,91.91 258,110.58 " fill="none" id="ShowResultsUI-to-ShowResultsController" style="stroke:#A80036;stroke-width:1.0;stroke-dasharray:7.0,7.0;"/><polygon fill="#A80036" points="258,115.77,262,106.77,258,110.77,254,106.77,258,115.77" style="stroke:#A80036;stroke-width:1.0;"/><!--MD5=[d8d8639b8d0fa909621eb8056e284661]
link ShowResultsController to Company--><path codeLine="30" d="M201.16,192.07 C169.33,212.83 130.06,238.44 99.66,258.26 " fill="none" id="ShowResultsController-to-Company" style="stroke:#A80036;stroke-width:1.0;stroke-dasharray:7.0,7.0;"/><polygon fill="#A80036" points="95.24,261.15,104.9639,259.5861,99.4286,258.4195,100.5951,252.8843,95.24,261.15" style="stroke:#A80036;stroke-width:1.0;"/><!--MD5=[ad2f18a231ff5d2a92d1fbc85bf41161]
link ShowResultsController to TestStore--><path codeLine="31" d="M258,192.25 C258,209.36 258,229.75 258,247.47 " fill="none" id="ShowResultsController-to-TestStore" style="stroke:#A80036;stroke-width:1.0;stroke-dasharray:7.0,7.0;"/><polygon fill="#A80036" points="258,252.87,262,243.87,258,247.87,254,243.87,258,252.87" style="stroke:#A80036;stroke-width:1.0;"/><!--MD5=[3d7dd91512cdffe32bf587f4dc66f87f]
link ShowResultsController to TestMapper--><path codeLine="32" d="M312.37,192.07 C338.66,210 370.28,231.55 397.14,249.87 " fill="none" id="ShowResultsController-to-TestMapper" style="stroke:#A80036;stroke-width:1.0;stroke-dasharray:7.0,7.0;"/><polygon fill="#A80036" points="401.41,252.78,396.2462,244.3934,397.2852,249.954,391.7246,250.9931,401.41,252.78" style="stroke:#A80036;stroke-width:1.0;"/><!--MD5=[7f6cf7f175eae0af66201860de5de971]
link Company to TestStore--><path codeLine="33" d="M95.15,291 C115.77,291 141.14,291 165.66,291 " fill="none" id="Company-to-TestStore" style="stroke:#A80036;stroke-width:1.0;"/><polygon fill="#A80036" points="170.87,291,161.87,287,165.87,291,161.87,295,170.87,291" style="stroke:#A80036;stroke-width:1.0;"/><text fill="#000000" font-family="sans-serif" font-size="13" lengthAdjust="spacing" textLength="39" x="113.5" y="284.4951">adopts</text><text fill="#000000" font-family="sans-serif" font-size="13" lengthAdjust="spacing" textLength="7" x="103.042" y="287.2264">1</text><text fill="#000000" font-family="sans-serif" font-size="13" lengthAdjust="spacing" textLength="7" x="156.0815" y="287.8368">1</text><!--MD5=[5b203bbdcbfb5d22fa0beedabffc2b0a]
@startuml

skinparam classAttributeIconSize 0

class ShowResultsUI{
}

class ShowResultsController{
+getTestsByClient(clientTinNum)
+getTestResultsAndReport(code)
}

class Company{
-designation

+getTestStore()
}


class TestStore{
+getTestsByClient(clientTinNum)
+getTestResultsAndReport(code)
}

class TestMapper{
+toDto(lTests)
+toResultAndReportDto(test)
}

ShowResultsUI ..> ShowResultsController
ShowResultsController ..> Company
ShowResultsController ..> TestStore
ShowResultsController ..> TestMapper
Company "1"->"1" TestStore : adopts


@enduml

PlantUML version 1.2021.7(Sun May 23 13:40:07 BST 2021)
(GPL source distribution)
Java Runtime: OpenJDK Runtime Environment
JVM: Dynamic Code Evolution 64-Bit Server VM
Default Encoding: Cp1252
Language: pt
Country: PT
--></g></svg>