<?xml version="1.0" encoding="UTF-8" standalone="no"?><svg xmlns="http://www.w3.org/2000/svg" xmlns:xlink="http://www.w3.org/1999/xlink" contentScriptType="application/ecmascript" contentStyleType="text/css" height="409px" preserveAspectRatio="none" style="width:301px;height:409px;background:#FFFFFF;" version="1.1" viewBox="0 0 301 409" width="301px" zoomAndPan="magnify"><defs><filter height="300%" id="fiiq417rushg8" width="300%" x="-1" y="-1"><feGaussianBlur result="blurOut" stdDeviation="2.0"/><feColorMatrix in="blurOut" result="blurOut2" type="matrix" values="0 0 0 0 0 0 0 0 0 0 0 0 0 0 0 0 0 0 .4 0"/><feOffset dx="4.0" dy="4.0" in="blurOut2" result="blurOut3"/><feBlend in="SourceGraphic" in2="blurOut3" mode="normal"/></filter></defs><g><!--MD5=[02e4b9b7573f1156f41e60aa5b4e25a4]
class Company--><rect codeLine="5" fill="#FEFECE" filter="url(#fiiq417rushg8)" height="75.6719" id="Company" style="stroke:#A80036;stroke-width:1.5;" width="241" x="7" y="7"/><ellipse cx="96.75" cy="23" fill="#ADD1B2" rx="11" ry="11" style="stroke:#A80036;stroke-width:1.0;"/><path d="M98.75,19.5 Q98.9531,19 99.1875,18.75 Q99.4219,18.5 99.6875,18.5 Q100.1563,18.5 100.4531,18.7813 Q100.75,19.0625 100.75,19.7188 L100.75,21.2813 Q100.75,21.9375 100.4688,22.2188 Q100.1875,22.5 99.75,22.5 Q99.3594,22.5 99.1094,22.3281 Q98.8594,22.1563 98.75,21.7031 Q98.7031,21.3906 98.5313,21.2188 Q98.2188,20.8906 97.6563,20.7031 Q97.0938,20.5 96.5313,20.5 Q95.8281,20.5 95.2344,20.7813 Q94.6563,21.0625 94.2031,21.6875 Q93.75,22.3125 93.75,23.1719 L93.75,24.0938 Q93.75,25.125 94.5938,25.8125 Q95.4375,26.5 96.9375,26.5 Q97.8281,26.5 98.4531,26.2969 Q98.8125,26.1875 99.2188,25.8281 Q99.4844,25.625 99.625,25.5625 Q99.7656,25.5 99.9375,25.5 Q100.2656,25.5 100.5,25.7656 Q100.75,26.0156 100.75,26.375 Q100.75,26.7188 100.4063,27.125 Q99.9063,27.7188 99.1094,28.0469 Q98.0625,28.5 96.7813,28.5 Q95.2813,28.5 94.0781,27.9063 Q93.1094,27.4375 92.4219,26.4219 Q91.75,25.4063 91.75,24.2031 L91.75,23.1094 Q91.75,21.8594 92.3438,20.7656 Q92.9531,19.6719 94,19.0938 Q95.0625,18.5 96.25,18.5 Q96.9688,18.5 97.5938,18.75 Q98.2188,19 98.75,19.5 Z " fill="#000000"/><text fill="#000000" font-family="sans-serif" font-size="12" lengthAdjust="spacing" textLength="53" x="117.25" y="27.9102">Company</text><line style="stroke:#A80036;stroke-width:1.5;" x1="8" x2="247" y1="39" y2="39"/><text fill="#000000" font-family="sans-serif" font-size="11" lengthAdjust="spacing" textLength="59" x="13" y="54.4189">-designation</text><line style="stroke:#A80036;stroke-width:1.5;" x1="8" x2="247" y1="60.8359" y2="60.8359"/><text fill="#000000" font-family="sans-serif" font-size="11" lengthAdjust="spacing" textLength="229" x="13" y="76.2549">+scheduleOperationSendReport(delay, interval)</text><!--MD5=[fc967e138188cae61c82709d918fe9af]
class SendAutomaticReport--><rect codeLine="11" fill="#FEFECE" filter="url(#fiiq417rushg8)" height="75.6719" id="SendAutomaticReport" style="stroke:#A80036;stroke-width:1.5;" width="152" x="51.5" y="320"/><ellipse cx="66.5" cy="336" fill="#ADD1B2" rx="11" ry="11" style="stroke:#A80036;stroke-width:1.0;"/><path d="M68.5,332.5 Q68.7031,332 68.9375,331.75 Q69.1719,331.5 69.4375,331.5 Q69.9063,331.5 70.2031,331.7813 Q70.5,332.0625 70.5,332.7188 L70.5,334.2813 Q70.5,334.9375 70.2188,335.2188 Q69.9375,335.5 69.5,335.5 Q69.1094,335.5 68.8594,335.3281 Q68.6094,335.1563 68.5,334.7031 Q68.4531,334.3906 68.2813,334.2188 Q67.9688,333.8906 67.4063,333.7031 Q66.8438,333.5 66.2813,333.5 Q65.5781,333.5 64.9844,333.7813 Q64.4063,334.0625 63.9531,334.6875 Q63.5,335.3125 63.5,336.1719 L63.5,337.0938 Q63.5,338.125 64.3438,338.8125 Q65.1875,339.5 66.6875,339.5 Q67.5781,339.5 68.2031,339.2969 Q68.5625,339.1875 68.9688,338.8281 Q69.2344,338.625 69.375,338.5625 Q69.5156,338.5 69.6875,338.5 Q70.0156,338.5 70.25,338.7656 Q70.5,339.0156 70.5,339.375 Q70.5,339.7188 70.1563,340.125 Q69.6563,340.7188 68.8594,341.0469 Q67.8125,341.5 66.5313,341.5 Q65.0313,341.5 63.8281,340.9063 Q62.8594,340.4375 62.1719,339.4219 Q61.5,338.4063 61.5,337.2031 L61.5,336.1094 Q61.5,334.8594 62.0938,333.7656 Q62.7031,332.6719 63.75,332.0938 Q64.8125,331.5 66,331.5 Q66.7188,331.5 67.3438,331.75 Q67.9688,332 68.5,332.5 Z " fill="#000000"/><text fill="#000000" font-family="sans-serif" font-size="12" lengthAdjust="spacing" textLength="120" x="80.5" y="340.9102">SendAutomaticReport</text><line style="stroke:#A80036;stroke-width:1.5;" x1="52.5" x2="202.5" y1="352" y2="352"/><line style="stroke:#A80036;stroke-width:1.5;" x1="52.5" x2="202.5" y1="360" y2="360"/><text fill="#000000" font-family="sans-serif" font-size="11" lengthAdjust="spacing" textLength="45" x="57.5" y="375.4189">+create()</text><text fill="#000000" font-family="sans-serif" font-size="11" lengthAdjust="spacing" textLength="30" x="57.5" y="389.2549">+run()</text><!--MD5=[de0979b48e71bf3e9017f8b5a827bf4d]
class timer--><rect codeLine="16" fill="#FEFECE" filter="url(#fiiq417rushg8)" height="117.1797" id="timer" style="stroke:#A80036;stroke-width:1.5;" width="178" x="109.5" y="143"/><ellipse cx="180.25" cy="159" fill="#EB937F" rx="11" ry="11" style="stroke:#A80036;stroke-width:1.0;"/><path d="M178.75,160 L178.75,162 L182.75,162 L182.75,161 L182.75,160.5156 L183.375,160 L183.75,160 L184.125,160 L184.75,160.5156 L184.75,161 L184.75,164 L176.75,164 L176.2656,164 L175.75,163.375 L175.75,163 L175.75,162.625 L176.2656,162 L176.75,162 L176.75,162 L176.75,156 L176.75,156 L176.2656,156 L175.75,155.375 L175.75,155 L175.75,154.625 L176.2656,154 L176.75,154 L184.75,154 L184.75,157 L184.75,157.4844 L184.125,158 L183.75,158 L183.375,158 L182.75,157.4844 L182.75,157 L182.75,156 L178.75,156 L178.75,158 L179.75,158 L179.75,157.5156 L179.75,157.5156 L180.375,157 L180.75,157 L181.125,157 L181.75,157.5156 L181.75,158 L181.75,160 L181.75,160.4844 L181.125,161 L181.125,161 L180.75,161 L180.375,161 L179.75,160.4844 L179.75,160.4844 L179.75,160 L178.75,160 Z " fill="#000000"/><text fill="#000000" font-family="sans-serif" font-size="12" lengthAdjust="spacing" textLength="28" x="200.75" y="163.9102">timer</text><line style="stroke:#A80036;stroke-width:1.5;" x1="110.5" x2="286.5" y1="175" y2="175"/><text fill="#000000" font-family="sans-serif" font-size="11" lengthAdjust="spacing" textLength="34" x="115.5" y="190.4189">-DAYS</text><text fill="#000000" font-family="sans-serif" font-size="11" lengthAdjust="spacing" textLength="40" x="115.5" y="204.2549">-HOURS</text><text fill="#000000" font-family="sans-serif" font-size="11" lengthAdjust="spacing" textLength="47" x="115.5" y="218.0908">-MINUTES</text><line style="stroke:#A80036;stroke-width:1.5;" x1="110.5" x2="286.5" y1="224.5078" y2="224.5078"/><text fill="#000000" font-family="sans-serif" font-size="11" lengthAdjust="spacing" textLength="45" x="115.5" y="239.9268">+create()</text><text fill="#000000" font-family="sans-serif" font-size="11" lengthAdjust="spacing" textLength="166" x="115.5" y="253.7627">+schedule(task, firstDate, interval)</text><!--MD5=[4df9df4d6e7fb2aac30794b4a315d12f]
link Company to SendAutomaticReport--><path codeLine="25" d="M110.09,83.36 C102.79,101.03 95.15,122.67 91.5,143 C82.31,194.18 82.31,208.82 91.5,260 C94.84,278.58 101.5,298.26 108.2,315 " fill="none" id="Company-to-SendAutomaticReport" style="stroke:#A80036;stroke-width:1.0;stroke-dasharray:7.0,7.0;"/><polygon fill="#A80036" points="110.09,319.64,110.3987,309.796,108.2035,315.0095,102.99,312.8144,110.09,319.64" style="stroke:#A80036;stroke-width:1.0;"/><!--MD5=[d59ebe7a03cce96006e1b2b2a369840a]
link Company to timer--><path codeLine="26" d="M144.51,83.01 C152.11,99.55 161.28,119.51 169.89,138.24 " fill="none" id="Company-to-timer" style="stroke:#A80036;stroke-width:1.0;stroke-dasharray:7.0,7.0;"/><polygon fill="#A80036" points="172.06,142.97,171.94,133.1219,169.9738,138.426,164.6696,136.4598,172.06,142.97" style="stroke:#A80036;stroke-width:1.0;"/><!--MD5=[e60e6513ee34b556c9bc245704289065]
link timer to SendAutomaticReport--><path codeLine="27" d="M172.06,260.03 C163.7,278.22 154.62,297.98 146.85,314.89 " fill="none" id="timer-to-SendAutomaticReport" style="stroke:#A80036;stroke-width:1.0;stroke-dasharray:7.0,7.0;"/><polygon fill="#A80036" points="144.7,319.58,152.0904,313.0698,146.7862,315.036,144.82,309.7319,144.7,319.58" style="stroke:#A80036;stroke-width:1.0;"/><!--MD5=[a5c763609195908d7c46b8b96f60011c]
@startuml

skinparam classAttributeIconSize 0


class Company{
-designation

+scheduleOperationSendReport(delay, interval)
}

class SendAutomaticReport{
+create()
+run()
}

enum timer {
-DAYS
-HOURS
-MINUTES

+create()
+schedule(task, firstDate, interval)
}

Company ..> SendAutomaticReport
Company ..> timer
timer ..> SendAutomaticReport





@enduml

PlantUML version 1.2021.7(Sun May 23 13:40:07 BST 2021)
(GPL source distribution)
Java Runtime: OpenJDK Runtime Environment
JVM: Dynamic Code Evolution 64-Bit Server VM
Default Encoding: Cp1252
Language: pt
Country: PT
--></g></svg>